<?xml version="1.0" standalone="no"?>
<!DOCTYPE svg PUBLIC "-//W3C//DTD SVG 1.1//EN" "http://www.w3.org/Graphics/SVG/1.1/DTD/svg11.dtd" >
<svg xmlns="http://www.w3.org/2000/svg" xmlns:xlink="http://www.w3.org/1999/xlink" version="1.1">
<metadata>
Created by FontForge 20170731 at Tue May 10 13:40:32 2022
 By Aleksey,,,
Copyright (c) 2013 by Nico Inosanto. All rights reserved.
</metadata>
<defs>
<font id="Radikal-Black" horiz-adv-x="1280" >
  <font-face 
    font-family="Radikal Black"
    font-weight="900"
    font-stretch="normal"
    units-per-em="2048"
    panose-1="0 0 10 0 0 0 0 0 0 0"
    ascent="1638"
    descent="-410"
    x-height="1044"
    cap-height="1505"
    bbox="-393 -494 2697 2251"
    underline-thickness="102"
    underline-position="-307"
    unicode-range="U+0020-FB01"
  />
<missing-glyph horiz-adv-x="1200" 
d="M1087 0h-974v1434h974v-1434zM332 1278l266 -424l266 424h-532zM686 709l248 -387v774zM268 332l238 377l-238 376v-753zM338 156h518l-258 407z" />
    <glyph glyph-name="fi" unicode="fi" horiz-adv-x="1460" 
d="M1149 1581q92 0 151.5 -59.5t59.5 -151.5t-59.5 -151.5t-151.5 -59.5t-151.5 59.5t-59.5 151.5t59.5 151.5t151.5 59.5zM664 1556q118 0 198 -32l-92 -314q-38 21 -86 21q-49 0 -74.5 -31t-25.5 -88v-68h207v-315h-207v-729h-377v729h-176v315h176v56q0 201 124.5 328.5
t332.5 127.5zM1337 0h-376v1044h376v-1044z" />
    <glyph glyph-name="f_j" unicode="fj" horiz-adv-x="1460" 
d="M1149 1581q92 0 151.5 -59.5t59.5 -151.5t-59.5 -151.5t-151.5 -59.5t-151.5 59.5t-59.5 151.5t59.5 151.5t151.5 59.5zM664 1556q118 0 198 -32l-92 -314q-38 21 -86 21q-49 0 -74.5 -31t-25.5 -88v-68h207v-315h-207v-729h-377v729h-176v315h176v56q0 201 124.5 328.5
t332.5 127.5zM1337 1044v-1056q0 -207 -138.5 -343.5t-352.5 -136.5q-122 0 -213.5 40t-167.5 128l219 248q36 -42 72 -66t82 -24q58 0 90.5 33t32.5 92v1085h376z" />
    <glyph glyph-name=".notdef" horiz-adv-x="1200" 
d="M1087 0h-974v1434h974v-1434zM332 1278l266 -424l266 424h-532zM686 709l248 -387v774zM268 332l238 377l-238 376v-753zM338 156h518l-258 407z" />
    <glyph glyph-name=".null" horiz-adv-x="0" 
 />
    <glyph glyph-name="nonmarkingreturn" horiz-adv-x="682" 
 />
    <glyph glyph-name="space" unicode=" " horiz-adv-x="450" 
 />
    <glyph glyph-name="exclam" unicode="!" horiz-adv-x="651" 
d="M512 496h-377v1009h377v-1009zM326 395q92 0 151.5 -59.5t59.5 -151.5t-59.5 -151.5t-151.5 -59.5t-151.5 59.5t-59.5 151.5t59.5 151.5t151.5 59.5z" />
    <glyph glyph-name="quotedbl" unicode="&#x22;" horiz-adv-x="860" 
d="M440 1495l-161 -588h-136l-41 645zM870 1495l-161 -588h-136l-41 645z" />
    <glyph glyph-name="numbersign" unicode="#" horiz-adv-x="1447" 
d="M1241 1167h170v-297h-221l-43 -233h168v-301h-219l-60 -336h-374l57 336h-168l-57 -336h-379l61 336h-174v301h227l41 233h-172v297h221l62 338h375l-60 -338h168l60 338h379zM643 870l-39 -233h168l41 233h-170z" />
    <glyph glyph-name="dollar" unicode="$" horiz-adv-x="1245" 
d="M672 926q151 -30 253 -71.5t160.5 -98.5t82.5 -123t24 -156q0 -184 -103 -310.5t-290 -170.5v-260h-310v244q-306 28 -499 200l209 324q71 -79 185.5 -127.5t225.5 -48.5q193 0 193 116q0 33 -18.5 56t-73.5 45.5t-154 42.5q-149 30 -251.5 75.5t-159.5 105.5t-81 127
t-24 153q0 176 123 305t325 166v260h310v-260q239 -30 397 -142l-186 -329q-172 129 -383 129q-86 0 -140.5 -30t-54.5 -83q0 -47 49 -78.5t191 -60.5z" />
    <glyph glyph-name="percent" unicode="%" horiz-adv-x="1886" 
d="M436 1530q167 0 279 -111t112 -278t-111.5 -276t-279.5 -109q-170 0 -281.5 109t-111.5 276q0 168 111.5 278.5t281.5 110.5zM643 0h-354l958 1505h355zM436 1268q-51 0 -82.5 -35.5t-31.5 -91.5q0 -53 32 -88t82 -35q47 0 80 35.5t33 87.5q0 55 -32.5 91t-80.5 36z
M1452 748q167 0 279 -111.5t112 -278.5t-111.5 -276t-279.5 -109q-170 0 -281.5 109t-111.5 276q0 168 111.5 279t281.5 111zM1452 485q-51 0 -83 -35.5t-32 -91.5q0 -53 32 -87.5t83 -34.5q48 0 80.5 35t32.5 87q0 55 -32.5 91t-80.5 36z" />
    <glyph glyph-name="ampersand" unicode="&#x26;" horiz-adv-x="1488" 
d="M1034 0l-80 92q-165 -112 -393 -112q-103 0 -196 28.5t-165 81.5t-114.5 135.5t-42.5 182.5q0 73 17.5 130.5t55.5 105t83.5 84.5t117.5 83q-78 81 -121.5 161.5t-43.5 178.5q0 167 125 274t331 107t331.5 -107t125.5 -274q0 -41 -9.5 -79.5t-21.5 -66.5t-38 -59
t-41.5 -47.5t-51.5 -43t-49 -35.5t-51 -34l149 -168l117 162h426l-299 -432l313 -348h-475zM612 1231q-48 0 -79 -26t-31 -70q0 -25 17 -52t33 -42.5t54 -49.5q38 23 58 38.5t37.5 43.5t17.5 62q0 44 -29.5 70t-77.5 26zM586 303q81 0 145 45l-217 248q-88 -60 -88 -158
q0 -64 43 -99.5t117 -35.5z" />
    <glyph glyph-name="quotesingle" unicode="'" horiz-adv-x="430" 
d="M440 1495l-161 -588h-136l-41 645z" />
    <glyph glyph-name="parenleft" unicode="(" horiz-adv-x="708" 
d="M389 1618l289 -199q-56 -74 -95.5 -139.5t-76.5 -153.5t-55.5 -196t-18.5 -236t18.5 -236t55.5 -196t76.5 -153.5t95.5 -139.5l-289 -198q-64 86 -113 170.5t-97.5 199t-74.5 255.5t-26 298t26 298t74.5 256t97.5 199.5t113 170.5z" />
    <glyph glyph-name="parenright" unicode=")" horiz-adv-x="708" 
d="M31 1419l288 199q64 -86 113.5 -170.5t97.5 -199.5t74.5 -256t26.5 -298t-26.5 -298t-74.5 -255.5t-97.5 -199t-113.5 -170.5l-288 198q56 74 95.5 139.5t76 153.5t55 196t18.5 236t-18.5 236t-55 196t-76 153.5t-95.5 139.5z" />
    <glyph glyph-name="asterisk" unicode="*" horiz-adv-x="915" 
d="M569 1268l219 92l80 -246l-231 -55l151 -178l-206 -150l-123 180l-123 -180l-207 150l152 178l-232 55l80 246l219 -92l-18 235h258z" />
    <glyph glyph-name="plus" unicode="+" horiz-adv-x="1089" 
d="M715 887h307v-342h-307v-307h-342v307h-305v342h305v305h342v-305z" />
    <glyph glyph-name="comma" unicode="," horiz-adv-x="471" 
d="M180 410q95 0 157 -63t62 -157q0 -69 -47 -139l-252 -387h-8v729q49 17 88 17z" />
    <glyph glyph-name="hyphen" unicode="-" horiz-adv-x="790" 
d="M719 358h-647v342h647v-342z" />
    <glyph glyph-name="period" unicode="." horiz-adv-x="581" 
d="M291 418q95 0 157 -62t62 -157t-62 -157t-157 -62t-157 62t-62 157t62 157t157 62z" />
    <glyph glyph-name="slash" unicode="/" horiz-adv-x="1144" 
d="M391 0h-381l746 1505h379z" />
    <glyph glyph-name="zero" unicode="0" horiz-adv-x="1228" 
d="M614 1532q257 0 407 -210.5t150 -567.5q0 -359 -150 -570t-407 -211t-407 211t-150 570q0 357 150 567.5t407 210.5zM614 1202q-174 0 -174 -448q0 -451 174 -451t174 451q0 448 -174 448z" />
    <glyph glyph-name="one" unicode="1" horiz-adv-x="849" 
d="M715 0h-377v932l-184 -88l-150 350l703 338h8v-1532z" />
    <glyph glyph-name="two" unicode="2" horiz-adv-x="1099" 
d="M516 1532q239 0 382.5 -137t143.5 -353q0 -56 -11.5 -105.5t-39 -102t-50.5 -88t-69 -99.5l-223 -313h400v-334h-1000v12l518 811q55 85 73.5 128t18.5 96q0 69 -39 110t-104 41q-140 0 -164 -203l-342 78q84 459 506 459z" />
    <glyph glyph-name="three" unicode="3" horiz-adv-x="1073" 
d="M524 1532q228 0 368 -136.5t140 -340.5q0 -193 -149 -295q170 -99 170 -307q0 -212 -142.5 -346t-380.5 -134q-208 0 -341 114.5t-175 344.5l342 78q24 -203 172 -203q65 0 105.5 43t40.5 113t-40.5 112.5t-105.5 42.5h-155v287h155q57 3 93 43t36 103q0 66 -38.5 106.5
t-98.5 40.5q-57 0 -96 -41.5t-49 -122.5l-328 137q50 171 174 266t303 95z" />
    <glyph glyph-name="four" unicode="4" horiz-adv-x="1218" 
d="M1026 438h143v-264h-143v-174h-377v174h-667v8l1036 1350h8v-1094zM469 428h219v287z" />
    <glyph glyph-name="five" unicode="5" horiz-adv-x="1134" 
d="M1008 1171h-508v-215q37 11 80 11q86 0 161 -17t141 -55.5t113 -96t74 -143t27 -192.5q0 -220 -142 -355t-381 -135q-196 0 -332 86t-190 263l320 153q9 -85 57 -126.5t119 -41.5q73 0 121.5 48t48.5 126q0 79 -49 128.5t-127 49.5q-96 0 -154 -63l-264 115v794h885v-334
z" />
    <glyph glyph-name="six" unicode="6" horiz-adv-x="1175" 
d="M1004 1505l-314 -512q188 -33 311 -173t123 -333q0 -147 -73 -265.5t-195.5 -183.5t-269.5 -65q-146 0 -268 65t-194.5 183.5t-72.5 265.5q0 90 23.5 156t83.5 166l424 696h422zM586 303q69 0 112 49.5t43 134.5t-43.5 136t-111.5 51q-67 0 -109.5 -51t-42.5 -136
t42.5 -134.5t109.5 -49.5z" />
    <glyph glyph-name="seven" unicode="7" horiz-adv-x="1136" 
d="M1147 1493l-698 -1493h-406l551 1163h-549v342h1102v-12z" />
    <glyph glyph-name="eight" unicode="8" horiz-adv-x="1175" 
d="M586 1532q132 0 244 -56.5t178.5 -159.5t66.5 -231q0 -175 -137 -292q87 -63 136.5 -150t49.5 -186q0 -141 -73 -252.5t-195.5 -171.5t-269.5 -60q-146 0 -268 60t-194.5 171.5t-72.5 252.5q0 100 48 186.5t134 147.5q-137 115 -137 294q0 193 143 320t347 127zM586 1219
q-62 0 -102 -43t-40 -109t40 -107.5t102 -41.5q61 0 101 42t40 107q0 66 -40.5 109t-100.5 43zM586 621q-66 0 -109 -47t-43 -119t43 -118t109 -46q68 0 111.5 46t43.5 118t-44 119t-111 47z" />
    <glyph glyph-name="nine" unicode="9" horiz-adv-x="1175" 
d="M590 1532q146 0 267.5 -65t194 -183.5t72.5 -265.5q0 -90 -23 -156.5t-83 -165.5l-424 -696h-422l313 512q-188 33 -311 173t-123 333q0 147 73 265.5t196 183.5t270 65zM590 1202q-69 0 -112.5 -49.5t-43.5 -134.5t43.5 -136t112.5 -51q67 0 109 51t42 136t-42 134.5
t-109 49.5z" />
    <glyph glyph-name="colon" unicode=":" horiz-adv-x="552" 
d="M276 1065q89 0 147 -58t58 -147t-58 -147t-147 -58t-146.5 58t-57.5 147t57.5 147t146.5 58zM276 389q89 0 147 -58t58 -147t-58 -146.5t-147 -57.5t-146.5 57.5t-57.5 146.5t57.5 147t146.5 58z" />
    <glyph glyph-name="semicolon" unicode=";" horiz-adv-x="552" 
d="M276 1065q89 0 147 -58t58 -147t-58 -147t-147 -58t-146.5 58t-57.5 147t57.5 147t146.5 58zM211 389q95 0 157 -62.5t62 -156.5q0 -69 -47 -139l-252 -387h-8v729q46 16 88 16z" />
    <glyph glyph-name="less" unicode="&#x3c;" horiz-adv-x="837" 
d="M483 709l324 -394h-463l-313 390v8l313 389h463z" />
    <glyph glyph-name="equal" unicode="=" horiz-adv-x="1089" 
d="M1022 831h-954v343h954v-343zM1022 250h-954v342h954v-342z" />
    <glyph glyph-name="greater" unicode="&#x3e;" horiz-adv-x="837" 
d="M807 713v-8l-313 -390h-463l323 394l-323 393h463z" />
    <glyph glyph-name="question" unicode="?" horiz-adv-x="1128" 
d="M551 1532q113 0 211 -35t165.5 -95t105.5 -141t38 -171q0 -75 -19 -133.5t-48.5 -96t-66 -68t-73 -57t-66 -55t-48.5 -70.5t-19 -96v-18h-377v71q0 72 18 130t46.5 95t63 67t69 54t63 47t46.5 54t18 69q0 54 -37 84.5t-94 30.5q-60 0 -99.5 -41t-44.5 -100l-370 59
q42 199 174.5 307.5t343.5 108.5zM545 395q92 0 151.5 -59.5t59.5 -151.5t-59.5 -151.5t-151.5 -59.5t-151.5 59.5t-59.5 151.5t59.5 151.5t151.5 59.5z" />
    <glyph glyph-name="at" unicode="@" horiz-adv-x="1826" 
d="M911 1343q191 0 352.5 -60.5t274.5 -168t176.5 -262t63.5 -336.5q0 -209 -107 -341t-287 -132q-103 0 -179 39t-107 94l-4 6q-45 -58 -118.5 -98.5t-152.5 -40.5q-166 0 -271.5 127t-105.5 322q0 196 105.5 323t271.5 127q81 0 142 -29.5t94 -76.5l16 90h279v-582
q0 -88 73 -88q62 0 95.5 69t33.5 191q0 281 -172 452t-473 171q-284 0 -462.5 -181.5t-178.5 -465.5q0 -187 78 -333t219.5 -227.5t323.5 -81.5q141 0 262 50l53 -195q-145 -59 -315 -59q-241 0 -433.5 109t-300.5 302t-108 435q0 181 64.5 339t177.5 270.5t274 177
t346 64.5zM905 672q-66 0 -104.5 -47t-38.5 -133q0 -85 38.5 -132t104.5 -47q85 0 137 80v199q-52 80 -137 80z" />
    <glyph glyph-name="A" unicode="A" horiz-adv-x="1503" 
d="M1499 0h-436l-70 176h-504l-69 -176h-436l753 1532h8zM604 467h275l-138 352z" />
    <glyph glyph-name="B" unicode="B" horiz-adv-x="1402" 
d="M137 1505h619q221 0 352 -110.5t131 -304.5q0 -92 -34.5 -161.5t-86.5 -113.5q240 -105 240 -364q0 -141 -70.5 -245t-183 -155t-250.5 -51h-717v1505zM526 1151v-238h176q63 0 102.5 31.5t39.5 87.5t-39.5 87.5t-102.5 31.5h-176zM526 621v-267h279q71 0 114.5 35
t43.5 98t-43.5 98.5t-114.5 35.5h-279z" />
    <glyph glyph-name="C" unicode="C" horiz-adv-x="1409" 
d="M850 1532q180 0 308.5 -56t244.5 -176l-244 -282q-127 160 -309 160q-178 0 -283.5 -118t-105.5 -306q0 -189 105.5 -307.5t283.5 -118.5q183 0 309 159l242 -282q-112 -124 -246 -178t-305 -54q-169 0 -315.5 60t-249 164t-161 248t-58.5 309q0 220 99.5 397.5t279 279
t405.5 101.5z" />
    <glyph glyph-name="D" unicode="D" horiz-adv-x="1531" 
d="M137 1505h496q391 0 612 -198t221 -553q0 -356 -220 -555t-613 -199h-496v1505zM526 1149v-795h95q222 0 336 103.5t114 294.5q0 192 -113.5 294.5t-336.5 102.5h-95z" />
    <glyph glyph-name="E" unicode="E" horiz-adv-x="1234" 
d="M1139 1151h-613v-225h527v-326h-527v-246h629v-354h-1018v1505h1002v-354z" />
    <glyph glyph-name="F" unicode="F" horiz-adv-x="1161" 
d="M1110 1151h-584v-248h475v-325h-475v-578h-389v1505h973v-354z" />
    <glyph glyph-name="G" unicode="G" horiz-adv-x="1556" 
d="M850 1532q180 0 308.5 -56t244.5 -176l-244 -282q-127 160 -309 160q-178 0 -283.5 -118t-105.5 -306q0 -189 111 -307.5t298 -118.5q91 0 181 51v174h-281v334h670v-699q-218 -215 -570 -215q-231 0 -415.5 102.5t-286.5 280.5t-102 398t99.5 397.5t279 279t405.5 101.5
z" />
    <glyph glyph-name="H" unicode="H" horiz-adv-x="1560" 
d="M1423 0h-389v594h-508v-594h-389v1505h389v-557h508v557h389v-1505z" />
    <glyph glyph-name="I" unicode="I" horiz-adv-x="663" 
d="M526 0h-389v1505h389v-1505z" />
    <glyph glyph-name="J" unicode="J" horiz-adv-x="1206" 
d="M1092 1505v-1040q0 -215 -147.5 -353.5t-375.5 -138.5q-106 0 -201 36t-171 104t-121 178.5t-45 247.5h377q0 -211 147 -211q69 0 108 44t39 115v1018h390z" />
    <glyph glyph-name="K" unicode="K" horiz-adv-x="1507" 
d="M944 782l551 -782h-467l-303 436l-295 -436h-293v1505h389v-764l435 764h438z" />
    <glyph glyph-name="L" unicode="L" horiz-adv-x="1122" 
d="M526 342h586v-342h-975v1505h389v-1163z" />
    <glyph glyph-name="M" unicode="M" horiz-adv-x="1841" 
d="M1704 0h-389v483l-385 -510h-17l-387 512v-485h-389v1532h8l777 -979l774 979h8v-1532z" />
    <glyph glyph-name="N" unicode="N" horiz-adv-x="1521" 
d="M995 795v710h389v-1532h-8l-850 738v-711h-389v1532h8z" />
    <glyph glyph-name="O" unicode="O" horiz-adv-x="1699" 
d="M850 1532q165 0 310.5 -59t249.5 -161.5t164 -248.5t60 -313q0 -221 -102.5 -399t-282 -278t-399.5 -100q-222 0 -401 100t-281 278t-102 399q0 223 102 402t281 279.5t401 100.5zM850 1178q-172 0 -280.5 -119.5t-108.5 -308.5q0 -186 108.5 -304t280.5 -118t280.5 118
t108.5 304q0 189 -108.5 308.5t-280.5 119.5z" />
    <glyph glyph-name="P" unicode="P" horiz-adv-x="1380" 
d="M137 1505h660q106 0 202 -35t170 -98.5t118 -162.5t44 -218t-44 -218t-118 -162.5t-170 -98.5t-202 -35h-271v-477h-389v1505zM526 1171v-360h232q81 0 129.5 46t48.5 134q0 85 -49 132.5t-129 47.5h-232z" />
    <glyph glyph-name="Q" unicode="Q" horiz-adv-x="1699" 
d="M1315 -127l-144 164q-150 -64 -321 -64q-222 0 -401 100t-281 278t-102 399q0 223 102 402t281 279.5t401 100.5q165 0 310.5 -59t249.5 -161.5t164 -248.5t60 -313q0 -293 -176 -504l324 -373h-467zM850 328q21 0 61 4l-172 194l275 230l182 -211q43 87 43 205
q0 189 -108.5 308.5t-280.5 119.5t-280.5 -119.5t-108.5 -308.5q0 -186 108.5 -304t280.5 -118z" />
    <glyph glyph-name="R" unicode="R" horiz-adv-x="1411" 
d="M956 0l-288 500h-142v-500h-389v1505h660q106 0 202.5 -34.5t171 -97.5t118.5 -159.5t44 -212.5q0 -148 -69 -259.5t-187 -174.5l332 -567h-453zM526 834h234q80 0 129 44.5t49 122.5t-49.5 124t-128.5 46h-234v-337z" />
    <glyph glyph-name="S" unicode="S" horiz-adv-x="1259" 
d="M643 1532q165 0 317 -42t250 -112l-186 -329q-172 129 -383 129q-86 0 -140.5 -30t-54.5 -83q0 -47 49 -78.5t191 -60.5q151 -30 253 -71.5t160.5 -98.5t82.5 -123t24 -156q0 -230 -158.5 -367t-435.5 -137q-178 0 -335.5 53t-272.5 154l209 324q71 -79 186 -127.5
t226 -48.5q192 0 192 116q0 33 -18.5 56t-73.5 45.5t-154 42.5q-149 30 -251.5 75.5t-159.5 105.5t-81 127t-24 153q0 136 75 246t210 173.5t303 63.5z" />
    <glyph glyph-name="T" unicode="T" horiz-adv-x="1376" 
d="M1341 1163h-458v-1163h-389v1163h-459v342h1306v-342z" />
    <glyph glyph-name="U" unicode="U" horiz-adv-x="1429" 
d="M1311 1505v-956q0 -264 -155 -420t-441 -156t-441 156t-155 420v956h389v-930q0 -112 53.5 -179.5t153.5 -67.5t153.5 67.5t53.5 179.5v930h389z" />
    <glyph glyph-name="V" unicode="V" horiz-adv-x="1482" 
d="M745 -20h-8l-729 1525h432l301 -745l301 745h433z" />
    <glyph glyph-name="W" unicode="W" horiz-adv-x="1945" 
d="M1307 -20h-9l-325 706l-326 -706h-8l-631 1525h432l240 -678l289 678h8l289 -678l239 678h432z" />
    <glyph glyph-name="X" unicode="X" horiz-adv-x="1468" 
d="M1010 762l440 -762h-446l-271 481l-268 -481h-447l441 762l-420 743h448l246 -458l248 458h449z" />
    <glyph glyph-name="Y" unicode="Y" horiz-adv-x="1482" 
d="M938 600v-600h-389v594l-545 911h453l284 -520l285 520h453z" />
    <glyph glyph-name="Z" unicode="Z" horiz-adv-x="1236" 
d="M1171 1497l-557 -1163h578v-334h-1163v8l559 1163h-531v334h1114v-8z" />
    <glyph glyph-name="bracketleft" unicode="[" horiz-adv-x="720" 
d="M670 1282h-203v-1176h203v-292h-557v1761h557v-293z" />
    <glyph glyph-name="backslash" unicode="\" horiz-adv-x="1144" 
d="M1135 0h-381l-744 1505h379z" />
    <glyph glyph-name="bracketright" unicode="]" horiz-adv-x="720" 
d="M608 -186h-557v292h203v1176h-203v293h557v-1761z" />
    <glyph glyph-name="asciicircum" unicode="^" horiz-adv-x="1071" 
d="M1040 946h-327l-178 215l-177 -215h-327l504 610z" />
    <glyph glyph-name="underscore" unicode="_" horiz-adv-x="1617" 
d="M1546 -342h-1474v342h1474v-342z" />
    <glyph glyph-name="grave" unicode="`" horiz-adv-x="743" 
d="M713 1169h-303l-379 318h413z" />
    <glyph glyph-name="a" unicode="a" 
d="M516 1065q100 0 173 -35t112 -94l20 108h336v-1044h-336l-20 106q-39 -57 -112 -91.5t-173 -34.5q-201 0 -328 153t-127 389t127 389.5t328 153.5zM616 739q-79 0 -126.5 -57t-47.5 -160t47.5 -160t126.5 -57q104 0 164 96v242q-60 96 -164 96z" />
    <glyph glyph-name="b" unicode="b" 
d="M500 1556v-593q89 102 264 102q201 0 328 -153.5t127 -389.5t-127 -389t-328 -153q-100 0 -173 34.5t-114 91.5l-18 -106h-336v1556h377zM664 739q-105 0 -164 -98v-240q60 -96 164 -96q79 0 126.5 57t47.5 160t-47.5 160t-126.5 57z" />
    <glyph glyph-name="c" unicode="c" horiz-adv-x="1058" 
d="M614 1065q290 0 439 -248l-262 -192q-53 116 -175 116q-82 0 -128 -62.5t-46 -156.5t46 -156.5t128 -62.5q120 0 187 115l250 -178q-64 -122 -178 -191t-261 -69q-237 0 -395 154t-158 388t158 388.5t395 154.5z" />
    <glyph glyph-name="d" unicode="d" 
d="M1157 0h-336l-20 106q-39 -57 -112 -91.5t-173 -34.5q-201 0 -328 153t-127 389t127 389.5t328 153.5q175 0 264 -102v593h377v-1556zM616 739q-79 0 -126.5 -57t-47.5 -160t47.5 -160t126.5 -57q104 0 164 96v240q-59 98 -164 98z" />
    <glyph glyph-name="e" unicode="e" horiz-adv-x="1167" 
d="M608 1065q124 0 220.5 -41.5t155.5 -115t89.5 -167t30.5 -202.5v-107h-662q3 -69 53 -108t136 -39q117 0 186 86l252 -185q-159 -206 -455 -206q-247 0 -400 151.5t-153 388.5t152.5 391t394.5 154zM592 799q-66 0 -107 -45.5t-43 -110.5h291q-2 65 -39.5 110.5
t-101.5 45.5z" />
    <glyph glyph-name="f" unicode="f" horiz-adv-x="837" 
d="M664 1556q160 0 254 -59l-130 -303q-41 37 -102 37q-102 0 -102 -119v-68h207v-315h-207v-729h-377v729h-176v315h176v48q0 207 123.5 335.5t333.5 128.5z" />
    <glyph glyph-name="g" unicode="g" 
d="M516 1065q100 0 173 -35t112 -94l20 108h336v-989q0 -253 -161 -400t-431 -147q-179 0 -306.5 59.5t-229.5 170.5l243 248q65 -72 131 -112t158 -40q99 0 157.5 60.5t61.5 152.5v76q-90 -103 -264 -103q-201 0 -328 148t-127 375t127 374.5t328 147.5zM616 739
q-80 0 -127 -51.5t-47 -144.5q0 -94 47 -145.5t127 -51.5q105 0 164 98v199q-60 96 -164 96z" />
    <glyph glyph-name="h" unicode="h" horiz-adv-x="1241" 
d="M500 1556v-587q86 96 248 96q190 0 290.5 -125.5t100.5 -347.5v-592h-377v571q0 64 -31.5 103t-87.5 39q-51 0 -88.5 -26.5t-54.5 -63.5v-623h-377v1556h377z" />
    <glyph glyph-name="i" unicode="i" horiz-adv-x="622" 
d="M311 1581q92 0 151.5 -59.5t59.5 -151.5t-59.5 -151.5t-151.5 -59.5t-151.5 59.5t-59.5 151.5t59.5 151.5t151.5 59.5zM500 0h-377v1044h377v-1044z" />
    <glyph glyph-name="j" unicode="j" horiz-adv-x="622" 
d="M311 1581q92 0 151.5 -59.5t59.5 -151.5t-59.5 -151.5t-151.5 -59.5t-151.5 59.5t-59.5 151.5t59.5 151.5t151.5 59.5zM500 1044v-1056q0 -207 -139 -343.5t-353 -136.5q-122 0 -213.5 40t-167.5 128l219 248q36 -42 72 -66t82 -24q58 0 90.5 33t32.5 92v1085h377z" />
    <glyph glyph-name="k" unicode="k" horiz-adv-x="1241" 
d="M500 575l295 469h430l-318 -409l332 -635h-424l-162 305l-235 -305h-295v1556h377v-981z" />
    <glyph glyph-name="l" unicode="l" horiz-adv-x="622" 
d="M500 0h-377v1556h377v-1556z" />
    <glyph glyph-name="m" unicode="m" horiz-adv-x="1855" 
d="M1380 1065q182 0 277.5 -125.5t95.5 -347.5v-592h-377v571q0 66 -27 104t-81 38q-90 0 -142 -90v-623h-376v571q0 65 -27.5 103.5t-81.5 38.5q-89 0 -141 -90v-623h-377v1044h336l18 -104q85 125 277 125q210 0 305 -170q122 170 321 170z" />
    <glyph glyph-name="n" unicode="n" horiz-adv-x="1241" 
d="M748 1065q190 0 290.5 -125.5t100.5 -347.5v-592h-377v571q0 64 -31.5 103t-87.5 39q-51 0 -88.5 -26.5t-54.5 -63.5v-623h-377v1044h336l18 -104q36 57 106.5 91t164.5 34z" />
    <glyph glyph-name="o" unicode="o" horiz-adv-x="1247" 
d="M623 1065q160 0 289 -70.5t201.5 -195.5t72.5 -279q0 -234 -160 -387t-403 -153t-402.5 153t-159.5 387q0 235 159.5 390t402.5 155zM623 739q-78 0 -129.5 -62.5t-51.5 -156.5q0 -92 51.5 -153.5t129.5 -61.5t130 61.5t52 153.5q0 94 -52 156.5t-130 62.5z" />
    <glyph glyph-name="p" unicode="p" 
d="M764 1065q201 0 328 -153.5t127 -389.5t-127 -389t-328 -153q-175 0 -264 102v-553h-377v1515h336l18 -108q40 59 113.5 94t173.5 35zM664 739q-104 0 -164 -96v-240q59 -98 164 -98q79 0 126.5 57t47.5 160t-47.5 160t-126.5 57z" />
    <glyph glyph-name="q" unicode="q" 
d="M516 1065q100 0 173 -35t112 -94l20 108h336v-1515h-377v553q-89 -102 -264 -102q-201 0 -328 153t-127 389t127 389.5t328 153.5zM616 739q-79 0 -126.5 -57t-47.5 -160t47.5 -160t126.5 -57q105 0 164 98v240q-60 96 -164 96z" />
    <glyph glyph-name="r" unicode="r" horiz-adv-x="804" 
d="M774 692h-31q-148 0 -243 -110v-582h-377v1044h334l22 -133q40 68 117.5 111t177.5 43v-373z" />
    <glyph glyph-name="s" unicode="s" horiz-adv-x="987" 
d="M555 1065q110 0 211 -30.5t170 -84.5l-131 -258q-135 92 -250 92q-96 0 -96 -55q0 -25 31.5 -42t134.5 -42q307 -74 307 -303q0 -165 -129 -263.5t-354 -98.5q-121 0 -232 32.5t-174 89.5l137 258q115 -100 271 -100q104 0 104 55q0 29 -28 49t-115 42
q-172 43 -251 110.5t-79 185.5q0 165 125.5 264t347.5 99z" />
    <glyph glyph-name="t" unicode="t" horiz-adv-x="907" 
d="M571 1044h277v-315h-277v-305q0 -50 31.5 -79.5t85.5 -29.5q63 0 123 29l90 -295q-110 -69 -250 -69q-214 0 -335 115.5t-121 324.5v309h-177v315h177v342h376v-342z" />
    <glyph glyph-name="u" unicode="u" horiz-adv-x="1239" 
d="M1116 0h-336l-18 104q-85 -124 -281 -124q-186 0 -282.5 125t-96.5 348v591h377v-571q0 -65 29 -103t86 -38q93 0 145 90v622h377v-1044z" />
    <glyph glyph-name="v" unicode="v" horiz-adv-x="1228" 
d="M618 -20h-8l-600 1064h422l182 -411l183 411h422z" />
    <glyph glyph-name="w" unicode="w" horiz-adv-x="1601" 
d="M1063 -20h-8l-254 438l-256 -438h-8l-527 1064h422l150 -411l215 411h8l213 -411l151 411h422z" />
    <glyph glyph-name="x" unicode="x" horiz-adv-x="1140" 
d="M823 526l318 -526h-443l-135 256l-133 -256h-442l317 526l-303 518h436l125 -256l127 256h436z" />
    <glyph glyph-name="y" unicode="y" horiz-adv-x="1228" 
d="M371 -471h-430l471 801l-402 714h422l180 -411l185 411h422z" />
    <glyph glyph-name="z" unicode="z" horiz-adv-x="1019" 
d="M973 1036l-371 -721h367v-315h-926v8l371 721h-346v315h905v-8z" />
    <glyph glyph-name="braceleft" unicode="{" horiz-adv-x="708" 
d="M657 1575v-293q-93 0 -128 -55.5t-15 -149.5l16 -82q24 -119 -7.5 -201t-96.5 -100q65 -18 96.5 -100t7.5 -201l-16 -82q-20 -94 15 -149.5t128 -55.5v-292q-310 0 -427.5 150t-61.5 417l16 78q19 90 -28 152.5t-125 78.5v8q78 16 125 79t28 153l-16 78q-56 269 61.5 418
t427.5 149z" />
    <glyph glyph-name="bar" unicode="|" horiz-adv-x="538" 
d="M446 -248h-354v1680h354v-1680z" />
    <glyph glyph-name="braceright" unicode="}" horiz-adv-x="708" 
d="M51 1282v293q310 0 428 -149t62 -418l-17 -78q-19 -90 28.5 -153t125.5 -79v-8q-78 -16 -125.5 -78.5t-28.5 -152.5l17 -78q56 -269 -62 -418t-428 -149v292q93 0 128.5 55.5t15.5 149.5l-17 82q-24 119 8 201t97 100q-65 18 -97 100t-8 201l17 82q20 94 -15.5 149.5
t-128.5 55.5z" />
    <glyph glyph-name="asciitilde" unicode="~" horiz-adv-x="1259" 
d="M428 969q58 0 110.5 -16.5t90 -39.5t71 -46t68 -39.5t66.5 -16.5q66 0 112 37t72 96l211 -176q-60 -142 -166 -222.5t-232 -80.5q-61 0 -111 16.5t-83.5 39.5t-63.5 46t-67 39.5t-78 16.5q-128 0 -186 -134l-211 177q60 142 165.5 222.5t231.5 80.5z" />
    <glyph glyph-name="exclamdown" unicode="&#xa1;" horiz-adv-x="651" 
d="M326 643q-92 0 -151.5 59.5t-59.5 151.5t59.5 151.5t151.5 59.5t151.5 -59.5t59.5 -151.5t-59.5 -151.5t-151.5 -59.5zM139 543h377v-1010h-377v1010z" />
    <glyph glyph-name="cent" unicode="&#xa2;" horiz-adv-x="1067" 
d="M616 303q120 0 187 115l250 -178q-48 -91 -124 -153.5t-173 -88.5v-307h-310v311q-173 50 -279 191t-106 329t106 329t279 191v277h310v-272q188 -48 297 -230l-262 -192q-53 116 -175 116q-82 0 -128 -62.5t-46 -156.5t46 -156.5t128 -62.5z" />
    <glyph glyph-name="sterling" unicode="&#xa3;" horiz-adv-x="1265" 
d="M877 473h366q0 -230 -103.5 -351.5t-316.5 -121.5h-794v8q11 16 37 52.5t40.5 58t39 59t38.5 65.5t32.5 67t27.5 73.5t16.5 74t7 80.5t-7.5 83h-219v288h121q-19 65 -19 138q0 216 145.5 350.5t383.5 134.5q103 0 188.5 -33t142.5 -88t93.5 -116t54.5 -128l-365 -98
q-5 63 -39 100t-92 37q-62 0 -98.5 -36t-36.5 -99q0 -73 29 -162h297v-288h-211q10 -48 10 -84q0 -134 -59 -211h155q72 0 104 31.5t32 115.5z" />
    <glyph glyph-name="currency" unicode="&#xa4;" horiz-adv-x="1382" 
d="M1352 950l-236 -235q35 -84 35 -178q0 -100 -37 -181l238 -235l-238 -238l-244 242q-85 -31 -180 -31t-180 31l-242 -242l-237 238l235 235q-35 84 -35 181q0 94 35 178l-235 235l237 238l238 -240q84 35 184 35q84 0 184 -35l240 240zM690 707q-64 0 -105.5 -48.5
t-41.5 -121.5q0 -71 41.5 -118.5t105.5 -47.5t107 47.5t43 118.5q0 72 -43 121t-107 49z" />
    <glyph glyph-name="yen" unicode="&#xa5;" horiz-adv-x="1474" 
d="M1079 844h195v-269h-340v-135h340v-268h-340v-172h-389v172h-340v268h340v135h-340v269h190l-395 661h453l284 -520l285 520h453z" />
    <glyph glyph-name="brokenbar" unicode="&#xa6;" horiz-adv-x="538" 
d="M446 801h-354v631h354v-631zM446 -248h-354v631h354v-631z" />
    <glyph glyph-name="section" unicode="&#xa7;" horiz-adv-x="983" 
d="M539 1532q215 0 352 -154l-207 -225q-29 39 -62.5 58.5t-84.5 19.5q-58 0 -87.5 -28.5t-29.5 -74.5q0 -65 65 -90q20 -8 59 -13t48 -7q151 -26 243.5 -123.5t92.5 -232.5q0 -159 -129 -265q100 -79 100 -217q0 -161 -127 -274t-340 -113q-120 0 -223 44.5t-172 137.5
l223 226q61 -107 174 -107q58 0 87.5 28.5t29.5 74.5q0 50 -43 79q-17 10 -35 15t-43 8t-39 6q-153 26 -246.5 123t-93.5 234q0 78 32 145.5t91 114.5q-102 84 -102 223q0 161 127 274t340 113zM489 784q-47 0 -77.5 -34.5t-30.5 -87.5q0 -51 30.5 -85t77.5 -34
q46 0 77.5 34t31.5 85q0 52 -31.5 87t-77.5 35z" />
    <glyph glyph-name="dieresis" unicode="&#xa8;" horiz-adv-x="821" 
d="M199 1509q73 0 120.5 -47.5t47.5 -120.5t-47 -120t-121 -47t-121 47t-47 120t47.5 120.5t120.5 47.5zM623 1509q73 0 120.5 -47.5t47.5 -120.5t-47 -120t-121 -47t-121 47t-47 120t47.5 120.5t120.5 47.5z" />
    <glyph glyph-name="copyright" unicode="&#xa9;" horiz-adv-x="1441" 
d="M721 1618q139 0 261.5 -51t209.5 -140t137.5 -213.5t50.5 -265.5q0 -190 -85.5 -342.5t-236.5 -238.5t-337 -86q-188 0 -339 86t-236 238.5t-85 342.5q0 189 85 342.5t236 240.5t339 87zM721 1446q-204 0 -337.5 -143t-133.5 -355q0 -213 133 -354t338 -141
q204 0 337.5 141t133.5 354q0 212 -134 355t-337 143zM754 1315q83 0 140.5 -25t111.5 -82l-111 -135q-50 66 -141 66q-83 0 -128.5 -46.5t-45.5 -129.5q0 -87 45 -134t129 -47q86 0 141 66l109 -135q-99 -107 -250 -107q-157 0 -260 100.5t-103 256.5q0 152 103 252
t260 100z" />
    <glyph glyph-name="ordfeminine" unicode="&#xaa;" horiz-adv-x="915" 
d="M356 1544q135 0 191 -86l16 72h264v-735h-264l-16 69q-57 -84 -191 -84q-140 0 -227.5 107.5t-87.5 273.5q0 167 87.5 275t227.5 108zM438 1286q-45 0 -70.5 -31.5t-25.5 -93.5q0 -61 25.5 -93t70.5 -32q58 0 92 58v137q-32 55 -92 55z" />
    <glyph glyph-name="guillemotleft" unicode="&#xab;" horiz-adv-x="1181" 
d="M381 524l221 -413h-336l-235 409v8l235 410h336zM930 524l221 -413h-336l-235 409v8l235 410h336z" />
    <glyph glyph-name="logicalnot" unicode="&#xac;" horiz-adv-x="1310" 
d="M1239 283h-258v417h-909v258h1167v-675z" />
    <glyph glyph-name="registered" unicode="&#xae;" horiz-adv-x="1441" 
d="M721 1618q139 0 261.5 -51t209.5 -140t137.5 -213.5t50.5 -265.5q0 -190 -85.5 -342.5t-236.5 -238.5t-337 -86q-188 0 -339 86t-236 238.5t-85 342.5q0 189 85 342.5t236 240.5t339 87zM721 453q204 0 337.5 141t133.5 354q0 212 -134 355t-337 143q-204 0 -337.5 -143
t-133.5 -355q0 -213 133 -354t338 -141zM997 1073q0 -68 -31.5 -121.5t-84.5 -85.5l149 -254h-217l-127 219h-53v-219h-189v695h304q102 0 175.5 -64t73.5 -170zM633 999h94q37 0 59.5 17.5t22.5 52.5t-22.5 52.5t-59.5 17.5h-94v-140z" />
    <glyph glyph-name="macron" unicode="&#xaf;" horiz-adv-x="645" 
d="M614 1206h-583v246h583v-246z" />
    <glyph glyph-name="degree" unicode="&#xb0;" horiz-adv-x="778" 
d="M391 1530q145 0 240.5 -95.5t95.5 -240.5q0 -144 -95.5 -238t-240.5 -94q-148 0 -244 93.5t-96 238.5t96.5 240.5t243.5 95.5zM391 1305q-44 0 -72 -31.5t-28 -79.5q0 -45 28 -76t72 -31q40 0 68 31.5t28 75.5q0 47 -28 79t-68 32z" />
    <glyph glyph-name="plusminus" unicode="&#xb1;" horiz-adv-x="1089" 
d="M715 1153h307v-342h-307v-307h-342v307h-305v342h305v305h342v-305zM1022 68h-954v342h954v-342z" />
    <glyph glyph-name="two.sups" unicode="&#xb2;" horiz-adv-x="702" 
d="M344 1681q151 0 241.5 -84t90.5 -213q0 -89 -86 -213l-92 -131h178v-233h-621v6l307 490q5 8 12.5 19.5t10.5 16t8 12.5t6.5 11.5t3.5 9.5t2.5 10.5t0.5 10.5q0 24 -16.5 38.5t-45.5 14.5q-65 0 -74 -100l-241 55q51 280 315 280z" />
    <glyph glyph-name="three.sups" unicode="&#xb3;" horiz-adv-x="686" 
d="M352 1681q144 0 232 -83t88 -205q0 -96 -78 -160q84 -59 84 -162q0 -123 -88.5 -201.5t-237.5 -78.5q-275 0 -317 270l241 51q3 -86 76 -86q26 0 42 15.5t16 41.5q0 28 -14.5 45t-39.5 17h-92v198h92q24 1 38 16t14 36q0 24 -17 37.5t-43 13.5q-56 0 -59 -68l-232 97
q28 103 105.5 154.5t189.5 51.5z" />
    <glyph glyph-name="acute" unicode="&#xb4;" horiz-adv-x="743" 
d="M334 1169h-303l268 318h414z" />
    <glyph glyph-name="mu" unicode="&#xb5;" horiz-adv-x="1259" 
d="M1137 0h-336l-19 102q-87 -122 -243 -122q-27 0 -39 2v-453h-377v1515h377v-583q0 -60 29.5 -94.5t84.5 -34.5q94 0 146 90v622h377v-1044z" />
    <glyph glyph-name="paragraph" unicode="&#xb6;" horiz-adv-x="1634" 
d="M1583 1219h-162v-1444h-311v1444h-188v-1444h-312v846h-4q-117 0 -216 26.5t-176.5 78t-121 135.5t-43.5 192q0 147 73.5 250.5t198 152.5t289.5 49h973v-286z" />
    <glyph glyph-name="periodcentered" unicode="&#xb7;" horiz-adv-x="540" 
d="M270 745q95 0 157 -62t62 -157t-62 -157t-157 -62t-157 62t-62 157t62 157t157 62z" />
    <glyph glyph-name="cedilla" unicode="&#xb8;" horiz-adv-x="514" 
d="M317 53l-38 -114q215 -15 215 -187q0 -104 -74.5 -163.5t-175.5 -59.5q-66 0 -115.5 18.5t-97.5 57.5l88 121q55 -48 106 -48q32 0 52 18.5t20 49.5q0 68 -98 68q-51 0 -101 -13l-6 9l82 258z" />
    <glyph glyph-name="one.sups" unicode="&#xb9;" horiz-adv-x="569" 
d="M496 807h-267v471l-90 -35l-104 250l457 188h4v-874z" />
    <glyph glyph-name="ordmasculine" unicode="&#xba;" horiz-adv-x="882" 
d="M440 1544q172 0 287 -109.5t115 -273.5q0 -165 -115 -273t-287 -108t-285.5 108t-113.5 273q0 164 113.5 273.5t285.5 109.5zM440 1286q-43 0 -70.5 -35.5t-27.5 -89.5t27.5 -89.5t70.5 -35.5t72 35.5t29 89.5t-29 89.5t-72 35.5z" />
    <glyph glyph-name="guillemotright" unicode="&#xbb;" horiz-adv-x="1181" 
d="M602 528v-8l-235 -409h-336l221 413l-221 414h336zM1151 528v-8l-236 -409h-335l221 413l-221 414h335z" />
    <glyph glyph-name="onequarter" unicode="&#xbc;" horiz-adv-x="1644" 
d="M664 0h-340l745 1505h338zM496 602h-267v471l-90 -35l-104 250l457 189h4v-875zM1563 252h71v-182h-71v-70h-267v70h-422v2l685 805h4v-625zM1198 233h137v152z" />
    <glyph glyph-name="onehalf" unicode="&#xbd;" horiz-adv-x="1761" 
d="M612 0h-340l746 1505h338zM496 602h-267v471l-90 -35l-104 250l457 189h4v-875zM1403 874q151 0 241.5 -83.5t90.5 -212.5q0 -89 -86 -213l-93 -132h179v-233h-621v6l307 490q4 6 10 15.5t8.5 13.5t7 11t6 10t4.5 8t3.5 8t1.5 7.5t1.5 8t0.5 8.5q0 24 -16 38.5t-45 14.5
q-65 0 -74 -100l-242 55q51 280 316 280z" />
    <glyph glyph-name="threequarters" unicode="&#xbe;" horiz-adv-x="1761" 
d="M786 0h-340l746 1505h338zM352 1477q144 0 232 -83.5t88 -205.5q0 -96 -78 -160q84 -59 84 -162q0 -123 -88.5 -201.5t-237.5 -78.5q-275 0 -317 270l241 51q3 -86 76 -86q26 0 42 16t16 42q0 28 -14.5 44.5t-39.5 16.5h-92v199h92q24 1 38 15.5t14 35.5q0 24 -17 37.5
t-43 13.5q-56 0 -59 -67l-232 96q29 103 106 155t189 52zM1679 252h72v-182h-72v-70h-266v70h-422v2l684 805h4v-625zM1315 233h137v152z" />
    <glyph glyph-name="questiondown" unicode="&#xbf;" horiz-adv-x="1128" 
d="M584 643q-92 0 -151.5 59.5t-59.5 151.5t59.5 151.5t151.5 59.5t151.5 -59.5t59.5 -151.5t-59.5 -151.5t-151.5 -59.5zM578 -494q-151 0 -271 60.5t-185 161t-65 221.5q0 75 19 133.5t48.5 96t66 67.5t73 56.5t66 55t48.5 70.5t19 96v19h377v-72q0 -72 -18 -130
t-46.5 -95t-63 -67t-68.5 -54t-62.5 -47t-46.5 -54t-18 -69q0 -54 37 -84.5t94 -30.5q60 0 99 41.5t44 100.5l371 -60q-42 -199 -174.5 -307.5t-343.5 -108.5z" />
    <glyph glyph-name="Agrave" unicode="&#xc0;" horiz-adv-x="1503" 
d="M907 1602h-344l-338 251h434zM1499 0h-436l-70 176h-504l-69 -176h-436l753 1532h8zM604 467h275l-138 352z" />
    <glyph glyph-name="Aacute" unicode="&#xc1;" horiz-adv-x="1503" 
d="M885 1602h-344l247 251h435zM1499 0h-436l-70 176h-504l-69 -176h-436l753 1532h8zM604 467h275l-138 352z" />
    <glyph glyph-name="Acircumflex" unicode="&#xc2;" horiz-adv-x="1503" 
d="M1122 1602h-276l-105 84l-104 -84h-277l381 331zM1499 0h-436l-70 176h-504l-69 -176h-436l753 1532h8zM604 467h275l-138 352z" />
    <glyph glyph-name="Atilde" unicode="&#xc3;" horiz-adv-x="1503" 
d="M629 1931q44 0 85 -20t65.5 -43.5t52 -43.5t47.5 -20q33 0 46 28t13 87h184q0 -157 -76.5 -242.5t-189.5 -85.5q-48 0 -86 20t-58 43.5t-46 43.5t-52 20q-40 0 -53.5 -26t-13.5 -88h-185q0 162 76 244.5t191 82.5zM1499 0h-436l-70 176h-504l-69 -176h-436l753 1532h8z
M604 467h275l-138 352z" />
    <glyph glyph-name="Adieresis" unicode="&#xc4;" horiz-adv-x="1503" 
d="M530 1913q74 0 121 -47.5t47 -120.5t-47 -120.5t-121 -47.5t-121 47.5t-47 120.5t47 120.5t121 47.5zM954 1913q74 0 121 -47.5t47 -120.5t-47 -120.5t-121 -47.5t-121 47.5t-47 120.5t47 120.5t121 47.5zM1499 0h-436l-70 176h-504l-69 -176h-436l753 1532h8zM604 467
h275l-138 352z" />
    <glyph glyph-name="Aring" unicode="&#xc5;" horiz-adv-x="1503" 
d="M743 2126q116 0 192.5 -76.5t76.5 -191.5t-76.5 -190t-192.5 -75q-117 0 -193.5 75t-76.5 190q0 116 76.5 192t193.5 76zM743 1935q-31 0 -51 -21.5t-20 -55.5q0 -32 20 -53t51 -21q30 0 50 21t20 53q0 33 -20 55t-50 22zM1499 0h-436l-70 176h-504l-69 -176h-436
l753 1532h8zM604 467h275l-138 352z" />
    <glyph glyph-name="AE" unicode="&#xc6;" horiz-adv-x="1853" 
d="M1757 1151h-717l88 -225h543v-326h-407l100 -246h410v-354h-691l-69 176h-504l-70 -176h-436l680 1505h1073v-354zM625 467h274l-137 352z" />
    <glyph glyph-name="Ccedilla" unicode="&#xc7;" horiz-adv-x="1409" 
d="M850 328q183 0 309 159l242 -282q-112 -124 -246 -178t-305 -54h-19l-12 -34q215 -15 215 -187q0 -104 -74.5 -163.5t-175.5 -59.5q-66 0 -115.5 18.5t-97.5 57.5l88 121q55 -48 107 -48q32 0 52 18.5t20 49.5q0 68 -99 68q-50 0 -100 -13l-6 9l57 178q-280 53 -452 263
t-172 503q0 220 99.5 397.5t279 279t405.5 101.5q180 0 308.5 -56t244.5 -176l-244 -282q-127 160 -309 160q-178 0 -283.5 -118t-105.5 -306q0 -189 105.5 -307.5t283.5 -118.5z" />
    <glyph glyph-name="Egrave" unicode="&#xc8;" horiz-adv-x="1234" 
d="M831 1602h-344l-337 251h434zM1139 1151h-613v-225h527v-326h-527v-246h629v-354h-1018v1505h1002v-354z" />
    <glyph glyph-name="Eacute" unicode="&#xc9;" horiz-adv-x="1234" 
d="M809 1602h-344l248 251h434zM1139 1151h-613v-225h527v-326h-527v-246h629v-354h-1018v1505h1002v-354z" />
    <glyph glyph-name="Ecircumflex" unicode="&#xca;" horiz-adv-x="1234" 
d="M1047 1602h-277l-104 84l-105 -84h-276l381 331zM1139 1151h-613v-225h527v-326h-527v-246h629v-354h-1018v1505h1002v-354z" />
    <glyph glyph-name="Edieresis" unicode="&#xcb;" horiz-adv-x="1234" 
d="M455 1913q73 0 120.5 -47.5t47.5 -120.5t-47.5 -120.5t-120.5 -47.5t-120.5 47.5t-47.5 120.5t47.5 120.5t120.5 47.5zM879 1913q73 0 120.5 -47.5t47.5 -120.5t-47.5 -120.5t-120.5 -47.5t-120.5 47.5t-47.5 120.5t47.5 120.5t120.5 47.5zM1139 1151h-613v-225h527v-326
h-527v-246h629v-354h-1018v1505h1002v-354z" />
    <glyph glyph-name="Igrave" unicode="&#xcc;" horiz-adv-x="663" 
d="M498 1602h-344l-338 251h434zM526 0h-389v1505h389v-1505z" />
    <glyph glyph-name="Iacute" unicode="&#xcd;" horiz-adv-x="663" 
d="M475 1602h-344l248 251h434zM526 0h-389v1505h389v-1505z" />
    <glyph glyph-name="Icircumflex" unicode="&#xce;" horiz-adv-x="663" 
d="M713 1602h-277l-104 84l-105 -84h-276l381 331zM526 0h-389v1505h389v-1505z" />
    <glyph glyph-name="Idieresis" unicode="&#xcf;" horiz-adv-x="663" 
d="M121 1913q73 0 120.5 -47.5t47.5 -120.5t-47.5 -120.5t-120.5 -47.5t-120.5 47.5t-47.5 120.5t47.5 120.5t120.5 47.5zM545 1913q73 0 120.5 -47.5t47.5 -120.5t-47.5 -120.5t-120.5 -47.5t-120.5 47.5t-47.5 120.5t47.5 120.5t120.5 47.5zM526 0h-389v1505h389v-1505z
" />
    <glyph glyph-name="Eth" unicode="&#xd0;" horiz-adv-x="1564" 
d="M170 1505h496q391 0 612 -198t221 -553q0 -356 -220 -555t-613 -199h-496v655h-164v246h164v604zM559 354h94q223 0 337 104t114 294q0 191 -114 294t-337 103h-94v-248h191v-246h-191v-301z" />
    <glyph glyph-name="Ntilde" unicode="&#xd1;" horiz-adv-x="1521" 
d="M647 1931q44 0 85 -20t65.5 -43.5t52 -43.5t47.5 -20q33 0 46 28t13 87h185q0 -156 -77 -242t-190 -86q-39 0 -71 13t-52.5 31.5t-38 37.5t-37.5 32t-42 13q-40 0 -54 -26.5t-14 -87.5h-184q0 162 76 244.5t190 82.5zM995 795v710h389v-1532h-8l-850 738v-711h-389v1532
h8z" />
    <glyph glyph-name="Ograve" unicode="&#xd2;" horiz-adv-x="1699" 
d="M1016 1622h-344l-338 252h434zM850 1532q165 0 310.5 -59t249.5 -161.5t164 -248.5t60 -313q0 -221 -102.5 -399t-282 -278t-399.5 -100q-222 0 -401 100t-281 278t-102 399q0 223 102 402t281 279.5t401 100.5zM850 1178q-172 0 -280.5 -119.5t-108.5 -308.5
q0 -186 108.5 -304t280.5 -118t280.5 118t108.5 304q0 189 -108.5 308.5t-280.5 119.5z" />
    <glyph glyph-name="Oacute" unicode="&#xd3;" horiz-adv-x="1699" 
d="M993 1622h-344l248 252h434zM850 1532q165 0 310.5 -59t249.5 -161.5t164 -248.5t60 -313q0 -221 -102.5 -399t-282 -278t-399.5 -100q-222 0 -401 100t-281 278t-102 399q0 223 102 402t281 279.5t401 100.5zM850 1178q-172 0 -280.5 -119.5t-108.5 -308.5
q0 -186 108.5 -304t280.5 -118t280.5 118t108.5 304q0 189 -108.5 308.5t-280.5 119.5z" />
    <glyph glyph-name="Ocircumflex" unicode="&#xd4;" horiz-adv-x="1699" 
d="M1231 1622h-277l-104 84l-105 -84h-276l381 332zM850 1532q165 0 310.5 -59t249.5 -161.5t164 -248.5t60 -313q0 -221 -102.5 -399t-282 -278t-399.5 -100q-222 0 -401 100t-281 278t-102 399q0 223 102 402t281 279.5t401 100.5zM850 1178q-172 0 -280.5 -119.5
t-108.5 -308.5q0 -186 108.5 -304t280.5 -118t280.5 118t108.5 304q0 189 -108.5 308.5t-280.5 119.5z" />
    <glyph glyph-name="Otilde" unicode="&#xd5;" horiz-adv-x="1699" 
d="M737 1952q44 0 85 -20t65.5 -43.5t52 -43.5t47.5 -20q33 0 46.5 27.5t13.5 86.5h184q0 -156 -76.5 -241.5t-189.5 -85.5q-48 0 -86 20t-58 43.5t-46 43.5t-52 20q-40 0 -54 -26.5t-14 -88.5h-184q0 162 76 245t190 83zM850 1532q165 0 310.5 -59t249.5 -161.5t164 -248.5
t60 -313q0 -221 -102.5 -399t-282 -278t-399.5 -100q-222 0 -401 100t-281 278t-102 399q0 223 102 402t281 279.5t401 100.5zM850 1178q-172 0 -280.5 -119.5t-108.5 -308.5q0 -186 108.5 -304t280.5 -118t280.5 118t108.5 304q0 189 -108.5 308.5t-280.5 119.5z" />
    <glyph glyph-name="Odieresis" unicode="&#xd6;" horiz-adv-x="1699" 
d="M639 1933q73 0 120.5 -47.5t47.5 -120.5t-47.5 -120.5t-120.5 -47.5t-120.5 47.5t-47.5 120.5t47.5 120.5t120.5 47.5zM1063 1933q73 0 120.5 -47.5t47.5 -120.5t-47.5 -120.5t-120.5 -47.5t-120.5 47.5t-47.5 120.5t47.5 120.5t120.5 47.5zM850 1532q165 0 310.5 -59
t249.5 -161.5t164 -248.5t60 -313q0 -221 -102.5 -399t-282 -278t-399.5 -100q-222 0 -401 100t-281 278t-102 399q0 223 102 402t281 279.5t401 100.5zM850 1178q-172 0 -280.5 -119.5t-108.5 -308.5q0 -186 108.5 -304t280.5 -118t280.5 118t108.5 304q0 189 -108.5 308.5
t-280.5 119.5z" />
    <glyph glyph-name="multiply" unicode="&#xd7;" horiz-adv-x="1062" 
d="M999 942l-227 -227l227 -228l-241 -241l-228 227l-225 -225l-242 241l226 226l-226 225l242 242l225 -226l228 228z" />
    <glyph glyph-name="Oslash" unicode="&#xd8;" horiz-adv-x="1679" 
d="M1528 1669l-172 -309q131 -108 204.5 -265.5t73.5 -344.5q0 -221 -102.5 -399t-282 -278t-399.5 -100q-128 0 -244 35l-96 -172h-332l170 305q-133 106 -207.5 264t-74.5 345q0 223 102 402t281 279.5t401 100.5q135 0 250 -37l96 174h332zM461 750q0 -154 78 -265
l381 686q-40 7 -70 7q-172 0 -280.5 -119.5t-108.5 -308.5zM850 328q172 0 280.5 118t108.5 304q0 154 -74 264l-379 -682q40 -4 64 -4z" />
    <glyph glyph-name="Ugrave" unicode="&#xd9;" horiz-adv-x="1429" 
d="M881 1602h-344l-338 251h434zM1311 1505v-956q0 -264 -155 -420t-441 -156t-441 156t-155 420v956h389v-930q0 -112 53.5 -179.5t153.5 -67.5t153.5 67.5t53.5 179.5v930h389z" />
    <glyph glyph-name="Uacute" unicode="&#xda;" horiz-adv-x="1429" 
d="M858 1602h-344l248 251h434zM1311 1505v-956q0 -264 -155 -420t-441 -156t-441 156t-155 420v956h389v-930q0 -112 53.5 -179.5t153.5 -67.5t153.5 67.5t53.5 179.5v930h389z" />
    <glyph glyph-name="Ucircumflex" unicode="&#xdb;" horiz-adv-x="1429" 
d="M1096 1602h-277l-104 84l-105 -84h-276l381 331zM1311 1505v-956q0 -264 -155 -420t-441 -156t-441 156t-155 420v956h389v-930q0 -112 53.5 -179.5t153.5 -67.5t153.5 67.5t53.5 179.5v930h389z" />
    <glyph glyph-name="Udieresis" unicode="&#xdc;" horiz-adv-x="1429" 
d="M504 1913q74 0 121 -47.5t47 -120.5t-47 -120.5t-121 -47.5t-121 47.5t-47 120.5t47 120.5t121 47.5zM928 1913q74 0 121 -47.5t47 -120.5t-47 -120.5t-121 -47.5t-121 47.5t-47 120.5t47 120.5t121 47.5zM1311 1505v-956q0 -264 -155 -420t-441 -156t-441 156t-155 420
v956h389v-930q0 -112 53.5 -179.5t153.5 -67.5t153.5 67.5t53.5 179.5v930h389z" />
    <glyph glyph-name="Yacute" unicode="&#xdd;" horiz-adv-x="1482" 
d="M885 1602h-344l247 251h435zM938 600v-600h-389v594l-545 911h453l284 -520l285 520h453z" />
    <glyph glyph-name="Thorn" unicode="&#xde;" horiz-adv-x="1298" 
d="M526 1268h209q138 0 253 -54t188 -163.5t73 -255.5t-73 -255.5t-188 -163.5t-253 -54h-209v-322h-389v1505h389v-237zM526 934v-279h170q71 0 114.5 36.5t43.5 103.5q0 66 -43.5 102.5t-114.5 36.5h-170z" />
    <glyph glyph-name="germandbls" unicode="&#xdf;" horiz-adv-x="1361" 
d="M680 1532q242 0 385 -127.5t143 -329.5q0 -162 -114 -254q92 -37 152.5 -129.5t60.5 -236.5q0 -219 -144 -350.5t-393 -131.5q-106 0 -190 33l59 330q60 -29 117 -29q67 0 111 42.5t44 109.5q0 109 -129 147q-52 15 -127 15v282q55 0 101 31q61 41 61 113
q0 70 -46.5 111.5t-113.5 41.5q-70 0 -113.5 -46t-43.5 -134v-1020h-377v997q0 152 77 276t204 191.5t276 67.5z" />
    <glyph glyph-name="agrave" unicode="&#xe0;" 
d="M784 1169h-303l-379 318h414zM516 1065q100 0 173 -35t112 -94l20 108h336v-1044h-336l-20 106q-39 -57 -112 -91.5t-173 -34.5q-201 0 -328 153t-127 389t127 389.5t328 153.5zM616 739q-79 0 -126.5 -57t-47.5 -160t47.5 -160t126.5 -57q104 0 164 96v242
q-60 96 -164 96z" />
    <glyph glyph-name="aacute" unicode="&#xe1;" 
d="M748 1169h-304l269 318h413zM516 1065q100 0 173 -35t112 -94l20 108h336v-1044h-336l-20 106q-39 -57 -112 -91.5t-173 -34.5q-201 0 -328 153t-127 389t127 389.5t328 153.5zM616 739q-79 0 -126.5 -57t-47.5 -160t47.5 -160t126.5 -57q104 0 164 96v242
q-60 96 -164 96z" />
    <glyph glyph-name="acircumflex" unicode="&#xe2;" 
d="M983 1174h-266l-94 104l-95 -104h-266l361 432zM516 1065q100 0 173 -35t112 -94l20 108h336v-1044h-336l-20 106q-39 -57 -112 -91.5t-173 -34.5q-201 0 -328 153t-127 389t127 389.5t328 153.5zM616 739q-79 0 -126.5 -57t-47.5 -160t47.5 -160t126.5 -57q104 0 164 96
v242q-60 96 -164 96z" />
    <glyph glyph-name="atilde" unicode="&#xe3;" 
d="M510 1528q44 0 85 -20t65.5 -43.5t52 -43.5t47.5 -20q33 0 46 28t13 87h185q0 -166 -77 -257.5t-190 -91.5q-39 0 -71 13t-52.5 31.5t-38 37.5t-37.5 32t-42 13q-40 0 -54 -26.5t-14 -87.5h-184q0 173 75.5 260.5t190.5 87.5zM516 1065q100 0 173 -35t112 -94l20 108h336
v-1044h-336l-20 106q-39 -57 -112 -91.5t-173 -34.5q-201 0 -328 153t-127 389t127 389.5t328 153.5zM616 739q-79 0 -126.5 -57t-47.5 -160t47.5 -160t126.5 -57q104 0 164 96v242q-60 96 -164 96z" />
    <glyph glyph-name="adieresis" unicode="&#xe4;" 
d="M412 1509q74 0 121 -47.5t47 -120.5t-47 -120t-121 -47t-121 47t-47 120t47 120.5t121 47.5zM836 1509q74 0 121 -47.5t47 -120.5t-47 -120t-121 -47t-121 47t-47 120t47 120.5t121 47.5zM516 1065q100 0 173 -35t112 -94l20 108h336v-1044h-336l-20 106
q-39 -57 -112 -91.5t-173 -34.5q-201 0 -328 153t-127 389t127 389.5t328 153.5zM616 739q-79 0 -126.5 -57t-47.5 -160t47.5 -160t126.5 -57q104 0 164 96v242q-60 96 -164 96z" />
    <glyph glyph-name="aring" unicode="&#xe5;" 
d="M625 1692q115 0 191.5 -76.5t76.5 -192.5q0 -115 -76 -189.5t-192 -74.5q-117 0 -194 74.5t-77 189.5q0 116 77 192.5t194 76.5zM625 1501q-31 0 -51.5 -22t-20.5 -56q0 -32 20.5 -52.5t51.5 -20.5q30 0 49.5 20.5t19.5 52.5q0 34 -20 56t-49 22zM516 1065q100 0 173 -35
t112 -94l20 108h336v-1044h-336l-20 106q-39 -57 -112 -91.5t-173 -34.5q-201 0 -328 153t-127 389t127 389.5t328 153.5zM616 739q-79 0 -126.5 -57t-47.5 -160t47.5 -160t126.5 -57q104 0 164 96v242q-60 96 -164 96z" />
    <glyph glyph-name="ae" unicode="&#xe6;" horiz-adv-x="1957" 
d="M1419 1065q95 0 174 -27.5t134 -75.5t93 -114.5t56 -144t18 -164.5v-105h-688q43 -149 217 -149q59 0 112.5 24.5t84.5 65.5l240 -209q-84 -96 -188.5 -141t-246.5 -45q-94 0 -167 34t-109 90l-16 -104h-312l-20 106q-39 -57 -112 -91.5t-173 -34.5q-201 0 -328 153
t-127 389t127 389.5t328 153.5q100 0 173 -35t112 -94l20 108h316l18 -104q38 56 105.5 90.5t158.5 34.5zM1364 799q-63 0 -104.5 -42.5t-55.5 -113.5h320q-2 64 -46 110t-114 46zM616 739q-79 0 -126.5 -57t-47.5 -160t47.5 -160t126.5 -57q104 0 164 96v242
q-60 96 -164 96z" />
    <glyph glyph-name="ccedilla" unicode="&#xe7;" horiz-adv-x="1058" 
d="M616 303q120 0 187 115l250 -178q-63 -121 -174.5 -190t-255.5 -70l-15 -41q215 -15 215 -187q0 -104 -74.5 -163.5t-175.5 -59.5q-66 0 -115.5 18.5t-97.5 57.5l89 121q55 -48 106 -48q32 0 52 18.5t20 49.5q0 68 -99 68q-50 0 -100 -13l-6 9l59 184q-188 42 -304 186
t-116 342q0 234 158 388.5t395 154.5q290 0 439 -248l-262 -192q-53 116 -175 116q-82 0 -128 -62.5t-46 -156.5t46 -156.5t128 -62.5z" />
    <glyph glyph-name="egrave" unicode="&#xe8;" horiz-adv-x="1167" 
d="M762 1169h-303l-379 318h414zM608 1065q124 0 220.5 -41.5t155.5 -115t89.5 -167t30.5 -202.5v-107h-662q3 -69 53 -108t136 -39q117 0 186 86l252 -185q-159 -206 -455 -206q-247 0 -400 151.5t-153 388.5t152.5 391t394.5 154zM592 799q-66 0 -107 -45.5t-43 -110.5
h291q-2 65 -39.5 110.5t-101.5 45.5z" />
    <glyph glyph-name="eacute" unicode="&#xe9;" horiz-adv-x="1167" 
d="M725 1169h-303l268 318h414zM608 1065q124 0 220.5 -41.5t155.5 -115t89.5 -167t30.5 -202.5v-107h-662q3 -69 53 -108t136 -39q117 0 186 86l252 -185q-159 -206 -455 -206q-247 0 -400 151.5t-153 388.5t152.5 391t394.5 154zM592 799q-66 0 -107 -45.5t-43 -110.5h291
q-2 65 -39.5 110.5t-101.5 45.5z" />
    <glyph glyph-name="ecircumflex" unicode="&#xea;" horiz-adv-x="1167" 
d="M961 1174h-267l-94 104l-94 -104h-266l360 432zM608 1065q124 0 220.5 -41.5t155.5 -115t89.5 -167t30.5 -202.5v-107h-662q3 -69 53 -108t136 -39q117 0 186 86l252 -185q-159 -206 -455 -206q-247 0 -400 151.5t-153 388.5t152.5 391t394.5 154zM592 799
q-66 0 -107 -45.5t-43 -110.5h291q-2 65 -39.5 110.5t-101.5 45.5z" />
    <glyph glyph-name="edieresis" unicode="&#xeb;" horiz-adv-x="1167" 
d="M389 1509q73 0 120.5 -47.5t47.5 -120.5t-47 -120t-121 -47t-121 47t-47 120t47.5 120.5t120.5 47.5zM813 1509q73 0 120.5 -47.5t47.5 -120.5t-47 -120t-121 -47t-121 47t-47 120t47.5 120.5t120.5 47.5zM608 1065q124 0 220.5 -41.5t155.5 -115t89.5 -167t30.5 -202.5
v-107h-662q3 -69 53 -108t136 -39q117 0 186 86l252 -185q-159 -206 -455 -206q-247 0 -400 151.5t-153 388.5t152.5 391t394.5 154zM592 799q-66 0 -107 -45.5t-43 -110.5h291q-2 65 -39.5 110.5t-101.5 45.5z" />
    <glyph glyph-name="igrave" unicode="&#xec;" horiz-adv-x="622" 
d="M473 1169h-303l-379 318h414zM500 0h-377v1044h377v-1044z" />
    <glyph glyph-name="iacute" unicode="&#xed;" horiz-adv-x="622" 
d="M436 1169h-303l268 318h414zM500 0h-377v1044h377v-1044z" />
    <glyph glyph-name="icircumflex" unicode="&#xee;" horiz-adv-x="622" 
d="M672 1174h-266l-95 104l-94 -104h-266l360 432zM500 0h-377v1044h377v-1044z" />
    <glyph glyph-name="idieresis" unicode="&#xef;" horiz-adv-x="622" 
d="M100 1509q74 0 121 -47.5t47 -120.5t-47 -120t-121 -47t-121 47t-47 120t47 120.5t121 47.5zM524 1509q74 0 121 -47.5t47 -120.5t-47 -120t-121 -47t-121 47t-47 120t47 120.5t121 47.5zM500 0h-377v1044h377v-1044z" />
    <glyph glyph-name="eth" unicode="&#xf0;" horiz-adv-x="1222" 
d="M905 1094l201 -359q63 -115 63 -248q0 -108 -42 -202.5t-114.5 -161t-175 -105t-219.5 -38.5q-237 0 -392.5 144t-155.5 363q0 193 122.5 331.5t317.5 172.5l-57 103h-363v268h213l-108 194h450l109 -194h364v-268h-213zM618 287q76 0 126.5 56.5t50.5 143.5
q0 89 -51 148t-126 59q-74 0 -123 -59t-49 -148q0 -87 49 -143.5t123 -56.5z" />
    <glyph glyph-name="ntilde" unicode="&#xf1;" horiz-adv-x="1241" 
d="M518 1528q44 0 85 -20t65.5 -43.5t52 -43.5t47.5 -20q33 0 46 28t13 87h185q0 -166 -77 -257.5t-190 -91.5q-39 0 -71 13t-52.5 31.5t-38 37.5t-37.5 32t-42 13q-40 0 -54 -26.5t-14 -87.5h-184q0 173 75.5 260.5t190.5 87.5zM748 1065q190 0 290.5 -125.5t100.5 -347.5
v-592h-377v571q0 64 -31.5 103t-87.5 39q-51 0 -88.5 -26.5t-54.5 -63.5v-623h-377v1044h336l18 -104q36 57 106.5 91t164.5 34z" />
    <glyph glyph-name="ograve" unicode="&#xf2;" horiz-adv-x="1247" 
d="M784 1169h-303l-379 318h414zM623 1065q160 0 289 -70.5t201.5 -195.5t72.5 -279q0 -234 -160 -387t-403 -153t-402.5 153t-159.5 387q0 235 159.5 390t402.5 155zM623 739q-78 0 -129.5 -62.5t-51.5 -156.5q0 -92 51.5 -153.5t129.5 -61.5t130 61.5t52 153.5
q0 94 -52 156.5t-130 62.5z" />
    <glyph glyph-name="oacute" unicode="&#xf3;" horiz-adv-x="1247" 
d="M748 1169h-304l269 318h413zM623 1065q160 0 289 -70.5t201.5 -195.5t72.5 -279q0 -234 -160 -387t-403 -153t-402.5 153t-159.5 387q0 235 159.5 390t402.5 155zM623 739q-78 0 -129.5 -62.5t-51.5 -156.5q0 -92 51.5 -153.5t129.5 -61.5t130 61.5t52 153.5
q0 94 -52 156.5t-130 62.5z" />
    <glyph glyph-name="ocircumflex" unicode="&#xf4;" horiz-adv-x="1247" 
d="M983 1174h-266l-94 104l-95 -104h-266l361 432zM623 1065q160 0 289 -70.5t201.5 -195.5t72.5 -279q0 -234 -160 -387t-403 -153t-402.5 153t-159.5 387q0 235 159.5 390t402.5 155zM623 739q-78 0 -129.5 -62.5t-51.5 -156.5q0 -92 51.5 -153.5t129.5 -61.5t130 61.5
t52 153.5q0 94 -52 156.5t-130 62.5z" />
    <glyph glyph-name="otilde" unicode="&#xf5;" horiz-adv-x="1247" 
d="M510 1528q44 0 85 -20t65.5 -43.5t52 -43.5t47.5 -20q33 0 46 28t13 87h185q0 -166 -77 -257.5t-190 -91.5q-39 0 -71 13t-52.5 31.5t-38 37.5t-37.5 32t-42 13q-40 0 -54 -26.5t-14 -87.5h-184q0 173 75.5 260.5t190.5 87.5zM623 1065q160 0 289 -70.5t201.5 -195.5
t72.5 -279q0 -234 -160 -387t-403 -153t-402.5 153t-159.5 387q0 235 159.5 390t402.5 155zM623 739q-78 0 -129.5 -62.5t-51.5 -156.5q0 -92 51.5 -153.5t129.5 -61.5t130 61.5t52 153.5q0 94 -52 156.5t-130 62.5z" />
    <glyph glyph-name="odieresis" unicode="&#xf6;" horiz-adv-x="1247" 
d="M412 1509q74 0 121 -47.5t47 -120.5t-47 -120t-121 -47t-121 47t-47 120t47 120.5t121 47.5zM836 1509q74 0 121 -47.5t47 -120.5t-47 -120t-121 -47t-121 47t-47 120t47 120.5t121 47.5zM623 1065q160 0 289 -70.5t201.5 -195.5t72.5 -279q0 -234 -160 -387t-403 -153
t-402.5 153t-159.5 387q0 235 159.5 390t402.5 155zM623 739q-78 0 -129.5 -62.5t-51.5 -156.5q0 -92 51.5 -153.5t129.5 -61.5t130 61.5t52 153.5q0 94 -52 156.5t-130 62.5z" />
    <glyph glyph-name="divide" unicode="&#xf7;" horiz-adv-x="1089" 
d="M543 1384q91 0 150 -58.5t59 -149.5q0 -89 -59 -148t-150 -59q-89 0 -148 59t-59 148q0 90 59 149t148 59zM1022 545h-954v342h954v-342zM543 463q91 0 150 -59t59 -150q0 -89 -59 -148t-150 -59q-89 0 -148 59t-59 148q0 91 59 150t148 59z" />
    <glyph glyph-name="oslash" unicode="&#xf8;" horiz-adv-x="1247" 
d="M1100 1188l-127 -234q100 -73 156.5 -186.5t56.5 -247.5q0 -234 -160 -387t-403 -153q-85 0 -168 22l-78 -145h-230l125 231q-100 73 -155.5 185t-55.5 247q0 235 159.5 390t402.5 155q84 0 168 -23l79 146h230zM422 520q0 -62 22 -114l193 354h-14q-87 0 -144 -68.5
t-57 -171.5zM610 285h13q88 0 145 67t57 168q0 64 -22 119z" />
    <glyph glyph-name="ugrave" unicode="&#xf9;" horiz-adv-x="1239" 
d="M772 1169h-303l-379 318h414zM1116 0h-336l-18 104q-85 -124 -281 -124q-186 0 -282.5 125t-96.5 348v591h377v-571q0 -65 29 -103t86 -38q93 0 145 90v622h377v-1044z" />
    <glyph glyph-name="uacute" unicode="&#xfa;" horiz-adv-x="1239" 
d="M735 1169h-303l268 318h414zM1116 0h-336l-18 104q-85 -124 -281 -124q-186 0 -282.5 125t-96.5 348v591h377v-571q0 -65 29 -103t86 -38q93 0 145 90v622h377v-1044z" />
    <glyph glyph-name="ucircumflex" unicode="&#xfb;" horiz-adv-x="1239" 
d="M971 1174h-266l-95 104l-94 -104h-266l360 432zM1116 0h-336l-18 104q-85 -124 -281 -124q-186 0 -282.5 125t-96.5 348v591h377v-571q0 -65 29 -103t86 -38q93 0 145 90v622h377v-1044z" />
    <glyph glyph-name="udieresis" unicode="&#xfc;" horiz-adv-x="1239" 
d="M399 1509q73 0 120.5 -47.5t47.5 -120.5t-47 -120t-121 -47t-121 47t-47 120t47.5 120.5t120.5 47.5zM823 1509q73 0 120.5 -47.5t47.5 -120.5t-47 -120t-121 -47t-121 47t-47 120t47.5 120.5t120.5 47.5zM1116 0h-336l-18 104q-85 -124 -281 -124q-186 0 -282.5 125
t-96.5 348v591h377v-571q0 -65 29 -103t86 -38q93 0 145 90v622h377v-1044z" />
    <glyph glyph-name="yacute" unicode="&#xfd;" horiz-adv-x="1228" 
d="M705 1169h-304l269 318h413zM371 -471h-430l471 801l-402 714h422l180 -411l185 411h422z" />
    <glyph glyph-name="thorn" unicode="&#xfe;" 
d="M500 1556v-593q92 102 264 102q201 0 328 -153.5t127 -389.5t-127 -389t-328 -153q-175 0 -264 102v-553h-377v2027h377zM664 739q-104 0 -164 -96v-240q59 -98 164 -98q79 0 126.5 57t47.5 160t-47.5 160t-126.5 57z" />
    <glyph glyph-name="ydieresis" unicode="&#xff;" horiz-adv-x="1228" 
d="M369 1509q73 0 120.5 -47.5t47.5 -120.5t-47 -120t-121 -47t-121 47t-47 120t47.5 120.5t120.5 47.5zM793 1509q73 0 120.5 -47.5t47.5 -120.5t-47 -120t-121 -47t-121 47t-47 120t47.5 120.5t120.5 47.5zM371 -471h-430l471 801l-402 714h422l180 -411l185 411h422z" />
    <glyph glyph-name="Amacron" unicode="&#x100;" horiz-adv-x="1503" 
d="M1034 1622h-583v246h583v-246zM1499 0h-436l-70 176h-504l-69 -176h-436l753 1532h8zM604 467h275l-138 352z" />
    <glyph glyph-name="amacron" unicode="&#x101;" 
d="M915 1206h-583v246h583v-246zM516 1065q100 0 173 -35t112 -94l20 108h336v-1044h-336l-20 106q-39 -57 -112 -91.5t-173 -34.5q-201 0 -328 153t-127 389t127 389.5t328 153.5zM616 739q-79 0 -126.5 -57t-47.5 -160t47.5 -160t126.5 -57q104 0 164 96v242
q-60 96 -164 96z" />
    <glyph glyph-name="Abreve" unicode="&#x102;" horiz-adv-x="1503" 
d="M852 1948h248q0 -152 -102 -251.5t-255 -99.5q-155 0 -257.5 99.5t-102.5 251.5h248q0 -71 29.5 -114.5t82.5 -43.5q50 0 79.5 44t29.5 114zM1499 0h-436l-70 176h-504l-69 -176h-436l753 1532h8zM604 467h275l-138 352z" />
    <glyph glyph-name="abreve" unicode="&#x103;" 
d="M733 1528h248q0 -161 -101.5 -266t-254.5 -105q-156 0 -258.5 105t-102.5 266h248q0 -60 32 -98.5t81 -38.5q46 0 77 38.5t31 98.5zM516 1065q100 0 173 -35t112 -94l20 108h336v-1044h-336l-20 106q-39 -57 -112 -91.5t-173 -34.5q-201 0 -328 153t-127 389t127 389.5
t328 153.5zM616 739q-79 0 -126.5 -57t-47.5 -160t47.5 -160t126.5 -57q104 0 164 96v242q-60 96 -164 96z" />
    <glyph glyph-name="Aogonek" unicode="&#x104;" horiz-adv-x="1503" 
d="M1432 -248l69 -190q-68 -33 -158 -33q-64 0 -120 17.5t-100.5 52.5t-70.5 94t-26 135q0 96 47 172h-10l-70 176h-504l-69 -176h-436l753 1532h8l754 -1532h-123q-55 -31 -87 -70t-32 -98q0 -46 27 -71t70 -25q42 0 78 16zM879 467l-138 352l-137 -352h275z" />
    <glyph glyph-name="aogonek" unicode="&#x105;" 
d="M1153 -248l70 -190q-68 -33 -158 -33q-64 0 -120 17.5t-100.5 52.5t-70.5 94t-26 135q0 116 67 203l-14 75q-39 -57 -112 -91.5t-173 -34.5q-201 0 -328 153t-127 389t127 389.5t328 153.5q100 0 173 -35t112 -94l20 108h336v-1044h-59q-55 -31 -87 -70t-32 -98
q0 -46 26.5 -71t69.5 -25q42 0 78 16zM780 401v242q-60 96 -164 96q-79 0 -126.5 -57t-47.5 -160t47.5 -160t126.5 -57q104 0 164 96z" />
    <glyph glyph-name="Cacute" unicode="&#x106;" horiz-adv-x="1409" 
d="M983 1622h-344l248 252h434zM850 1532q180 0 308.5 -56t244.5 -176l-244 -282q-127 160 -309 160q-178 0 -283.5 -118t-105.5 -306q0 -189 105.5 -307.5t283.5 -118.5q183 0 309 159l242 -282q-112 -124 -246 -178t-305 -54q-169 0 -315.5 60t-249 164t-161 248
t-58.5 309q0 220 99.5 397.5t279 279t405.5 101.5z" />
    <glyph glyph-name="cacute" unicode="&#x107;" horiz-adv-x="1058" 
d="M731 1169h-303l268 318h414zM614 1065q290 0 439 -248l-262 -192q-53 116 -175 116q-82 0 -128 -62.5t-46 -156.5t46 -156.5t128 -62.5q120 0 187 115l250 -178q-64 -122 -178 -191t-261 -69q-237 0 -395 154t-158 388t158 388.5t395 154.5z" />
    <glyph glyph-name="Ccircumflex" unicode="&#x108;" horiz-adv-x="1409" 
d="M1221 1622h-277l-104 84l-105 -84h-276l381 332zM850 1532q180 0 308.5 -56t244.5 -176l-244 -282q-127 160 -309 160q-178 0 -283.5 -118t-105.5 -306q0 -189 105.5 -307.5t283.5 -118.5q183 0 309 159l242 -282q-112 -124 -246 -178t-305 -54q-169 0 -315.5 60
t-249 164t-161 248t-58.5 309q0 220 99.5 397.5t279 279t405.5 101.5z" />
    <glyph glyph-name="ccircumflex" unicode="&#x109;" horiz-adv-x="1058" 
d="M967 1174h-267l-94 104l-94 -104h-266l360 432zM614 1065q290 0 439 -248l-262 -192q-53 116 -175 116q-82 0 -128 -62.5t-46 -156.5t46 -156.5t128 -62.5q120 0 187 115l250 -178q-64 -122 -178 -191t-261 -69q-237 0 -395 154t-158 388t158 388.5t395 154.5z" />
    <glyph glyph-name="Cdotaccent" unicode="&#x10a;" horiz-adv-x="1409" 
d="M840 2017q86 0 141 -55t55 -141t-55 -141.5t-141 -55.5t-141.5 55.5t-55.5 141.5t55.5 141t141.5 55zM850 1532q180 0 308.5 -56t244.5 -176l-244 -282q-127 160 -309 160q-178 0 -283.5 -118t-105.5 -306q0 -189 105.5 -307.5t283.5 -118.5q183 0 309 159l242 -282
q-112 -124 -246 -178t-305 -54q-169 0 -315.5 60t-249 164t-161 248t-58.5 309q0 220 99.5 397.5t279 279t405.5 101.5z" />
    <glyph glyph-name="cdotaccent" unicode="&#x10b;" horiz-adv-x="1058" 
d="M606 1567q86 0 141.5 -55.5t55.5 -141.5t-55.5 -141t-141.5 -55t-141 55t-55 141t55 141.5t141 55.5zM614 1065q290 0 439 -248l-262 -192q-53 116 -175 116q-82 0 -128 -62.5t-46 -156.5t46 -156.5t128 -62.5q120 0 187 115l250 -178q-64 -122 -178 -191t-261 -69
q-237 0 -395 154t-158 388t158 388.5t395 154.5z" />
    <glyph glyph-name="Ccaron" unicode="&#x10c;" horiz-adv-x="1409" 
d="M840 1595l-381 332h276l105 -84l104 84h277zM850 1532q180 0 308.5 -56t244.5 -176l-244 -282q-127 160 -309 160q-178 0 -283.5 -118t-105.5 -306q0 -189 105.5 -307.5t283.5 -118.5q183 0 309 159l242 -282q-112 -124 -246 -178t-305 -54q-169 0 -315.5 60t-249 164
t-161 248t-58.5 309q0 220 99.5 397.5t279 279t405.5 101.5z" />
    <glyph glyph-name="ccaron" unicode="&#x10d;" horiz-adv-x="1058" 
d="M606 1147l-360 432h266l94 -104l94 104h267zM614 1065q290 0 439 -248l-262 -192q-53 116 -175 116q-82 0 -128 -62.5t-46 -156.5t46 -156.5t128 -62.5q120 0 187 115l250 -178q-64 -122 -178 -191t-261 -69q-237 0 -395 154t-158 388t158 388.5t395 154.5z" />
    <glyph glyph-name="Dcaron" unicode="&#x10e;" horiz-adv-x="1531" 
d="M682 1575l-381 332h277l104 -84l104 84h277zM137 1505h496q391 0 612 -198t221 -553q0 -356 -220 -555t-613 -199h-496v1505zM526 1149v-795h95q222 0 336 103.5t114 294.5q0 192 -113.5 294.5t-336.5 102.5h-95z" />
    <glyph glyph-name="dcaron" unicode="&#x10f;" 
d="M1382 1561q78 0 124 -41t46 -105q0 -52 -25.5 -89t-80.5 -79l-158 -119h-8v416q49 17 102 17zM1157 0h-336l-20 106q-39 -57 -112 -91.5t-173 -34.5q-201 0 -328 153t-127 389t127 389.5t328 153.5q175 0 264 -102v593h377v-1556zM616 739q-79 0 -126.5 -57t-47.5 -160
t47.5 -160t126.5 -57q104 0 164 96v240q-59 98 -164 98z" />
    <glyph glyph-name="Dcroat" unicode="&#x110;" horiz-adv-x="1564" 
d="M170 1505h496q391 0 612 -198t221 -553q0 -356 -220 -555t-613 -199h-496v655h-164v246h164v604zM559 354h94q223 0 337 104t114 294q0 191 -114 294t-337 103h-94v-248h191v-246h-191v-301z" />
    <glyph glyph-name="dcroat" unicode="&#x111;" 
d="M1290 1176h-133v-1176h-336l-20 106q-39 -57 -112 -91.5t-173 -34.5q-201 0 -328 153t-127 389t127 389.5t328 153.5q175 0 264 -102v213h-237v245h237v135h377v-135h133v-245zM780 401v240q-59 98 -164 98q-79 0 -126.5 -57t-47.5 -160t47.5 -160t126.5 -57
q104 0 164 96z" />
    <glyph glyph-name="Emacron" unicode="&#x112;" horiz-adv-x="1234" 
d="M958 1622h-583v246h583v-246zM1139 1151h-613v-225h527v-326h-527v-246h629v-354h-1018v1505h1002v-354z" />
    <glyph glyph-name="emacron" unicode="&#x113;" horiz-adv-x="1167" 
d="M893 1206h-584v246h584v-246zM608 1065q124 0 220.5 -41.5t155.5 -115t89.5 -167t30.5 -202.5v-107h-662q3 -69 53 -108t136 -39q117 0 186 86l252 -185q-159 -206 -455 -206q-247 0 -400 151.5t-153 388.5t152.5 391t394.5 154zM592 799q-66 0 -107 -45.5t-43 -110.5
h291q-2 65 -39.5 110.5t-101.5 45.5z" />
    <glyph glyph-name="Ebreve" unicode="&#x114;" horiz-adv-x="1234" 
d="M776 1948h248q0 -152 -101.5 -251.5t-254.5 -99.5q-156 0 -258.5 99.5t-102.5 251.5h248q0 -71 30 -114.5t83 -43.5q50 0 79 44t29 114zM1139 1151h-613v-225h527v-326h-527v-246h629v-354h-1018v1505h1002v-354z" />
    <glyph glyph-name="ebreve" unicode="&#x115;" horiz-adv-x="1167" 
d="M711 1528h247q0 -161 -101.5 -266t-254.5 -105q-156 0 -258 105t-102 266h247q0 -60 32 -98.5t81 -38.5q46 0 77.5 39t31.5 98zM608 1065q124 0 220.5 -41.5t155.5 -115t89.5 -167t30.5 -202.5v-107h-662q3 -69 53 -108t136 -39q117 0 186 86l252 -185
q-159 -206 -455 -206q-247 0 -400 151.5t-153 388.5t152.5 391t394.5 154zM592 799q-66 0 -107 -45.5t-43 -110.5h291q-2 65 -39.5 110.5t-101.5 45.5z" />
    <glyph glyph-name="Edotaccent" unicode="&#x116;" horiz-adv-x="1234" 
d="M666 1997q86 0 141 -55.5t55 -141.5t-55 -141t-141 -55t-141.5 55t-55.5 141t55.5 141.5t141.5 55.5zM1139 1151h-613v-225h527v-326h-527v-246h629v-354h-1018v1505h1002v-354z" />
    <glyph glyph-name="edotaccent" unicode="&#x117;" horiz-adv-x="1167" 
d="M600 1567q86 0 141.5 -55.5t55.5 -141.5t-55.5 -141t-141.5 -55t-141.5 55t-55.5 141t55.5 141.5t141.5 55.5zM608 1065q124 0 220.5 -41.5t155.5 -115t89.5 -167t30.5 -202.5v-107h-662q3 -69 53 -108t136 -39q117 0 186 86l252 -185q-159 -206 -455 -206
q-247 0 -400 151.5t-153 388.5t152.5 391t394.5 154zM592 799q-66 0 -107 -45.5t-43 -110.5h291q-2 65 -39.5 110.5t-101.5 45.5z" />
    <glyph glyph-name="Eogonek" unicode="&#x118;" horiz-adv-x="1234" 
d="M1112 -248l70 -190q-68 -33 -158 -33q-64 0 -120 17.5t-100.5 52.5t-70.5 94t-26 135q0 96 47 172h-617v1505h1002v-354h-613v-225h527v-326h-527v-246h629v-354h-98q-55 -31 -87 -70t-32 -98q0 -46 26.5 -71t69.5 -25q42 0 78 16z" />
    <glyph glyph-name="eogonek" unicode="&#x119;" horiz-adv-x="1167" 
d="M1104 432h-662q3 -69 53 -108t136 -39q117 0 186 86l252 -185q-91 -120 -231 -170q-82 -60 -82 -145q0 -46 26.5 -71t69.5 -25q42 0 78 16l69 -190q-68 -33 -157 -33q-64 0 -120 17.5t-101 52.5t-71 94t-26 135q0 56 21 117q-219 22 -351.5 169.5t-132.5 366.5
q0 237 152.5 391t394.5 154q124 0 220.5 -41.5t155.5 -115t89.5 -167t30.5 -202.5v-107zM442 643h291q-2 65 -39.5 110.5t-101.5 45.5q-66 0 -107 -45.5t-43 -110.5z" />
    <glyph glyph-name="Ecaron" unicode="&#x11a;" horiz-adv-x="1234" 
d="M666 1575l-381 332h276l105 -84l104 84h277zM1139 1151h-613v-225h527v-326h-527v-246h629v-354h-1018v1505h1002v-354z" />
    <glyph glyph-name="ecaron" unicode="&#x11b;" horiz-adv-x="1167" 
d="M600 1147l-360 432h266l94 -104l94 104h267zM608 1065q124 0 220.5 -41.5t155.5 -115t89.5 -167t30.5 -202.5v-107h-662q3 -69 53 -108t136 -39q117 0 186 86l252 -185q-159 -206 -455 -206q-247 0 -400 151.5t-153 388.5t152.5 391t394.5 154zM592 799q-66 0 -107 -45.5
t-43 -110.5h291q-2 65 -39.5 110.5t-101.5 45.5z" />
    <glyph glyph-name="Gcircumflex" unicode="&#x11c;" horiz-adv-x="1556" 
d="M1219 1622h-277l-104 84l-105 -84h-276l381 332zM850 1532q180 0 308.5 -56t244.5 -176l-244 -282q-127 160 -309 160q-178 0 -283.5 -118t-105.5 -306q0 -189 111 -307.5t298 -118.5q91 0 181 51v174h-281v334h670v-699q-218 -215 -570 -215q-231 0 -415.5 102.5
t-286.5 280.5t-102 398t99.5 397.5t279 279t405.5 101.5z" />
    <glyph glyph-name="gcircumflex" unicode="&#x11d;" 
d="M977 1174h-266l-95 104l-94 -104h-266l360 432zM516 1065q100 0 173 -35t112 -94l20 108h336v-989q0 -253 -161 -400t-431 -147q-179 0 -306.5 59.5t-229.5 170.5l243 248q65 -72 131 -112t158 -40q99 0 157.5 60.5t61.5 152.5v76q-90 -103 -264 -103q-201 0 -328 148
t-127 375t127 374.5t328 147.5zM616 739q-80 0 -127 -51.5t-47 -144.5q0 -94 47 -145.5t127 -51.5q105 0 164 98v199q-60 96 -164 96z" />
    <glyph glyph-name="Gbreve" unicode="&#x11e;" horiz-adv-x="1556" 
d="M948 1968h248q0 -152 -101.5 -251t-254.5 -99q-156 0 -258.5 99t-102.5 251h248q0 -71 30 -114.5t83 -43.5q50 0 79 44t29 114zM850 1532q180 0 308.5 -56t244.5 -176l-244 -282q-127 160 -309 160q-178 0 -283.5 -118t-105.5 -306q0 -189 111 -307.5t298 -118.5
q91 0 181 51v174h-281v334h670v-699q-218 -215 -570 -215q-231 0 -415.5 102.5t-286.5 280.5t-102 398t99.5 397.5t279 279t405.5 101.5z" />
    <glyph glyph-name="gbreve" unicode="&#x11f;" 
d="M727 1528h248q0 -161 -102 -266t-255 -105q-156 0 -258 105t-102 266h248q0 -60 31.5 -98.5t80.5 -38.5q46 0 77.5 39t31.5 98zM516 1065q100 0 173 -35t112 -94l20 108h336v-989q0 -253 -161 -400t-431 -147q-179 0 -306.5 59.5t-229.5 170.5l243 248q65 -72 131 -112
t158 -40q99 0 157.5 60.5t61.5 152.5v76q-90 -103 -264 -103q-201 0 -328 148t-127 375t127 374.5t328 147.5zM616 739q-80 0 -127 -51.5t-47 -144.5q0 -94 47 -145.5t127 -51.5q105 0 164 98v199q-60 96 -164 96z" />
    <glyph glyph-name="Gdotaccent" unicode="&#x120;" horiz-adv-x="1556" 
d="M838 2017q86 0 141 -55t55 -141t-55 -141.5t-141 -55.5t-141.5 55.5t-55.5 141.5t55.5 141t141.5 55zM850 1532q180 0 308.5 -56t244.5 -176l-244 -282q-127 160 -309 160q-178 0 -283.5 -118t-105.5 -306q0 -189 111 -307.5t298 -118.5q91 0 181 51v174h-281v334h670
v-699q-218 -215 -570 -215q-231 0 -415.5 102.5t-286.5 280.5t-102 398t99.5 397.5t279 279t405.5 101.5z" />
    <glyph glyph-name="gdotaccent" unicode="&#x121;" 
d="M616 1567q86 0 141.5 -55.5t55.5 -141.5t-55.5 -141t-141.5 -55t-141 55t-55 141t55 141.5t141 55.5zM516 1065q100 0 173 -35t112 -94l20 108h336v-989q0 -253 -161 -400t-431 -147q-179 0 -306.5 59.5t-229.5 170.5l243 248q65 -72 131 -112t158 -40q99 0 157.5 60.5
t61.5 152.5v76q-90 -103 -264 -103q-201 0 -328 148t-127 375t127 374.5t328 147.5zM616 739q-80 0 -127 -51.5t-47 -144.5q0 -94 47 -145.5t127 -51.5q105 0 164 98v199q-60 96 -164 96z" />
    <glyph glyph-name="Gcommaaccent" unicode="&#x122;" horiz-adv-x="1556" 
d="M850 1532q180 0 308.5 -56t244.5 -176l-244 -282q-127 160 -309 160q-178 0 -283.5 -118t-105.5 -306q0 -189 111 -307.5t298 -118.5q91 0 181 51v174h-281v334h670v-699q-218 -215 -570 -215q-231 0 -415.5 102.5t-286.5 280.5t-102 398t99.5 397.5t279 279t405.5 101.5
zM805 -82q72 0 121 -38.5t49 -94.5q0 -52 -27 -87.5t-86 -72.5l-151 -96h-9v373q46 16 103 16z" />
    <glyph glyph-name="gcommaaccent" unicode="&#x123;" 
d="M635 1155q-72 0 -121 38.5t-49 94.5q0 52 27 87.5t86 72.5l151 96h8v-373q-46 -16 -102 -16zM516 1065q100 0 173 -35t112 -94l20 108h336v-989q0 -253 -161 -400t-431 -147q-179 0 -306.5 59.5t-229.5 170.5l243 248q65 -72 131 -112t158 -40q99 0 157.5 60.5
t61.5 152.5v76q-90 -103 -264 -103q-201 0 -328 148t-127 375t127 374.5t328 147.5zM616 739q-80 0 -127 -51.5t-47 -144.5q0 -94 47 -145.5t127 -51.5q105 0 164 98v199q-60 96 -164 96z" />
    <glyph glyph-name="Hcircumflex" unicode="&#x124;" horiz-adv-x="1560" 
d="M1161 1602h-276l-105 84l-104 -84h-277l381 331zM1423 0h-389v594h-508v-594h-389v1505h389v-557h508v557h389v-1505z" />
    <glyph glyph-name="hcircumflex" unicode="&#x125;" horiz-adv-x="1241" 
d="M692 1642h-276l-105 84l-104 -84h-277l381 332zM500 1556v-587q86 96 248 96q190 0 290.5 -125.5t100.5 -347.5v-592h-377v571q0 64 -31.5 103t-87.5 39q-51 0 -88.5 -26.5t-54.5 -63.5v-623h-377v1556h377z" />
    <glyph glyph-name="Hbar" unicode="&#x126;" horiz-adv-x="1617" 
d="M1595 1071h-143v-1071h-389v573h-508v-573h-389v1071h-143v246h143v188h389v-188h508v188h389v-188h143v-246zM1063 1071h-508v-164h508v164z" />
    <glyph glyph-name="hbar" unicode="&#x127;" horiz-adv-x="1251" 
d="M758 1065q190 0 290.5 -125.5t100.5 -347.5v-592h-377v571q0 64 -31.5 103t-87.5 39q-51 0 -88.5 -26.5t-54.5 -63.5v-623h-377v1176h-143v245h143v135h377v-135h227v-245h-227v-207q86 96 248 96z" />
    <glyph glyph-name="Itilde" unicode="&#x128;" horiz-adv-x="663" 
d="M219 1931q44 0 85 -20t65.5 -43.5t52 -43.5t47.5 -20q33 0 46 28t13 87h185q0 -156 -77 -242t-190 -86q-39 0 -71 13t-52.5 31.5t-38 37.5t-37.5 32t-42 13q-40 0 -54 -26.5t-14 -87.5h-184q0 162 76 244.5t190 82.5zM526 0h-389v1505h389v-1505z" />
    <glyph glyph-name="itilde" unicode="&#x129;" horiz-adv-x="622" 
d="M199 1528q44 0 85 -20t65.5 -43.5t52 -43.5t47.5 -20q33 0 46 28t13 87h184q0 -167 -76.5 -258t-189.5 -91q-48 0 -86 20t-58 43.5t-46 43.5t-52 20q-40 0 -53.5 -26t-13.5 -88h-185q0 173 76 260.5t191 87.5zM500 0h-377v1044h377v-1044z" />
    <glyph glyph-name="Imacron" unicode="&#x12a;" horiz-adv-x="663" 
d="M625 1622h-584v246h584v-246zM526 0h-389v1505h389v-1505z" />
    <glyph glyph-name="imacron" unicode="&#x12b;" horiz-adv-x="622" 
d="M604 1206h-584v246h584v-246zM500 0h-377v1044h377v-1044z" />
    <glyph glyph-name="Ibreve" unicode="&#x12c;" horiz-adv-x="663" 
d="M442 1948h248q0 -152 -101.5 -251.5t-254.5 -99.5q-156 0 -258.5 99.5t-102.5 251.5h248q0 -71 30 -114.5t83 -43.5q50 0 79 44t29 114zM526 0h-389v1505h389v-1505z" />
    <glyph glyph-name="ibreve" unicode="&#x12d;" horiz-adv-x="622" 
d="M422 1528h248q0 -161 -102 -266t-255 -105q-156 0 -258 105t-102 266h248q0 -60 31.5 -98.5t80.5 -38.5q46 0 77.5 39t31.5 98zM500 0h-377v1044h377v-1044z" />
    <glyph glyph-name="Iogonek" unicode="&#x12e;" horiz-adv-x="663" 
d="M483 -248l70 -190q-68 -33 -158 -33q-64 0 -120 17.5t-100.5 52.5t-70.5 94t-26 135q0 106 59 192v1485h389v-1505h-98q-55 -31 -87 -70t-32 -98q0 -46 27 -71t70 -25q41 0 77 16z" />
    <glyph glyph-name="iogonek" unicode="&#x12f;" horiz-adv-x="622" 
d="M311 1159q-92 0 -151.5 59.5t-59.5 151.5t59.5 151.5t151.5 59.5t151.5 -59.5t59.5 -151.5t-59.5 -151.5t-151.5 -59.5zM465 -248l70 -190q-68 -33 -158 -33q-64 0 -120 17.5t-101 52.5t-71 94t-26 135q0 112 64 199v1017h377v-1044h-90q-55 -31 -87 -70t-32 -98
q0 -46 26.5 -71t69.5 -25q42 0 78 16z" />
    <glyph glyph-name="Idotaccent" unicode="&#x130;" horiz-adv-x="663" 
d="M332 1997q86 0 141 -55.5t55 -141.5t-55 -141t-141 -55t-141.5 55t-55.5 141t55.5 141.5t141.5 55.5zM526 0h-389v1505h389v-1505z" />
    <glyph glyph-name="dotlessi" unicode="&#x131;" horiz-adv-x="622" 
d="M500 0h-377v1044h377v-1044z" />
    <glyph glyph-name="IJ" unicode="&#x132;" horiz-adv-x="1828" 
d="M526 0h-389v1505h389v-1505zM1714 1505v-1040q0 -215 -147 -353.5t-375 -138.5q-106 0 -201 36t-171.5 104t-121.5 178.5t-45 247.5h377q0 -211 148 -211q69 0 108 44t39 115v1018h389z" />
    <glyph glyph-name="ij" unicode="&#x133;" horiz-adv-x="1224" 
d="M311 1581q92 0 151.5 -59.5t59.5 -151.5t-59.5 -151.5t-151.5 -59.5t-151.5 59.5t-59.5 151.5t59.5 151.5t151.5 59.5zM913 1581q92 0 151.5 -59.5t59.5 -151.5t-59.5 -151.5t-151.5 -59.5t-151.5 59.5t-59.5 151.5t59.5 151.5t151.5 59.5zM500 0h-377v1044h377v-1044z
M1102 1044v-1056q0 -207 -139 -343.5t-353 -136.5q-122 0 -213.5 40t-167.5 128l220 248q37 -42 72 -66t81 -24q58 0 90.5 33t32.5 92v1085h377z" />
    <glyph glyph-name="Jcircumflex" unicode="&#x134;" horiz-adv-x="1206" 
d="M1272 1602h-277l-104 84l-105 -84h-276l381 331zM1092 1505v-1040q0 -215 -147.5 -353.5t-375.5 -138.5q-106 0 -201 36t-171 104t-121 178.5t-45 247.5h377q0 -211 147 -211q69 0 108 44t39 115v1018h390z" />
    <glyph glyph-name="jcircumflex" unicode="&#x135;" horiz-adv-x="622" 
d="M670 1174h-267l-94 104l-94 -104h-266l360 432zM500 1044v-1056q0 -207 -139 -343.5t-353 -136.5q-248 0 -401 164l241 250q74 -88 152 -88q58 0 90.5 33t32.5 92v1085h377z" />
    <glyph glyph-name="Kcommaaccent" unicode="&#x136;" horiz-adv-x="1507" 
d="M944 782l551 -782h-467l-303 436l-295 -436h-293v1505h389v-764l435 764h438zM711 -82q72 0 121 -38.5t49 -94.5q0 -52 -27 -87.5t-86 -72.5l-152 -96h-8v373q46 16 103 16z" />
    <glyph glyph-name="kcommaaccent" unicode="&#x137;" horiz-adv-x="1241" 
d="M500 575l295 469h430l-318 -409l332 -635h-424l-162 305l-235 -305h-295v1556h377v-981zM596 -82q72 0 121 -38.5t49 -94.5q0 -52 -27 -87.5t-86 -72.5l-151 -96h-8v373q46 16 102 16z" />
    <glyph glyph-name="Lacute" unicode="&#x139;" horiz-adv-x="1122" 
d="M485 1602h-344l248 251h434zM526 342h586v-342h-975v1505h389v-1163z" />
    <glyph glyph-name="lacute" unicode="&#x13a;" horiz-adv-x="622" 
d="M455 1642h-344l247 252h435zM500 0h-377v1556h377v-1556z" />
    <glyph glyph-name="Lcommaaccent" unicode="&#x13b;" horiz-adv-x="1122" 
d="M526 342h586v-342h-975v1505h389v-1163zM604 -82q72 0 121 -38.5t49 -94.5q0 -53 -27 -88.5t-85 -71.5l-152 -96h-8v373q46 16 102 16z" />
    <glyph glyph-name="lcommaaccent" unicode="&#x13c;" horiz-adv-x="622" 
d="M500 0h-377v1556h377v-1556zM272 -82q72 0 121 -38.5t49 -94.5q0 -53 -27 -88.5t-85 -71.5l-152 -96h-8v373q46 16 102 16z" />
    <glyph glyph-name="Lcaron" unicode="&#x13d;" horiz-adv-x="1122" 
d="M793 1520q78 0 124 -41t46 -105q0 -52 -25.5 -89t-81.5 -79l-158 -119h-8v416q49 17 103 17zM526 342h586v-342h-975v1505h389v-1163z" />
    <glyph glyph-name="lcaron" unicode="&#x13e;" horiz-adv-x="622" 
d="M725 1561q78 0 124 -41t46 -105q0 -52 -25.5 -89t-81.5 -79l-157 -119h-8v416q49 17 102 17zM500 0h-377v1556h377v-1556z" />
    <glyph glyph-name="Ldot" unicode="&#x13f;" horiz-adv-x="1122" 
d="M526 342h586v-342h-975v1505h389v-1163zM874 999q95 0 157.5 -62t62.5 -157t-62.5 -157t-157.5 -62t-157 62t-62 157t62 157t157 62z" />
    <glyph glyph-name="ldot" unicode="&#x140;" horiz-adv-x="1112" 
d="M500 0h-377v1556h377v-1556zM862 745q95 0 157 -62t62 -157t-62 -157t-157 -62t-157 62t-62 157t62 157t157 62z" />
    <glyph glyph-name="Lslash" unicode="&#x141;" horiz-adv-x="1191" 
d="M1182 342v-342h-975v489l-129 -43l-94 273l223 76v710h389v-579l154 51l94 -272l-248 -84v-279h586z" />
    <glyph glyph-name="lslash" unicode="&#x142;" horiz-adv-x="696" 
d="M537 645v-645h-377v500l-123 -47l-88 229l211 80v794h377v-649l122 47l89 -229z" />
    <glyph glyph-name="Nacute" unicode="&#x143;" horiz-adv-x="1521" 
d="M903 1602h-344l248 251h434zM995 795v710h389v-1532h-8l-850 738v-711h-389v1532h8z" />
    <glyph glyph-name="nacute" unicode="&#x144;" horiz-adv-x="1241" 
d="M756 1169h-303l268 318h414zM748 1065q190 0 290.5 -125.5t100.5 -347.5v-592h-377v571q0 64 -31.5 103t-87.5 39q-51 0 -88.5 -26.5t-54.5 -63.5v-623h-377v1044h336l18 -104q36 57 106.5 91t164.5 34z" />
    <glyph glyph-name="Ncommaaccent" unicode="&#x145;" horiz-adv-x="1521" 
d="M995 795v710h389v-1532h-8l-850 738v-711h-389v1532h8zM823 -82q72 0 121 -38.5t49 -94.5q0 -53 -27 -88.5t-85 -71.5l-152 -96h-8v373q46 16 102 16z" />
    <glyph glyph-name="ncommaaccent" unicode="&#x146;" horiz-adv-x="1241" 
d="M748 1065q190 0 290.5 -125.5t100.5 -347.5v-592h-377v571q0 64 -31.5 103t-87.5 39q-51 0 -88.5 -26.5t-54.5 -63.5v-623h-377v1044h336l18 -104q36 57 106.5 91t164.5 34zM606 -82q72 0 121 -38.5t49 -94.5q0 -53 -27 -88.5t-85 -71.5l-152 -96h-8v373q46 16 102 16z
" />
    <glyph glyph-name="Ncaron" unicode="&#x147;" horiz-adv-x="1521" 
d="M760 1575l-381 332h276l105 -84l104 84h277zM995 795v710h389v-1532h-8l-850 738v-711h-389v1532h8z" />
    <glyph glyph-name="ncaron" unicode="&#x148;" horiz-adv-x="1241" 
d="M631 1147l-361 432h267l94 -104l94 104h266zM748 1065q190 0 290.5 -125.5t100.5 -347.5v-592h-377v571q0 64 -31.5 103t-87.5 39q-51 0 -88.5 -26.5t-54.5 -63.5v-623h-377v1044h336l18 -104q36 57 106.5 91t164.5 34z" />
    <glyph glyph-name="Eng" unicode="&#x14a;" horiz-adv-x="1521" 
d="M1384 1505v-1532q-11 -205 -159.5 -335t-376.5 -130v361q69 0 108 44.5t39 115.5v274l-469 408v-711h-389v1532h8l850 -737v710h389z" />
    <glyph glyph-name="eng" unicode="&#x14b;" horiz-adv-x="1241" 
d="M748 1065q190 0 290.5 -125.5t100.5 -347.5v-604q0 -206 -142.5 -343t-357.5 -137v326q57 0 90 33t33 92v612q0 64 -31.5 103t-87.5 39q-51 0 -88.5 -26.5t-54.5 -63.5v-623h-377v1044h336l18 -104q36 57 106.5 91t164.5 34z" />
    <glyph glyph-name="Omacron" unicode="&#x14c;" horiz-adv-x="1699" 
d="M1143 1642h-584v246h584v-246zM850 1532q165 0 310.5 -59t249.5 -161.5t164 -248.5t60 -313q0 -221 -102.5 -399t-282 -278t-399.5 -100q-222 0 -401 100t-281 278t-102 399q0 223 102 402t281 279.5t401 100.5zM850 1178q-172 0 -280.5 -119.5t-108.5 -308.5
q0 -186 108.5 -304t280.5 -118t280.5 118t108.5 304q0 189 -108.5 308.5t-280.5 119.5z" />
    <glyph glyph-name="omacron" unicode="&#x14d;" horiz-adv-x="1247" 
d="M915 1206h-583v246h583v-246zM623 1065q160 0 289 -70.5t201.5 -195.5t72.5 -279q0 -234 -160 -387t-403 -153t-402.5 153t-159.5 387q0 235 159.5 390t402.5 155zM623 739q-78 0 -129.5 -62.5t-51.5 -156.5q0 -92 51.5 -153.5t129.5 -61.5t130 61.5t52 153.5
q0 94 -52 156.5t-130 62.5z" />
    <glyph glyph-name="Obreve" unicode="&#x14e;" horiz-adv-x="1699" 
d="M961 1968h247q0 -152 -101.5 -251t-254.5 -99q-156 0 -258 99t-102 251h247q0 -71 30 -114.5t83 -43.5q50 0 79.5 44t29.5 114zM850 1532q165 0 310.5 -59t249.5 -161.5t164 -248.5t60 -313q0 -221 -102.5 -399t-282 -278t-399.5 -100q-222 0 -401 100t-281 278t-102 399
q0 223 102 402t281 279.5t401 100.5zM850 1178q-172 0 -280.5 -119.5t-108.5 -308.5q0 -186 108.5 -304t280.5 -118t280.5 118t108.5 304q0 189 -108.5 308.5t-280.5 119.5z" />
    <glyph glyph-name="obreve" unicode="&#x14f;" horiz-adv-x="1247" 
d="M733 1528h248q0 -161 -101.5 -266t-254.5 -105q-156 0 -258.5 105t-102.5 266h248q0 -60 32 -98.5t81 -38.5q46 0 77 38.5t31 98.5zM623 1065q160 0 289 -70.5t201.5 -195.5t72.5 -279q0 -234 -160 -387t-403 -153t-402.5 153t-159.5 387q0 235 159.5 390t402.5 155z
M623 739q-78 0 -129.5 -62.5t-51.5 -156.5q0 -92 51.5 -153.5t129.5 -61.5t130 61.5t52 153.5q0 94 -52 156.5t-130 62.5z" />
    <glyph glyph-name="Ohungarumlaut" unicode="&#x150;" horiz-adv-x="1699" 
d="M754 1622h-242l145 252h301zM1176 1622h-242l145 252h301zM850 1532q165 0 310.5 -59t249.5 -161.5t164 -248.5t60 -313q0 -221 -102.5 -399t-282 -278t-399.5 -100q-222 0 -401 100t-281 278t-102 399q0 223 102 402t281 279.5t401 100.5zM850 1178
q-172 0 -280.5 -119.5t-108.5 -308.5q0 -186 108.5 -304t280.5 -118t280.5 118t108.5 304q0 189 -108.5 308.5t-280.5 119.5z" />
    <glyph glyph-name="ohungarumlaut" unicode="&#x151;" horiz-adv-x="1247" 
d="M530 1169h-241l145 318h301zM952 1169h-241l145 318h301zM623 1065q160 0 289 -70.5t201.5 -195.5t72.5 -279q0 -234 -160 -387t-403 -153t-402.5 153t-159.5 387q0 235 159.5 390t402.5 155zM623 739q-78 0 -129.5 -62.5t-51.5 -156.5q0 -92 51.5 -153.5t129.5 -61.5
t130 61.5t52 153.5q0 94 -52 156.5t-130 62.5z" />
    <glyph glyph-name="OE" unicode="&#x152;" horiz-adv-x="2342" 
d="M2263 354v-354h-1018v98q-170 -125 -395 -125q-222 0 -401 100t-281 278t-102 399q0 223 102 402t281 279.5t401 100.5q220 0 395 -125v98h1002v-354h-613v-225h527v-326h-527v-246h629zM850 326q171 0 280 119t109 305q0 189 -108.5 308.5t-280.5 119.5t-280.5 -119.5
t-108.5 -308.5q0 -186 109 -305t280 -119z" />
    <glyph glyph-name="oe" unicode="&#x153;" horiz-adv-x="1910" 
d="M1847 432h-661q3 -69 52.5 -108t135.5 -39q118 0 187 86l251 -185q-159 -206 -454 -206q-220 0 -367 122q-153 -122 -368 -122q-243 0 -402.5 153t-159.5 387q0 235 159.5 390t402.5 155q215 0 366 -123q148 123 363 123q100 0 182 -27.5t139.5 -75.5t97 -114.5t58 -144
t18.5 -164.5v-107zM1186 643h291q-2 65 -39.5 110.5t-102.5 45.5t-106 -45.5t-43 -110.5zM623 305q78 0 130 61.5t52 153.5q0 94 -52 156.5t-130 62.5t-129.5 -62.5t-51.5 -156.5q0 -92 51.5 -153.5t129.5 -61.5z" />
    <glyph glyph-name="Racute" unicode="&#x154;" horiz-adv-x="1411" 
d="M825 1602h-344l248 251h434zM956 0l-288 500h-142v-500h-389v1505h660q106 0 202.5 -34.5t171 -97.5t118.5 -159.5t44 -212.5q0 -148 -69 -259.5t-187 -174.5l332 -567h-453zM526 834h234q80 0 129 44.5t49 122.5t-49.5 124t-128.5 46h-234v-337z" />
    <glyph glyph-name="racute" unicode="&#x155;" horiz-adv-x="804" 
d="M629 1169h-303l268 318h414zM774 692h-31q-148 0 -243 -110v-582h-377v1044h334l22 -133q40 68 117.5 111t177.5 43v-373z" />
    <glyph glyph-name="Rcommaaccent" unicode="&#x156;" horiz-adv-x="1411" 
d="M1409 0h-453l-288 500h-142v-500h-389v1505h660q106 0 202.5 -34.5t171 -97.5t118.5 -159.5t44 -212.5q0 -148 -69 -259.5t-187 -174.5zM526 834h234q80 0 129 44.5t49 122.5t-49.5 124t-128.5 46h-234v-337zM698 -82q72 0 121 -38.5t49 -94.5q0 -53 -27 -88.5t-85 -71.5
l-152 -96h-8v373q46 16 102 16z" />
    <glyph glyph-name="rcommaaccent" unicode="&#x157;" horiz-adv-x="804" 
d="M774 692h-31q-148 0 -243 -110v-582h-377v1044h334l22 -133q40 68 117.5 111t177.5 43v-373zM285 -82q72 0 121 -38.5t49 -94.5q0 -52 -27 -87.5t-86 -72.5l-152 -96h-8v373q46 16 103 16z" />
    <glyph glyph-name="Rcaron" unicode="&#x158;" horiz-adv-x="1411" 
d="M682 1575l-381 332h277l104 -84l104 84h277zM956 0l-288 500h-142v-500h-389v1505h660q106 0 202.5 -34.5t171 -97.5t118.5 -159.5t44 -212.5q0 -148 -69 -259.5t-187 -174.5l332 -567h-453zM526 834h234q80 0 129 44.5t49 122.5t-49.5 124t-128.5 46h-234v-337z" />
    <glyph glyph-name="rcaron" unicode="&#x159;" horiz-adv-x="804" 
d="M504 1147l-361 432h267l94 -104l94 104h266zM774 692h-31q-148 0 -243 -110v-582h-377v1044h334l22 -133q40 68 117.5 111t177.5 43v-373z" />
    <glyph glyph-name="Sacute" unicode="&#x15a;" horiz-adv-x="1259" 
d="M774 1622h-344l248 252h434zM643 1532q165 0 317 -42t250 -112l-186 -329q-172 129 -383 129q-86 0 -140.5 -30t-54.5 -83q0 -47 49 -78.5t191 -60.5q151 -30 253 -71.5t160.5 -98.5t82.5 -123t24 -156q0 -230 -158.5 -367t-435.5 -137q-178 0 -335.5 53t-272.5 154
l209 324q71 -79 186 -127.5t226 -48.5q192 0 192 116q0 33 -18.5 56t-73.5 45.5t-154 42.5q-149 30 -251.5 75.5t-159.5 105.5t-81 127t-24 153q0 136 75 246t210 173.5t303 63.5z" />
    <glyph glyph-name="sacute" unicode="&#x15b;" horiz-adv-x="987" 
d="M649 1169h-303l268 318h414zM555 1065q110 0 211 -30.5t170 -84.5l-131 -258q-135 92 -250 92q-96 0 -96 -55q0 -25 31.5 -42t134.5 -42q307 -74 307 -303q0 -165 -129 -263.5t-354 -98.5q-121 0 -232 32.5t-174 89.5l137 258q115 -100 271 -100q104 0 104 55
q0 29 -28 49t-115 42q-172 43 -251 110.5t-79 185.5q0 165 125.5 264t347.5 99z" />
    <glyph glyph-name="Scircumflex" unicode="&#x15c;" horiz-adv-x="1259" 
d="M1012 1622h-277l-104 84l-105 -84h-276l381 332zM643 1532q165 0 317 -42t250 -112l-186 -329q-172 129 -383 129q-86 0 -140.5 -30t-54.5 -83q0 -47 49 -78.5t191 -60.5q151 -30 253 -71.5t160.5 -98.5t82.5 -123t24 -156q0 -230 -158.5 -367t-435.5 -137
q-178 0 -335.5 53t-272.5 154l209 324q71 -79 186 -127.5t226 -48.5q192 0 192 116q0 33 -18.5 56t-73.5 45.5t-154 42.5q-149 30 -251.5 75.5t-159.5 105.5t-81 127t-24 153q0 136 75 246t210 173.5t303 63.5z" />
    <glyph glyph-name="scircumflex" unicode="&#x15d;" horiz-adv-x="987" 
d="M885 1174h-267l-94 104l-94 -104h-266l360 432zM555 1065q110 0 211 -30.5t170 -84.5l-131 -258q-135 92 -250 92q-96 0 -96 -55q0 -25 31.5 -42t134.5 -42q307 -74 307 -303q0 -165 -129 -263.5t-354 -98.5q-121 0 -232 32.5t-174 89.5l137 258q115 -100 271 -100
q104 0 104 55q0 29 -28 49t-115 42q-172 43 -251 110.5t-79 185.5q0 165 125.5 264t347.5 99z" />
    <glyph glyph-name="Scedilla" unicode="&#x15e;" horiz-adv-x="1259" 
d="M686 926q151 -30 253 -71.5t160.5 -98.5t82.5 -123t24 -156q0 -219 -144 -354.5t-398 -147.5l-13 -36q215 -15 215 -187q0 -104 -74.5 -163.5t-175.5 -59.5q-66 0 -115.5 18.5t-97.5 57.5l89 121q55 -48 106 -48q32 0 52 18.5t20 49.5q0 68 -99 68q-50 0 -100 -13l-6 9
l53 167q-312 25 -514 203l209 324q71 -79 186 -127.5t226 -48.5q192 0 192 116q0 33 -18.5 56t-73.5 45.5t-154 42.5q-149 30 -251.5 75.5t-159.5 105.5t-81 127t-24 153q0 136 75 246t210 173.5t303 63.5q165 0 317 -42t250 -112l-186 -329q-172 129 -383 129
q-86 0 -140.5 -30t-54.5 -83q0 -47 49 -78.5t191 -60.5z" />
    <glyph glyph-name="scedilla" unicode="&#x15f;" horiz-adv-x="987" 
d="M625 645q307 -74 307 -303q0 -149 -107.5 -245t-296.5 -113l-14 -45q215 -15 215 -187q0 -104 -74.5 -163.5t-175.5 -59.5q-66 0 -115.5 18.5t-97.5 57.5l88 121q55 -48 107 -48q32 0 51.5 18.5t19.5 49.5q0 68 -98 68q-50 0 -100 -13l-6 9l55 172q-104 8 -195 39
t-145 81l137 258q115 -100 271 -100q104 0 104 55q0 29 -28 49t-115 42q-172 43 -251 110.5t-79 185.5q0 165 125.5 264t347.5 99q110 0 211 -30.5t170 -84.5l-131 -258q-135 92 -250 92q-96 0 -96 -55q0 -25 31.5 -42t134.5 -42z" />
    <glyph glyph-name="Scaron" unicode="&#x160;" horiz-adv-x="1259" 
d="M631 1595l-381 332h276l105 -84l104 84h277zM643 1532q165 0 317 -42t250 -112l-186 -329q-172 129 -383 129q-86 0 -140.5 -30t-54.5 -83q0 -47 49 -78.5t191 -60.5q151 -30 253 -71.5t160.5 -98.5t82.5 -123t24 -156q0 -230 -158.5 -367t-435.5 -137q-178 0 -335.5 53
t-272.5 154l209 324q71 -79 186 -127.5t226 -48.5q192 0 192 116q0 33 -18.5 56t-73.5 45.5t-154 42.5q-149 30 -251.5 75.5t-159.5 105.5t-81 127t-24 153q0 136 75 246t210 173.5t303 63.5z" />
    <glyph glyph-name="scaron" unicode="&#x161;" horiz-adv-x="987" 
d="M524 1147l-360 432h266l94 -104l94 104h267zM555 1065q110 0 211 -30.5t170 -84.5l-131 -258q-135 92 -250 92q-96 0 -96 -55q0 -25 31.5 -42t134.5 -42q307 -74 307 -303q0 -165 -129 -263.5t-354 -98.5q-121 0 -232 32.5t-174 89.5l137 258q115 -100 271 -100
q104 0 104 55q0 29 -28 49t-115 42q-172 43 -251 110.5t-79 185.5q0 165 125.5 264t347.5 99z" />
    <glyph glyph-name="Tcedilla" unicode="&#x162;" horiz-adv-x="1376" 
d="M739 0l-20 -61q215 -15 215 -187q0 -104 -74.5 -163.5t-175.5 -59.5q-66 0 -115.5 18.5t-97.5 57.5l88 121q55 -48 107 -48q32 0 51.5 18.5t19.5 49.5q0 68 -98 68q-50 0 -100 -13l-7 9l62 190h-100v1163h-459v342h1306v-342h-458v-1163h-144z" />
    <glyph glyph-name="tcedilla" unicode="&#x163;" horiz-adv-x="907" 
d="M578 -16l-15 -45q215 -15 215 -187q0 -104 -74.5 -163.5t-175.5 -59.5q-66 0 -115.5 18.5t-97.5 57.5l88 121q55 -48 107 -48q32 0 52 18.5t20 49.5q0 68 -99 68q-50 0 -100 -13l-6 9l65 206q-119 46 -183 149.5t-64 254.5v309h-177v315h177v342h376v-342h277v-315h-277
v-305q0 -50 31.5 -79.5t85.5 -29.5q63 0 123 29l90 -295q-110 -69 -250 -69q-23 0 -73 4z" />
    <glyph glyph-name="Tcaron" unicode="&#x164;" horiz-adv-x="1376" 
d="M688 1575l-381 332h277l104 -84l105 84h276zM1341 1163h-458v-1163h-389v1163h-459v342h1306v-342z" />
    <glyph glyph-name="tcaron" unicode="&#x165;" horiz-adv-x="907" 
d="M797 1561q78 0 124 -41t46 -105q0 -52 -25.5 -89t-81.5 -79l-158 -119h-8v416q49 17 103 17zM571 1044h277v-315h-277v-305q0 -50 31.5 -79.5t85.5 -29.5q63 0 123 29l90 -295q-110 -69 -250 -69q-214 0 -335 115.5t-121 324.5v309h-177v315h177v342h376v-342z" />
    <glyph glyph-name="Tbar" unicode="&#x166;" horiz-adv-x="1376" 
d="M883 1163v-344h270v-246h-270v-573h-389v573h-273v246h273v344h-459v342h1306v-342h-458z" />
    <glyph glyph-name="tbar" unicode="&#x167;" horiz-adv-x="907" 
d="M811 344l90 -295q-110 -69 -250 -69q-214 0 -335 115.5t-121 324.5v20h-177v246h177v113h-177v245h177v342h376v-342h277v-245h-277v-113h277v-246h-277v-16q0 -50 31.5 -79.5t85.5 -29.5q63 0 123 29z" />
    <glyph glyph-name="Utilde" unicode="&#x168;" horiz-adv-x="1429" 
d="M602 1931q44 0 85 -20t65.5 -43.5t52 -43.5t47.5 -20q33 0 46 28t13 87h185q0 -156 -77 -242t-190 -86q-39 0 -71 13t-52.5 31.5t-38 37.5t-37.5 32t-42 13q-40 0 -54 -26.5t-14 -87.5h-184q0 162 76 244.5t190 82.5zM1311 1505v-956q0 -264 -155 -420t-441 -156
t-441 156t-155 420v956h389v-930q0 -112 53.5 -179.5t153.5 -67.5t153.5 67.5t53.5 179.5v930h389z" />
    <glyph glyph-name="utilde" unicode="&#x169;" horiz-adv-x="1239" 
d="M498 1528q44 0 85 -20t65.5 -43.5t52 -43.5t47.5 -20q33 0 46 28t13 87h184q0 -167 -76.5 -258t-189.5 -91q-48 0 -86 20t-58 43.5t-46 43.5t-52 20q-40 0 -53.5 -26t-13.5 -88h-185q0 173 76 260.5t191 87.5zM1116 0h-336l-18 104q-85 -124 -281 -124q-186 0 -282.5 125
t-96.5 348v591h377v-571q0 -65 29 -103t86 -38q93 0 145 90v622h377v-1044z" />
    <glyph glyph-name="Umacron" unicode="&#x16a;" horiz-adv-x="1429" 
d="M1008 1622h-584v246h584v-246zM1311 1505v-956q0 -264 -155 -420t-441 -156t-441 156t-155 420v956h389v-930q0 -112 53.5 -179.5t153.5 -67.5t153.5 67.5t53.5 179.5v930h389z" />
    <glyph glyph-name="umacron" unicode="&#x16b;" horiz-adv-x="1239" 
d="M903 1206h-584v246h584v-246zM1116 0h-336l-18 104q-85 -124 -281 -124q-186 0 -282.5 125t-96.5 348v591h377v-571q0 -65 29 -103t86 -38q93 0 145 90v622h377v-1044z" />
    <glyph glyph-name="Ubreve" unicode="&#x16c;" horiz-adv-x="1429" 
d="M825 1948h248q0 -152 -101.5 -251.5t-254.5 -99.5q-156 0 -258.5 99.5t-102.5 251.5h248q0 -71 30 -114.5t83 -43.5q50 0 79 44t29 114zM1311 1505v-956q0 -264 -155 -420t-441 -156t-441 156t-155 420v956h389v-930q0 -112 53.5 -179.5t153.5 -67.5t153.5 67.5
t53.5 179.5v930h389z" />
    <glyph glyph-name="ubreve" unicode="&#x16d;" horiz-adv-x="1239" 
d="M721 1528h248q0 -161 -102 -266t-255 -105q-156 0 -258 105t-102 266h248q0 -60 31.5 -98.5t80.5 -38.5q46 0 77.5 39t31.5 98zM1116 0h-336l-18 104q-85 -124 -281 -124q-186 0 -282.5 125t-96.5 348v591h377v-571q0 -65 29 -103t86 -38q93 0 145 90v622h377v-1044z" />
    <glyph glyph-name="Uring" unicode="&#x16e;" horiz-adv-x="1429" 
d="M717 2126q115 0 191.5 -76t76.5 -192q0 -115 -76 -190t-192 -75q-117 0 -194 75t-77 190q0 116 77 192t194 76zM717 1935q-31 0 -51.5 -21.5t-20.5 -55.5q0 -32 20.5 -53t51.5 -21q29 0 49 21t20 53q0 33 -20 55t-49 22zM1311 1505v-956q0 -264 -155 -420t-441 -156
t-441 156t-155 420v956h389v-930q0 -112 53.5 -179.5t153.5 -67.5t153.5 67.5t53.5 179.5v930h389z" />
    <glyph glyph-name="uring" unicode="&#x16f;" horiz-adv-x="1239" 
d="M612 1692q116 0 192.5 -77t76.5 -192t-76.5 -189.5t-192.5 -74.5q-117 0 -193.5 74.5t-76.5 189.5q0 116 76.5 192.5t193.5 76.5zM612 1501q-31 0 -51 -22t-20 -56q0 -32 20 -52.5t51 -20.5q30 0 50 20.5t20 52.5q0 33 -20.5 55.5t-49.5 22.5zM1116 0h-336l-18 104
q-85 -124 -281 -124q-186 0 -282.5 125t-96.5 348v591h377v-571q0 -65 29 -103t86 -38q93 0 145 90v622h377v-1044z" />
    <glyph glyph-name="Uhungarumlaut" unicode="&#x170;" horiz-adv-x="1429" 
d="M618 1602h-241l145 251h301zM1040 1602h-241l145 251h301zM1311 1505v-956q0 -264 -155 -420t-441 -156t-441 156t-155 420v956h389v-930q0 -112 53.5 -179.5t153.5 -67.5t153.5 67.5t53.5 179.5v930h389z" />
    <glyph glyph-name="uhungarumlaut" unicode="&#x171;" horiz-adv-x="1239" 
d="M518 1169h-242l146 318h301zM940 1169h-242l146 318h301zM1116 0h-336l-18 104q-85 -124 -281 -124q-186 0 -282.5 125t-96.5 348v591h377v-571q0 -65 29 -103t86 -38q93 0 145 90v622h377v-1044z" />
    <glyph glyph-name="Uogonek" unicode="&#x172;" horiz-adv-x="1429" 
d="M1311 1505v-956q0 -193 -84.5 -331t-245.5 -200q-49 -31 -76.5 -67.5t-27.5 -91.5q0 -46 26.5 -71.5t69.5 -25.5q40 0 78 17l69 -191q-66 -32 -157 -32q-64 0 -120 17.5t-101 52.5t-71 94t-26 135q0 55 21 120q-262 13 -404.5 167.5t-142.5 406.5v956h389v-930
q0 -112 53.5 -179.5t153.5 -67.5t153.5 67.5t53.5 179.5v930h389z" />
    <glyph glyph-name="uogonek" unicode="&#x173;" horiz-adv-x="1239" 
d="M1116 -248l70 -190q-68 -33 -158 -33q-64 0 -120 17.5t-100.5 52.5t-70.5 94t-26 135q0 113 65 201l-14 75q-85 -124 -281 -124q-186 0 -282.5 125t-96.5 348v591h377v-571q0 -65 29 -103t86 -38q93 0 145 90v622h377v-1044h-55q-55 -31 -87 -70t-32 -98q0 -46 26.5 -71
t69.5 -25q42 0 78 16z" />
    <glyph glyph-name="Wcircumflex" unicode="&#x174;" horiz-adv-x="1945" 
d="M1354 1602h-277l-104 84l-105 -84h-276l381 331zM1307 -20h-9l-325 706l-326 -706h-8l-631 1525h432l240 -678l289 678h8l289 -678l239 678h432z" />
    <glyph glyph-name="wcircumflex" unicode="&#x175;" horiz-adv-x="1601" 
d="M1161 1174h-266l-94 104l-94 -104h-267l361 432zM1063 -20h-8l-254 438l-256 -438h-8l-527 1064h422l150 -411l215 411h8l213 -411l151 411h422z" />
    <glyph glyph-name="Ycircumflex" unicode="&#x176;" horiz-adv-x="1482" 
d="M1122 1602h-276l-105 84l-104 -84h-277l381 331zM938 600v-600h-389v594l-545 911h453l284 -520l285 520h453z" />
    <glyph glyph-name="ycircumflex" unicode="&#x177;" horiz-adv-x="1228" 
d="M940 1174h-266l-94 104l-95 -104h-266l361 432zM371 -471h-430l471 801l-402 714h422l180 -411l185 411h422z" />
    <glyph glyph-name="Ydieresis" unicode="&#x178;" horiz-adv-x="1482" 
d="M530 1913q74 0 121 -47.5t47 -120.5t-47 -120.5t-121 -47.5t-121 47.5t-47 120.5t47 120.5t121 47.5zM954 1913q74 0 121 -47.5t47 -120.5t-47 -120.5t-121 -47.5t-121 47.5t-47 120.5t47 120.5t121 47.5zM938 600v-600h-389v594l-545 911h453l284 -520l285 520h453z" />
    <glyph glyph-name="Zacute" unicode="&#x179;" horiz-adv-x="1236" 
d="M754 1602h-344l247 251h435zM1171 1497l-557 -1163h578v-334h-1163v8l559 1163h-531v334h1114v-8z" />
    <glyph glyph-name="zacute" unicode="&#x17a;" horiz-adv-x="1019" 
d="M633 1169h-303l268 318h414zM973 1036l-371 -721h367v-315h-926v8l371 721h-346v315h905v-8z" />
    <glyph glyph-name="Zdotaccent" unicode="&#x17b;" horiz-adv-x="1236" 
d="M610 1997q86 0 141.5 -55.5t55.5 -141.5t-55.5 -141t-141.5 -55t-141 55t-55 141t55 141.5t141 55.5zM1171 1497l-557 -1163h578v-334h-1163v8l559 1163h-531v334h1114v-8z" />
    <glyph glyph-name="zdotaccent" unicode="&#x17c;" horiz-adv-x="1019" 
d="M508 1567q86 0 141.5 -55.5t55.5 -141.5t-55.5 -141t-141.5 -55t-141.5 55t-55.5 141t55.5 141.5t141.5 55.5zM973 1036l-371 -721h367v-315h-926v8l371 721h-346v315h905v-8z" />
    <glyph glyph-name="Zcaron" unicode="&#x17d;" horiz-adv-x="1236" 
d="M610 1575l-381 332h277l104 -84l105 84h276zM1171 1497l-557 -1163h578v-334h-1163v8l559 1163h-531v334h1114v-8z" />
    <glyph glyph-name="zcaron" unicode="&#x17e;" horiz-adv-x="1019" 
d="M508 1147l-361 432h267l94 -104l94 104h266zM973 1036l-371 -721h367v-315h-926v8l371 721h-346v315h905v-8z" />
    <glyph glyph-name="florin" unicode="&#x192;" horiz-adv-x="927" 
d="M719 1556q160 0 254 -59l-129 -303q-41 37 -103 37q-49 0 -72.5 -29.5t-29.5 -89.5l-8 -68h231l-35 -315h-231l-92 -833q-21 -176 -142 -282t-311 -106q-158 0 -254 60l129 303q41 -37 103 -37q49 0 72.5 29.5t29.5 89.5l86 776h-149l34 315h150l14 125q21 175 142 281
t311 106z" />
    <glyph glyph-name="Aringacute" unicode="&#x1fa;" horiz-adv-x="1523" 
d="M901 1933h-303l268 318h414zM1499 0h-436l-70 176h-504l-69 -176h-436l667 1356q-82 25 -131 92.5t-49 157.5q0 116 76.5 192t193.5 76q116 0 192.5 -76.5t76.5 -191.5q0 -89 -49 -156t-130 -94zM741 1683q-31 0 -51 -21.5t-20 -55.5q0 -32 20 -53t51 -21q30 0 50 21
t20 53q0 33 -20 55t-50 22zM879 467l-138 352l-137 -352h275z" />
    <glyph glyph-name="aringacute" unicode="&#x1fb;" 
d="M793 1677h-344l247 252h434zM616 1640q116 0 192.5 -76.5t76.5 -191.5t-76.5 -189.5t-192.5 -74.5q-117 0 -193.5 74.5t-76.5 189.5q0 116 76.5 192t193.5 76zM616 1450q-31 0 -51 -22t-20 -56q0 -32 20 -53t51 -21q30 0 50 21t20 53q0 33 -20.5 55.5t-49.5 22.5z
M516 1065q100 0 173 -35t112 -94l20 108h336v-1044h-336l-20 106q-39 -57 -112 -91.5t-173 -34.5q-201 0 -328 153t-127 389t127 389.5t328 153.5zM616 739q-79 0 -126.5 -57t-47.5 -160t47.5 -160t126.5 -57q104 0 164 96v242q-60 96 -164 96z" />
    <glyph glyph-name="AEacute" unicode="&#x1fc;" horiz-adv-x="1853" 
d="M1198 1602h-344l248 251h434zM1757 1151h-717l88 -225h543v-326h-407l100 -246h410v-354h-691l-69 176h-504l-70 -176h-436l680 1505h1073v-354zM625 467h274l-137 352z" />
    <glyph glyph-name="aeacute" unicode="&#x1fd;" horiz-adv-x="1957" 
d="M1102 1169h-303l268 318h414zM1419 1065q95 0 174 -27.5t134 -75.5t93 -114.5t56 -144t18 -164.5v-105h-688q43 -149 217 -149q59 0 112.5 24.5t84.5 65.5l240 -209q-84 -96 -188.5 -141t-246.5 -45q-94 0 -167 34t-109 90l-16 -104h-312l-20 106q-39 -57 -112 -91.5
t-173 -34.5q-201 0 -328 153t-127 389t127 389.5t328 153.5q100 0 173 -35t112 -94l20 108h316l18 -104q38 56 105.5 90.5t158.5 34.5zM1364 799q-63 0 -104.5 -42.5t-55.5 -113.5h320q-2 64 -46 110t-114 46zM616 739q-79 0 -126.5 -57t-47.5 -160t47.5 -160t126.5 -57
q104 0 164 96v242q-60 96 -164 96z" />
    <glyph glyph-name="Oslashacute" unicode="&#x1fe;" horiz-adv-x="1699" 
d="M993 1622h-344l248 252h434zM1528 1669l-172 -309q131 -108 204.5 -265.5t73.5 -344.5q0 -221 -102.5 -399t-282 -278t-399.5 -100q-128 0 -244 35l-96 -172h-332l170 305q-133 106 -207.5 264t-74.5 345q0 223 102 402t281 279.5t401 100.5q135 0 250 -37l96 174h332z
M461 750q0 -154 78 -265l381 686q-40 7 -70 7q-172 0 -280.5 -119.5t-108.5 -308.5zM850 328q172 0 280.5 118t108.5 304q0 154 -74 264l-379 -682q40 -4 64 -4z" />
    <glyph glyph-name="oslashacute" unicode="&#x1ff;" horiz-adv-x="1247" 
d="M723 1169h-303l268 318h414zM1100 1188l-127 -234q100 -73 156.5 -186.5t56.5 -247.5q0 -234 -160 -387t-403 -153q-85 0 -168 22l-78 -145h-230l125 231q-100 73 -155.5 185t-55.5 247q0 235 159.5 390t402.5 155q84 0 168 -23l79 146h230zM422 520q0 -62 22 -114
l193 354h-14q-87 0 -144 -68.5t-57 -171.5zM610 285h13q88 0 145 67t57 168q0 64 -22 119z" />
    <glyph glyph-name="Scommaaccent" unicode="&#x218;" horiz-adv-x="1259" 
d="M643 1532q165 0 317 -42t250 -112l-186 -329q-172 129 -383 129q-86 0 -140.5 -30t-54.5 -83q0 -47 49 -78.5t191 -60.5q151 -30 253 -71.5t160.5 -98.5t82.5 -123t24 -156q0 -230 -158.5 -367t-435.5 -137q-178 0 -335.5 53t-272.5 154l209 324q71 -79 186 -127.5
t226 -48.5q192 0 192 116q0 33 -18.5 56t-73.5 45.5t-154 42.5q-149 30 -251.5 75.5t-159.5 105.5t-81 127t-24 153q0 136 75 246t210 173.5t303 63.5zM639 -82q72 0 121 -38.5t49 -94.5q0 -52 -27 -87.5t-86 -72.5l-151 -96h-8v373q46 16 102 16z" />
    <glyph glyph-name="scommaaccent" unicode="&#x219;" horiz-adv-x="987" 
d="M555 1065q110 0 211 -30.5t170 -84.5l-131 -258q-135 92 -250 92q-96 0 -96 -55q0 -25 31.5 -42t134.5 -42q307 -74 307 -303q0 -165 -129 -263.5t-354 -98.5q-121 0 -232 32.5t-174 89.5l137 258q115 -100 271 -100q104 0 104 55q0 29 -28 49t-115 42
q-172 43 -251 110.5t-79 185.5q0 165 125.5 264t347.5 99zM455 -82q72 0 121 -38.5t49 -94.5q0 -52 -27 -87.5t-86 -72.5l-152 -96h-8v373q46 16 103 16z" />
    <glyph glyph-name="uni021A" unicode="&#x21a;" horiz-adv-x="1376" 
d="M1341 1163h-458v-1163h-389v1163h-459v342h1306v-342zM653 -82q72 0 121 -38.5t49 -94.5q0 -53 -27 -88.5t-85 -71.5l-152 -96h-8v373q46 16 102 16z" />
    <glyph glyph-name="uni021B" unicode="&#x21b;" horiz-adv-x="907" 
d="M571 1044h277v-315h-277v-305q0 -50 31.5 -79.5t85.5 -29.5q63 0 123 29l90 -295q-110 -69 -250 -69q-214 0 -335 115.5t-121 324.5v309h-177v315h177v342h376v-342zM475 -82q72 0 121 -38.5t49 -94.5q0 -52 -27 -87.5t-86 -72.5l-151 -96h-8v373q46 16 102 16z" />
    <glyph glyph-name="circumflex" unicode="&#x2c6;" horiz-adv-x="782" 
d="M752 1174h-267l-94 104l-94 -104h-266l360 432z" />
    <glyph glyph-name="caron" unicode="&#x2c7;" horiz-adv-x="782" 
d="M391 1147l-360 432h266l94 -104l94 104h267z" />
    <glyph glyph-name="breve" unicode="&#x2d8;" horiz-adv-x="778" 
d="M500 1528h248q0 -161 -102 -266t-255 -105q-156 0 -258 105t-102 266h248q0 -60 31.5 -98.5t80.5 -38.5q46 0 77.5 39t31.5 98z" />
    <glyph glyph-name="dotaccent" unicode="&#x2d9;" horiz-adv-x="483" 
d="M242 1567q86 0 141 -55.5t55 -141.5t-55 -141t-141 -55t-141.5 55t-55.5 141t55.5 141.5t141.5 55.5z" />
    <glyph glyph-name="ring" unicode="&#x2da;" horiz-adv-x="600" 
d="M301 1692q115 0 191.5 -76.5t76.5 -192.5q0 -115 -76 -189.5t-192 -74.5q-117 0 -193.5 74.5t-76.5 189.5q0 116 76.5 192.5t193.5 76.5zM301 1501q-31 0 -51.5 -22t-20.5 -56q0 -32 20.5 -52.5t51.5 -20.5q30 0 50 20.5t20 52.5q0 33 -20.5 55.5t-49.5 22.5z" />
    <glyph glyph-name="ogonek" unicode="&#x2db;" horiz-adv-x="536" 
d="M231 162l109 -162q-55 -31 -87 -70t-32 -98q0 -46 26.5 -71t69.5 -25q42 0 78 16l70 -190q-68 -33 -158 -33q-64 0 -120 17.5t-100.5 52.5t-70.5 94t-26 135q0 124 72 210t169 124z" />
    <glyph glyph-name="tilde" unicode="&#x2dc;" horiz-adv-x="821" 
d="M297 1528q44 0 85 -20t65.5 -43.5t52 -43.5t47.5 -20q33 0 46 28t13 87h185q0 -166 -77 -257.5t-190 -91.5q-39 0 -71 13t-52.5 31.5t-38 37.5t-37.5 32t-42 13q-40 0 -54 -26.5t-14 -87.5h-184q0 173 75.5 260.5t190.5 87.5z" />
    <glyph glyph-name="hungarumlaut" unicode="&#x2dd;" horiz-adv-x="929" 
d="M334 1169h-242l146 318h301zM756 1169h-242l145 318h302z" />
    <glyph glyph-name="uni0326" unicode="&#x326;" horiz-adv-x="0" 
d="M207 -82q72 0 121 -38.5t49 -94.5q0 -52 -27 -87.5t-86 -72.5l-151 -96h-9v373q46 16 103 16z" />
    <glyph glyph-name="uni03A9" unicode="&#x3a9;" horiz-adv-x="1757" 
d="M879 1536q161 0 294 -53t222.5 -146.5t138.5 -222.5t49 -280q0 -74 -12.5 -139t-39 -123t-40.5 -83t-45 -73h240v-416h-719v395q90 100 138 195.5t48 224.5q0 145 -73.5 226t-200.5 81t-201 -81t-74 -226q0 -129 48 -224.5t139 -195.5v-395h-719v416h239q-31 48 -45 73
t-40.5 83t-39 123t-12.5 139q0 202 84 360.5t245.5 250t375.5 91.5z" />
    <glyph glyph-name="pi" unicode="&#x3c0;" horiz-adv-x="1603" 
d="M1303 1180l296 -172q-17 -65 -45 -120t-72.5 -103t-111.5 -75.5t-151 -27.5h-7l-32 -272q-9 -68 37 -68q32 0 73 33l129 -271q-80 -63 -166.5 -93.5t-199.5 -30.5q-67 0 -115 18.5t-72.5 50t-38 73.5t-12.5 87.5t4 93.5l49 379h-114l-52 -399q-18 -156 -86 -283h-380
q7 15 29.5 60.5t29.5 61t22.5 51t22 57t14 52t11.5 60.5l45 340h-15q-112 0 -188 -113l-176 265q48 50 85 80.5t89.5 58.5t117.5 40.5t150 12.5h547q67 0 115 10t79.5 31.5t50.5 47t38 65.5z" />
    <glyph glyph-name="Wgrave" unicode="&#x1e80;" horiz-adv-x="1945" 
d="M1139 1602h-344l-338 251h434zM1307 -20h-9l-325 706l-326 -706h-8l-631 1525h432l240 -678l289 678h8l289 -678l239 678h432z" />
    <glyph glyph-name="wgrave" unicode="&#x1e81;" horiz-adv-x="1601" 
d="M963 1169h-304l-378 318h413zM1063 -20h-8l-254 438l-256 -438h-8l-527 1064h422l150 -411l215 411h8l213 -411l151 411h422z" />
    <glyph glyph-name="Wacute" unicode="&#x1e82;" horiz-adv-x="1945" 
d="M1116 1602h-344l248 251h434zM1307 -20h-9l-325 706l-326 -706h-8l-631 1525h432l240 -678l289 678h8l289 -678l239 678h432z" />
    <glyph glyph-name="wacute" unicode="&#x1e83;" horiz-adv-x="1601" 
d="M926 1169h-303l268 318h414zM1063 -20h-8l-254 438l-256 -438h-8l-527 1064h422l150 -411l215 411h8l213 -411l151 411h422z" />
    <glyph glyph-name="Wdieresis" unicode="&#x1e84;" horiz-adv-x="1945" 
d="M762 1913q74 0 121 -47.5t47 -120.5t-47 -120.5t-121 -47.5t-121 47.5t-47 120.5t47 120.5t121 47.5zM1186 1913q74 0 121 -47.5t47 -120.5t-47 -120.5t-121 -47.5t-121 47.5t-47 120.5t47 120.5t121 47.5zM1307 -20h-9l-325 706l-326 -706h-8l-631 1525h432l240 -678
l289 678h8l289 -678l239 678h432z" />
    <glyph glyph-name="wdieresis" unicode="&#x1e85;" horiz-adv-x="1601" 
d="M590 1509q74 0 121 -47.5t47 -120.5t-47 -120t-121 -47t-121 47t-47 120t47 120.5t121 47.5zM1014 1509q74 0 121 -47.5t47 -120.5t-47 -120t-121 -47t-121 47t-47 120t47 120.5t121 47.5zM1063 -20h-8l-254 438l-256 -438h-8l-527 1064h422l150 -411l215 411h8l213 -411
l151 411h422z" />
    <glyph glyph-name="Ygrave" unicode="&#x1ef2;" horiz-adv-x="1482" 
d="M907 1602h-344l-338 251h434zM938 600v-600h-389v594l-545 911h453l284 -520l285 520h453z" />
    <glyph glyph-name="ygrave" unicode="&#x1ef3;" horiz-adv-x="1228" 
d="M741 1169h-303l-379 318h414zM371 -471h-430l471 801l-402 714h422l180 -411l185 411h422z" />
    <glyph glyph-name="endash" unicode="&#x2013;" horiz-adv-x="1116" 
d="M1044 358h-972v342h972v-342z" />
    <glyph glyph-name="emdash" unicode="&#x2014;" horiz-adv-x="1617" 
d="M1546 358h-1474v342h1474v-342z" />
    <glyph glyph-name="quoteleft" unicode="&#x2018;" horiz-adv-x="471" 
d="M379 1624v-729q-46 -16 -88 -16q-95 0 -157 62.5t-62 156.5q0 69 47 139l252 387h8z" />
    <glyph glyph-name="quoteright" unicode="&#x2019;" horiz-adv-x="471" 
d="M180 1622q95 0 157 -62.5t62 -156.5q0 -69 -47 -139l-252 -387h-8v729q46 16 88 16z" />
    <glyph glyph-name="quotesinglbase" unicode="&#x201a;" horiz-adv-x="471" 
d="M180 379q95 0 157 -62.5t62 -156.5q0 -70 -47 -140l-252 -387h-8v729q49 17 88 17z" />
    <glyph glyph-name="quotedblleft" unicode="&#x201c;" horiz-adv-x="915" 
d="M379 1624v-729q-46 -16 -88 -16q-95 0 -157 62.5t-62 156.5q0 69 47 139l252 387h8zM823 1624v-729q-46 -16 -88 -16q-95 0 -157 62.5t-62 156.5q0 69 47 139l252 387h8z" />
    <glyph glyph-name="quotedblright" unicode="&#x201d;" horiz-adv-x="915" 
d="M180 1622q95 0 157 -62.5t62 -156.5q0 -69 -47 -139l-252 -387h-8v729q46 16 88 16zM625 1622q95 0 157 -62.5t62 -156.5q0 -69 -47 -139l-252 -387h-8v729q46 16 88 16z" />
    <glyph glyph-name="quotedblbase" unicode="&#x201e;" horiz-adv-x="966" 
d="M180 379q95 0 157 -62.5t62 -156.5q0 -70 -47 -140l-252 -387h-8v729q49 17 88 17zM676 379q95 0 157 -62.5t62 -156.5q0 -70 -47 -140l-252 -387h-8v729q49 17 88 17z" />
    <glyph glyph-name="dagger" unicode="&#x2020;" horiz-adv-x="1019" 
d="M692 1184h285v-334h-285v-850h-368v850h-281v334h281v321h368v-321z" />
    <glyph glyph-name="daggerdbl" unicode="&#x2021;" horiz-adv-x="1024" 
d="M696 1184h285v-334h-285v-195h281v-333h-281v-322h-368v322h-285v333h285v195h-281v334h281v321h368v-321z" />
    <glyph glyph-name="bullet" unicode="&#x2022;" horiz-adv-x="604" 
d="M301 780q109 0 180.5 -71.5t71.5 -180.5q0 -107 -71.5 -178t-180.5 -71q-107 0 -178.5 71t-71.5 178q0 109 71.5 180.5t178.5 71.5z" />
    <glyph glyph-name="ellipsis" unicode="&#x2026;" horiz-adv-x="1744" 
d="M291 418q95 0 157 -62t62 -157t-62 -157t-157 -62t-157 62t-62 157t62 157t157 62zM872 418q95 0 157.5 -62t62.5 -157t-62.5 -157t-157.5 -62t-157 62t-62 157t62 157t157 62zM1454 418q95 0 157 -62t62 -157t-62 -157t-157 -62t-157 62t-62 157t62 157t157 62z" />
    <glyph glyph-name="perthousand" unicode="&#x2030;" horiz-adv-x="2740" 
d="M436 1530q167 0 279 -111t112 -278t-111.5 -276t-279.5 -109q-170 0 -281.5 109t-111.5 276q0 168 111.5 278.5t281.5 110.5zM643 0h-354l958 1505h355zM436 1268q-51 0 -82.5 -35.5t-31.5 -91.5q0 -53 32 -88t82 -35q47 0 80 35.5t33 87.5q0 55 -32.5 91t-80.5 36z
M1452 748q167 0 279 -111.5t112 -278.5t-111.5 -276t-279.5 -109q-170 0 -281.5 109t-111.5 276q0 168 111.5 279t281.5 111zM2306 748q167 0 279 -111.5t112 -278.5t-111.5 -276t-279.5 -109q-170 0 -281.5 109t-111.5 276q0 168 111.5 279t281.5 111zM1452 485
q-51 0 -83 -35.5t-32 -91.5q0 -53 32 -87.5t83 -34.5q48 0 80.5 35t32.5 87q0 55 -32.5 91t-80.5 36zM2306 485q-51 0 -83 -35.5t-32 -91.5q0 -53 32 -87.5t83 -34.5q48 0 80.5 35t32.5 87q0 55 -32.5 91t-80.5 36z" />
    <glyph glyph-name="guilsinglleft" unicode="&#x2039;" horiz-adv-x="632" 
d="M381 524l221 -413h-336l-235 409v8l235 410h336z" />
    <glyph glyph-name="guilsinglright" unicode="&#x203a;" horiz-adv-x="632" 
d="M602 528v-8l-235 -409h-336l221 413l-221 414h336z" />
    <glyph glyph-name="fraction" unicode="&#x2044;" horiz-adv-x="530" 
d="M63 0h-339l745 1505h338z" />
    <glyph glyph-name="zero.sups" unicode="&#x2070;" horiz-adv-x="784" 
d="M414 1679q155 0 247.5 -120t92.5 -322q0 -204 -92.5 -325t-247.5 -121q-157 0 -249.5 121t-92.5 325q0 203 92.5 322.5t249.5 119.5zM414 1448q-40 0 -56 -53.5t-16 -157.5q0 -105 16 -159t56 -54q39 0 54 54t15 159q0 104 -15 157.5t-54 53.5z" />
    <glyph glyph-name="four.sups" unicode="&#x2074;" horiz-adv-x="790" 
d="M709 1059h71v-182h-71v-70h-267v70h-422v2l685 804h4v-624zM344 1040h137v152z" />
    <glyph glyph-name="five.sups" unicode="&#x2075;" horiz-adv-x="729" 
d="M657 1432h-286v-62h20q67 0 121.5 -15t100.5 -47.5t72 -92t26 -140.5q0 -131 -87.5 -207.5t-238.5 -76.5q-264 0 -322 206l226 109q0 -43 23 -61.5t55 -18.5q33 0 54 16.5t21 47.5q0 29 -21.5 47t-55.5 18q-28 0 -47 -10t-23 -19l-191 82v457h553v-233z" />
    <glyph glyph-name="six.sups" unicode="&#x2076;" horiz-adv-x="757" 
d="M676 1665l-180 -289q104 -28 169.5 -105.5t65.5 -180.5q0 -130 -97.5 -214.5t-236.5 -84.5q-137 0 -233 84.5t-96 214.5q0 85 49 163l258 412h301zM397 1012q72 0 72 78q0 81 -72 81q-32 0 -50.5 -20.5t-18.5 -60.5q0 -39 18.5 -58.5t50.5 -19.5z" />
    <glyph glyph-name="seven.sups" unicode="&#x2077;" horiz-adv-x="733" 
d="M748 1657l-406 -850h-287l301 618h-290v240h682v-8z" />
    <glyph glyph-name="eight.sups" unicode="&#x2078;" horiz-adv-x="759" 
d="M399 1681q128 0 218 -76t90 -192q0 -86 -70 -156q96 -83 96 -182q0 -125 -97 -204.5t-237 -79.5q-138 0 -233.5 79.5t-95.5 204.5q0 102 94 180q-72 72 -72 158q0 117 89.5 192.5t217.5 75.5zM399 1473q-32 0 -51.5 -21.5t-19.5 -52.5q0 -29 19.5 -47.5t51.5 -18.5
t53 18.5t21 47.5q0 31 -21 52.5t-53 21.5zM399 1147q-31 0 -50 -21t-19 -53t19 -50.5t50 -18.5q34 0 53 18.5t19 50.5q0 33 -19.5 53.5t-52.5 20.5z" />
    <glyph glyph-name="nine.sups" unicode="&#x2079;" horiz-adv-x="757" 
d="M401 1681q138 0 234 -84.5t96 -214.5q0 -85 -49 -163l-258 -412h-301l180 289q-104 28 -169.5 105.5t-65.5 180.5q0 130 97 214.5t236 84.5zM401 1460q-71 0 -71 -78q0 -82 71 -82q32 0 51 21t19 61q0 38 -19 58t-51 20z" />
    <glyph glyph-name="nsuperior" unicode="&#x207f;" horiz-adv-x="894" 
d="M547 1544q134 0 204 -89t70 -249v-411h-299v395q0 35 -15 55.5t-44 20.5q-30 0 -51.5 -16.5t-26.5 -35.5v-419h-297v735h264l15 -68q50 82 180 82z" />
    <glyph glyph-name="Euro" unicode="&#x20ac;" horiz-adv-x="1372" 
d="M874 307q152 0 248 150l230 -269q-182 -215 -478 -215q-231 0 -401.5 128t-239.5 356h-178v233h140l-2 64q0 48 2 73h-140v234h183q70 223 238 347t398 124q296 0 478 -215l-230 -268q-95 149 -248 149q-144 0 -223 -137h244v-234h-305q-2 -25 -2 -73q0 -44 2 -64h305
v-233h-248q77 -150 227 -150z" />
    <glyph glyph-name="uni2113" unicode="&#x2113;" horiz-adv-x="1196" 
d="M729 1536q103 0 188 -38t140 -121.5t55 -200.5q0 -84 -28.5 -171t-69.5 -156t-104 -144t-113 -124t-115 -108v-102q0 -42 16.5 -60t51.5 -18q47 0 79 28.5t89 105.5q10 14 16 22l215 -177q-92 -150 -205.5 -225.5t-263.5 -75.5q-148 0 -242 76t-94 162v2
q-41 -46 -119 -109l-182 267q203 170 287 254v505q0 213 100 310.5t299 97.5zM727 1251q-29 0 -51.5 -23.5t-22.5 -64.5v-319q49 51 98.5 144t49.5 175q0 42 -21.5 65t-52.5 23z" />
    <glyph glyph-name="trademark" unicode="&#x2122;" horiz-adv-x="1880" 
d="M1808 735h-266v187l-178 -201h-8l-178 201v-187h-267v785h4l445 -465l444 465h4v-785zM788 1251h-235v-516h-266v516h-236v254h737v-254z" />
    <glyph glyph-name="Omega" unicode="&#x2126;" horiz-adv-x="1757" 
d="M879 1536q161 0 294 -53t222.5 -146.5t138.5 -222.5t49 -280q0 -74 -12.5 -139t-39 -123t-40.5 -83t-45 -73h240v-416h-719v395q90 100 138 195.5t48 224.5q0 145 -73.5 226t-200.5 81t-201 -81t-74 -226q0 -129 48 -224.5t139 -195.5v-395h-719v416h239q-31 48 -45 73
t-40.5 83t-39 123t-12.5 139q0 202 84 360.5t245.5 250t375.5 91.5z" />
    <glyph glyph-name="estimated" unicode="&#x212e;" horiz-adv-x="1210" 
d="M631 1092q108 0 200 -34t161 -99t108 -168t39 -232h-750v-360q0 -30 4 -50t22 -43t52 -38q55 -25 164 -25q136 0 248.5 67t187.5 187l61 -39q-86 -136 -214 -211.5t-283 -75.5q-243 0 -401 154t-158 405q0 168 73 296.5t200 197t286 68.5zM631 1020q-102 0 -170 -31
q-72 -31 -72 -127v-231h461v227q0 60 -13.5 89.5t-58.5 47.5q-65 25 -147 25z" />
    <glyph glyph-name="partialdiff" unicode="&#x2202;" horiz-adv-x="1138" 
d="M537 1532q103 0 187.5 -31t141 -81t99 -122.5t65.5 -144.5t37.5 -159t18.5 -154t4 -140q0 -243 -72 -417q-64 -152 -180 -227.5t-267 -75.5q-225 0 -371.5 136.5t-146.5 356.5q0 223 139 359.5t353 136.5q54 0 100 -13.5t68 -31.5q0 124 -56 190t-151 66
q-131 0 -207 -131l-250 235q175 248 488 248zM575 637q-63 0 -102 -44.5t-39 -119.5q0 -74 38.5 -118t102.5 -44t104 44t40 118t-40 119t-104 45z" />
    <glyph glyph-name="uni2206" unicode="&#x2206;" horiz-adv-x="1476" 
d="M1405 0h-1333l667 1323zM567 297h342l-170 342z" />
    <glyph glyph-name="product" unicode="&#x220f;" horiz-adv-x="1445" 
d="M1374 1161h-174v-1368h-352v1368h-248v-1368h-356v1368h-172v355h1302v-355z" />
    <glyph glyph-name="summation" unicode="&#x2211;" horiz-adv-x="1249" 
d="M1153 1135h-545l254 -347l-274 -407h590v-381h-1106v254l350 526l-344 482v254h1075v-381z" />
    <glyph glyph-name="minus" unicode="&#x2212;" horiz-adv-x="1089" 
d="M1022 545h-954v342h954v-342z" />
    <glyph glyph-name="radical" unicode="&#x221a;" horiz-adv-x="1427" 
d="M1397 1294l-639 -1452l-344 635l-207 -127l-176 281l573 342l144 -303l331 760z" />
    <glyph glyph-name="infinity" unicode="&#x221e;" horiz-adv-x="1601" 
d="M1118 1049q182 0 297 -123.5t115 -304.5q0 -182 -115 -306.5t-297 -124.5q-170 0 -332 146l-20 18l-18 -16q-136 -119 -293 -119q-174 0 -278.5 113.5t-104.5 285.5q0 171 104.5 287.5t278.5 116.5q87 0 154.5 -33t135.5 -94l19 -14l12 12q76 76 155.5 116t186.5 40z
M1124 733q-39 0 -72 -22t-75 -68l-19 -25l19 -22q46 -46 78.5 -68t68.5 -22q43 0 69 33t26 82q0 47 -26 79.5t-69 32.5zM449 717q-37 0 -58.5 -28.5t-21.5 -70.5q0 -40 21.5 -68t58.5 -28q68 0 120 74l15 20l-15 15q-67 86 -120 86z" />
    <glyph glyph-name="integral" unicode="&#x222b;" horiz-adv-x="888" 
d="M551 1536q164 0 287 -45l-66 -297q-77 25 -131 25q-21 0 -34 -13.5t-13 -38.5v-1190q0 -201 -70.5 -284.5t-226.5 -83.5q-164 0 -287 45l66 297q77 -25 131 -25q21 0 34 13t13 38v1190q0 201 70.5 285t226.5 84z" />
    <glyph glyph-name="approxequal" unicode="&#x2248;" horiz-adv-x="1259" 
d="M428 1233q58 0 110.5 -16.5t90 -39.5t71 -46t68 -39.5t66.5 -16.5q66 0 112 37t72 96l211 -176q-60 -142 -166 -222.5t-232 -80.5q-61 0 -111 16.5t-83.5 39.5t-63.5 46t-67 39.5t-78 16.5q-129 0 -186 -133l-211 176q60 142 165.5 222.5t231.5 80.5zM428 674
q58 0 110.5 -16.5t90 -39.5t71 -46t68 -39.5t66.5 -16.5q66 0 112 37t72 96l211 -176q-60 -142 -166 -222.5t-232 -80.5q-61 0 -111 16.5t-83.5 39.5t-63.5 46t-67 39.5t-78 16.5q-129 0 -186 -133l-211 176q60 142 165.5 222.5t231.5 80.5z" />
    <glyph glyph-name="notequal" unicode="&#x2260;" horiz-adv-x="1089" 
d="M745 831l-86 -239h363v-342h-483l-66 -189h-313l65 189h-157v342h278l86 239h-364v343h483l96 270h314l-97 -270h158v-343h-277z" />
    <glyph glyph-name="lessequal" unicode="&#x2264;" horiz-adv-x="837" 
d="M489 975l318 -332h-469l-307 328v8l307 328h469zM807 203h-776v342h776v-342z" />
    <glyph glyph-name="greaterequal" unicode="&#x2265;" horiz-adv-x="837" 
d="M807 979v-8l-307 -328h-469l317 332l-317 332h469zM807 203h-776v342h776v-342z" />
    <glyph glyph-name="lozenge" unicode="&#x25ca;" horiz-adv-x="1165" 
d="M1114 688l-416 -821h-229l-418 821l418 823h229zM444 688l140 -272l139 272l-139 270z" />
    <glyph glyph-name="CR" horiz-adv-x="512" 
 />
    <glyph glyph-name="germandbls.cap" horiz-adv-x="1452" 
d="M723 1532q213 0 358 -76t258 -215l-198 -364q256 -102 256 -396q0 -225 -155 -366.5t-408 -141.5q-158 0 -242 37l67 352q59 -34 129 -34q79 0 133 54.5t54 137.5q0 47 -18 81.5t-47 55t-74.5 32.5t-91 16t-105.5 4l-4 10l209 399q-56 56 -148 56q-86 0 -135 -56.5
t-49 -152.5v-965h-377v967q0 160 75 289t210 202.5t303 73.5z" />
    <glyph glyph-name="endash_guilsinglright" horiz-adv-x="1378" 
d="M1317 559l-639 -573l-172 209l248 211h-695v303h699l-252 215l172 209z" />
    <glyph glyph-name="emdash_guilsinglright" horiz-adv-x="2025" 
d="M1966 559l-641 -573l-172 209l248 211h-1342v303h1346l-252 215l172 209z" />
    <glyph glyph-name="guilsinglleft_endash" horiz-adv-x="1376" 
d="M872 924l-251 -215h696v-303h-692l247 -211l-172 -209l-641 573l641 574z" />
    <glyph glyph-name="guilsinglleft_emdash" horiz-adv-x="2025" 
d="M872 924l-251 -215h1345v-303h-1341l247 -211l-172 -209l-641 573l641 574z" />
    <glyph glyph-name="at.cap" horiz-adv-x="1826" 
d="M911 1606q255 0 452.5 -104t306 -292.5t108.5 -431.5q0 -209 -107 -341t-287 -132q-103 0 -179 39t-107 94l-4 6q-45 -58 -118.5 -98.5t-152.5 -40.5q-166 0 -271.5 127t-105.5 322q0 196 105.5 323t271.5 127q81 0 142 -29.5t94 -76.5l16 90h279v-582q0 -88 73 -88
q62 0 95.5 69t33.5 191q0 281 -172 452t-473 171q-284 0 -462.5 -181.5t-178.5 -465.5q0 -283 172.5 -462t448.5 -179q143 0 262 49l53 -195q-145 -59 -315 -59q-241 0 -433.5 109t-300.5 302t-108 435q0 181 64.5 339t177.5 270.5t274 177.5t346 65zM905 934
q-66 0 -104.5 -47t-38.5 -133q0 -85 38.5 -132t104.5 -47q85 0 137 80v199q-52 80 -137 80z" />
    <glyph glyph-name="grave.cap" horiz-adv-x="743" 
d="M713 1602h-344l-338 251h434z" />
    <glyph glyph-name="acute.cap" horiz-adv-x="743" 
d="M375 1602h-344l248 251h434z" />
    <glyph glyph-name="circumflex.cap" horiz-adv-x="823" 
d="M793 1602h-277l-104 84l-105 -84h-276l381 331z" />
    <glyph glyph-name="caron.cap" horiz-adv-x="823" 
d="M412 1575l-381 332h276l105 -84l104 84h277z" />
    <glyph glyph-name="tilde.cap" horiz-adv-x="821" 
d="M297 1931q44 0 85 -20t65.5 -43.5t52 -43.5t47.5 -20q33 0 46 28t13 87h185q0 -156 -77 -242t-190 -86q-39 0 -71 13t-52.5 31.5t-38 37.5t-37.5 32t-42 13q-40 0 -54 -26.5t-14 -87.5h-184q0 162 76 244.5t190 82.5z" />
    <glyph glyph-name="dieresis.cap" horiz-adv-x="821" 
d="M199 1913q73 0 120.5 -47.5t47.5 -120.5t-47.5 -120.5t-120.5 -47.5t-120.5 47.5t-47.5 120.5t47.5 120.5t120.5 47.5zM623 1913q73 0 120.5 -47.5t47.5 -120.5t-47.5 -120.5t-120.5 -47.5t-120.5 47.5t-47.5 120.5t47.5 120.5t120.5 47.5z" />
    <glyph glyph-name="macron.cap" horiz-adv-x="645" 
d="M614 1622h-583v246h583v-246z" />
    <glyph glyph-name="breve.cap" horiz-adv-x="778" 
d="M500 1948h248q0 -152 -102 -251.5t-255 -99.5q-155 0 -257.5 99.5t-102.5 251.5h248q0 -71 29.5 -114.5t82.5 -43.5q50 0 79.5 44t29.5 114z" />
    <glyph glyph-name="ring.cap" horiz-adv-x="600" 
d="M301 2126q115 0 191.5 -76t76.5 -192q0 -115 -76 -190t-192 -75q-117 0 -193.5 75t-76.5 190q0 116 76.5 192t193.5 76zM301 1935q-31 0 -51.5 -21.5t-20.5 -55.5q0 -32 20.5 -53t51.5 -21q30 0 50 21t20 53q0 33 -20 55t-50 22z" />
    <glyph glyph-name="hungarumlaut.cap" horiz-adv-x="929" 
d="M338 1602h-242l146 251h301zM760 1602h-242l146 251h301z" />
    <glyph glyph-name="dotaccent.cap" horiz-adv-x="444" 
d="M221 1997q86 0 141.5 -55.5t55.5 -141.5t-55.5 -141t-141.5 -55t-141 55t-55 141t55 141.5t141 55.5z" />
    <glyph glyph-name="parenleft.cap" horiz-adv-x="708" 
d="M389 1675l289 -198q-56 -74 -95.5 -139.5t-76.5 -153.5t-55.5 -196t-18.5 -236t18.5 -236t55.5 -196t76.5 -153.5t95.5 -139.5l-289 -199q-64 86 -113 170.5t-97.5 199.5t-74.5 256t-26 298t26 298t74.5 255.5t97.5 199t113 170.5z" />
    <glyph glyph-name="parenright.cap" horiz-adv-x="708" 
d="M31 1477l288 198q64 -86 113.5 -170.5t97.5 -199t74.5 -255.5t26.5 -298t-26.5 -298t-74.5 -256t-97.5 -199.5t-113.5 -170.5l-288 199q56 74 95.5 139.5t76 153.5t55 196t18.5 236t-18.5 236t-55 196t-76 153.5t-95.5 139.5z" />
    <glyph glyph-name="bracketleft.cap" horiz-adv-x="720" 
d="M670 1339h-203v-1175h203v-293h-557v1761h557v-293z" />
    <glyph glyph-name="bracketright.cap" horiz-adv-x="720" 
d="M608 -129h-557v293h203v1175h-203v293h557v-1761z" />
    <glyph glyph-name="braceleft.cap" horiz-adv-x="708" 
d="M657 1632v-293q-93 0 -128 -55t-15 -149l16 -82q24 -119 -7.5 -201t-96.5 -100q65 -18 96.5 -100t7.5 -201l-16 -82q-20 -94 15 -149.5t128 -55.5v-293q-310 0 -427.5 149t-61.5 418l16 78q19 90 -28 153t-125 79v8q78 16 125 78.5t28 152.5l-16 78q-56 269 61.5 418
t427.5 149z" />
    <glyph glyph-name="braceright.cap" horiz-adv-x="708" 
d="M51 1339v293q310 0 428 -149t62 -418l-17 -78q-19 -90 28.5 -152.5t125.5 -78.5v-8q-78 -16 -125.5 -79t-28.5 -153l17 -78q56 -269 -62 -418t-428 -149v293q93 0 128.5 55.5t15.5 149.5l-17 82q-24 119 8 201t97 100q-65 18 -97 100t-8 201l17 82q20 93 -15.5 148.5
t-128.5 55.5z" />
    <glyph glyph-name="guilsinglleft.cap" horiz-adv-x="673" 
d="M381 725l262 -455h-336l-276 451v8l276 451h336z" />
    <glyph glyph-name="guilsinglright.cap" horiz-adv-x="673" 
d="M643 729v-8l-276 -451h-336l262 455l-262 455h336z" />
    <glyph glyph-name="guillemotleft.cap" horiz-adv-x="1222" 
d="M381 725l262 -455h-336l-276 451v8l276 451h336zM930 725l262 -455h-336l-276 451v8l276 451h336z" />
    <glyph glyph-name="guillemotright.cap" horiz-adv-x="1222" 
d="M643 729v-8l-276 -451h-336l262 455l-262 455h336zM1192 729v-8l-277 -451h-335l262 455l-262 455h335z" />
    <glyph glyph-name="exclamdown.cap" horiz-adv-x="651" 
d="M326 1110q-92 0 -151.5 59.5t-59.5 151.5t59.5 151.5t151.5 59.5t151.5 -59.5t59.5 -151.5t-59.5 -151.5t-151.5 -59.5zM139 1010h377v-1010h-377v1010z" />
    <glyph glyph-name="questiondown.cap" horiz-adv-x="1128" 
d="M584 1110q-92 0 -151.5 59.5t-59.5 151.5t59.5 151.5t151.5 59.5t151.5 -59.5t59.5 -151.5t-59.5 -151.5t-151.5 -59.5zM578 -27q-151 0 -271 60.5t-185 161t-65 221.5q0 75 19 133.5t48.5 96t66 67.5t73 56.5t66 55t48.5 70.5t19 96v19h377v-72q0 -72 -18 -130
t-46.5 -95t-63 -67t-68.5 -54t-62.5 -47t-46.5 -54t-18 -69q0 -54 37 -84.5t94 -30.5q60 0 99 41.5t44 100.5l371 -60q-42 -199 -174.5 -307.5t-343.5 -108.5z" />
    <glyph glyph-name="endash.cap" horiz-adv-x="1116" 
d="M1044 559h-972v342h972v-342z" />
    <glyph glyph-name="periodcentered.cap" horiz-adv-x="540" 
d="M270 946q95 0 157 -62t62 -157t-62 -157t-157 -62t-157 62t-62 157t62 157t157 62z" />
    <glyph glyph-name="emdash.cap" horiz-adv-x="1617" 
d="M1546 559h-1474v342h1474v-342z" />
    <glyph glyph-name="hyphen.cap" horiz-adv-x="790" 
d="M719 559h-647v342h647v-342z" />
    <glyph glyph-name="zero.dnom" horiz-adv-x="825" 
d="M414 872q155 0 247.5 -120t92.5 -322q0 -204 -92.5 -325t-247.5 -121q-157 0 -249.5 121t-92.5 325q0 203 92.5 322.5t249.5 119.5zM414 641q-40 0 -56 -53.5t-16 -157.5q0 -105 16 -159t56 -54q39 0 54 54t15 159q0 104 -15 157.5t-54 53.5z" />
    <glyph glyph-name="one.dnom" horiz-adv-x="610" 
d="M496 0h-267v471l-90 -35l-104 250l457 188h4v-874z" />
    <glyph glyph-name="two.dnom" horiz-adv-x="743" 
d="M344 874q151 0 241.5 -83.5t90.5 -212.5q0 -89 -86 -213l-92 -132h178v-233h-621v6l307 490q5 8 12.5 19.5t10.5 16t8 12.5t6.5 11.5t3.5 9.5t2.5 10.5t0.5 10.5q0 24 -16.5 38.5t-45.5 14.5q-65 0 -74 -100l-241 55q51 280 315 280z" />
    <glyph glyph-name="three.dnom" horiz-adv-x="727" 
d="M352 874q144 0 232 -83t88 -205q0 -96 -78 -160q84 -59 84 -162q0 -123 -88.5 -201.5t-237.5 -78.5q-275 0 -317 270l241 51q3 -86 76 -86q26 0 42 15.5t16 41.5q0 28 -14.5 45t-39.5 17h-92v199h92q24 1 38 15.5t14 35.5q0 24 -17 37.5t-43 13.5q-56 0 -59 -68l-232 97
q28 103 105.5 154.5t189.5 51.5z" />
    <glyph glyph-name="four.dnom" horiz-adv-x="831" 
d="M709 252h71v-182h-71v-70h-267v70h-422v2l685 805h4v-625zM344 233h137v152z" />
    <glyph glyph-name="five.dnom" horiz-adv-x="770" 
d="M657 625h-286v-62h20q67 0 121.5 -15t100.5 -47.5t72 -92t26 -140.5q0 -131 -87.5 -207.5t-238.5 -76.5q-264 0 -322 206l226 109q0 -43 23 -61.5t55 -18.5q33 0 54 16.5t21 47.5q0 29 -21.5 47t-55.5 18q-28 0 -47 -10t-23 -19l-191 82v457h553v-233z" />
    <glyph glyph-name="six.dnom" horiz-adv-x="798" 
d="M676 858l-180 -289q104 -28 169.5 -105.5t65.5 -180.5q0 -130 -97.5 -214.5t-236.5 -84.5q-137 0 -233 84.5t-96 214.5q0 85 49 163l258 412h301zM397 205q72 0 72 78q0 82 -72 82q-32 0 -50.5 -21t-18.5 -61q0 -39 18.5 -58.5t50.5 -19.5z" />
    <glyph glyph-name="seven.dnom" horiz-adv-x="774" 
d="M748 850l-406 -850h-287l301 618h-290v240h682v-8z" />
    <glyph glyph-name="eight.dnom" horiz-adv-x="800" 
d="M399 874q128 0 218 -76t90 -192q0 -85 -70 -155q96 -83 96 -183q0 -125 -97 -204.5t-237 -79.5q-138 0 -233.5 79.5t-95.5 204.5q0 103 94 181q-72 72 -72 157q0 117 89.5 192.5t217.5 75.5zM399 666q-32 0 -51.5 -21.5t-19.5 -52.5q0 -29 19.5 -47.5t51.5 -18.5t53 18.5
t21 47.5q0 31 -21 52.5t-53 21.5zM399 340q-31 0 -50 -21t-19 -53t19 -50.5t50 -18.5q34 0 53 18.5t19 50.5q0 33 -19.5 53.5t-52.5 20.5z" />
    <glyph glyph-name="nine.dnom" horiz-adv-x="798" 
d="M401 874q138 0 234 -84.5t96 -214.5q0 -85 -49 -163l-258 -412h-301l180 289q-104 28 -169.5 105.5t-65.5 180.5q0 130 97 214.5t236 84.5zM401 653q-71 0 -71 -78q0 -81 71 -81q32 0 51 20.5t19 60.5q0 38 -19 58t-51 20z" />
    <glyph glyph-name="zero.numr" horiz-adv-x="784" 
d="M414 1516q155 0 247.5 -120.5t92.5 -322.5q0 -204 -92.5 -325t-247.5 -121q-157 0 -249.5 121t-92.5 325q0 203 92.5 323t249.5 120zM414 1284q-40 0 -56 -53.5t-16 -157.5q0 -105 16 -159t56 -54q39 0 54 54t15 159q0 104 -15 157.5t-54 53.5z" />
    <glyph glyph-name="one.numr" horiz-adv-x="569" 
d="M496 643h-267v471l-90 -35l-104 250l457 189h4v-875z" />
    <glyph glyph-name="two.numr" horiz-adv-x="702" 
d="M344 1518q151 0 241.5 -84t90.5 -213q0 -89 -86 -213l-92 -131h178v-234h-621v6l307 490q5 8 12.5 19.5t10.5 16t8 12.5t6.5 11.5t3.5 9.5t2.5 10.5t0.5 10.5q0 24 -16.5 38.5t-45.5 14.5q-65 0 -74 -100l-241 55q51 281 315 281z" />
    <glyph glyph-name="three.numr" horiz-adv-x="686" 
d="M352 1518q144 0 232 -83.5t88 -205.5q0 -96 -78 -160q84 -59 84 -162q0 -123 -88.5 -201.5t-237.5 -78.5q-275 0 -317 270l241 51q3 -86 76 -86q26 0 42 16t16 42q0 28 -14.5 44.5t-39.5 16.5h-92v199h92q24 1 38 15.5t14 35.5q0 24 -17 37.5t-43 13.5q-56 0 -59 -68
l-232 97q29 103 106 155t189 52z" />
    <glyph glyph-name="four.numr" horiz-adv-x="790" 
d="M709 895h71v-182h-71v-70h-267v70h-422v2l685 805h4v-625zM344 877h137v151z" />
    <glyph glyph-name="five.numr" horiz-adv-x="729" 
d="M657 1268h-286v-62h20q67 0 121.5 -15t100.5 -47.5t72 -92t26 -140.5q0 -131 -87.5 -207.5t-238.5 -76.5q-263 0 -322 207l226 108q0 -43 23 -61.5t55 -18.5q33 0 54 16.5t21 47.5q0 29 -21.5 47t-55.5 18q-28 0 -47 -9.5t-23 -18.5l-191 81v457h553v-233z" />
    <glyph glyph-name="six.numr" horiz-adv-x="757" 
d="M676 1501l-180 -289q104 -28 169.5 -105.5t65.5 -180.5q0 -130 -97.5 -214.5t-236.5 -84.5q-137 0 -233 84.5t-96 214.5q0 86 49 164l258 411h301zM397 848q72 0 72 78q0 82 -72 82q-32 0 -50.5 -21t-18.5 -61q0 -39 18.5 -58.5t50.5 -19.5z" />
    <glyph glyph-name="seven.numr" horiz-adv-x="733" 
d="M748 1493l-406 -850h-287l301 619h-290v239h682v-8z" />
    <glyph glyph-name="eight.numr" horiz-adv-x="759" 
d="M399 1518q128 0 218 -76t90 -193q0 -85 -70 -155q96 -83 96 -183q0 -125 -97 -204.5t-237 -79.5q-138 0 -233.5 79.5t-95.5 204.5q0 103 94 181q-72 72 -72 157q0 117 89.5 193t217.5 76zM399 1309q-32 0 -51.5 -21.5t-19.5 -52.5q0 -29 19.5 -47.5t51.5 -18.5t53 18.5
t21 47.5q0 31 -21 52.5t-53 21.5zM399 983q-31 0 -50 -21t-19 -53t19 -50.5t50 -18.5q34 0 53 18.5t19 50.5q0 33 -19.5 53.5t-52.5 20.5z" />
    <glyph glyph-name="nine.numr" horiz-adv-x="757" 
d="M401 1518q138 0 234 -84.5t96 -214.5q0 -86 -49 -164l-258 -412h-301l180 289q-104 28 -169.5 106t-65.5 181q0 130 97 214.5t236 84.5zM401 1296q-71 0 -71 -77q0 -82 71 -82q32 0 51 21t19 61q0 38 -19 57.5t-51 19.5z" />
    <glyph glyph-name="zero.subs" horiz-adv-x="784" 
d="M414 668q155 0 247.5 -120.5t92.5 -322.5q0 -204 -92.5 -325t-247.5 -121q-157 0 -249.5 121t-92.5 325q0 203 92.5 323t249.5 120zM414 436q-40 0 -56 -53.5t-16 -157.5q0 -105 16 -159t56 -54q39 0 54 54t15 159q0 104 -15 157.5t-54 53.5z" />
    <glyph glyph-name="one.subs" horiz-adv-x="569" 
d="M496 -205h-267v471l-90 -35l-104 250l457 189h4v-875z" />
    <glyph glyph-name="two.subs" horiz-adv-x="702" 
d="M344 670q151 0 241.5 -84t90.5 -213q0 -89 -86 -213l-92 -131h178v-234h-621v6l307 490q5 8 12.5 19.5t10.5 16t8 12.5t6.5 11.5t3.5 9.5t2.5 10.5t0.5 10.5q0 24 -16.5 38.5t-45.5 14.5q-65 0 -74 -100l-241 55q51 281 315 281z" />
    <glyph glyph-name="three.subs" horiz-adv-x="686" 
d="M352 670q144 0 232 -83.5t88 -205.5q0 -96 -78 -160q84 -59 84 -162q0 -123 -88.5 -201.5t-237.5 -78.5q-275 0 -317 270l241 51q3 -86 76 -86q26 0 42 16t16 42q0 28 -14.5 44.5t-39.5 16.5h-92v199h92q24 1 38 15.5t14 35.5q0 24 -17 37.5t-43 13.5q-56 0 -59 -67
l-232 96q29 103 106 155t189 52z" />
    <glyph glyph-name="four.subs" horiz-adv-x="790" 
d="M709 47h71v-182h-71v-70h-267v70h-422v2l685 805h4v-625zM344 29h137v151z" />
    <glyph glyph-name="five.subs" horiz-adv-x="729" 
d="M657 420h-286v-62h20q67 0 121.5 -15t100.5 -47.5t72 -92t26 -140.5q0 -131 -87.5 -207.5t-238.5 -76.5q-263 0 -322 207l226 108q0 -43 23 -61.5t55 -18.5q33 0 54 16.5t21 47.5q0 29 -21.5 47t-55.5 18q-28 0 -47 -9.5t-23 -18.5l-191 82v456h553v-233z" />
    <glyph glyph-name="six.subs" horiz-adv-x="757" 
d="M676 653l-180 -288q104 -28 169.5 -106t65.5 -181q0 -130 -97.5 -214.5t-236.5 -84.5q-137 0 -233 84.5t-96 214.5q0 86 49 164l258 411h301zM397 0q72 0 72 78q0 82 -72 82q-32 0 -50.5 -21t-18.5 -61q0 -39 18.5 -58.5t50.5 -19.5z" />
    <glyph glyph-name="seven.subs" horiz-adv-x="733" 
d="M748 645l-406 -850h-287l301 619h-290v239h682v-8z" />
    <glyph glyph-name="eight.subs" horiz-adv-x="759" 
d="M399 670q128 0 218 -76t90 -193q0 -85 -70 -155q96 -83 96 -183q0 -125 -97 -204.5t-237 -79.5q-138 0 -233.5 79.5t-95.5 204.5q0 103 94 181q-72 72 -72 157q0 117 89.5 193t217.5 76zM399 461q-32 0 -51.5 -21.5t-19.5 -52.5q0 -29 19.5 -47t51.5 -18q33 0 53.5 18
t20.5 47q0 31 -21 52.5t-53 21.5zM399 135q-31 0 -50 -21t-19 -53t19 -50.5t50 -18.5q34 0 53 18.5t19 50.5q0 33 -19.5 53.5t-52.5 20.5z" />
    <glyph glyph-name="nine.subs" horiz-adv-x="757" 
d="M401 670q138 0 234 -84.5t96 -214.5q0 -86 -49 -164l-258 -412h-301l180 289q-104 28 -169.5 106t-65.5 181q0 130 97 214.5t236 84.5zM401 449q-71 0 -71 -78q0 -82 71 -82q32 0 51 21t19 61q0 38 -19 58t-51 20z" />
    <glyph glyph-name="zero.lnum" horiz-adv-x="1228" 
d="M614 1532q257 0 407 -210.5t150 -567.5q0 -359 -150 -570t-407 -211t-407 211t-150 570q0 357 150 567.5t407 210.5zM614 1202q-174 0 -174 -448q0 -451 174 -451t174 451q0 448 -174 448z" />
    <glyph glyph-name="one.lnum" horiz-adv-x="1228" 
d="M842 342h229v-342h-866v342h260v590l-262 -119l-150 350l781 369h8v-1190z" />
    <glyph glyph-name="two.lnum" horiz-adv-x="1228" 
d="M588 1532q239 0 382.5 -137t143.5 -353q0 -56 -11.5 -105.5t-39 -102t-50.5 -88t-69 -99.5l-223 -313h399v-334h-999v12l518 811q55 85 73.5 128t18.5 96q0 69 -39 110t-104 41q-140 0 -164 -203l-342 78q84 459 506 459z" />
    <glyph glyph-name="three.lnum" horiz-adv-x="1228" 
d="M614 1532q228 0 368 -136.5t140 -340.5q0 -193 -149 -295q170 -99 170 -307q0 -212 -142 -346t-380 -134q-208 0 -341.5 114.5t-175.5 344.5l342 78q24 -203 172 -203q65 0 105.5 43t40.5 113t-40.5 112.5t-105.5 42.5h-155v287h155q57 3 93.5 43t36.5 103
q0 66 -39 106.5t-99 40.5q-57 0 -96 -41.5t-49 -122.5l-328 137q50 171 174 266t303 95z" />
    <glyph glyph-name="four.lnum" horiz-adv-x="1228" 
d="M1047 438h143v-264h-143v-174h-377v174h-668v8l1036 1350h9v-1094zM489 428h220v287z" />
    <glyph glyph-name="five.lnum" horiz-adv-x="1228" 
d="M1069 1171h-508v-215q37 11 80 11q86 0 161 -17t141 -55.5t113 -96t74 -143t27 -192.5q0 -220 -141.5 -355t-380.5 -135q-196 0 -332 86t-190 263l319 153q9 -85 57 -126.5t119 -41.5q73 0 121.5 48t48.5 126q0 79 -49 128.5t-127 49.5q-95 0 -153 -63l-265 115v794h885
v-334z" />
    <glyph glyph-name="six.lnum" horiz-adv-x="1228" 
d="M1028 1505l-313 -512q188 -33 311 -173t123 -333q0 -147 -73 -265.5t-196 -183.5t-270 -65q-146 0 -267.5 65t-194 183.5t-72.5 265.5q0 90 23 156.5t83 165.5l424 696h422zM610 303q69 0 112.5 49.5t43.5 134.5t-43.5 136t-112.5 51q-67 0 -109 -51t-42 -136t42 -134.5
t109 -49.5z" />
    <glyph glyph-name="seven.lnum" horiz-adv-x="1228" 
d="M1208 1493l-698 -1493h-406l551 1163h-549v342h1102v-12z" />
    <glyph glyph-name="eight.lnum" horiz-adv-x="1228" 
d="M612 1532q132 0 244 -56.5t179 -159.5t67 -231q0 -175 -137 -292q87 -63 136.5 -150t49.5 -186q0 -141 -73 -252.5t-196 -171.5t-270 -60q-146 0 -267.5 60t-194 171.5t-72.5 252.5q0 100 48 186.5t134 147.5q-137 115 -137 294q0 128 66 231t178 159.5t245 56.5z
M612 1219q-61 0 -101 -43t-40 -109t39.5 -107.5t101.5 -41.5q61 0 101.5 42t40.5 107q0 66 -41 109t-101 43zM612 621q-66 0 -108.5 -47t-42.5 -119t42.5 -118t108.5 -46q68 0 112 46t44 118t-44 119t-112 47z" />
    <glyph glyph-name="nine.lnum" horiz-adv-x="1228" 
d="M616 1532q146 0 268 -65t194.5 -183.5t72.5 -265.5q0 -90 -23.5 -156t-83.5 -166l-423 -696h-422l313 512q-188 33 -311 173t-123 333q0 147 73 265.5t195.5 183.5t269.5 65zM616 1202q-69 0 -112 -49.5t-43 -134.5t43.5 -136t111.5 -51q67 0 109.5 51t42.5 136
t-42.5 134.5t-109.5 49.5z" />
    <glyph glyph-name="zero.tnum" horiz-adv-x="1230" 
d="M616 1167q243 0 400.5 -168t157.5 -426t-158.5 -425.5t-401.5 -167.5t-400 167.5t-157 425.5t158 426t401 168zM616 842q-79 0 -128.5 -73.5t-49.5 -195.5t48.5 -195t127.5 -73t129 73t50 195t-49 195.5t-128 73.5z" />
    <glyph glyph-name="one.tnum" horiz-adv-x="849" 
d="M715 0h-377v567l-184 -88l-150 350l703 338h8v-1167z" />
    <glyph glyph-name="two.tnum" horiz-adv-x="1099" 
d="M530 1167q108 0 200.5 -36.5t154 -96t96.5 -135.5t35 -156q0 -46 -9 -87.5t-18 -67.5t-33.5 -60.5t-34.5 -46.5t-43.5 -46.5t-39.5 -41.5l-56 -59h256v-334h-934v12l363 422q43 49 61.5 71t44.5 55.5t35.5 54t17 47t7.5 53.5q0 52 -34 85.5t-89 33.5q-90 0 -125 -119
l-315 151q120 301 460 301z" />
    <glyph glyph-name="three.tnum" horiz-adv-x="1073" 
d="M524 1167q152 0 268.5 -62t178 -166.5t61.5 -233.5q0 -188 -149 -287q78 -44 124 -119.5t46 -179.5q0 -205 -142.5 -335t-380.5 -130q-209 0 -341.5 111t-174.5 335l342 76q24 -196 172 -196q65 0 105.5 41t40.5 108q0 69 -40.5 110.5t-105.5 41.5h-155v278h155
q57 3 93 41t36 100q0 64 -39 103t-98 39q-57 0 -96 -40.5t-49 -117.5l-328 133q50 167 174 258.5t303 91.5z" />
    <glyph glyph-name="four.tnum" horiz-adv-x="1218" 
d="M1026 106h143v-256h-143v-169h-377v169h-667v9l1036 1308h8v-1061zM469 96h219v279z" />
    <glyph glyph-name="five.tnum" horiz-adv-x="1134" 
d="M1008 823h-508v-209q37 11 80 11q108 0 199 -27.5t163 -84t113 -153t41 -225.5q0 -214 -141.5 -344.5t-381.5 -130.5q-196 0 -332 83.5t-190 254.5l320 149q9 -82 57 -122.5t119 -40.5q73 0 121.5 46.5t48.5 123.5q0 76 -49 124t-127 48q-97 0 -154 -62l-264 111v772h885
v-324z" />
    <glyph glyph-name="six.tnum" horiz-adv-x="1175" 
d="M1004 1460l-314 -495q188 -33 311 -169t123 -323q0 -143 -73 -258.5t-195.5 -178.5t-269.5 -63q-146 0 -268 63t-194.5 178.5t-72.5 258.5q0 138 84 272l447 715h422zM586 293q69 0 112 48.5t43 131.5q0 82 -43 131t-112 49q-67 0 -109.5 -49t-42.5 -131
q0 -83 42.5 -131.5t109.5 -48.5z" />
    <glyph glyph-name="seven.tnum" horiz-adv-x="1136" 
d="M1147 1135l-698 -1448h-406l551 1128h-549v332h1102v-12z" />
    <glyph glyph-name="eight.tnum" horiz-adv-x="1175" 
d="M586 1487q203 0 346 -123.5t143 -310.5q0 -171 -137 -285q87 -60 136.5 -145t49.5 -181q0 -136 -73 -244t-195.5 -166.5t-269.5 -58.5q-146 0 -268 58.5t-194.5 166.5t-72.5 244q0 97 48 181.5t134 142.5q-137 112 -137 287q0 124 66.5 224t178.5 155t245 55zM586 1180
q-62 0 -102 -42t-40 -106q0 -63 40 -104t102 -41q60 0 100.5 41t40.5 104q0 64 -40.5 106t-100.5 42zM586 600q-66 0 -109 -46t-43 -116q0 -69 43 -113t109 -44q68 0 111.5 44t43.5 113q0 71 -44 116.5t-111 45.5z" />
    <glyph glyph-name="nine.tnum" horiz-adv-x="1175" 
d="M590 1167q146 0 267.5 -63t194 -178t72.5 -258q0 -139 -84 -273l-446 -714h-422l313 495q-188 33 -311 169t-123 323q0 143 73 258t196 178t270 63zM590 487q67 0 109 49.5t42 131.5q0 83 -42 131.5t-109 48.5q-69 0 -112.5 -48.5t-43.5 -131.5q0 -82 43.5 -131.5
t112.5 -49.5z" />
    <glyph glyph-name="a.sups" horiz-adv-x="915" 
d="M356 1544q135 0 191 -86l16 72h264v-735h-264l-16 69q-57 -84 -191 -84q-140 0 -227.5 107.5t-87.5 273.5q0 167 87.5 275t227.5 108zM438 1286q-45 0 -70.5 -31.5t-25.5 -93.5q0 -61 25.5 -93t70.5 -32q58 0 92 58v137q-32 55 -92 55z" />
    <glyph glyph-name="b.sups" horiz-adv-x="915" 
d="M385 1884v-405q57 65 174 65q140 0 227.5 -108t87.5 -275q0 -166 -87.5 -273.5t-227.5 -107.5q-132 0 -192 84l-15 -69h-264v1089h297zM477 1286q-61 0 -92 -57v-135q34 -58 92 -58q45 0 70.5 32t25.5 93q0 62 -25.5 93.5t-70.5 31.5z" />
    <glyph glyph-name="c.sups" horiz-adv-x="770" 
d="M434 1544q216 0 328 -178l-217 -160q-43 82 -109 82q-44 0 -69 -36.5t-25 -90.5q0 -53 25 -90t69 -37q66 0 107 84l217 -160q-110 -178 -326 -178q-167 0 -280 109t-113 272q0 164 113.5 273.5t279.5 109.5z" />
    <glyph glyph-name="d.sups" horiz-adv-x="915" 
d="M827 795h-264l-16 69q-57 -84 -191 -84q-140 0 -227.5 107.5t-87.5 273.5q0 167 87.5 275t227.5 108q117 0 174 -65v405h297v-1089zM438 1286q-45 0 -70.5 -31.5t-25.5 -93.5q0 -61 25.5 -93t70.5 -32q58 0 92 58v135q-31 57 -92 57z" />
    <glyph glyph-name="e.sups" horiz-adv-x="833" 
d="M432 1544q89 0 157.5 -29.5t109.5 -81t62 -117t21 -142.5v-72h-448q1 -38 30 -60t76 -22q73 0 115 57l203 -166q-63 -68 -141 -99.5t-183 -31.5q-174 0 -283.5 107t-109.5 274q0 166 109 274.5t282 108.5zM418 1341q-39 0 -61.5 -26t-22.5 -64h166q-2 39 -22 64.5
t-60 25.5z" />
    <glyph glyph-name="f.sups" horiz-adv-x="622" 
d="M489 1884q116 0 183 -39l-101 -239q-26 22 -65 22q-60 0 -60 -69v-29h134v-250h-134v-485h-296v485h-121v250h121v12q0 153 91.5 247.5t247.5 94.5z" />
    <glyph glyph-name="g.sups" horiz-adv-x="917" 
d="M358 1544q66 0 115.5 -23.5t73.5 -62.5l18 72h264v-690q0 -180 -116 -284.5t-312 -104.5q-130 0 -221.5 42t-165.5 121l193 195q29 -32 51 -50.5t60 -35t81 -16.5q60 0 94.5 36.5t36.5 87.5v46q-55 -64 -172 -64q-140 0 -227.5 103.5t-87.5 261.5q0 160 87.5 263
t227.5 103zM440 1286q-96 0 -96 -108q0 -54 25.5 -81.5t70.5 -27.5q61 0 90 57v105q-28 55 -90 55z" />
    <glyph glyph-name="h.sups" horiz-adv-x="894" 
d="M385 1884v-399q56 59 162 59q134 0 204 -89t70 -249v-411h-299v395q0 35 -15 55.5t-44 20.5q-30 0 -51.5 -16.5t-26.5 -35.5v-419h-297v1089h297z" />
    <glyph glyph-name="i.sups" horiz-adv-x="473" 
d="M238 1919q71 0 116 -46t45 -118q0 -71 -45.5 -116.5t-115.5 -45.5q-72 0 -118 45.5t-46 116.5q0 72 46 118t118 46zM385 795h-297v735h297v-735z" />
    <glyph glyph-name="j.sups" horiz-adv-x="493" 
d="M256 1919q72 0 118 -46t46 -118q0 -71 -46 -116.5t-118 -45.5q-70 0 -116 45.5t-46 116.5q0 72 45.5 118t116.5 46zM406 1530v-723q0 -157 -110 -256.5t-300 -99.5v256q113 0 113 75v748h297z" />
    <glyph glyph-name="k.sups" horiz-adv-x="911" 
d="M385 1272l160 258h356l-223 -281l225 -454h-334l-92 194l-158 -194h-231v1089h297v-612z" />
    <glyph glyph-name="l.sups" horiz-adv-x="473" 
d="M385 795h-297v1089h297v-1089z" />
    <glyph glyph-name="m.sups" horiz-adv-x="1314" 
d="M979 1544q128 0 195 -89t67 -249v-411h-297v395q0 76 -55 76q-28 0 -47.5 -15.5t-26.5 -33.5l-2 8v-430h-297v395q0 76 -55 76q-50 0 -76 -52v-419h-297v735h264l15 -70q57 84 186 84q141 0 211 -112q77 112 215 112z" />
    <glyph glyph-name="o.sups" horiz-adv-x="882" 
d="M440 1544q172 0 287 -109.5t115 -273.5q0 -165 -115 -273t-287 -108t-285.5 108t-113.5 273q0 164 113.5 273.5t285.5 109.5zM440 1286q-43 0 -70.5 -35.5t-27.5 -89.5t27.5 -89.5t70.5 -35.5t72 35.5t29 89.5t-29 89.5t-72 35.5z" />
    <glyph glyph-name="p.sups" horiz-adv-x="915" 
d="M559 1544q140 0 227.5 -108t87.5 -275q0 -166 -87.5 -273.5t-227.5 -107.5q-114 0 -174 64v-379h-297v1065h264l15 -72q59 86 192 86zM477 1286q-60 0 -92 -55v-137q34 -58 92 -58q45 0 70.5 32t25.5 93q0 62 -25.5 93.5t-70.5 31.5z" />
    <glyph glyph-name="q.sups" horiz-adv-x="915" 
d="M356 1544q135 0 191 -86l16 72h264v-1065h-297v379q-60 -64 -174 -64q-140 0 -227.5 107.5t-87.5 273.5q0 167 87.5 275t227.5 108zM438 1286q-45 0 -70.5 -31.5t-25.5 -93.5q0 -61 25.5 -93t70.5 -32q58 0 92 58v137q-32 55 -92 55z" />
    <glyph glyph-name="r.sups" horiz-adv-x="604" 
d="M573 1249h-24q-97 0 -164 -67v-387h-297v735h262l19 -92q29 48 82.5 77t121.5 29v-295z" />
    <glyph glyph-name="s.sups" horiz-adv-x="718" 
d="M410 1544q79 0 152.5 -22t115.5 -60l-105 -192q-75 63 -163 63q-50 0 -50 -33q0 -16 21 -28t82 -29q108 -29 159.5 -75.5t51.5 -125.5q0 -120 -94 -191t-258 -71q-83 0 -163 25t-124 65l104 193q84 -72 185 -72q53 0 53 29q0 19 -16.5 31t-67.5 26q-124 35 -178 78
t-54 125q0 119 92.5 191.5t256.5 72.5z" />
    <glyph glyph-name="t.sups" horiz-adv-x="671" 
d="M438 1530h185v-250h-185v-174q0 -27 19 -44.5t51 -17.5q44 0 82 21l69 -234q-81 -51 -180 -51q-159 0 -248.5 85.5t-89.5 238.5v176h-118v250h118v237h297v-237z" />
    <glyph glyph-name="u.sups" horiz-adv-x="894" 
d="M807 795h-264l-15 67q-56 -82 -186 -82q-132 0 -200 89t-68 249v412h297v-395q0 -76 61 -76q56 0 78 51v420h297v-735z" />
    <glyph glyph-name="v.sups" horiz-adv-x="897" 
d="M453 780h-7l-434 750h334l103 -236l104 236h332z" />
    <glyph glyph-name="w.sups" horiz-adv-x="1142" 
d="M748 780h-7l-170 258l-172 -258h-6l-381 750h334l84 -238l139 238h4l138 -238l86 238h333z" />
    <glyph glyph-name="x.sups" horiz-adv-x="837" 
d="M618 1163l218 -368h-349l-73 155l-72 -155h-348l215 368l-205 367h344l66 -160l67 160h344z" />
    <glyph glyph-name="y.sups" horiz-adv-x="894" 
d="M272 465h-340l355 592l-277 473h334l102 -236l105 236h334z" />
    <glyph glyph-name="z.sups" horiz-adv-x="747" 
d="M707 1524l-230 -482h225v-247h-665v6l229 479h-213v250h654v-6z" />
    <glyph glyph-name="uniE207E209" horiz-adv-x="1441" 
d="M721 1618q139 0 261.5 -51t209.5 -140t137.5 -213.5t50.5 -265.5q0 -190 -85.5 -342.5t-236.5 -238.5t-337 -86q-188 0 -339 86t-236 238.5t-85 342.5q0 189 85 342.5t236 240.5t339 87zM721 1446q-204 0 -337.5 -143t-133.5 -355q0 -213 133 -354t338 -141
q204 0 337.5 141t133.5 354q0 212 -134 355t-337 143z" />
    <glyph glyph-name="zero.slash" horiz-adv-x="1228" 
d="M614 1532q257 0 407 -210.5t150 -567.5q0 -359 -150 -570t-407 -211t-407 211t-150 570q0 357 150 567.5t407 210.5zM614 1223q-174 0 -174 -469q0 -72 2 -107l281 506q-42 70 -109 70zM614 283q174 0 174 471q0 63 -2 92l-276 -500q41 -63 104 -63z" />
    <glyph glyph-name="i.loclTRK" horiz-adv-x="622" 
d="M311 1581q92 0 151.5 -59.5t59.5 -151.5t-59.5 -151.5t-151.5 -59.5t-151.5 59.5t-59.5 151.5t59.5 151.5t151.5 59.5zM500 0h-377v1044h377v-1044z" />
    </font>
</defs>
</svg>
