<?xml version="1.0" standalone="no"?>
<!DOCTYPE svg PUBLIC "-//W3C//DTD SVG 1.1//EN" "http://www.w3.org/Graphics/SVG/1.1/DTD/svg11.dtd" >
<svg xmlns="http://www.w3.org/2000/svg" xmlns:xlink="http://www.w3.org/1999/xlink" version="1.1">
<metadata>
Created by FontForge 20200511 at Wed Jan  2 19:10:55 2019
 By convertio
(c) TIGHTYPE 2019
</metadata>
<defs>
<font id="Moderat-Thin" horiz-adv-x="535" >
  <font-face 
    font-family="Moderat Thin"
    font-weight="100"
    font-stretch="normal"
    units-per-em="1000"
    panose-1="0 0 2 0 0 0 0 0 0 0"
    ascent="800"
    descent="-200"
    x-height="500"
    cap-height="700"
    bbox="-127 -255 1112 930"
    underline-thickness="50"
    underline-position="-200"
    unicode-range="U+0020-2793"
  />
<missing-glyph horiz-adv-x="874" 
d="M797 350q0 -150 -105 -255t-255 -105t-255 106t-105 254q0 149 105.5 254.5t254.5 105.5q151 0 255.5 -105.5t104.5 -254.5zM249 533v-45h44v-128h46v128h44v45h-134zM491 533v-45h45v-128h45v128h45v45h-135zM437 81q109 0 187 76t81 183l-46 8q0 -92 -65 -156.5
t-157 -64.5q-91 0 -156 64.5t-65 156.5l-46 -8q3 -107 81 -183t186 -76z" />
    <glyph glyph-name="arrowleft" unicode="&#x3c;&#x2d;" horiz-adv-x="817" 
d="M771 374v-48h-652l230 -228l-37 -37l-281 286v6l281 286l37 -37l-232 -228h654z" />
    <glyph glyph-name="arrowright" unicode="&#x2d;&#x3e;" horiz-adv-x="817" 
d="M506 639l280 -286v-6l-280 -286l-38 37l231 228h-653v48h655l-233 228z" />
    <glyph glyph-name="f_f" unicode="ff" horiz-adv-x="614" 
d="M472 598v-98h110v-44h-110v-456h-51v456h-247v-456h-51v456h-100v44h100v108q0 48 29 75t79 27q31 0 59 -12l-11 -41q-17 7 -41 7q-64 0 -64 -66v-98h247v108q0 48 28.5 75t78.5 27q35 0 63 -13l-12 -41q-20 8 -44 8q-63 0 -63 -66z" />
    <glyph glyph-name="f_f_i" unicode="ffi" horiz-adv-x="844" 
d="M762 500v-500h-51v456h-239v-456h-51v456h-247v-456h-51v456h-100v44h100v108q0 48 29 75t79 27q31 0 59 -12l-11 -41q-17 7 -41 7q-64 0 -64 -66v-98h247v108q0 48 29 75t79 27q31 0 59 -12l-11 -41q-16 7 -41 7q-64 0 -64 -66v-98h290zM736 674q17 0 28.5 -11t11.5 -28
q0 -18 -11.5 -29t-28.5 -11t-28.5 11t-11.5 29q0 16 11.5 27.5t28.5 11.5z" />
    <glyph glyph-name="f_f_j" unicode="ffj" horiz-adv-x="843" 
d="M720 500v-44h-248v-456h-51v456h-247v-456h-51v456h-100v44h100v108q0 48 29 75t79 27q31 0 59 -12l-11 -41q-17 7 -41 7q-64 0 -64 -66v-98h247v108q0 48 28.5 75t78.5 27q31 0 59 -12l-11 -41q-16 7 -41 7q-63 0 -63 -66v-98h248zM749 674q17 0 28.5 -11.5t11.5 -27.5
q0 -18 -11.5 -29t-28.5 -11t-28.5 11t-11.5 29q0 16 11.5 27.5t28.5 11.5zM724 -101v601h51v-608q0 -48 -26 -75t-77 -27q-28 0 -60 10v43q29 -9 49 -9q63 0 63 65z" />
    <glyph glyph-name="f_i" unicode="fi" horiz-adv-x="545" 
d="M463 500v-500h-51v456h-238v-456h-51v456h-100v44h100v108q0 48 29 75t79 27q31 0 59 -12l-11 -41q-17 7 -41 7q-64 0 -64 -66v-98h289zM438 674q17 0 28.5 -11.5t11.5 -27.5q0 -18 -11.5 -29t-28.5 -11t-29 11t-12 29q0 16 12 27.5t29 11.5z" />
    <glyph glyph-name="f_j" unicode="fj" horiz-adv-x="545" 
d="M422 500v-44h-248v-456h-51v456h-100v44h100v108q0 48 29 75t79 27q31 0 59 -12l-11 -41q-17 7 -41 7q-64 0 -64 -66v-98h248zM452 674q17 0 28.5 -11.5t11.5 -27.5q0 -18 -11.5 -29t-28.5 -11q-18 0 -29.5 11t-11.5 29q0 16 12 27.5t29 11.5zM426 -101v601h51v-608
q0 -48 -26 -75t-76 -27q-26 0 -61 10v43q29 -9 50 -9q62 0 62 65z" />
    <glyph glyph-name=".notdef" horiz-adv-x="874" 
d="M797 350q0 -150 -105 -255t-255 -105t-255 106t-105 254q0 149 105.5 254.5t254.5 105.5q151 0 255.5 -105.5t104.5 -254.5zM249 533v-45h44v-128h46v128h44v45h-134zM491 533v-45h45v-128h45v128h45v45h-135zM437 81q109 0 187 76t81 183l-46 8q0 -92 -65 -156.5
t-157 -64.5q-91 0 -156 64.5t-65 156.5l-46 -8q3 -107 81 -183t186 -76z" />
    <glyph glyph-name=".null" horiz-adv-x="0" 
 />
    <glyph glyph-name="nonmarkingreturn" horiz-adv-x="333" 
 />
    <glyph glyph-name="space" unicode=" " horiz-adv-x="270" 
 />
    <glyph glyph-name="exclam" unicode="!" horiz-adv-x="263" 
d="M102 700h58l-9 -516h-38zM132 -5q-18 0 -31.5 13t-13.5 31q0 19 13.5 32t31.5 13t31 -13t13 -32q0 -18 -13 -31t-31 -13z" />
    <glyph glyph-name="quotedbl" unicode="&#x22;" horiz-adv-x="325" 
d="M115 609l-10 -138h-29l-11 138q0 8 -2 30t-2 29q0 37 28 37q29 0 29 -37q0 -2 -3 -59zM260 609l-10 -138h-29l-10 138q0 8 -2 30t-2 29q0 37 28 37t28 -37q0 -30 -3 -59z" />
    <glyph glyph-name="numbersign" unicode="#" horiz-adv-x="678" 
d="M632 418h-111l-42 -197h99v-43h-109l-38 -178h-50l38 178h-222l-39 -178h-49l39 178h-102v43h111l43 197h-99v43h108l39 179h49l-39 -179h222l39 179h50l-39 -179h102v-43zM429 221l42 197h-222l-43 -197h223z" />
    <glyph glyph-name="dollar" unicode="$" horiz-adv-x="570" 
d="M332 338q82 -28 119 -73t37 -113q0 -74 -49.5 -115t-126.5 -46v-81h-48v81q-83 6 -131.5 51.5t-55.5 129.5h56q16 -122 131 -136v276l-18 7q-74 26 -112 63.5t-38 102.5q0 68 47 111.5t121 51.5v82h48v-81q78 -5 126.5 -52t52.5 -122h-52q-6 53 -37.5 87.5t-89.5 40.5
v-258zM150 488q0 -45 27.5 -74t86.5 -51v239q-51 -7 -82.5 -39t-31.5 -75zM312 36q53 5 87.5 34.5t34.5 80.5q0 50 -28.5 85t-93.5 59v-259z" />
    <glyph glyph-name="percent" unicode="%" horiz-adv-x="776" 
d="M226 352q-61 0 -105 44t-44 105t44 105t105 44q60 0 104.5 -44t44.5 -105t-44.5 -105t-104.5 -44zM634 640l-435 -640h-63l435 640h63zM226 403q43 0 70.5 27.5t27.5 70.5t-27.5 70.5t-70.5 27.5q-42 0 -70 -27.5t-28 -70.5t28 -70.5t70 -27.5zM550 -10q-62 0 -105.5 44
t-43.5 105t44 105t105 44q60 0 104 -44t44 -105t-44 -105t-104 -44zM549 41q43 0 71 27.5t28 70.5t-28 70.5t-71 27.5q-41 0 -69 -27.5t-28 -70.5t28 -70.5t69 -27.5z" />
    <glyph glyph-name="ampersand" unicode="&#x26;" horiz-adv-x="676" 
d="M644 0h-64l-111 117q-92 -127 -213 -127q-77 0 -128 44t-51 113q0 66 33 109t94 86l31 23q-37 37 -55 57.5t-38 59t-20 76.5q0 61 47 106.5t123 45.5q74 0 122.5 -42t48.5 -107q0 -51 -31 -91t-91 -84l-37 -28l156 -164l86 137h56l-107 -174zM269 395l3 -3l36 27
q104 73 104 143q0 46 -34.5 73.5t-85.5 27.5q-54 0 -86.5 -30.5t-32.5 -75.5q0 -40 21 -73t75 -89zM256 37q101 0 178 117l-166 176l-35 -27q-50 -37 -76.5 -71.5t-26.5 -81.5q0 -46 36.5 -79.5t89.5 -33.5z" />
    <glyph glyph-name="quotesingle" unicode="'" horiz-adv-x="179" 
d="M115 609l-10 -138h-29l-11 138q0 8 -2 30t-2 29q0 37 28 37q29 0 29 -37q0 -2 -3 -59z" />
    <glyph glyph-name="parenleft" unicode="(" horiz-adv-x="296" 
d="M266 -136l-33 -26q-69 82 -112.5 202.5t-43.5 269.5t43.5 270t112.5 203l33 -27q-142 -174 -142 -446q0 -270 142 -446z" />
    <glyph glyph-name="parenright" unicode=")" horiz-adv-x="296" 
d="M31 -136q142 177 142 446q0 270 -142 446l32 27q70 -82 113 -202.5t43 -270.5t-43 -270t-113 -202z" />
    <glyph glyph-name="asterisk" unicode="*" horiz-adv-x="423" 
d="M362 601l-110 -62l110 -62l-21 -37l-110 65l2 -127h-42l1 126l-110 -64l-21 37l110 63l-110 61l21 37l110 -64l-1 126h42l-2 -126l110 64z" />
    <glyph glyph-name="plus" unicode="+" horiz-adv-x="527" 
d="M474 303v-46h-187v-197h-48v197h-186v46h186v197h48v-197h187z" />
    <glyph glyph-name="comma" unicode="," horiz-adv-x="236" 
d="M121 80q23 0 34.5 -16t11.5 -41q0 -83 -79 -133l-18 24q47 37 47 81q-18 -1 -30 10.5t-12 29.5q0 20 13 32.5t33 12.5z" />
    <glyph glyph-name="hyphen" unicode="-" horiz-adv-x="450" 
d="M46 334h357v-46h-357v46z" />
    <glyph glyph-name="period" unicode="." horiz-adv-x="227" 
d="M114 -5q-18 0 -31.5 13t-13.5 31q0 19 13.5 32t31.5 13t31 -13t13 -32q0 -18 -13 -31t-31 -13z" />
    <glyph glyph-name="slash" unicode="/" horiz-adv-x="480" 
d="M449 750l-365 -800h-53l367 800h51z" />
    <glyph glyph-name="zero" unicode="0" horiz-adv-x="588" 
d="M295 -10q-99 0 -158.5 82.5t-59.5 248.5q0 164 59.5 247t158.5 83t157.5 -83t58.5 -249t-59 -247.5t-157 -81.5zM294 38q73 0 118.5 72t45.5 210q0 139 -46 211t-118 72q-73 0 -118 -72t-45 -211t45 -210.5t118 -71.5z" />
    <glyph glyph-name="one" unicode="1" horiz-adv-x="346" 
d="M190 0v491h-113v42h54q31 0 48 19.5t17 50.5v37h47v-640h-53z" />
    <glyph glyph-name="two" unicode="2" horiz-adv-x="538" 
d="M243 221q-106 -77 -109 -175h322v-46h-379v28q0 133 133 231l90 66q34 25 53 41.5t37.5 48.5t18.5 67q0 54 -35.5 88t-92.5 34q-69 0 -107.5 -46t-42.5 -102h-53q6 83 60 139t143 56q80 0 129.5 -46t49.5 -121q0 -36 -11.5 -67t-32.5 -55t-34.5 -36t-33.5 -27z" />
    <glyph glyph-name="three" unicode="3" horiz-adv-x="553" 
d="M365 329q49 -13 80 -55.5t31 -103.5q0 -80 -56 -130t-148 -50q-83 0 -135 44.5t-60 126.5h52q7 -55 42.5 -90t100.5 -35q66 0 109 37t43 98q0 57 -37 95t-103 38h-59v48h54q54 0 88 35t34 92q0 56 -35 91t-93 35q-52 0 -90 -30t-47 -85h-51q7 73 62 117t129 44
q77 0 127 -49t50 -126q0 -96 -88 -143v-4z" />
    <glyph glyph-name="four" unicode="4" horiz-adv-x="539" 
d="M492 194v-43h-112v-151h-48v151h-286v26l275 463h59v-446h112zM109 194h223v373h-6z" />
    <glyph glyph-name="five" unicode="5" horiz-adv-x="553" 
d="M281 404q88 0 141.5 -58.5t53.5 -150.5q0 -94 -57 -149.5t-149 -55.5q-87 0 -137.5 50t-55.5 131h48q6 -65 44.5 -101t101.5 -36q69 0 111.5 43t42.5 118q0 73 -40.5 120t-107.5 47q-46 0 -85 -22t-60 -61l-42 9l34 352h325v-45h-281l-25 -243q54 52 138 52z" />
    <glyph glyph-name="six" unicode="6" horiz-adv-x="525" 
d="M268 399q87 0 141.5 -56t54.5 -144q0 -89 -55.5 -149t-146.5 -60t-146 59t-55 154q0 57 18.5 103t53.5 103l141 231h64l-170 -268q42 27 100 27zM262 36q68 0 108.5 47t40.5 116q0 67 -39.5 111.5t-108.5 44.5q-68 0 -108.5 -45t-40.5 -111q0 -69 41 -116t107 -47z" />
    <glyph glyph-name="seven" unicode="7" horiz-adv-x="522" 
d="M77 640h398v-28q-123 -141 -179 -273t-70 -339h-52q9 137 39 245.5t71.5 184.5t107.5 160v4h-315v46z" />
    <glyph glyph-name="eight" unicode="8" horiz-adv-x="561" 
d="M369 340q48 -18 81.5 -62.5t33.5 -105.5q0 -80 -56.5 -131t-146.5 -51t-147 51t-57 131q0 62 33.5 106.5t81.5 61.5v4q-40 16 -66 52t-26 90q0 75 52 120t129 45t129 -45t52 -120q0 -53 -27 -89.5t-66 -52.5v-4zM281 608q-55 0 -91 -33t-36 -90q0 -56 37 -89t90 -33
t90 33t37 89q0 57 -36 90t-91 33zM281 35q64 0 107 37.5t43 98.5t-40.5 103t-110.5 42q-71 0 -110.5 -41.5t-39.5 -100.5q0 -63 43.5 -101t107.5 -38z" />
    <glyph glyph-name="nine" unicode="9" horiz-adv-x="525" 
d="M264 650q90 0 145 -59t55 -154q0 -40 -11.5 -79.5t-24 -64t-35.5 -62.5l-141 -231h-65l170 268q-42 -27 -100 -27q-87 0 -141.5 56t-54.5 144q0 89 55.5 149t147.5 60zM262 285q68 0 108.5 45t40.5 111q0 69 -40.5 116t-107.5 47q-68 0 -108.5 -47t-40.5 -116
q0 -67 39.5 -111.5t108.5 -44.5z" />
    <glyph glyph-name="colon" unicode=":" horiz-adv-x="227" 
d="M114 416q-18 0 -31.5 13t-13.5 31q0 19 13.5 32t31.5 13t31 -13t13 -32q0 -18 -13 -31t-31 -13zM114 -5q-18 0 -31.5 13t-13.5 31q0 19 13.5 32t31.5 13t31 -13t13 -32q0 -18 -13 -31t-31 -13z" />
    <glyph glyph-name="semicolon" unicode=";" horiz-adv-x="236" 
d="M123 416q-19 0 -32.5 13.5t-13.5 30.5q0 19 13.5 32t32.5 13q18 0 30.5 -13t12.5 -32q0 -18 -12.5 -31t-30.5 -13zM121 80q23 0 34.5 -16t11.5 -41q0 -83 -79 -133l-18 24q47 37 47 81q-18 -1 -30 10.5t-12 29.5q0 20 13 32.5t33 12.5z" />
    <glyph glyph-name="less" unicode="&#x3c;" horiz-adv-x="527" 
d="M441 540v-54l-305 -200v-3l305 -203v-54l-355 229v57z" />
    <glyph glyph-name="equal" unicode="=" horiz-adv-x="527" 
d="M59 410h410v-45h-410v45zM59 195h410v-44h-410v44z" />
    <glyph glyph-name="greater" unicode="&#x3e;" horiz-adv-x="527" 
d="M86 540l355 -228v-57l-355 -229v54l306 203v3l-306 200v54z" />
    <glyph glyph-name="question" unicode="?" horiz-adv-x="442" 
d="M168 239q0 64 17 104t64 81q47 40 64.5 65t17.5 65q0 50 -28 80t-85 30q-60 0 -88 -37t-33 -85h-51q1 28 10.5 55.5t28 54t53 42.5t80.5 16q77 0 119.5 -43t42.5 -113q0 -52 -22.5 -86t-74.5 -77q-37 -30 -50.5 -67t-13.5 -89v-51h-51v55zM195 -5q-18 0 -31.5 13
t-13.5 31q0 19 13.5 32t31.5 13t31 -13t13 -32q0 -18 -13 -31t-31 -13z" />
    <glyph glyph-name="at" unicode="@" horiz-adv-x="1006" 
d="M498 710q187 0 308.5 -118.5t121.5 -320.5q0 -140 -40.5 -202.5t-124.5 -62.5q-48 0 -82.5 24.5t-40.5 68.5q-17 -37 -60 -65t-102 -28q-82 0 -141 64t-59 171t58 174.5t143 67.5q104 0 149 -83h5l9 78h43v-337q0 -45 22.5 -67t61.5 -22q109 0 109 219q0 184 -106 288.5
t-276 104.5q-155 0 -262.5 -119t-107.5 -305q0 -124 57 -218t143 -139.5t184 -45.5q124 0 212 63l25 -40q-104 -70 -240 -70q-114 0 -211 52.5t-158 157.5t-61 242q0 105 33.5 194t91 148.5t134 92.5t162.5 33zM483 56q65 0 108.5 52t43.5 137t-43.5 136.5t-108.5 51.5
t-108.5 -51.5t-43.5 -136.5t43.5 -137t108.5 -52z" />
    <glyph glyph-name="A" unicode="A" horiz-adv-x="606" 
d="M518 0l-71 212h-288l-71 -212h-57l237 700h69l238 -700h-57zM175 260h256l-126 375h-5z" />
    <glyph glyph-name="B" unicode="B" horiz-adv-x="596" 
d="M418 363q116 -46 116 -174q0 -89 -53 -139t-147 -50h-232v700h225q93 0 142 -46t49 -127q0 -115 -100 -160v-4zM155 652v-267h170q67 0 103 37t36 101q0 62 -36 95.5t-99 33.5h-174zM331 48q68 0 109 37.5t41 103.5t-41.5 107t-109.5 41h-175v-289h176z" />
    <glyph glyph-name="C" unicode="C" horiz-adv-x="738" 
d="M677 203q-21 -95 -97.5 -154t-185.5 -59q-140 0 -228.5 99t-88.5 257q0 159 87.5 261.5t228.5 102.5q106 0 180.5 -58.5t93.5 -160.5h-56q-19 78 -75.5 123.5t-140.5 45.5q-120 0 -192 -90t-72 -224q0 -133 72.5 -219.5t190.5 -86.5q85 0 144.5 44t82.5 119h56z" />
    <glyph glyph-name="D" unicode="D" horiz-adv-x="693" 
d="M293 700q161 0 242 -93.5t81 -257.5q0 -159 -79 -254t-244 -95h-191v700h191zM289 50q143 0 208 80t65 220t-65 220t-208 80h-133v-600h133z" />
    <glyph glyph-name="E" unicode="E" horiz-adv-x="581" 
d="M155 49h370v-49h-423v700h413v-49h-360v-272h324v-48h-324v-282z" />
    <glyph glyph-name="F" unicode="F" horiz-adv-x="537" 
d="M491 650h-335v-272h294v-49h-294v-329h-54v700h389v-50z" />
    <glyph glyph-name="G" unicode="G" horiz-adv-x="774" 
d="M394 350h277v-350h-43l-8 92h-5q-87 -102 -229 -102t-225.5 97t-83.5 253q0 161 90.5 265.5t236.5 104.5q104 0 174.5 -53.5t90.5 -142.5h-56q-19 66 -73.5 106t-135.5 40q-122 0 -197.5 -89t-75.5 -230q0 -133 69.5 -217t188.5 -84q93 0 161 51.5t68 147.5v64h-224v47z
" />
    <glyph glyph-name="H" unicode="H" horiz-adv-x="692" 
d="M537 700h53v-700h-53v328h-381v-328h-54v700h54v-322h381v322z" />
    <glyph glyph-name="I" unicode="I" horiz-adv-x="258" 
d="M156 700v-700h-54v700h54z" />
    <glyph glyph-name="J" unicode="J" horiz-adv-x="528" 
d="M102 191q2 -64 38 -107.5t97 -43.5t98 41.5t37 125.5v493h53v-498q0 -104 -52 -158t-136 -54q-88 0 -137 55t-54 146h56z" />
    <glyph glyph-name="K" unicode="K" horiz-adv-x="596" 
d="M499 0l-286 334h-57v-334h-54v700h54v-316h57l263 316h66l-281 -339v-3l304 -358h-66z" />
    <glyph glyph-name="L" unicode="L" horiz-adv-x="568" 
d="M155 50h366v-50h-419v700h53v-650z" />
    <glyph glyph-name="M" unicode="M" horiz-adv-x="856" 
d="M753 700v-700h-53v603h-5l-233 -523h-66l-235 523h-6v-603h-53v700h74l250 -565h5l249 565h73z" />
    <glyph glyph-name="N" unicode="N" horiz-adv-x="741" 
d="M586 700h53v-700h-64l-414 616h-6v-616h-53v700h66l413 -614h5v614z" />
    <glyph glyph-name="O" unicode="O" horiz-adv-x="813" 
d="M407 -10q-142 0 -236 102t-94 258t94 258t235 102t235.5 -102t94.5 -258t-94 -258t-235 -102zM407 40q118 0 196.5 88.5t78.5 221.5t-79 221.5t-197 88.5q-117 0 -196 -88.5t-79 -221.5t79 -221.5t197 -88.5z" />
    <glyph glyph-name="P" unicode="P" horiz-adv-x="620" 
d="M337 700q92 0 148.5 -54.5t56.5 -145.5q0 -94 -57.5 -148t-156.5 -54h-175v-298h-51v700h235zM325 347q77 0 120 40t43 112q0 73 -43 112.5t-111 39.5h-181v-304h172z" />
    <glyph glyph-name="Q" unicode="Q" horiz-adv-x="813" 
d="M479 -2q29 -66 114 -66q35 0 77 8v-45q-49 -9 -82 -9q-121 0 -162 105q-7 -1 -19 -1q-142 0 -236 102t-94 258t94 258t235 102t235.5 -102t94.5 -258q0 -134 -71.5 -230.5t-185.5 -121.5zM131 350q0 -133 79 -221.5t197 -88.5t196.5 88.5t78.5 221.5t-79 221.5t-197 88.5
q-117 0 -196 -88.5t-79 -221.5z" />
    <glyph glyph-name="R" unicode="R" horiz-adv-x="613" 
d="M567 0h-63l-193 313h-156v-313h-53v700h222q96 0 152 -51.5t56 -139.5q0 -77 -44 -125.5t-121 -62.5zM155 651v-289h159q78 0 121.5 39.5t43.5 106.5q0 69 -44 106t-121 37h-159z" />
    <glyph glyph-name="S" unicode="S" horiz-adv-x="601" 
d="M519 174q0 -90 -59.5 -137t-153.5 -47q-99 0 -159 50.5t-70 146.5h54q23 -148 175 -148q70 0 114 33.5t44 100.5q0 37 -13.5 64.5t-39.5 46t-48 28.5t-54 20l-36 11q-23 8 -36.5 13t-37.5 16t-38.5 24t-30.5 31t-23.5 43t-7.5 55q0 83 59.5 134t150.5 51q92 0 150.5 -53
t63.5 -138h-54q-6 62 -47 102t-112 40q-70 0 -114 -38t-44 -97q0 -27 11 -49t23.5 -34.5t39 -26t38.5 -17.5t41 -14l31 -10q26 -9 42 -15t46.5 -23t48 -36.5t32 -53t14.5 -73.5z" />
    <glyph glyph-name="T" unicode="T" horiz-adv-x="561" 
d="M514 700v-50h-206v-650h-54v650h-208v50h468z" />
    <glyph glyph-name="U" unicode="U" horiz-adv-x="716" 
d="M613 700v-447q0 -125 -69.5 -194t-184.5 -69t-186 69t-71 194v447h54v-438q0 -110 56.5 -166t146.5 -56t145.5 56t55.5 166v438h53z" />
    <glyph glyph-name="V" unicode="V" horiz-adv-x="634" 
d="M545 700h58l-252 -700h-69l-251 700h58l225 -632h6z" />
    <glyph glyph-name="W" unicode="W" horiz-adv-x="864" 
d="M782 700h52l-160 -700h-67l-172 577h-6l-171 -577h-68l-159 700h54l138 -629h5l171 574h67l169 -574h5z" />
    <glyph glyph-name="X" unicode="X" horiz-adv-x="572" 
d="M479 0l-190 312h-5l-190 -312h-63l219 361l-209 339h63l180 -292h5l180 292h62l-209 -339l219 -361h-62z" />
    <glyph glyph-name="Y" unicode="Y" horiz-adv-x="616" 
d="M519 700h67l-251 -350v-350h-53v350l-251 350h66l208 -291h6z" />
    <glyph glyph-name="Z" unicode="Z" horiz-adv-x="606" 
d="M157 50h367v-50h-447v28l373 619v3h-348v50h425v-28l-370 -619v-3z" />
    <glyph glyph-name="bracketleft" unicode="[" horiz-adv-x="283" 
d="M102 773h150v-43h-102v-856h102v-43h-150v942z" />
    <glyph glyph-name="backslash" unicode="\" horiz-adv-x="480" 
d="M31 750h51l367 -800h-53z" />
    <glyph glyph-name="bracketright" unicode="]" horiz-adv-x="283" 
d="M181 773v-942h-150v43h102v856h-102v43h150z" />
    <glyph glyph-name="asciicircum" unicode="^" horiz-adv-x="527" 
d="M408 360l-142 290h-4l-143 -290h-56l165 340h71l166 -340h-57z" />
    <glyph glyph-name="underscore" unicode="_" horiz-adv-x="525" 
d="M46 0h433v-46h-433v46z" />
    <glyph glyph-name="grave" unicode="`" horiz-adv-x="319" 
d="M154 700l62 -145h-46l-68 145h52z" />
    <glyph glyph-name="a" unicode="a" horiz-adv-x="511" 
d="M461 42h14v-42h-28q-35 0 -53.5 15.5t-22.5 50.5q-61 -76 -167 -76q-68 0 -111.5 35t-43.5 104q0 68 48 107.5t128 46.5l143 13v37q0 60 -31 95.5t-92 35.5q-104 0 -125 -111h-51q8 70 54 113.5t121 43.5q81 0 128 -46t47 -126v-252q0 -44 42 -44zM368 189v64l-132 -12
q-62 -5 -99 -33.5t-37 -77.5t30 -72t77 -23q66 0 113.5 38t47.5 116z" />
    <glyph glyph-name="b" unicode="b" horiz-adv-x="591" 
d="M305 510q100 0 162.5 -71t62.5 -188t-62.5 -189t-162.5 -72q-110 0 -169 91h-6l-5 -81h-43v710h51v-296q20 38 62.5 67t109.5 29zM302 37q78 0 127.5 59t49.5 155t-49 154t-128 58q-77 0 -123 -58t-46 -154q0 -97 46 -155.5t123 -58.5z" />
    <glyph glyph-name="c" unicode="c" horiz-adv-x="559" 
d="M297 -10q-108 0 -172 73t-64 184q0 113 65.5 188t171.5 75q80 0 137.5 -45t71.5 -121h-52q-11 51 -53 85t-104 34q-82 0 -134 -61.5t-52 -154.5q0 -90 50 -150t135 -60q125 0 161 116h52q-17 -75 -73.5 -119t-139.5 -44z" />
    <glyph glyph-name="d" unicode="d" horiz-adv-x="591" 
d="M458 710h51v-710h-43l-5 81h-6q-59 -91 -169 -91q-100 0 -162.5 72t-62.5 189t62.5 188t162.5 71q67 0 109.5 -29t62.5 -67v296zM289 37q77 0 123 58.5t46 155.5q0 96 -46 154t-123 58q-79 0 -128 -58.5t-49 -153.5q0 -96 49.5 -155t127.5 -59z" />
    <glyph glyph-name="e" unicode="e" horiz-adv-x="558" 
d="M496 266q0 -15 -1 -25h-383q3 -94 51 -150t126 -56q56 0 96 25.5t55 73.5h51q-17 -70 -71.5 -107t-130.5 -37q-101 0 -164.5 70t-63.5 185q0 120 63 192.5t162 72.5q92 0 151 -64.5t59 -179.5zM286 465q-72 0 -119.5 -51t-53.5 -129h333q-1 82 -45 131t-115 49z" />
    <glyph glyph-name="f" unicode="f" horiz-adv-x="316" 
d="M174 598v-98h111v-44h-111v-456h-51v456h-100v44h100v108q0 48 29 75t79 27q36 0 62 -13l-11 -41q-21 8 -44 8q-64 0 -64 -66z" />
    <glyph glyph-name="g" unicode="g" horiz-adv-x="517" 
d="M492 506q-33 -42 -85 -66q30 -43 30 -101q0 -77 -48 -123.5t-121 -46.5q-53 0 -93 23q-46 -21 -46 -59q0 -54 78 -54h101q78 0 121.5 -35t43.5 -99q0 -75 -56.5 -115t-144.5 -40q-97 0 -149.5 47.5t-61.5 123.5l92 77q-33 8 -53 32t-20 59q0 58 60 89q-47 49 -47 121
q0 75 49.5 123t124.5 48q64 0 110 -38q46 22 80 70zM268 213q53 0 86 35.5t33 90.5q0 56 -33 91.5t-86 35.5q-55 0 -89.5 -35.5t-34.5 -91.5q0 -54 35 -90t89 -36zM423 -56q0 49 -36 69.5t-81 20.5h-92l-98 -84q26 -115 156 -115q64 0 107.5 27t43.5 82z" />
    <glyph glyph-name="h" unicode="h" 
d="M282 510q76 0 123.5 -47.5t47.5 -136.5v-326h-51v313q0 76 -35 113t-91 37q-61 0 -102 -41t-41 -122v-300h-51v710h51v-269h5q52 69 144 69z" />
    <glyph glyph-name="i" unicode="i" horiz-adv-x="215" 
d="M107 595q-17 0 -28.5 11t-11.5 29q0 16 11.5 27.5t28.5 11.5t29 -11.5t12 -27.5q0 -18 -11.5 -29t-29.5 -11zM82 0v500h51v-500h-51z" />
    <glyph glyph-name="j" unicode="j" horiz-adv-x="215" 
d="M107 595q-17 0 -28.5 11t-11.5 29q0 16 11.5 27.5t28.5 11.5t29 -11.5t12 -27.5q0 -18 -11.5 -29t-29.5 -11zM30 -210q-25 0 -60 10v43q29 -9 50 -9q62 0 62 65v601h51v-608q0 -48 -26 -75t-77 -27z" />
    <glyph glyph-name="k" unicode="k" horiz-adv-x="481" 
d="M457 500l-205 -204l205 -296h-59l-182 260l-83 -83v-177h-51v710h51v-461h5l253 251h66z" />
    <glyph glyph-name="l" unicode="l" horiz-adv-x="215" 
d="M82 0v710h51v-710h-51z" />
    <glyph glyph-name="m" unicode="m" horiz-adv-x="805" 
d="M82 0v500h45l6 -59h5q47 69 132 69q56 0 91 -28.5t49 -64.5h5q44 93 150 93q70 0 114.5 -42.5t44.5 -124.5v-343h-52v332q0 65 -32 98.5t-81 33.5q-57 0 -94 -42t-37 -108v-314h-51v323q0 68 -33 104t-82 36q-50 0 -89.5 -37t-39.5 -108v-318h-51z" />
    <glyph glyph-name="n" unicode="n" 
d="M82 0v500h45l6 -59h5q52 69 144 69q76 0 123.5 -47.5t47.5 -136.5v-326h-51v313q0 76 -35 113t-91 37q-61 0 -102 -41t-41 -122v-300h-51z" />
    <glyph glyph-name="o" unicode="o" horiz-adv-x="598" 
d="M298 -10q-103 0 -170 75t-67 185q0 112 66 186t171 74q103 0 171 -75t68 -185q0 -112 -67.5 -186t-171.5 -74zM298 37q83 0 135.5 62t52.5 151t-53 151t-135 62q-83 0 -134.5 -61.5t-51.5 -151.5q0 -89 51.5 -151t134.5 -62z" />
    <glyph glyph-name="p" unicode="p" horiz-adv-x="591" 
d="M305 510q100 0 162.5 -72t62.5 -189t-62.5 -188t-162.5 -71q-67 0 -109.5 29t-62.5 67v-286h-51v700h43l5 -81h6q59 91 169 91zM302 37q79 0 128 58t49 154t-49.5 155t-127.5 59q-77 0 -123 -58.5t-46 -155.5q0 -96 46 -154t123 -58z" />
    <glyph glyph-name="q" unicode="q" horiz-adv-x="591" 
d="M466 500h43v-700h-51v286q-20 -38 -62.5 -67t-109.5 -29q-100 0 -162.5 71t-62.5 188t62.5 189t162.5 72q110 0 169 -91h6zM289 37q77 0 123 58t46 154q0 97 -46 155.5t-123 58.5q-78 0 -127.5 -59t-49.5 -155q0 -95 49 -153.5t128 -58.5z" />
    <glyph glyph-name="r" unicode="r" horiz-adv-x="322" 
d="M82 0v500h45l6 -67h5q42 77 137 77h24v-53q-13 2 -38 2q-52 0 -90 -44.5t-38 -125.5v-289h-51z" />
    <glyph glyph-name="s" unicode="s" horiz-adv-x="460" 
d="M235 -10q-83 0 -127.5 43t-46.5 111h52q8 -109 122 -109q50 0 81.5 21.5t31.5 65.5q0 25 -10.5 44t-30.5 32t-35 20t-38 15l-27 9q-27 9 -44 17t-39.5 23t-34 39t-11.5 55q0 60 44.5 97t109.5 37q74 0 114.5 -40.5t42.5 -93.5h-51q-3 40 -31.5 64.5t-74.5 24.5
q-44 0 -74 -22.5t-30 -65.5q0 -21 8.5 -37t25.5 -27t31 -16.5t38 -13.5l24 -9q29 -10 48.5 -19t44 -26.5t37.5 -44t13 -61.5q0 -66 -46 -99.5t-117 -33.5z" />
    <glyph glyph-name="t" unicode="t" horiz-adv-x="323" 
d="M231 -10q-51 0 -76.5 27t-25.5 75v364h-106v44h36q42 0 58 15.5t16 55.5v64h47v-135h120v-44h-120v-356q0 -65 61 -65q21 0 50 9v-44q-35 -10 -60 -10z" />
    <glyph glyph-name="u" unicode="u" 
d="M453 500v-500h-45l-6 59h-5q-52 -69 -144 -69q-76 0 -123.5 47.5t-47.5 136.5v326h51v-313q0 -76 35 -113t91 -37q61 0 102 41t41 122v300h51z" />
    <glyph glyph-name="v" unicode="v" horiz-adv-x="494" 
d="M213 0l-189 500h54l166 -446h5l167 446h54l-189 -500h-68z" />
    <glyph glyph-name="w" unicode="w" horiz-adv-x="672" 
d="M144 0l-120 500h51l101 -437h6l121 397h66l119 -398h6l103 438h51l-122 -500h-66l-121 404h-5l-124 -404h-66z" />
    <glyph glyph-name="x" unicode="x" horiz-adv-x="458" 
d="M24 0l173 261l-154 239h59l125 -194h6l122 194h59l-152 -239l172 -261h-60l-142 217h-6l-143 -217h-59z" />
    <glyph glyph-name="y" unicode="y" horiz-adv-x="494" 
d="M108 -210q-26 0 -63 10v43q32 -9 56 -9q72 0 103 81l33 85h-22l-191 500h55l169 -444h5l162 444h55l-217 -593q-40 -117 -145 -117z" />
    <glyph glyph-name="z" unicode="z" horiz-adv-x="465" 
d="M61 0v26l270 427v4h-251v43h322v-26l-269 -427v-4h268v-43h-340z" />
    <glyph glyph-name="braceleft" unicode="{" horiz-adv-x="267" 
d="M152 410q0 -77 -62 -106v-4q62 -27 62 -106v-250q0 -35 18 -52.5t46 -17.5h20v-43h-27q-104 0 -104 114v246q0 84 -74 91v40q74 7 74 91v246q0 114 104 114h27v-43h-20q-28 0 -46 -18t-18 -53v-249z" />
    <glyph glyph-name="bar" unicode="|" horiz-adv-x="255" 
d="M152 770v-910h-50v910h50z" />
    <glyph glyph-name="braceright" unicode="}" horiz-adv-x="267" 
d="M115 410v249q0 35 -18 53t-46 18h-20v43h27q104 0 104 -114v-246q0 -84 74 -91v-40q-74 -7 -74 -91v-246q0 -114 -104 -114h-27v43h20q28 0 46 17.5t18 52.5v250q0 79 62 106v4q-62 29 -62 106z" />
    <glyph glyph-name="asciitilde" unicode="~" horiz-adv-x="527" 
d="M500 347q-6 -60 -39 -101.5t-91 -41.5q-37 0 -68 17.5t-48 38t-42 38t-52 17.5q-38 0 -60 -28t-27 -73h-45q8 61 40.5 102t89.5 41q37 0 68 -17.5t48 -38t42 -38t52 -17.5q39 0 61 28t27 73h44z" />
    <glyph glyph-name="uni00A0" unicode="&#xa0;" horiz-adv-x="250" 
 />
    <glyph glyph-name="exclamdown" unicode="&#xa1;" horiz-adv-x="263" 
d="M131 505q19 0 32 -13t13 -31q0 -19 -13 -32t-32 -13q-18 0 -31 13t-13 32q0 18 13 31t31 13zM161 -200h-58l9 516h38z" />
    <glyph glyph-name="cent" unicode="&#xa2;" horiz-adv-x="521" 
d="M481 230q-14 -68 -64.5 -109.5t-125.5 -45.5v-74h-46v76q-88 12 -139 79t-51 163q0 97 52 165.5t138 81.5v76h46v-73q73 -3 124 -45.5t64 -113.5h-50q-9 46 -46 78t-92 36v-405q110 6 141 111h49zM104 319q0 -76 37.5 -130.5t103.5 -66.5v399q-64 -13 -102.5 -69
t-38.5 -133z" />
    <glyph glyph-name="sterling" unicode="&#xa3;" horiz-adv-x="596" 
d="M189 48h328v-48h-440v33q58 20 102.5 70t44.5 106q0 36 -17 72h-130v44h105q-2 3 -12.5 18t-13.5 20t-11.5 18.5t-11.5 21.5t-7.5 21t-6 25t-1.5 26q0 83 59 129t146 46q70 0 118 -32t70 -79l-41 -27q-19 38 -56.5 64t-89.5 26q-68 0 -108 -34t-40 -93q0 -20 7.5 -41.5
t15.5 -35.5t24 -38t23 -35h210v-44h-188q13 -33 13 -66q0 -58 -29.5 -100t-62.5 -63v-4z" />
    <glyph glyph-name="currency" unicode="&#xa4;" horiz-adv-x="614" 
d="M519 250q0 -78 -46 -137l80 -78l-37 -35l-77 78q-58 -45 -133 -45q-73 0 -131 45l-79 -78l-35 35l79 80q-46 59 -46 135q0 77 45 136l-78 79l35 35l80 -78q56 45 131 45t131 -46l78 79l37 -35l-80 -78q46 -60 46 -137zM307 81q67 0 114.5 50.5t47.5 118.5q0 69 -47.5 119
t-114.5 50q-68 0 -116 -50t-48 -119q0 -68 48 -118.5t116 -50.5z" />
    <glyph glyph-name="yen" unicode="&#xa5;" horiz-adv-x="559" 
d="M529 640l-188 -258h154v-47h-187v-117h187v-48h-187v-170h-56v170h-187v48h187v117h-187v47h153l-187 258h63l183 -250h5l183 250h64z" />
    <glyph glyph-name="brokenbar" unicode="&#xa6;" horiz-adv-x="255" 
d="M102 770h50v-355h-50v355zM102 -140v355h50v-355h-50z" />
    <glyph glyph-name="section" unicode="&#xa7;" horiz-adv-x="598" 
d="M396 90q108 -37 108 -134q0 -78 -61.5 -121.5t-150.5 -43.5q-104 0 -159.5 54.5t-52.5 123.5h54q0 -51 40 -90.5t118 -39.5q69 0 113.5 31t44.5 85q0 27 -12.5 47.5t-27.5 31.5t-44 20t-44 12t-45 7q-90 13 -145 59t-55 121q0 59 36 98t89 56v4q-108 37 -108 134
q0 78 61.5 121.5t150.5 43.5q104 0 159.5 -54.5t52.5 -123.5h-54q0 51 -40 90.5t-118 39.5q-69 0 -113.5 -31t-44.5 -85q0 -27 12.5 -47.5t27.5 -31.5t44 -20t44 -12t45 -7q90 -13 145 -59t55 -121q0 -59 -36 -98t-89 -56v-4zM309 117q64 0 110.5 36t46.5 94
q0 61 -54.5 98.5t-122.5 37.5q-65 0 -111 -36t-46 -94q0 -60 54.5 -98t122.5 -38z" />
    <glyph glyph-name="dieresis" unicode="&#xa8;" horiz-adv-x="455" 
d="M143 570q-17 0 -29 12.5t-12 29.5q0 16 12 28.5t29 12.5q18 0 30 -12t12 -29t-12 -29.5t-30 -12.5zM312 570q-17 0 -29 12.5t-12 29.5q0 16 12.5 28.5t28.5 12.5q17 0 29 -12t12 -29t-12 -29.5t-29 -12.5z" />
    <glyph glyph-name="copyright" unicode="&#xa9;" horiz-adv-x="857" 
d="M428 -10q-145 0 -248 104t-103 256t103 256t248 104t248.5 -104t103.5 -256t-103.5 -256t-248.5 -104zM428 31q127 0 218 94.5t91 224.5t-91 224.5t-218 94.5t-217.5 -94.5t-90.5 -224.5t90.5 -224.5t217.5 -94.5zM573 281q-8 -52 -48 -82t-95 -30q-73 0 -117 49t-44 130
q0 79 44.5 130t113.5 51q56 0 94 -29t47 -86h-48q-19 72 -92 72q-49 0 -79 -39t-30 -98q0 -63 30 -100t82 -37q35 0 60 19t34 50h48z" />
    <glyph glyph-name="guillemotleft" unicode="&#xab;" horiz-adv-x="493" 
d="M159 500h60l-130 -202l130 -202h-60l-128 202zM371 500h60l-130 -202l130 -202h-60l-128 202z" />
    <glyph glyph-name="logicalnot" unicode="&#xac;" horiz-adv-x="527" 
d="M464 154h-49v197h-361v45h410v-242z" />
    <glyph glyph-name="uni00AD" unicode="&#xad;" horiz-adv-x="450" 
d="M46 334h357v-46h-357v46z" />
    <glyph glyph-name="registered" unicode="&#xae;" horiz-adv-x="857" 
d="M428 710q145 0 248.5 -104t103.5 -256t-103.5 -256t-248.5 -104t-248 104t-103 256t103 256t248 104zM428 31q127 0 218 94.5t91 224.5t-91 224.5t-218 94.5t-217.5 -94.5t-90.5 -224.5t90.5 -224.5t217.5 -94.5zM546 423q0 -35 -20 -60t-54 -34l90 -155h-50l-84 147h-63
v-147h-45v350h120q49 0 77.5 -27t28.5 -74zM365 485v-125h68q31 0 49 17.5t18 45.5q0 29 -17.5 45.5t-49.5 16.5h-68z" />
    <glyph glyph-name="macron" unicode="&#xaf;" horiz-adv-x="478" 
d="M102 635h273v-43h-273v43z" />
    <glyph glyph-name="degree" unicode="&#xb0;" horiz-adv-x="426" 
d="M213 407q-62 0 -107 44.5t-45 107.5q0 62 45 106.5t107 44.5t107 -44.5t45 -106.5q0 -63 -45 -107.5t-107 -44.5zM213 451q46 0 76.5 30.5t30.5 77.5t-30 77t-77 30q-46 0 -76.5 -30.5t-30.5 -76.5t30.5 -77t76.5 -31z" />
    <glyph glyph-name="plusminus" unicode="&#xb1;" horiz-adv-x="527" 
d="M288 361h182v-44h-182v-198h-48v198h-182v44h182v197h48v-197zM58 0v46h412v-46h-412z" />
    <glyph glyph-name="uni00B2" unicode="&#xb2;" horiz-adv-x="335" 
d="M156 474q-62 -41 -65 -96h199v-37h-247v18q0 85 84 142l58 38q64 41 64 86q0 30 -21 49.5t-54 19.5q-40 0 -62 -25.5t-25 -56.5h-43q3 48 37.5 83.5t93.5 35.5q52 0 84.5 -29t32.5 -75q0 -22 -7 -40.5t-21.5 -33t-21 -20t-21.5 -15.5z" />
    <glyph glyph-name="uni00B3" unicode="&#xb3;" horiz-adv-x="349" 
d="M237 538q30 -9 49 -34t19 -59q0 -48 -37 -79t-97 -31q-55 0 -88.5 28t-39.5 78h42q6 -31 27.5 -50t58.5 -19q39 0 65 20.5t26 52.5t-22 53t-61 21h-38v36h35q32 0 52 19t20 51q0 31 -21 50t-55 19q-31 0 -53.5 -17t-28.5 -47h-42q4 45 40.5 72.5t85.5 27.5q50 0 83.5 -29
t33.5 -76q0 -57 -54 -85v-2z" />
    <glyph glyph-name="acute" unicode="&#xb4;" horiz-adv-x="319" 
d="M165 700h51l-67 -145h-47z" />
    <glyph glyph-name="uni00B5" unicode="&#xb5;" 
d="M402 500h51v-500h-45l-6 59h-6q-52 -69 -143 -69q-78 0 -122 50v-240h-49v700h51v-313q0 -76 35 -113t91 -37q61 0 102 41t41 122v300z" />
    <glyph glyph-name="paragraph" unicode="&#xb6;" horiz-adv-x="649" 
d="M61 512q0 83 59 135.5t148 52.5h335v-52h-97v-648h-54v648h-128v-648h-56v323q-87 0 -147 52.5t-60 136.5z" />
    <glyph glyph-name="periodcentered" unicode="&#xb7;" horiz-adv-x="182" 
d="M92 267q-19 0 -32.5 13t-13.5 30q0 19 13.5 32t32.5 13q18 0 30.5 -13t12.5 -32q0 -17 -12.5 -30t-30.5 -13z" />
    <glyph glyph-name="cedilla" unicode="&#xb8;" horiz-adv-x="365" 
d="M117 -162q26 -13 48 -13q26 0 42.5 14t16.5 36q0 50 -64 50q-17 0 -37 -9l-19 17l57 77h36v-10l-33 -45q37 3 68 -19t31 -64q0 -38 -25.5 -60t-70.5 -22q-40 0 -65 19z" />
    <glyph glyph-name="uni00B9" unicode="&#xb9;" horiz-adv-x="226" 
d="M118 340v285h-75v33h36q20 0 31.5 13t11.5 33v21h39v-385h-43z" />
    <glyph glyph-name="guillemotright" unicode="&#xbb;" horiz-adv-x="493" 
d="M122 96h-61l130 202l-130 202h61l128 -202zM334 96h-60l130 202l-130 202h60l128 -202z" />
    <glyph glyph-name="onequarter" unicode="&#xbc;" horiz-adv-x="831" 
d="M177 315v285h-75v33h36q20 0 32 13t12 33v21h38v-385h-43zM671 700l-491 -700h-51l490 700h52zM728 123v-34h-71v-89h-40v89h-181v21l175 275h46v-262h71zM487 123h130v205h-4z" />
    <glyph glyph-name="onehalf" unicode="&#xbd;" horiz-adv-x="871" 
d="M177 315v285h-75v33h36q20 0 32 13t12 33v21h38v-385h-43zM671 700l-490 -700h-52l491 700h51zM633 133q-62 -40 -65 -96h199v-37h-247v18q0 87 84 142l58 38q63 41 63 86q0 30 -21 49.5t-54 19.5q-39 0 -61 -25.5t-25 -56.5h-43q3 48 37.5 83.5t93.5 35.5q52 0 84.5 -29
t32.5 -75q0 -22 -7 -40.5t-21.5 -33t-21 -20t-21.5 -15.5z" />
    <glyph glyph-name="threequarters" unicode="&#xbe;" horiz-adv-x="912" 
d="M297 513q30 -9 48.5 -34t18.5 -59q0 -48 -37 -79t-97 -31q-55 0 -88.5 28t-39.5 78h42q6 -31 27.5 -50t58.5 -19q39 0 65 20.5t26 52.5t-22 53t-61 21h-38v36h35q32 0 52 19t20 51q0 31 -21 50t-55 19q-31 0 -53.5 -17t-28.5 -47h-42q5 45 41.5 72.5t84.5 27.5
q50 0 83.5 -29t33.5 -76q0 -56 -53 -85v-2zM753 700l-491 -700h-51l490 700h52zM809 123v-34h-71v-89h-40v89h-180v21l174 275h46v-262h71zM568 123h130v205h-4z" />
    <glyph glyph-name="questiondown" unicode="&#xbf;" horiz-adv-x="442" 
d="M231 505q19 0 32.5 -13t13.5 -31q0 -19 -13.5 -32t-32.5 -13q-18 0 -30.5 13t-12.5 32q0 18 12.5 31t30.5 13zM258 261q0 -64 -16.5 -104t-63.5 -81q-47 -40 -64.5 -65t-17.5 -65q0 -50 28 -80t85 -30q60 0 88 37t32 85h51q-3 -65 -44 -116.5t-127 -51.5q-77 0 -120 43
t-43 113q0 52 23 86t75 77q64 53 64 156v51h50v-55z" />
    <glyph glyph-name="Agrave" unicode="&#xc0;" horiz-adv-x="606" 
d="M327 755h-46l-68 145h51zM518 0l-71 212h-288l-71 -212h-57l237 700h69l238 -700h-57zM175 260h256l-126 375h-5z" />
    <glyph glyph-name="Aacute" unicode="&#xc1;" horiz-adv-x="606" 
d="M395 900l-68 -145h-46l63 145h51zM518 0l-71 212h-288l-71 -212h-57l237 700h69l238 -700h-57zM175 260h256l-126 375h-5z" />
    <glyph glyph-name="Acircumflex" unicode="&#xc2;" horiz-adv-x="606" 
d="M302 860l-65 -94h-54l95 134h52l96 -134h-55l-65 94h-4zM518 0l-71 212h-288l-71 -212h-57l237 700h69l238 -700h-57zM175 260h256l-126 375h-5z" />
    <glyph glyph-name="Atilde" unicode="&#xc3;" horiz-adv-x="606" 
d="M241 823q-43 0 -50 -60h-42q5 44 27 72.5t61 28.5q25 0 44.5 -10.5t30 -22.5t25 -22.5t30.5 -10.5q44 0 50 59h42q-3 -42 -26 -71t-62 -29q-24 0 -43.5 10.5t-30 22.5t-25.5 22.5t-31 10.5zM518 0l-71 212h-288l-71 -212h-57l237 700h69l238 -700h-57zM175 260h256
l-126 375h-5z" />
    <glyph glyph-name="Adieresis" unicode="&#xc4;" horiz-adv-x="606" 
d="M191 776q-18 0 -31.5 13.5t-13.5 31.5q0 19 13.5 33t31.5 14q19 0 32.5 -14t13.5 -33q0 -18 -13.5 -31.5t-32.5 -13.5zM415 776q-18 0 -31.5 13.5t-13.5 31.5q0 19 13.5 33t31.5 14q19 0 32.5 -14t13.5 -33q0 -18 -13.5 -31.5t-32.5 -13.5zM518 0l-71 212h-288l-71 -212
h-57l237 700h69l238 -700h-57zM175 260h256l-126 375h-5z" />
    <glyph glyph-name="Aring" unicode="&#xc5;" horiz-adv-x="606" 
d="M304 748q-37 0 -64.5 27t-27.5 64t27 64t65 27t64.5 -27t26.5 -64t-27 -64t-64 -27zM305 892q-23 0 -38 -15.5t-15 -37.5q0 -23 15 -38.5t38 -15.5q21 0 36 16t15 38t-15 37.5t-36 15.5zM518 0l-71 212h-288l-71 -212h-57l237 700h69l238 -700h-57zM175 260h256l-126 375
h-5z" />
    <glyph glyph-name="AE" unicode="&#xc6;" horiz-adv-x="965" 
d="M554 49h355v-49h-408v212h-273l-135 -212h-62l442 700h426v-49h-345v-272h309v-48h-309v-282zM258 260h243v375h-5z" />
    <glyph glyph-name="Ccedilla" unicode="&#xc7;" horiz-adv-x="738" 
d="M677 203q-20 -91 -92.5 -150t-176.5 -63l-27 -35q37 3 68 -19t31 -64q0 -38 -25 -60t-70 -22q-40 0 -65 19l14 29q28 -13 48 -13q27 0 43 13.5t16 36.5q0 50 -63 50q-19 0 -37 -9l-19 17l43 58q-129 11 -208.5 108.5t-79.5 246.5q0 159 87.5 261.5t228.5 102.5
q106 0 180.5 -58.5t93.5 -160.5h-56q-19 78 -75.5 123.5t-140.5 45.5q-120 0 -192 -90t-72 -224q0 -133 72.5 -219.5t190.5 -86.5q85 0 144.5 44t82.5 119h56z" />
    <glyph glyph-name="Egrave" unicode="&#xc8;" horiz-adv-x="581" 
d="M269 900l63 -145h-46l-68 145h51zM155 49h370v-49h-423v700h413v-49h-360v-272h324v-48h-324v-282z" />
    <glyph glyph-name="Eacute" unicode="&#xc9;" horiz-adv-x="581" 
d="M349 900h51l-68 -145h-46zM155 49h370v-49h-423v700h413v-49h-360v-272h324v-48h-324v-282z" />
    <glyph glyph-name="Ecircumflex" unicode="&#xca;" horiz-adv-x="581" 
d="M242 766h-54l95 134h52l96 -134h-55l-65 94h-4zM155 49h370v-49h-423v700h413v-49h-360v-272h324v-48h-324v-282z" />
    <glyph glyph-name="Edieresis" unicode="&#xcb;" horiz-adv-x="581" 
d="M197 776q-18 0 -31.5 13.5t-13.5 31.5q0 19 13.5 33t31.5 14q19 0 32.5 -14t13.5 -33q0 -18 -13.5 -31.5t-32.5 -13.5zM421 776q-18 0 -31.5 13.5t-13.5 31.5q0 19 13.5 33t31.5 14q19 0 32.5 -14t13.5 -33q0 -18 -13.5 -31.5t-32.5 -13.5zM155 49h370v-49h-423v700h413
v-49h-360v-272h324v-48h-324v-282z" />
    <glyph glyph-name="Igrave" unicode="&#xcc;" horiz-adv-x="258" 
d="M89 900l63 -145h-46l-68 145h51zM156 700v-700h-54v700h54z" />
    <glyph glyph-name="Iacute" unicode="&#xcd;" horiz-adv-x="258" 
d="M169 900h51l-68 -145h-46zM156 700v-700h-54v700h54z" />
    <glyph glyph-name="Icircumflex" unicode="&#xce;" horiz-adv-x="258" 
d="M62 766h-54l95 134h52l96 -134h-55l-65 94h-4zM156 700v-700h-54v700h54z" />
    <glyph glyph-name="Idieresis" unicode="&#xcf;" horiz-adv-x="258" 
d="M17 776q-18 0 -31.5 13.5t-13.5 31.5q0 19 13.5 33t31.5 14q19 0 32.5 -14t13.5 -33q0 -18 -13.5 -31.5t-32.5 -13.5zM241 776q-18 0 -31.5 13.5t-13.5 31.5q0 19 13.5 33t31.5 14q19 0 32.5 -14t13.5 -33q0 -18 -13.5 -31.5t-32.5 -13.5zM156 700v-700h-54v700h54z" />
    <glyph glyph-name="Eth" unicode="&#xd0;" horiz-adv-x="693" 
d="M293 700q161 0 242 -93.5t81 -257.5q0 -159 -79 -254t-244 -95h-191v328h-120v44h120v328h191zM289 50q143 0 208 80t65 220t-65 220t-208 80h-133v-278h178v-44h-178v-278h133z" />
    <glyph glyph-name="Ntilde" unicode="&#xd1;" horiz-adv-x="741" 
d="M527 857q-3 -42 -26 -71t-62 -29q-24 0 -43.5 10.5t-30 22.5t-25.5 22.5t-31 10.5q-43 0 -50 -60h-42q5 44 27 72.5t61 28.5q25 0 44.5 -10.5t30 -22.5t25 -22.5t30.5 -10.5q44 0 50 59h42zM586 700h53v-700h-64l-414 616h-6v-616h-53v700h66l413 -614h5v614z" />
    <glyph glyph-name="Ograve" unicode="&#xd2;" horiz-adv-x="813" 
d="M367 900l63 -145h-46l-68 145h51zM407 -10q-142 0 -236 102t-94 258t94 258t235 102t235.5 -102t94.5 -258t-94 -258t-235 -102zM407 40q118 0 196.5 88.5t78.5 221.5t-79 221.5t-197 88.5q-117 0 -196 -88.5t-79 -221.5t79 -221.5t197 -88.5z" />
    <glyph glyph-name="Oacute" unicode="&#xd3;" horiz-adv-x="813" 
d="M447 900h51l-68 -145h-46zM407 -10q-142 0 -236 102t-94 258t94 258t235 102t235.5 -102t94.5 -258t-94 -258t-235 -102zM407 40q118 0 196.5 88.5t78.5 221.5t-79 221.5t-197 88.5q-117 0 -196 -88.5t-79 -221.5t79 -221.5t197 -88.5z" />
    <glyph glyph-name="Ocircumflex" unicode="&#xd4;" horiz-adv-x="813" 
d="M340 766h-54l95 134h52l96 -134h-55l-65 94h-4zM407 -10q-142 0 -236 102t-94 258t94 258t235 102t235.5 -102t94.5 -258t-94 -258t-235 -102zM407 40q118 0 196.5 88.5t78.5 221.5t-79 221.5t-197 88.5q-117 0 -196 -88.5t-79 -221.5t79 -221.5t197 -88.5z" />
    <glyph glyph-name="Otilde" unicode="&#xd5;" horiz-adv-x="813" 
d="M562 857q-3 -42 -26 -71t-62 -29q-24 0 -43.5 10.5t-30 22.5t-25.5 22.5t-31 10.5q-42 0 -50 -60h-42q5 44 27 72.5t61 28.5q25 0 44.5 -10.5t30 -22.5t25 -22.5t30.5 -10.5q44 0 50 59h42zM407 -10q-142 0 -236 102t-94 258t94 258t235 102t235.5 -102t94.5 -258
t-94 -258t-235 -102zM407 40q118 0 196.5 88.5t78.5 221.5t-79 221.5t-197 88.5q-117 0 -196 -88.5t-79 -221.5t79 -221.5t197 -88.5z" />
    <glyph glyph-name="Odieresis" unicode="&#xd6;" horiz-adv-x="813" 
d="M295 776q-18 0 -31.5 13.5t-13.5 31.5q0 19 13.5 33t31.5 14q19 0 32.5 -14t13.5 -33q0 -18 -13.5 -31.5t-32.5 -13.5zM519 776q-18 0 -31.5 13.5t-13.5 31.5q0 19 13.5 33t31.5 14q19 0 32.5 -14t13.5 -33q0 -18 -13.5 -31.5t-32.5 -13.5zM407 -10q-142 0 -236 102
t-94 258t94 258t235 102t235.5 -102t94.5 -258t-94 -258t-235 -102zM407 40q118 0 196.5 88.5t78.5 221.5t-79 221.5t-197 88.5q-117 0 -196 -88.5t-79 -221.5t79 -221.5t197 -88.5z" />
    <glyph glyph-name="multiply" unicode="&#xd7;" horiz-adv-x="527" 
d="M466 451l-168 -171l168 -171l-35 -33l-167 169l-166 -169l-36 33l168 171l-168 171l34 34l168 -171l168 171z" />
    <glyph glyph-name="Oslash" unicode="&#xd8;" horiz-adv-x="813" 
d="M627 623q109 -104 109 -273q0 -156 -94 -258t-235 -102q-103 0 -185 57l-61 -86l-38 25l63 90q-109 106 -109 274q0 156 94 258t235 102q102 0 184 -57l61 86l39 -26zM130 350q0 -140 87 -230l344 491q-69 50 -155 50q-118 0 -197 -89t-79 -222zM407 39q118 0 197 88.5
t79 222.5q0 140 -87 230l-345 -491q69 -50 156 -50z" />
    <glyph glyph-name="Ugrave" unicode="&#xd9;" horiz-adv-x="716" 
d="M318 900l63 -145h-46l-68 145h51zM613 700v-447q0 -125 -69.5 -194t-184.5 -69t-186 69t-71 194v447h54v-438q0 -110 56.5 -166t146.5 -56t145.5 56t55.5 166v438h53z" />
    <glyph glyph-name="Uacute" unicode="&#xda;" horiz-adv-x="716" 
d="M398 900h51l-68 -145h-46zM613 700v-447q0 -125 -69.5 -194t-184.5 -69t-186 69t-71 194v447h54v-438q0 -110 56.5 -166t146.5 -56t145.5 56t55.5 166v438h53z" />
    <glyph glyph-name="Ucircumflex" unicode="&#xdb;" horiz-adv-x="716" 
d="M291 766h-54l95 134h52l96 -134h-55l-65 94h-4zM613 700v-447q0 -125 -69.5 -194t-184.5 -69t-186 69t-71 194v447h54v-438q0 -110 56.5 -166t146.5 -56t145.5 56t55.5 166v438h53z" />
    <glyph glyph-name="Udieresis" unicode="&#xdc;" horiz-adv-x="716" 
d="M246 776q-18 0 -31.5 13.5t-13.5 31.5q0 19 13.5 33t31.5 14q19 0 32.5 -14t13.5 -33q0 -18 -13.5 -31.5t-32.5 -13.5zM470 776q-18 0 -31.5 13.5t-13.5 31.5q0 19 13.5 33t31.5 14q19 0 32.5 -14t13.5 -33q0 -18 -13.5 -31.5t-32.5 -13.5zM613 700v-447
q0 -125 -69.5 -194t-184.5 -69t-186 69t-71 194v447h54v-438q0 -110 56.5 -166t146.5 -56t145.5 56t55.5 166v438h53z" />
    <glyph glyph-name="Yacute" unicode="&#xdd;" horiz-adv-x="616" 
d="M349 900h51l-68 -145h-46zM519 700h67l-251 -350v-350h-53v350l-251 350h66l208 -291h6z" />
    <glyph glyph-name="Thorn" unicode="&#xde;" horiz-adv-x="603" 
d="M321 551q92 0 148.5 -54.5t56.5 -145.5q0 -95 -57.5 -149t-156.5 -54h-159v-148h-51v700h51v-149h168zM309 198q77 0 120 40t43 112q0 73 -43 112t-111 39h-165v-303h156z" />
    <glyph glyph-name="germandbls" unicode="&#xdf;" horiz-adv-x="534" 
d="M343 369q130 -39 130 -186q0 -91 -47 -142t-130 -51q-48 0 -91 16v43q45 -15 87 -15q60 0 95.5 39t35.5 111q0 79 -45 119.5t-131 40.5h-42v45h41q71 0 111 36.5t40 103.5q0 62 -34 99.5t-95 37.5q-60 0 -98.5 -38t-38.5 -114v-514h-49v513q0 93 50.5 145t135.5 52
q82 0 131 -48t49 -128q0 -116 -105 -161v-4z" />
    <glyph glyph-name="agrave" unicode="&#xe0;" horiz-adv-x="511" 
d="M265 555h-46l-68 145h51zM461 42h14v-42h-28q-35 0 -53.5 15.5t-22.5 50.5q-61 -76 -167 -76q-68 0 -111.5 35t-43.5 104q0 68 48 107.5t128 46.5l143 13v37q0 60 -31 95.5t-92 35.5q-104 0 -125 -111h-51q8 70 54 113.5t121 43.5q81 0 128 -46t47 -126v-252
q0 -44 42 -44zM368 189v64l-132 -12q-62 -5 -99 -33.5t-37 -77.5t30 -72t77 -23q66 0 113.5 38t47.5 116z" />
    <glyph glyph-name="aacute" unicode="&#xe1;" horiz-adv-x="511" 
d="M334 700l-68 -145h-46l63 145h51zM461 42h14v-42h-28q-35 0 -53.5 15.5t-22.5 50.5q-61 -76 -167 -76q-68 0 -111.5 35t-43.5 104q0 68 48 107.5t128 46.5l143 13v37q0 60 -31 95.5t-92 35.5q-104 0 -125 -111h-51q8 70 54 113.5t121 43.5q81 0 128 -46t47 -126v-252
q0 -44 42 -44zM368 189v64l-132 -12q-62 -5 -99 -33.5t-37 -77.5t30 -72t77 -23q66 0 113.5 38t47.5 116z" />
    <glyph glyph-name="acircumflex" unicode="&#xe2;" horiz-adv-x="511" 
d="M240 660l-65 -94h-54l95 134h52l96 -134h-55l-65 94h-4zM461 42h14v-42h-28q-35 0 -53.5 15.5t-22.5 50.5q-61 -76 -167 -76q-68 0 -111.5 35t-43.5 104q0 68 48 107.5t128 46.5l143 13v37q0 60 -31 95.5t-92 35.5q-104 0 -125 -111h-51q8 70 54 113.5t121 43.5
q81 0 128 -46t47 -126v-252q0 -44 42 -44zM368 189v64l-132 -12q-62 -5 -99 -33.5t-37 -77.5t30 -72t77 -23q66 0 113.5 38t47.5 116z" />
    <glyph glyph-name="atilde" unicode="&#xe3;" horiz-adv-x="511" 
d="M180 623q-42 0 -50 -60h-42q5 44 27 72.5t61 28.5q25 0 44.5 -10.5t30 -22.5t25 -22.5t30.5 -10.5q44 0 50 59h42q-3 -42 -26 -71t-62 -29q-24 0 -43.5 10.5t-30 22.5t-25.5 22.5t-31 10.5zM461 42h14v-42h-28q-35 0 -53.5 15.5t-22.5 50.5q-61 -76 -167 -76
q-68 0 -111.5 35t-43.5 104q0 68 48 107.5t128 46.5l143 13v37q0 60 -31 95.5t-92 35.5q-104 0 -125 -111h-51q8 70 54 113.5t121 43.5q81 0 128 -46t47 -126v-252q0 -44 42 -44zM368 189v64l-132 -12q-62 -5 -99 -33.5t-37 -77.5t30 -72t77 -23q66 0 113.5 38t47.5 116z
" />
    <glyph glyph-name="adieresis" unicode="&#xe4;" horiz-adv-x="511" 
d="M159 570q-17 0 -29 12.5t-12 29.5q0 16 12 28.5t29 12.5t29 -12t12 -29t-12 -29.5t-29 -12.5zM327 570q-16 0 -28 12.5t-12 29.5t12 29t28 12q17 0 29 -12t12 -29t-12 -29.5t-29 -12.5zM461 42h14v-42h-28q-35 0 -53.5 15.5t-22.5 50.5q-61 -76 -167 -76q-68 0 -111.5 35
t-43.5 104q0 68 48 107.5t128 46.5l143 13v37q0 60 -31 95.5t-92 35.5q-104 0 -125 -111h-51q8 70 54 113.5t121 43.5q81 0 128 -46t47 -126v-252q0 -44 42 -44zM368 189v64l-132 -12q-62 -5 -99 -33.5t-37 -77.5t30 -72t77 -23q66 0 113.5 38t47.5 116z" />
    <glyph glyph-name="aring" unicode="&#xe5;" horiz-adv-x="511" 
d="M243 548q-37 0 -64.5 27t-27.5 64t27 64t65 27q37 0 64 -27t27 -64t-27 -64t-64 -27zM244 692q-23 0 -38 -15.5t-15 -37.5q0 -23 15 -38.5t38 -15.5q21 0 36 16t15 38t-15 37.5t-36 15.5zM461 42h14v-42h-28q-35 0 -53.5 15.5t-22.5 50.5q-61 -76 -167 -76
q-68 0 -111.5 35t-43.5 104q0 68 48 107.5t128 46.5l143 13v37q0 60 -31 95.5t-92 35.5q-104 0 -125 -111h-51q8 70 54 113.5t121 43.5q81 0 128 -46t47 -126v-252q0 -44 42 -44zM368 189v64l-132 -12q-62 -5 -99 -33.5t-37 -77.5t30 -72t77 -23q66 0 113.5 38t47.5 116z
" />
    <glyph glyph-name="ae" unicode="&#xe6;" horiz-adv-x="687" 
d="M625 268q0 -16 -1 -28h-267q0 -205 112 -205q37 0 67 23t36 75h50q-8 -74 -50.5 -108.5t-102.5 -34.5q-98 0 -135 88q-16 -44 -55 -66t-89 -22q-65 0 -103 34t-38 99q0 45 17 77.5t47.5 50.5t67.5 26t82 8h41v61q0 119 -94 119q-47 0 -75 -26t-30 -73h-50q4 67 46 105.5
t108 38.5q97 0 130 -85q39 85 131 85q155 0 155 -242zM470 465q-48 0 -79 -44t-34 -136h220q-4 180 -107 180zM193 35q45 0 78 29t33 94v82h-32q-82 0 -127.5 -25t-45.5 -90q0 -45 25.5 -67.5t68.5 -22.5z" />
    <glyph glyph-name="ccedilla" unicode="&#xe7;" horiz-adv-x="559" 
d="M510 153q-16 -72 -69 -115.5t-131 -47.5l-27 -35q37 3 68 -19t31 -64q0 -38 -25 -60t-70 -22q-40 0 -65 19l14 29q28 -13 48 -13q27 0 43 13.5t16 36.5q0 50 -63 50q-19 0 -37 -9l-19 17l43 59q-95 10 -150.5 81t-55.5 174q0 113 65.5 188t171.5 75q80 0 137.5 -45
t71.5 -121h-52q-11 51 -53 85t-104 34q-82 0 -134 -61.5t-52 -154.5q0 -90 50 -150t135 -60q125 0 161 116h52z" />
    <glyph glyph-name="egrave" unicode="&#xe8;" horiz-adv-x="558" 
d="M309 555h-46l-68 145h51zM496 266q0 -15 -1 -25h-383q3 -94 51 -150t126 -56q56 0 96 25.5t55 73.5h51q-17 -70 -71.5 -107t-130.5 -37q-101 0 -164.5 70t-63.5 185q0 120 63 192.5t162 72.5q92 0 151 -64.5t59 -179.5zM286 465q-72 0 -119.5 -51t-53.5 -129h333
q-1 82 -45 131t-115 49z" />
    <glyph glyph-name="eacute" unicode="&#xe9;" horiz-adv-x="558" 
d="M378 700l-68 -145h-46l63 145h51zM496 266q0 -15 -1 -25h-383q3 -94 51 -150t126 -56q56 0 96 25.5t55 73.5h51q-17 -70 -71.5 -107t-130.5 -37q-101 0 -164.5 70t-63.5 185q0 120 63 192.5t162 72.5q92 0 151 -64.5t59 -179.5zM286 465q-72 0 -119.5 -51t-53.5 -129h333
q-1 82 -45 131t-115 49z" />
    <glyph glyph-name="ecircumflex" unicode="&#xea;" horiz-adv-x="558" 
d="M284 660l-65 -94h-54l95 134h52l96 -134h-55l-65 94h-4zM496 266q0 -15 -1 -25h-383q3 -94 51 -150t126 -56q56 0 96 25.5t55 73.5h51q-17 -70 -71.5 -107t-130.5 -37q-101 0 -164.5 70t-63.5 185q0 120 63 192.5t162 72.5q92 0 151 -64.5t59 -179.5zM286 465
q-72 0 -119.5 -51t-53.5 -129h333q-1 82 -45 131t-115 49z" />
    <glyph glyph-name="edieresis" unicode="&#xeb;" horiz-adv-x="558" 
d="M203 570q-17 0 -29 12.5t-12 29.5q0 16 12 28.5t29 12.5t29 -12t12 -29t-12 -29.5t-29 -12.5zM371 570q-16 0 -28 12.5t-12 29.5t12 29t28 12q17 0 29 -12t12 -29t-12 -29.5t-29 -12.5zM496 266q0 -15 -1 -25h-383q3 -94 51 -150t126 -56q56 0 96 25.5t55 73.5h51
q-17 -70 -71.5 -107t-130.5 -37q-101 0 -164.5 70t-63.5 185q0 120 63 192.5t162 72.5q92 0 151 -64.5t59 -179.5zM286 465q-72 0 -119.5 -51t-53.5 -129h333q-1 82 -45 131t-115 49z" />
    <glyph glyph-name="igrave" unicode="&#xec;" horiz-adv-x="215" 
d="M67 700l63 -145h-46l-68 145h51zM82 0v500h51v-500h-51z" />
    <glyph glyph-name="iacute" unicode="&#xed;" horiz-adv-x="215" 
d="M148 700h51l-68 -145h-46zM82 0v500h51v-500h-51z" />
    <glyph glyph-name="icircumflex" unicode="&#xee;" horiz-adv-x="215" 
d="M40 566h-54l95 134h52l96 -134h-55l-65 94h-4zM82 0v500h51v-500h-51z" />
    <glyph glyph-name="idieresis" unicode="&#xef;" horiz-adv-x="215" 
d="M24 570q-17 0 -29 12.5t-12 29.5q0 16 12.5 28.5t28.5 12.5q17 0 29 -12t12 -29t-12 -29.5t-29 -12.5zM192 570q-16 0 -28 12.5t-12 29.5t12 29t28 12q17 0 29 -12t12 -29t-12 -29.5t-29 -12.5zM82 0v500h51v-500h-51z" />
    <glyph glyph-name="eth" unicode="&#xf0;" horiz-adv-x="584" 
d="M380 586q127 -149 127 -331q0 -120 -58.5 -192.5t-165.5 -72.5q-91 0 -156.5 61.5t-65.5 165.5q0 106 62.5 167.5t158.5 61.5q53 0 95.5 -21.5t61.5 -52.5h6q-32 110 -111 198l-155 -55l-14 35l140 50q-53 52 -124 100h67q55 -35 103 -83l97 34l14 -36zM285 36
q76 0 123 54.5t47 135.5q0 77 -50.5 126t-125.5 49q-77 0 -123 -51t-46 -132q0 -80 50 -131t125 -51z" />
    <glyph glyph-name="ntilde" unicode="&#xf1;" 
d="M422 657q-3 -42 -26 -71t-62 -29q-24 0 -43.5 10.5t-30 22.5t-25.5 22.5t-31 10.5q-42 0 -50 -60h-42q5 44 27 72.5t61 28.5q25 0 44.5 -10.5t30 -22.5t25 -22.5t30.5 -10.5q44 0 50 59h42zM82 0v500h45l6 -59h5q52 69 144 69q76 0 123.5 -47.5t47.5 -136.5v-326h-51v313
q0 76 -35 113t-91 37q-61 0 -102 -41t-41 -122v-300h-51z" />
    <glyph glyph-name="ograve" unicode="&#xf2;" horiz-adv-x="598" 
d="M260 700l63 -145h-46l-68 145h51zM298 -10q-103 0 -170 75t-67 185q0 112 66 186t171 74q103 0 171 -75t68 -185q0 -112 -67.5 -186t-171.5 -74zM298 37q83 0 135.5 62t52.5 151t-53 151t-135 62q-83 0 -134.5 -61.5t-51.5 -151.5q0 -89 51.5 -151t134.5 -62z" />
    <glyph glyph-name="oacute" unicode="&#xf3;" horiz-adv-x="598" 
d="M340 700h51l-68 -145h-46zM298 -10q-103 0 -170 75t-67 185q0 112 66 186t171 74q103 0 171 -75t68 -185q0 -112 -67.5 -186t-171.5 -74zM298 37q83 0 135.5 62t52.5 151t-53 151t-135 62q-83 0 -134.5 -61.5t-51.5 -151.5q0 -89 51.5 -151t134.5 -62z" />
    <glyph glyph-name="ocircumflex" unicode="&#xf4;" horiz-adv-x="598" 
d="M232 566h-54l95 134h52l96 -134h-55l-65 94h-4zM298 -10q-103 0 -170 75t-67 185q0 112 66 186t171 74q103 0 171 -75t68 -185q0 -112 -67.5 -186t-171.5 -74zM298 37q83 0 135.5 62t52.5 151t-53 151t-135 62q-83 0 -134.5 -61.5t-51.5 -151.5q0 -89 51.5 -151
t134.5 -62z" />
    <glyph glyph-name="otilde" unicode="&#xf5;" horiz-adv-x="598" 
d="M455 657q-3 -42 -26 -71t-62 -29q-24 0 -43.5 10.5t-30 22.5t-25.5 22.5t-31 10.5q-43 0 -50 -60h-42q5 44 27 72.5t61 28.5q25 0 44.5 -10.5t30 -22.5t25 -22.5t30.5 -10.5q44 0 50 59h42zM298 -10q-103 0 -170 75t-67 185q0 112 66 186t171 74q103 0 171 -75t68 -185
q0 -112 -67.5 -186t-171.5 -74zM298 37q83 0 135.5 62t52.5 151t-53 151t-135 62q-83 0 -134.5 -61.5t-51.5 -151.5q0 -89 51.5 -151t134.5 -62z" />
    <glyph glyph-name="odieresis" unicode="&#xf6;" horiz-adv-x="598" 
d="M216 570q-17 0 -29 12.5t-12 29.5q0 16 12.5 28.5t28.5 12.5q17 0 29 -12t12 -29t-12 -29.5t-29 -12.5zM384 570q-16 0 -28 12.5t-12 29.5t12 29t28 12q17 0 29 -12t12 -29t-12 -29.5t-29 -12.5zM298 -10q-103 0 -170 75t-67 185q0 112 66 186t171 74q103 0 171 -75
t68 -185q0 -112 -67.5 -186t-171.5 -74zM298 37q83 0 135.5 62t52.5 151t-53 151t-135 62q-83 0 -134.5 -61.5t-51.5 -151.5q0 -89 51.5 -151t134.5 -62z" />
    <glyph glyph-name="divide" unicode="&#xf7;" horiz-adv-x="527" 
d="M265 412q-19 0 -32.5 13t-13.5 30q0 19 13.5 32.5t32.5 13.5q18 0 30.5 -13.5t12.5 -32.5q0 -17 -12.5 -30t-30.5 -13zM40 303h447v-46h-447v46zM265 54q-19 0 -32.5 13.5t-13.5 30.5q0 19 13.5 32t32.5 13q18 0 30.5 -13t12.5 -32q0 -18 -12.5 -31t-30.5 -13z" />
    <glyph glyph-name="oslash" unicode="&#xf8;" horiz-adv-x="598" 
d="M467 438q70 -75 70 -188q0 -112 -67.5 -186t-171.5 -74q-75 0 -133 42l-53 -71l-37 24l57 76q-71 74 -71 189q0 112 66 186t171 74q74 0 135 -43l54 73l37 -25zM111 250q0 -88 50 -149l243 328q-46 35 -106 35q-84 0 -135.5 -62t-51.5 -152zM298 36q83 0 136 62.5
t53 151.5q0 87 -50 148l-244 -328q47 -34 105 -34z" />
    <glyph glyph-name="ugrave" unicode="&#xf9;" 
d="M228 700l63 -145h-46l-68 145h51zM453 500v-500h-45l-6 59h-5q-52 -69 -144 -69q-76 0 -123.5 47.5t-47.5 136.5v326h51v-313q0 -76 35 -113t91 -37q61 0 102 41t41 122v300h51z" />
    <glyph glyph-name="uacute" unicode="&#xfa;" 
d="M308 700h51l-68 -145h-46zM453 500v-500h-45l-6 59h-5q-52 -69 -144 -69q-76 0 -123.5 47.5t-47.5 136.5v326h51v-313q0 -76 35 -113t91 -37q61 0 102 41t41 122v300h51z" />
    <glyph glyph-name="ucircumflex" unicode="&#xfb;" 
d="M201 566h-54l95 134h52l96 -134h-55l-65 94h-4zM453 500v-500h-45l-6 59h-5q-52 -69 -144 -69q-76 0 -123.5 47.5t-47.5 136.5v326h51v-313q0 -76 35 -113t91 -37q61 0 102 41t41 122v300h51z" />
    <glyph glyph-name="udieresis" unicode="&#xfc;" 
d="M184 570q-17 0 -29 12.5t-12 29.5q0 16 12.5 28.5t28.5 12.5q17 0 29 -12t12 -29t-12 -29.5t-29 -12.5zM352 570q-16 0 -28 12.5t-12 29.5t12 29t28 12q17 0 29 -12t12 -29t-12 -29.5t-29 -12.5zM453 500v-500h-45l-6 59h-5q-52 -69 -144 -69q-76 0 -123.5 47.5
t-47.5 136.5v326h51v-313q0 -76 35 -113t91 -37q61 0 102 41t41 122v300h51z" />
    <glyph glyph-name="yacute" unicode="&#xfd;" horiz-adv-x="494" 
d="M287 700h51l-68 -145h-46zM108 -210q-26 0 -63 10v43q32 -9 56 -9q72 0 103 81l33 85h-22l-191 500h55l169 -444h5l162 444h55l-217 -593q-40 -117 -145 -117z" />
    <glyph glyph-name="thorn" unicode="&#xfe;" horiz-adv-x="591" 
d="M305 510q100 0 162.5 -72t62.5 -189t-62.5 -188t-162.5 -71q-68 0 -110 29.5t-62 68.5v-288h-51v910h48v-291h6q59 91 169 91zM302 37q79 0 128 58t49 154t-49.5 155t-127.5 59q-77 0 -123 -58.5t-46 -155.5q0 -96 46 -154t123 -58z" />
    <glyph glyph-name="ydieresis" unicode="&#xff;" horiz-adv-x="494" 
d="M163 570q-17 0 -29 12.5t-12 29.5q0 16 12 28.5t29 12.5t29 -12t12 -29t-12 -29.5t-29 -12.5zM331 570q-16 0 -28 12.5t-12 29.5t12 29t28 12q17 0 29 -12t12 -29t-12 -29.5t-29 -12.5zM108 -210q-26 0 -63 10v43q32 -9 56 -9q72 0 103 81l33 85h-22l-191 500h55
l169 -444h5l162 444h55l-217 -593q-40 -117 -145 -117z" />
    <glyph glyph-name="Amacron" unicode="&#x100;" horiz-adv-x="606" 
d="M441 835v-43h-273v43h273zM518 0l-71 212h-288l-71 -212h-57l237 700h69l238 -700h-57zM175 260h256l-126 375h-5z" />
    <glyph glyph-name="amacron" unicode="&#x101;" horiz-adv-x="511" 
d="M379 635v-43h-273v43h273zM461 42h14v-42h-28q-35 0 -53.5 15.5t-22.5 50.5q-61 -76 -167 -76q-68 0 -111.5 35t-43.5 104q0 68 48 107.5t128 46.5l143 13v37q0 60 -31 95.5t-92 35.5q-104 0 -125 -111h-51q8 70 54 113.5t121 43.5q81 0 128 -46t47 -126v-252
q0 -44 42 -44zM368 189v64l-132 -12q-62 -5 -99 -33.5t-37 -77.5t30 -72t77 -23q66 0 113.5 38t47.5 116z" />
    <glyph glyph-name="Abreve" unicode="&#x102;" horiz-adv-x="606" 
d="M303 776q-55 0 -87.5 38.5t-32.5 85.5h48q0 -38 20 -61t52 -23t51 23t19 61h48q0 -48 -31.5 -86t-86.5 -38zM518 0l-71 212h-288l-71 -212h-57l237 700h69l238 -700h-57zM175 260h256l-126 375h-5z" />
    <glyph glyph-name="abreve" unicode="&#x103;" horiz-adv-x="511" 
d="M242 576q-55 0 -87.5 38.5t-32.5 85.5h48q0 -38 20 -61t52 -23t51 23t19 61h48q0 -48 -31.5 -86t-86.5 -38zM461 42h14v-42h-28q-35 0 -53.5 15.5t-22.5 50.5q-61 -76 -167 -76q-68 0 -111.5 35t-43.5 104q0 68 48 107.5t128 46.5l143 13v37q0 60 -31 95.5t-92 35.5
q-104 0 -125 -111h-51q8 70 54 113.5t121 43.5q81 0 128 -46t47 -126v-252q0 -44 42 -44zM368 189v64l-132 -12q-62 -5 -99 -33.5t-37 -77.5t30 -72t77 -23q66 0 113.5 38t47.5 116z" />
    <glyph glyph-name="Aogonek" unicode="&#x104;" horiz-adv-x="606" 
d="M561 -127q19 0 42 6v-41q-19 -7 -45 -7q-45 0 -74 21t-29 64q0 52 65 84h-2l-71 212h-288l-71 -212h-57l237 700h69l238 -700q-72 -27 -72 -81q0 -46 58 -46zM175 260h256l-126 375h-5z" />
    <glyph glyph-name="aogonek" unicode="&#x105;" horiz-adv-x="511" 
d="M461 -127q19 0 42 6v-41q-19 -7 -45 -7q-45 0 -74 21t-29 64q0 53 69 86q-46 9 -53 64q-61 -76 -167 -76q-68 0 -111.5 35t-43.5 104q0 68 48 107.5t128 46.5l143 13v37q0 60 -31 95.5t-92 35.5q-104 0 -125 -111h-51q8 70 54 113.5t121 43.5q81 0 128 -46t47 -126v-252
q0 -44 42 -44h14v-42q-72 -27 -72 -81q0 -46 58 -46zM368 189v64l-132 -12q-62 -5 -99 -33.5t-37 -77.5t30 -72t77 -23q66 0 113.5 38t47.5 116z" />
    <glyph glyph-name="Cacute" unicode="&#x106;" horiz-adv-x="738" 
d="M433 900h51l-68 -145h-46zM677 203q-21 -95 -97.5 -154t-185.5 -59q-140 0 -228.5 99t-88.5 257q0 159 87.5 261.5t228.5 102.5q106 0 180.5 -58.5t93.5 -160.5h-56q-19 78 -75.5 123.5t-140.5 45.5q-120 0 -192 -90t-72 -224q0 -133 72.5 -219.5t190.5 -86.5
q85 0 144.5 44t82.5 119h56z" />
    <glyph glyph-name="cacute" unicode="&#x107;" horiz-adv-x="559" 
d="M335 700h51l-68 -145h-46zM297 -10q-108 0 -172 73t-64 184q0 113 65.5 188t171.5 75q80 0 137.5 -45t71.5 -121h-52q-11 51 -53 85t-104 34q-82 0 -134 -61.5t-52 -154.5q0 -90 50 -150t135 -60q125 0 161 116h52q-17 -75 -73.5 -119t-139.5 -44z" />
    <glyph glyph-name="Ccircumflex" unicode="&#x108;" horiz-adv-x="738" 
d="M326 766h-54l95 134h52l96 -134h-55l-65 94h-4zM677 203q-21 -95 -97.5 -154t-185.5 -59q-140 0 -228.5 99t-88.5 257q0 159 87.5 261.5t228.5 102.5q106 0 180.5 -58.5t93.5 -160.5h-56q-19 78 -75.5 123.5t-140.5 45.5q-120 0 -192 -90t-72 -224q0 -133 72.5 -219.5
t190.5 -86.5q85 0 144.5 44t82.5 119h56z" />
    <glyph glyph-name="ccircumflex" unicode="&#x109;" horiz-adv-x="559" 
d="M228 566h-54l95 134h52l96 -134h-55l-65 94h-4zM297 -10q-108 0 -172 73t-64 184q0 113 65.5 188t171.5 75q80 0 137.5 -45t71.5 -121h-52q-11 51 -53 85t-104 34q-82 0 -134 -61.5t-52 -154.5q0 -90 50 -150t135 -60q125 0 161 116h52q-17 -75 -73.5 -119t-139.5 -44z
" />
    <glyph glyph-name="Cdotaccent" unicode="&#x10a;" horiz-adv-x="738" 
d="M393 795q-17 0 -28.5 11t-11.5 29q0 16 11.5 27.5t28.5 11.5t29 -11.5t12 -27.5q0 -18 -11.5 -29t-29.5 -11zM677 203q-21 -95 -97.5 -154t-185.5 -59q-140 0 -228.5 99t-88.5 257q0 159 87.5 261.5t228.5 102.5q106 0 180.5 -58.5t93.5 -160.5h-56q-19 78 -75.5 123.5
t-140.5 45.5q-120 0 -192 -90t-72 -224q0 -133 72.5 -219.5t190.5 -86.5q85 0 144.5 44t82.5 119h56z" />
    <glyph glyph-name="cdotaccent" unicode="&#x10b;" horiz-adv-x="559" 
d="M295 595q-17 0 -28.5 11t-11.5 29q0 16 11.5 27.5t28.5 11.5t29 -11.5t12 -27.5q0 -18 -11.5 -29t-29.5 -11zM297 -10q-108 0 -172 73t-64 184q0 113 65.5 188t171.5 75q80 0 137.5 -45t71.5 -121h-52q-11 51 -53 85t-104 34q-82 0 -134 -61.5t-52 -154.5q0 -90 50 -150
t135 -60q125 0 161 116h52q-17 -75 -73.5 -119t-139.5 -44z" />
    <glyph glyph-name="Ccaron" unicode="&#x10c;" horiz-adv-x="738" 
d="M460 900h55l-95 -134h-52l-96 134h54l66 -94h4zM677 203q-21 -95 -97.5 -154t-185.5 -59q-140 0 -228.5 99t-88.5 257q0 159 87.5 261.5t228.5 102.5q106 0 180.5 -58.5t93.5 -160.5h-56q-19 78 -75.5 123.5t-140.5 45.5q-120 0 -192 -90t-72 -224q0 -133 72.5 -219.5
t190.5 -86.5q85 0 144.5 44t82.5 119h56z" />
    <glyph glyph-name="ccaron" unicode="&#x10d;" horiz-adv-x="559" 
d="M362 700h55l-95 -134h-52l-96 134h54l66 -94h4zM297 -10q-108 0 -172 73t-64 184q0 113 65.5 188t171.5 75q80 0 137.5 -45t71.5 -121h-52q-11 51 -53 85t-104 34q-82 0 -134 -61.5t-52 -154.5q0 -90 50 -150t135 -60q125 0 161 116h52q-17 -75 -73.5 -119t-139.5 -44z
" />
    <glyph glyph-name="Dcaron" unicode="&#x10e;" horiz-adv-x="693" 
d="M413 900h55l-95 -134h-52l-96 134h54l66 -94h4zM293 700q161 0 242 -93.5t81 -257.5q0 -159 -79 -254t-244 -95h-191v700h191zM289 50q143 0 208 80t65 220t-65 220t-208 80h-133v-600h133z" />
    <glyph glyph-name="dcaron" unicode="&#x10f;" horiz-adv-x="591" 
d="M458 414v296h51v-710h-43l-5 81h-6q-59 -91 -169 -91q-100 0 -162.5 72t-62.5 189t62.5 188t162.5 71q67 0 109.5 -29t62.5 -67zM672 710q22 0 34 -16.5t12 -41.5q0 -44 -23 -77.5t-55 -53.5l-18 23q46 38 46 81q-18 -1 -29.5 10.5t-11.5 29.5q0 19 12.5 32t32.5 13z
M289 37q77 0 123 58.5t46 155.5q0 96 -46 154t-123 58q-79 0 -128 -58.5t-49 -153.5q0 -96 49.5 -155t127.5 -59z" />
    <glyph glyph-name="Dcroat" unicode="&#x110;" horiz-adv-x="693" 
d="M293 700q161 0 242 -93.5t81 -257.5q0 -159 -79 -254t-244 -95h-191v328h-120v44h120v328h191zM289 50q143 0 208 80t65 220t-65 220t-208 80h-133v-278h178v-44h-178v-278h133z" />
    <glyph glyph-name="dcroat" unicode="&#x111;" horiz-adv-x="591" 
d="M609 621v-42h-100v-579h-43l-5 81h-6q-59 -91 -169 -91q-100 0 -162.5 72t-62.5 189t62.5 188t162.5 71q67 0 109.5 -29t62.5 -67v165h-111v42h111v89h51v-89h100zM289 37q77 0 123 58.5t46 155.5q0 96 -46 154t-123 58q-79 0 -128 -58.5t-49 -153.5q0 -96 49.5 -155
t127.5 -59z" />
    <glyph glyph-name="Emacron" unicode="&#x112;" horiz-adv-x="581" 
d="M173 835h273v-43h-273v43zM155 49h370v-49h-423v700h413v-49h-360v-272h324v-48h-324v-282z" />
    <glyph glyph-name="emacron" unicode="&#x113;" horiz-adv-x="558" 
d="M423 635v-43h-273v43h273zM496 266q0 -15 -1 -25h-383q3 -94 51 -150t126 -56q56 0 96 25.5t55 73.5h51q-17 -70 -71.5 -107t-130.5 -37q-101 0 -164.5 70t-63.5 185q0 120 63 192.5t162 72.5q92 0 151 -64.5t59 -179.5zM286 465q-72 0 -119.5 -51t-53.5 -129h333
q-1 82 -45 131t-115 49z" />
    <glyph glyph-name="Ebreve" unicode="&#x114;" horiz-adv-x="581" 
d="M426 900q0 -48 -31.5 -86t-86.5 -38t-87.5 38.5t-32.5 85.5h48q0 -38 20 -61t52 -23t51 23t19 61h48zM155 49h370v-49h-423v700h413v-49h-360v-272h324v-48h-324v-282z" />
    <glyph glyph-name="ebreve" unicode="&#x115;" horiz-adv-x="558" 
d="M286 576q-55 0 -87.5 38.5t-32.5 85.5h48q0 -38 20 -61t52 -23t51 23t19 61h48q0 -48 -31.5 -86t-86.5 -38zM496 266q0 -15 -1 -25h-383q3 -94 51 -150t126 -56q56 0 96 25.5t55 73.5h51q-17 -70 -71.5 -107t-130.5 -37q-101 0 -164.5 70t-63.5 185q0 120 63 192.5
t162 72.5q92 0 151 -64.5t59 -179.5zM286 465q-72 0 -119.5 -51t-53.5 -129h333q-1 82 -45 131t-115 49z" />
    <glyph glyph-name="Edotaccent" unicode="&#x116;" horiz-adv-x="581" 
d="M309 795q-17 0 -28.5 11t-11.5 29q0 16 11.5 27.5t28.5 11.5t29 -11.5t12 -27.5q0 -18 -11.5 -29t-29.5 -11zM155 49h370v-49h-423v700h413v-49h-360v-272h324v-48h-324v-282z" />
    <glyph glyph-name="edotaccent" unicode="&#x117;" horiz-adv-x="558" 
d="M286 595q-17 0 -28.5 11t-11.5 29q0 16 11.5 27.5t28.5 11.5t29 -11.5t12 -27.5q0 -18 -11.5 -29t-29.5 -11zM496 266q0 -15 -1 -25h-383q3 -94 51 -150t126 -56q56 0 96 25.5t55 73.5h51q-17 -70 -71.5 -107t-130.5 -37q-101 0 -164.5 70t-63.5 185q0 120 63 192.5
t162 72.5q92 0 151 -64.5t59 -179.5zM286 465q-72 0 -119.5 -51t-53.5 -129h333q-1 82 -45 131t-115 49z" />
    <glyph glyph-name="Eogonek" unicode="&#x118;" horiz-adv-x="581" 
d="M511 -127q19 0 42 6v-41q-19 -7 -45 -7q-45 0 -74 21t-29 64q0 52 65 84h-368v700h413v-49h-360v-272h324v-48h-324v-282h370v-49q-72 -27 -72 -81q0 -46 58 -46z" />
    <glyph glyph-name="eogonek" unicode="&#x119;" horiz-adv-x="558" 
d="M496 266q0 -15 -1 -25h-383q3 -94 51 -150t126 -56q56 0 96 25.5t55 73.5h51q-25 -106 -133 -135q-69 -27 -69 -80q0 -46 58 -46q19 0 42 6v-41q-19 -7 -45 -7q-45 0 -74 21t-29 64q0 45 47 74q-101 1 -164 70.5t-63 184.5q0 120 63 192.5t162 72.5q92 0 151 -64.5
t59 -179.5zM286 465q-72 0 -119.5 -51t-53.5 -129h333q-1 82 -45 131t-115 49z" />
    <glyph glyph-name="Ecaron" unicode="&#x11a;" horiz-adv-x="581" 
d="M376 900h55l-95 -134h-52l-96 134h54l66 -94h4zM155 49h370v-49h-423v700h413v-49h-360v-272h324v-48h-324v-282z" />
    <glyph glyph-name="ecaron" unicode="&#x11b;" horiz-adv-x="558" 
d="M313 566h-52l-96 134h54l66 -94h4l64 94h55zM496 266q0 -15 -1 -25h-383q3 -94 51 -150t126 -56q56 0 96 25.5t55 73.5h51q-17 -70 -71.5 -107t-130.5 -37q-101 0 -164.5 70t-63.5 185q0 120 63 192.5t162 72.5q92 0 151 -64.5t59 -179.5zM286 465q-72 0 -119.5 -51
t-53.5 -129h333q-1 82 -45 131t-115 49z" />
    <glyph glyph-name="Gcircumflex" unicode="&#x11c;" horiz-adv-x="774" 
d="M327 766h-54l95 134h52l96 -134h-55l-65 94h-4zM394 350h277v-350h-43l-8 92h-5q-87 -102 -229 -102t-225.5 97t-83.5 253q0 161 90.5 265.5t236.5 104.5q104 0 174.5 -53.5t90.5 -142.5h-56q-19 66 -73.5 106t-135.5 40q-122 0 -197.5 -89t-75.5 -230q0 -133 69.5 -217
t188.5 -84q93 0 161 51.5t68 147.5v64h-224v47z" />
    <glyph glyph-name="gcircumflex" unicode="&#x11d;" horiz-adv-x="517" 
d="M264 660l-65 -94h-54l95 134h52l96 -134h-55l-65 94h-4zM492 506q-33 -42 -85 -66q30 -43 30 -101q0 -77 -48 -123.5t-121 -46.5q-53 0 -93 23q-46 -21 -46 -59q0 -54 78 -54h101q78 0 121.5 -35t43.5 -99q0 -75 -56.5 -115t-144.5 -40q-97 0 -149.5 47.5t-61.5 123.5
l92 77q-33 8 -53 32t-20 59q0 58 60 89q-47 49 -47 121q0 75 49.5 123t124.5 48q64 0 110 -38q46 22 80 70zM268 213q53 0 86 35.5t33 90.5q0 56 -33 91.5t-86 35.5q-55 0 -89.5 -35.5t-34.5 -91.5q0 -54 35 -90t89 -36zM423 -56q0 49 -36 69.5t-81 20.5h-92l-98 -84
q26 -115 156 -115q64 0 107.5 27t43.5 82z" />
    <glyph glyph-name="Gbreve" unicode="&#x11e;" horiz-adv-x="774" 
d="M512 900q0 -48 -31.5 -86t-86.5 -38t-87.5 38.5t-32.5 85.5h48q0 -38 20 -61t52 -23t51 23t19 61h48zM394 350h277v-350h-43l-8 92h-5q-87 -102 -229 -102t-225.5 97t-83.5 253q0 161 90.5 265.5t236.5 104.5q104 0 174.5 -53.5t90.5 -142.5h-56q-19 66 -73.5 106
t-135.5 40q-122 0 -197.5 -89t-75.5 -230q0 -133 69.5 -217t188.5 -84q93 0 161 51.5t68 147.5v64h-224v47z" />
    <glyph glyph-name="gbreve" unicode="&#x11f;" horiz-adv-x="517" 
d="M265 576q-55 0 -87.5 38.5t-32.5 85.5h48q0 -38 20 -61t52 -23t51 23t19 61h48q0 -48 -31.5 -86t-86.5 -38zM492 506q-33 -42 -85 -66q30 -43 30 -101q0 -77 -48 -123.5t-121 -46.5q-53 0 -93 23q-46 -21 -46 -59q0 -54 78 -54h101q78 0 121.5 -35t43.5 -99
q0 -75 -56.5 -115t-144.5 -40q-97 0 -149.5 47.5t-61.5 123.5l92 77q-33 8 -53 32t-20 59q0 58 60 89q-47 49 -47 121q0 75 49.5 123t124.5 48q64 0 110 -38q46 22 80 70zM268 213q53 0 86 35.5t33 90.5q0 56 -33 91.5t-86 35.5q-55 0 -89.5 -35.5t-34.5 -91.5q0 -54 35 -90
t89 -36zM423 -56q0 49 -36 69.5t-81 20.5h-92l-98 -84q26 -115 156 -115q64 0 107.5 27t43.5 82z" />
    <glyph glyph-name="Gdotaccent" unicode="&#x120;" horiz-adv-x="774" 
d="M394 795q-17 0 -28.5 11t-11.5 29q0 16 11.5 27.5t28.5 11.5t29 -11.5t12 -27.5q0 -18 -11.5 -29t-29.5 -11zM394 350h277v-350h-43l-8 92h-5q-87 -102 -229 -102t-225.5 97t-83.5 253q0 161 90.5 265.5t236.5 104.5q104 0 174.5 -53.5t90.5 -142.5h-56q-19 66 -73.5 106
t-135.5 40q-122 0 -197.5 -89t-75.5 -230q0 -133 69.5 -217t188.5 -84q93 0 161 51.5t68 147.5v64h-224v47z" />
    <glyph glyph-name="gdotaccent" unicode="&#x121;" horiz-adv-x="517" 
d="M265 595q-17 0 -28.5 11t-11.5 29q0 16 11.5 27.5t28.5 11.5t29 -11.5t12 -27.5q0 -18 -11.5 -29t-29.5 -11zM492 506q-33 -42 -85 -66q30 -43 30 -101q0 -77 -48 -123.5t-121 -46.5q-53 0 -93 23q-46 -21 -46 -59q0 -54 78 -54h101q78 0 121.5 -35t43.5 -99
q0 -75 -56.5 -115t-144.5 -40q-97 0 -149.5 47.5t-61.5 123.5l92 77q-33 8 -53 32t-20 59q0 58 60 89q-47 49 -47 121q0 75 49.5 123t124.5 48q64 0 110 -38q46 22 80 70zM268 213q53 0 86 35.5t33 90.5q0 56 -33 91.5t-86 35.5q-55 0 -89.5 -35.5t-34.5 -91.5q0 -54 35 -90
t89 -36zM423 -56q0 49 -36 69.5t-81 20.5h-92l-98 -84q26 -115 156 -115q64 0 107.5 27t43.5 82z" />
    <glyph glyph-name="uni0122" unicode="&#x122;" horiz-adv-x="774" 
d="M394 350h277v-350h-43l-8 92h-5q-87 -102 -229 -102t-225.5 97t-83.5 253q0 161 90.5 265.5t236.5 104.5q104 0 174.5 -53.5t90.5 -142.5h-56q-19 66 -73.5 106t-135.5 40q-122 0 -197.5 -89t-75.5 -230q0 -133 69.5 -217t188.5 -84q93 0 161 51.5t68 147.5v64h-224v47z
M393 -67q23 0 35 -16t12 -41q0 -44 -23.5 -77.5t-55.5 -53.5l-19 23q47 37 48 80q-19 -1 -31 10.5t-12 28.5q0 20 13 33t33 13z" />
    <glyph glyph-name="uni0123" unicode="&#x123;" horiz-adv-x="517" 
d="M266 567q-24 0 -36 16t-12 41q0 44 24 77.5t56 53.5l19 -23q-48 -36 -48 -80q19 1 31 -10.5t12 -28.5q0 -20 -13 -33t-33 -13zM492 506q-33 -42 -85 -66q30 -43 30 -101q0 -77 -48 -123.5t-121 -46.5q-53 0 -93 23q-46 -21 -46 -59q0 -54 78 -54h101q78 0 121.5 -35
t43.5 -99q0 -75 -56.5 -115t-144.5 -40q-97 0 -149.5 47.5t-61.5 123.5l92 77q-33 8 -53 32t-20 59q0 58 60 89q-47 49 -47 121q0 75 49.5 123t124.5 48q64 0 110 -38q46 22 80 70zM268 213q53 0 86 35.5t33 90.5q0 56 -33 91.5t-86 35.5q-55 0 -89.5 -35.5t-34.5 -91.5
q0 -54 35 -90t89 -36zM423 -56q0 49 -36 69.5t-81 20.5h-92l-98 -84q26 -115 156 -115q64 0 107.5 27t43.5 82z" />
    <glyph glyph-name="Hcircumflex" unicode="&#x124;" horiz-adv-x="692" 
d="M278 766h-54l95 134h52l96 -134h-55l-65 94h-4zM537 700h53v-700h-53v328h-381v-328h-54v700h54v-322h381v322z" />
    <glyph glyph-name="hcircumflex" unicode="&#x125;" 
d="M41 766h-54l95 134h52l96 -134h-55l-65 94h-4zM282 510q76 0 123.5 -47.5t47.5 -136.5v-326h-51v313q0 76 -35 113t-91 37q-61 0 -102 -41t-41 -122v-300h-51v710h51v-269h5q52 69 144 69z" />
    <glyph glyph-name="Hbar" unicode="&#x126;" horiz-adv-x="692" 
d="M537 700h53v-700h-53v328h-381v-328h-54v700h54v-140h381v140zM156 378h381v136h-381v-136z" />
    <glyph glyph-name="hbar" unicode="&#x127;" 
d="M282 510q76 0 123.5 -47.5t47.5 -136.5v-326h-51v313q0 76 -35 113t-91 37q-61 0 -102 -41t-41 -122v-300h-51v579h-99v42h99v89h51v-89h112v-42h-112v-138h5q52 69 144 69z" />
    <glyph glyph-name="Itilde" unicode="&#x128;" horiz-adv-x="258" 
d="M284 857q-3 -42 -26 -71t-62 -29q-24 0 -43.5 10.5t-30 22.5t-25.5 22.5t-31 10.5q-42 0 -50 -60h-42q5 44 27 72.5t61 28.5q25 0 44.5 -10.5t30 -22.5t25 -22.5t30.5 -10.5q44 0 50 59h42zM156 700v-700h-54v700h54z" />
    <glyph glyph-name="itilde" unicode="&#x129;" horiz-adv-x="215" 
d="M262 657q-3 -42 -26 -71t-62 -29q-24 0 -43.5 10.5t-30 22.5t-25.5 22.5t-31 10.5q-42 0 -50 -60h-42q5 44 27 72.5t61 28.5q25 0 44.5 -10.5t30 -22.5t25 -22.5t30.5 -10.5q44 0 50 59h42zM82 0v500h51v-500h-51z" />
    <glyph glyph-name="Imacron" unicode="&#x12a;" horiz-adv-x="258" 
d="M-7 835h273v-43h-273v43zM156 700v-700h-54v700h54z" />
    <glyph glyph-name="imacron" unicode="&#x12b;" horiz-adv-x="215" 
d="M-29 635h273v-43h-273v43zM82 0v500h51v-500h-51z" />
    <glyph glyph-name="Ibreve" unicode="&#x12c;" horiz-adv-x="258" 
d="M246 900q0 -48 -31.5 -86t-86.5 -38t-87.5 38.5t-32.5 85.5h48q0 -38 20 -61t52 -23t51 23t19 61h48zM156 700v-700h-54v700h54z" />
    <glyph glyph-name="ibreve" unicode="&#x12d;" horiz-adv-x="215" 
d="M225 700q0 -48 -31.5 -86t-86.5 -38t-87.5 38.5t-32.5 85.5h48q0 -38 20 -61t52 -23t51 23t19 61h48zM82 0v500h51v-500h-51z" />
    <glyph glyph-name="Iogonek" unicode="&#x12e;" horiz-adv-x="258" 
d="M142 -127q20 0 42 6v-41q-19 -7 -45 -7q-45 0 -74 21t-29 64q0 52 66 85v699h54v-700q-72 -27 -72 -81q0 -46 58 -46z" />
    <glyph glyph-name="iogonek" unicode="&#x12f;" horiz-adv-x="215" 
d="M107 595q-17 0 -28.5 11t-11.5 29q0 16 11.5 27.5t28.5 11.5t29 -11.5t12 -27.5q0 -18 -11.5 -29t-29.5 -11zM119 -127q19 0 42 6v-41q-19 -7 -45 -7q-45 0 -74 21t-29 64q0 53 69 86v498h51v-500q-72 -27 -72 -81q0 -46 58 -46z" />
    <glyph glyph-name="Idotaccent" unicode="&#x130;" horiz-adv-x="258" 
d="M129 795q-17 0 -28.5 11t-11.5 29q0 16 11.5 27.5t28.5 11.5t29 -11.5t12 -27.5q0 -18 -11.5 -29t-29.5 -11zM156 700v-700h-54v700h54z" />
    <glyph glyph-name="dotlessi" unicode="&#x131;" horiz-adv-x="215" 
d="M82 0v500h51v-500h-51z" />
    <glyph glyph-name="IJ" unicode="&#x132;" horiz-adv-x="776" 
d="M156 700v-700h-54v700h54zM350 191q2 -64 38 -107.5t97 -43.5t98 41.5t37 125.5v493h53v-498q0 -104 -52 -158t-136 -54q-88 0 -137 55t-54 146h56z" />
    <glyph glyph-name="ij" unicode="&#x133;" horiz-adv-x="444" 
d="M107 595q-17 0 -28.5 11t-11.5 29q0 16 11.5 27.5t28.5 11.5t29 -11.5t12 -27.5q0 -18 -11.5 -29t-29.5 -11zM316 595q-18 0 -29.5 11t-11.5 29q0 16 12 27.5t29 11.5t28.5 -11.5t11.5 -27.5q0 -18 -11.5 -29t-28.5 -11zM82 0v500h51v-500h-51zM238 -210q-25 0 -60 10v43
q29 -9 50 -9q62 0 62 65v601h51v-608q0 -48 -26 -75t-77 -27z" />
    <glyph glyph-name="Jcircumflex" unicode="&#x134;" horiz-adv-x="528" 
d="M332 766h-54l95 134h52l96 -134h-55l-65 94h-4zM102 191q2 -64 38 -107.5t97 -43.5t98 41.5t37 125.5v493h53v-498q0 -104 -52 -158t-136 -54q-88 0 -137 55t-54 146h56z" />
    <glyph glyph-name="jcircumflex" unicode="&#x135;" horiz-adv-x="215" 
d="M40 566h-54l95 134h52l96 -134h-55l-65 94h-4zM30 -210q-25 0 -60 10v43q29 -9 50 -9q62 0 62 65v601h51v-608q0 -48 -26 -75t-77 -27z" />
    <glyph glyph-name="uni0136" unicode="&#x136;" horiz-adv-x="596" 
d="M499 0l-286 334h-57v-334h-54v700h54v-316h57l263 316h66l-281 -339v-3l304 -358h-66zM326 -67q23 0 35 -16t12 -41q0 -44 -23.5 -77.5t-55.5 -53.5l-19 23q47 37 48 80q-19 -1 -31 10.5t-12 28.5q0 20 13 33t33 13z" />
    <glyph glyph-name="uni0137" unicode="&#x137;" horiz-adv-x="481" 
d="M457 500l-205 -204l205 -296h-59l-182 260l-83 -83v-177h-51v710h51v-461h5l253 251h66zM264 -67q23 0 35 -16t12 -41q0 -44 -23.5 -77.5t-55.5 -53.5l-19 23q47 37 48 80q-19 -1 -31 10.5t-12 28.5q0 20 13 33t33 13z" />
    <glyph glyph-name="Lacute" unicode="&#x139;" horiz-adv-x="568" 
d="M168 900h51l-68 -145h-46zM155 50h366v-50h-419v700h53v-650z" />
    <glyph glyph-name="lacute" unicode="&#x13a;" horiz-adv-x="215" 
d="M148 900h51l-68 -145h-46zM82 0v710h51v-710h-51z" />
    <glyph glyph-name="uni013B" unicode="&#x13b;" horiz-adv-x="568" 
d="M155 50h366v-50h-419v700h53v-650zM310 -67q23 0 35 -16t12 -41q0 -44 -23.5 -77.5t-55.5 -53.5l-19 23q47 37 48 80q-19 -1 -31 10.5t-12 28.5q0 20 13 33t33 13z" />
    <glyph glyph-name="uni013C" unicode="&#x13c;" horiz-adv-x="215" 
d="M82 0v710h51v-710h-51zM107 -67q23 0 35 -16t12 -41q0 -44 -23.5 -77.5t-55.5 -53.5l-19 23q47 37 48 80q-19 -1 -31 10.5t-12 28.5q0 20 13 33t33 13z" />
    <glyph glyph-name="Lcaron" unicode="&#x13d;" horiz-adv-x="568" 
d="M319 710q22 0 34 -16.5t12 -41.5q0 -44 -23 -77.5t-55 -53.5l-18 23q46 38 46 81q-18 -1 -29.5 10.5t-11.5 29.5q0 19 12.5 32t32.5 13zM155 50h366v-50h-419v700h53v-650z" />
    <glyph glyph-name="lcaron" unicode="&#x13e;" horiz-adv-x="215" 
d="M82 0v710h51v-710h-51zM296 710q22 0 34 -16.5t12 -41.5q0 -44 -23 -77.5t-55 -53.5l-18 23q46 38 46 81q-18 -1 -29.5 10.5t-11.5 29.5q0 19 12.5 32t32.5 13z" />
    <glyph glyph-name="Ldot" unicode="&#x13f;" horiz-adv-x="568" 
d="M155 50h366v-50h-419v700h53v-650zM338 360q-17 0 -28.5 11t-11.5 29q0 16 11.5 27.5t28.5 11.5t29 -11.5t12 -27.5q0 -18 -11.5 -29t-29.5 -11z" />
    <glyph glyph-name="ldot" unicode="&#x140;" horiz-adv-x="215" 
d="M107 795q-17 0 -28.5 11t-11.5 29q0 16 11.5 27.5t28.5 11.5t29 -11.5t12 -27.5q0 -18 -11.5 -29t-29.5 -11zM82 0v710h51v-710h-51z" />
    <glyph glyph-name="Lslash" unicode="&#x141;" horiz-adv-x="568" 
d="M155 50h366v-50h-419v283l-121 -64v54l121 64v363h53v-334l179 95v-55l-179 -95v-261z" />
    <glyph glyph-name="lslash" unicode="&#x142;" horiz-adv-x="215" 
d="M229 448v-54l-96 -53v-341h-51v313l-93 -51v53l93 52v343h51v-315z" />
    <glyph glyph-name="Nacute" unicode="&#x143;" horiz-adv-x="741" 
d="M412 900h51l-68 -145h-46zM586 700h53v-700h-64l-414 616h-6v-616h-53v700h66l413 -614h5v614z" />
    <glyph glyph-name="nacute" unicode="&#x144;" 
d="M307 700h51l-68 -145h-46zM82 0v500h45l6 -59h5q52 69 144 69q76 0 123.5 -47.5t47.5 -136.5v-326h-51v313q0 76 -35 113t-91 37q-61 0 -102 -41t-41 -122v-300h-51z" />
    <glyph glyph-name="uni0145" unicode="&#x145;" horiz-adv-x="741" 
d="M586 700h53v-700h-64l-414 616h-6v-616h-53v700h66l413 -614h5v614zM370 -67q23 0 35 -16t12 -41q0 -44 -23.5 -77.5t-55.5 -53.5l-19 23q47 37 48 80q-19 -1 -31 10.5t-12 28.5q0 20 13 33t33 13z" />
    <glyph glyph-name="uni0146" unicode="&#x146;" 
d="M82 0v500h45l6 -59h5q52 69 144 69q76 0 123.5 -47.5t47.5 -136.5v-326h-51v313q0 76 -35 113t-91 37q-61 0 -102 -41t-41 -122v-300h-51zM266 -67q23 0 35 -16t12 -41q0 -44 -23.5 -77.5t-55.5 -53.5l-19 23q47 37 48 80q-19 -1 -31 10.5t-12 28.5q0 20 13 33t33 13z
" />
    <glyph glyph-name="Ncaron" unicode="&#x147;" horiz-adv-x="741" 
d="M438 900h55l-95 -134h-52l-96 134h54l66 -94h4zM586 700h53v-700h-64l-414 616h-6v-616h-53v700h66l413 -614h5v614z" />
    <glyph glyph-name="ncaron" unicode="&#x148;" 
d="M334 700h55l-95 -134h-52l-96 134h54l66 -94h4zM82 0v500h45l6 -59h5q52 69 144 69q76 0 123.5 -47.5t47.5 -136.5v-326h-51v313q0 76 -35 113t-91 37q-61 0 -102 -41t-41 -122v-300h-51z" />
    <glyph glyph-name="Eng" unicode="&#x14a;" horiz-adv-x="741" 
d="M586 700h53v-801q0 -54 -27 -81.5t-75 -27.5q-26 0 -61 10v43q31 -9 50 -9q62 0 62 71v77l-427 634h-6v-616h-53v700h66l413 -614h5v614z" />
    <glyph glyph-name="eng" unicode="&#x14b;" 
d="M282 510q76 0 123.5 -47.5t47.5 -136.5v-427q0 -53 -27.5 -81t-74.5 -28q-26 0 -61 10v43q29 -9 50 -9q62 0 62 71v408q0 76 -35 113t-91 37q-61 0 -102 -41t-41 -122v-300h-51v500h45l6 -59h5q52 69 144 69z" />
    <glyph glyph-name="Omacron" unicode="&#x14c;" horiz-adv-x="813" 
d="M271 835h273v-43h-273v43zM407 -10q-142 0 -236 102t-94 258t94 258t235 102t235.5 -102t94.5 -258t-94 -258t-235 -102zM407 40q118 0 196.5 88.5t78.5 221.5t-79 221.5t-197 88.5q-117 0 -196 -88.5t-79 -221.5t79 -221.5t197 -88.5z" />
    <glyph glyph-name="omacron" unicode="&#x14d;" horiz-adv-x="598" 
d="M164 635h273v-43h-273v43zM298 -10q-103 0 -170 75t-67 185q0 112 66 186t171 74q103 0 171 -75t68 -185q0 -112 -67.5 -186t-171.5 -74zM298 37q83 0 135.5 62t52.5 151t-53 151t-135 62q-83 0 -134.5 -61.5t-51.5 -151.5q0 -89 51.5 -151t134.5 -62z" />
    <glyph glyph-name="Obreve" unicode="&#x14e;" horiz-adv-x="813" 
d="M524 900q0 -48 -31.5 -86t-86.5 -38t-87.5 38.5t-32.5 85.5h48q0 -38 20 -61t52 -23t51 23t19 61h48zM407 -10q-142 0 -236 102t-94 258t94 258t235 102t235.5 -102t94.5 -258t-94 -258t-235 -102zM407 40q118 0 196.5 88.5t78.5 221.5t-79 221.5t-197 88.5
q-117 0 -196 -88.5t-79 -221.5t79 -221.5t197 -88.5z" />
    <glyph glyph-name="obreve" unicode="&#x14f;" horiz-adv-x="598" 
d="M417 700q0 -48 -31.5 -86t-86.5 -38t-87.5 38.5t-32.5 85.5h48q0 -38 20 -61t52 -23t51 23t19 61h48zM298 -10q-103 0 -170 75t-67 185q0 112 66 186t171 74q103 0 171 -75t68 -185q0 -112 -67.5 -186t-171.5 -74zM298 37q83 0 135.5 62t52.5 151t-53 151t-135 62
q-83 0 -134.5 -61.5t-51.5 -151.5q0 -89 51.5 -151t134.5 -62z" />
    <glyph glyph-name="Ohungarumlaut" unicode="&#x150;" horiz-adv-x="813" 
d="M375 900h51l-61 -145h-47zM507 900h51l-62 -145h-46zM407 -10q-142 0 -236 102t-94 258t94 258t235 102t235.5 -102t94.5 -258t-94 -258t-235 -102zM407 40q118 0 196.5 88.5t78.5 221.5t-79 221.5t-197 88.5q-117 0 -196 -88.5t-79 -221.5t79 -221.5t197 -88.5z" />
    <glyph glyph-name="ohungarumlaut" unicode="&#x151;" horiz-adv-x="598" 
d="M267 700h51l-61 -145h-47zM399 700h51l-62 -145h-46zM298 -10q-103 0 -170 75t-67 185q0 112 66 186t171 74q103 0 171 -75t68 -185q0 -112 -67.5 -186t-171.5 -74zM298 37q83 0 135.5 62t52.5 151t-53 151t-135 62q-83 0 -134.5 -61.5t-51.5 -151.5q0 -89 51.5 -151
t134.5 -62z" />
    <glyph glyph-name="OE" unicode="&#x152;" horiz-adv-x="1118" 
d="M707 49h355v-49h-408v150q-40 -75 -109 -117.5t-153 -42.5q-136 0 -225.5 101t-89.5 259t89.5 259t224.5 101q84 0 153.5 -42.5t109.5 -116.5v149h398v-49h-345v-272h309v-48h-309v-282zM392 40q112 0 186.5 87t74.5 223q0 135 -74.5 222.5t-186.5 87.5t-186.5 -87.5
t-74.5 -222.5t74.5 -222.5t186.5 -87.5z" />
    <glyph glyph-name="oe" unicode="&#x153;" horiz-adv-x="753" 
d="M691 268q0 -16 -1 -28h-267q0 -205 112 -205q37 0 67 23t36 75h50q-8 -74 -51 -108.5t-103 -34.5q-108 0 -142 107q-48 -107 -151 -107q-81 0 -130.5 70.5t-49.5 189.5q0 122 49 191t131 69q50 0 90 -28.5t62 -81.5q38 110 143 110q155 0 155 -242zM535 465
q-48 0 -78.5 -44t-33.5 -136h220q-4 180 -108 180zM241 36q60 0 95 57.5t35 156.5q0 100 -35.5 157t-94.5 57q-60 0 -94.5 -57t-34.5 -157t34.5 -157t94.5 -57z" />
    <glyph glyph-name="Racute" unicode="&#x154;" horiz-adv-x="613" 
d="M407 900l-68 -145h-46l63 145h51zM567 0h-63l-193 313h-156v-313h-53v700h222q96 0 152 -51.5t56 -139.5q0 -77 -44 -125.5t-121 -62.5zM155 651v-289h159q78 0 121.5 39.5t43.5 106.5q0 69 -44 106t-121 37h-159z" />
    <glyph glyph-name="racute" unicode="&#x155;" horiz-adv-x="322" 
d="M230 700h51l-68 -145h-46zM82 0v500h45l6 -67h5q42 77 137 77h24v-53q-13 2 -38 2q-52 0 -90 -44.5t-38 -125.5v-289h-51z" />
    <glyph glyph-name="uni0156" unicode="&#x156;" horiz-adv-x="613" 
d="M367 321l200 -321h-63l-193 313h-156v-313h-53v700h222q96 0 152 -51.5t56 -139.5q0 -77 -44 -125.5t-121 -62.5zM155 651v-289h159q78 0 121.5 39.5t43.5 106.5q0 69 -44 106t-121 37h-159zM328 -67q23 0 35 -16t12 -41q0 -44 -23.5 -77.5t-55.5 -53.5l-19 23
q47 37 48 80q-19 -1 -31 10.5t-12 28.5q0 20 13 33t33 13z" />
    <glyph glyph-name="uni0157" unicode="&#x157;" horiz-adv-x="322" 
d="M82 0v500h45l6 -67h5q42 77 137 77h24v-53q-13 2 -38 2q-52 0 -90 -44.5t-38 -125.5v-289h-51zM106 -67q23 0 35 -16t12 -41q0 -44 -23.5 -77.5t-55.5 -53.5l-19 23q47 37 48 80q-19 -1 -31 10.5t-12 28.5q0 20 13 33t33 13z" />
    <glyph glyph-name="Rcaron" unicode="&#x158;" horiz-adv-x="613" 
d="M343 766h-52l-96 134h54l66 -94h4l64 94h55zM567 0h-63l-193 313h-156v-313h-53v700h222q96 0 152 -51.5t56 -139.5q0 -77 -44 -125.5t-121 -62.5zM155 651v-289h159q78 0 121.5 39.5t43.5 106.5q0 69 -44 106t-121 37h-159z" />
    <glyph glyph-name="rcaron" unicode="&#x159;" horiz-adv-x="322" 
d="M257 700h55l-95 -134h-52l-96 134h54l66 -94h4zM82 0v500h45l6 -67h5q42 77 137 77h24v-53q-13 2 -38 2q-52 0 -90 -44.5t-38 -125.5v-289h-51z" />
    <glyph glyph-name="Sacute" unicode="&#x15a;" horiz-adv-x="601" 
d="M349 900h51l-68 -145h-46zM519 174q0 -90 -59.5 -137t-153.5 -47q-99 0 -159 50.5t-70 146.5h54q23 -148 175 -148q70 0 114 33.5t44 100.5q0 37 -13.5 64.5t-39.5 46t-48 28.5t-54 20l-36 11q-23 8 -36.5 13t-37.5 16t-38.5 24t-30.5 31t-23.5 43t-7.5 55q0 83 59.5 134
t150.5 51q92 0 150.5 -53t63.5 -138h-54q-6 62 -47 102t-112 40q-70 0 -114 -38t-44 -97q0 -27 11 -49t23.5 -34.5t39 -26t38.5 -17.5t41 -14l31 -10q26 -9 42 -15t46.5 -23t48 -36.5t32 -53t14.5 -73.5z" />
    <glyph glyph-name="sacute" unicode="&#x15b;" horiz-adv-x="460" 
d="M262 700h51l-68 -145h-46zM235 -10q-83 0 -127.5 43t-46.5 111h52q8 -109 122 -109q50 0 81.5 21.5t31.5 65.5q0 25 -10.5 44t-30.5 32t-35 20t-38 15l-27 9q-27 9 -44 17t-39.5 23t-34 39t-11.5 55q0 60 44.5 97t109.5 37q74 0 114.5 -40.5t42.5 -93.5h-51
q-3 40 -31.5 64.5t-74.5 24.5q-44 0 -74 -22.5t-30 -65.5q0 -21 8.5 -37t25.5 -27t31 -16.5t38 -13.5l24 -9q29 -10 48.5 -19t44 -26.5t37.5 -44t13 -61.5q0 -66 -46 -99.5t-117 -33.5z" />
    <glyph glyph-name="Scircumflex" unicode="&#x15c;" horiz-adv-x="601" 
d="M242 766h-54l95 134h52l96 -134h-55l-65 94h-4zM519 174q0 -90 -59.5 -137t-153.5 -47q-99 0 -159 50.5t-70 146.5h54q23 -148 175 -148q70 0 114 33.5t44 100.5q0 37 -13.5 64.5t-39.5 46t-48 28.5t-54 20l-36 11q-23 8 -36.5 13t-37.5 16t-38.5 24t-30.5 31t-23.5 43
t-7.5 55q0 83 59.5 134t150.5 51q92 0 150.5 -53t63.5 -138h-54q-6 62 -47 102t-112 40q-70 0 -114 -38t-44 -97q0 -27 11 -49t23.5 -34.5t39 -26t38.5 -17.5t41 -14l31 -10q26 -9 42 -15t46.5 -23t48 -36.5t32 -53t14.5 -73.5z" />
    <glyph glyph-name="scircumflex" unicode="&#x15d;" horiz-adv-x="460" 
d="M154 566h-54l95 134h52l96 -134h-55l-65 94h-4zM235 -10q-83 0 -127.5 43t-46.5 111h52q8 -109 122 -109q50 0 81.5 21.5t31.5 65.5q0 25 -10.5 44t-30.5 32t-35 20t-38 15l-27 9q-27 9 -44 17t-39.5 23t-34 39t-11.5 55q0 60 44.5 97t109.5 37q74 0 114.5 -40.5
t42.5 -93.5h-51q-3 40 -31.5 64.5t-74.5 24.5q-44 0 -74 -22.5t-30 -65.5q0 -21 8.5 -37t25.5 -27t31 -16.5t38 -13.5l24 -9q29 -10 48.5 -19t44 -26.5t37.5 -44t13 -61.5q0 -66 -46 -99.5t-117 -33.5z" />
    <glyph glyph-name="Scedilla" unicode="&#x15e;" horiz-adv-x="601" 
d="M336 375q26 -9 42 -15t46.5 -23t48 -36.5t32 -53t14.5 -73.5q0 -86 -54 -132.5t-141 -51.5l-27 -35q37 3 68 -19t31 -64q0 -38 -25 -60t-70 -22q-40 0 -65 19l14 29q28 -13 48 -13q27 0 43 13.5t16 36.5q0 50 -63 50q-19 0 -37 -9l-19 17l43 58q-89 6 -142 56t-62 140h54
q23 -148 175 -148q70 0 114 33.5t44 100.5q0 37 -13.5 64.5t-39.5 46t-48 28.5t-54 20l-36 11q-23 8 -36.5 13t-37.5 16t-38.5 24t-30.5 31t-23.5 43t-7.5 55q0 83 59.5 134t150.5 51q92 0 150.5 -53t63.5 -138h-54q-6 62 -47 102t-112 40q-70 0 -114 -38t-44 -97
q0 -27 11 -49t23.5 -34.5t39 -26t38.5 -17.5t41 -14z" />
    <glyph glyph-name="scedilla" unicode="&#x15f;" horiz-adv-x="460" 
d="M398 123q0 -61 -41 -95t-105 -37l-27 -36q37 3 68 -19t31 -64q0 -38 -25 -60t-70 -22q-40 0 -65 19l14 29q28 -13 48 -13q27 0 43 13.5t16 36.5q0 50 -63 50q-19 0 -37 -9l-19 17l43 58q-71 7 -108.5 49t-39.5 104h52q8 -109 122 -109q50 0 81.5 21.5t31.5 65.5
q0 25 -10.5 44t-30.5 32t-35 20t-38 15l-27 9q-27 9 -44 17t-39.5 23t-34 39t-11.5 55q0 60 44.5 97t109.5 37q74 0 114.5 -40.5t42.5 -93.5h-51q-3 40 -31.5 64.5t-74.5 24.5q-44 0 -74 -22.5t-30 -65.5q0 -21 8.5 -37t25.5 -27t31 -16.5t38 -13.5l24 -9q29 -10 48.5 -19
t44 -26.5t37.5 -44t13 -61.5z" />
    <glyph glyph-name="Scaron" unicode="&#x160;" horiz-adv-x="601" 
d="M376 900h55l-95 -134h-52l-96 134h54l66 -94h4zM519 174q0 -90 -59.5 -137t-153.5 -47q-99 0 -159 50.5t-70 146.5h54q23 -148 175 -148q70 0 114 33.5t44 100.5q0 37 -13.5 64.5t-39.5 46t-48 28.5t-54 20l-36 11q-23 8 -36.5 13t-37.5 16t-38.5 24t-30.5 31t-23.5 43
t-7.5 55q0 83 59.5 134t150.5 51q92 0 150.5 -53t63.5 -138h-54q-6 62 -47 102t-112 40q-70 0 -114 -38t-44 -97q0 -27 11 -49t23.5 -34.5t39 -26t38.5 -17.5t41 -14l31 -10q26 -9 42 -15t46.5 -23t48 -36.5t32 -53t14.5 -73.5z" />
    <glyph glyph-name="scaron" unicode="&#x161;" horiz-adv-x="460" 
d="M288 700h55l-95 -134h-52l-96 134h54l66 -94h4zM235 -10q-83 0 -127.5 43t-46.5 111h52q8 -109 122 -109q50 0 81.5 21.5t31.5 65.5q0 25 -10.5 44t-30.5 32t-35 20t-38 15l-27 9q-27 9 -44 17t-39.5 23t-34 39t-11.5 55q0 60 44.5 97t109.5 37q74 0 114.5 -40.5
t42.5 -93.5h-51q-3 40 -31.5 64.5t-74.5 24.5q-44 0 -74 -22.5t-30 -65.5q0 -21 8.5 -37t25.5 -27t31 -16.5t38 -13.5l24 -9q29 -10 48.5 -19t44 -26.5t37.5 -44t13 -61.5q0 -66 -46 -99.5t-117 -33.5z" />
    <glyph glyph-name="uni0162" unicode="&#x162;" horiz-adv-x="561" 
d="M308 0h-5l-34 -45q37 3 68 -19t31 -64q0 -38 -25 -60t-70 -22q-40 0 -65 19l14 29q28 -13 48 -13q27 0 43 13.5t16 36.5q0 50 -63 50q-19 0 -37 -9l-19 17l50 67h-6v650h-208v50h468v-50h-206v-650z" />
    <glyph glyph-name="uni0163" unicode="&#x163;" horiz-adv-x="323" 
d="M300 456h-120v-356q0 -65 61 -65q21 0 50 9v-44q-35 -10 -60 -10h-6l-27 -35q37 3 68 -19t31 -64q0 -38 -25 -60t-70 -22q-40 0 -65 19l14 29q28 -13 48 -13q27 0 43 13.5t16 36.5q0 50 -63 50q-19 0 -37 -9l-19 17l47 64q-57 21 -57 95v364h-106v44h36q42 0 58 15.5
t16 55.5v64h47v-135h120v-44z" />
    <glyph glyph-name="Tcaron" unicode="&#x164;" horiz-adv-x="561" 
d="M308 766h-52l-96 134h54l66 -94h4l64 94h55zM514 700v-50h-206v-650h-54v650h-208v50h468z" />
    <glyph glyph-name="tcaron" unicode="&#x165;" horiz-adv-x="323" 
d="M341 748q23 0 34.5 -16t11.5 -40q0 -44 -23 -77t-54 -53l-18 23q46 38 46 80q-17 -2 -29 9.5t-12 28.5q0 19 12.5 32t31.5 13zM231 -10q-51 0 -76.5 27t-25.5 75v364h-106v44h36q42 0 58 15.5t16 55.5v64h47v-135h120v-44h-120v-356q0 -65 61 -65q21 0 50 9v-44
q-35 -10 -60 -10z" />
    <glyph glyph-name="Tbar" unicode="&#x166;" horiz-adv-x="561" 
d="M514 650h-206v-272h149v-44h-149v-334h-54v334h-149v44h149v272h-208v50h468v-50z" />
    <glyph glyph-name="tbar" unicode="&#x167;" horiz-adv-x="323" 
d="M300 456h-120v-159h111v-42h-111v-155q0 -65 61 -65q21 0 50 9v-44q-35 -10 -60 -10q-51 0 -76.5 27t-25.5 75v163h-100v42h100v159h-106v44h36q42 0 58 15.5t16 55.5v64h47v-135h120v-44z" />
    <glyph glyph-name="Utilde" unicode="&#x168;" horiz-adv-x="716" 
d="M513 857q-3 -42 -26 -71t-62 -29q-24 0 -43.5 10.5t-30 22.5t-25.5 22.5t-31 10.5q-43 0 -50 -60h-42q5 44 27 72.5t61 28.5q25 0 44.5 -10.5t30 -22.5t25 -22.5t30.5 -10.5q44 0 50 59h42zM613 700v-447q0 -125 -69.5 -194t-184.5 -69t-186 69t-71 194v447h54v-438
q0 -110 56.5 -166t146.5 -56t145.5 56t55.5 166v438h53z" />
    <glyph glyph-name="utilde" unicode="&#x169;" 
d="M423 657q-3 -42 -26 -71t-62 -29q-24 0 -43.5 10.5t-30 22.5t-25.5 22.5t-31 10.5q-43 0 -50 -60h-42q5 44 27 72.5t61 28.5q25 0 44.5 -10.5t30 -22.5t25 -22.5t30.5 -10.5q44 0 50 59h42zM453 500v-500h-45l-6 59h-5q-52 -69 -144 -69q-76 0 -123.5 47.5t-47.5 136.5
v326h51v-313q0 -76 35 -113t91 -37q61 0 102 41t41 122v300h51z" />
    <glyph glyph-name="Umacron" unicode="&#x16a;" horiz-adv-x="716" 
d="M222 835h273v-43h-273v43zM613 700v-447q0 -125 -69.5 -194t-184.5 -69t-186 69t-71 194v447h54v-438q0 -110 56.5 -166t146.5 -56t145.5 56t55.5 166v438h53z" />
    <glyph glyph-name="umacron" unicode="&#x16b;" 
d="M132 635h273v-43h-273v43zM453 500v-500h-45l-6 59h-5q-52 -69 -144 -69q-76 0 -123.5 47.5t-47.5 136.5v326h51v-313q0 -76 35 -113t91 -37q61 0 102 41t41 122v300h51z" />
    <glyph glyph-name="Ubreve" unicode="&#x16c;" horiz-adv-x="716" 
d="M475 900q0 -48 -31.5 -86t-86.5 -38t-87.5 38.5t-32.5 85.5h48q0 -38 20 -61t52 -23t51 23t19 61h48zM613 700v-447q0 -125 -69.5 -194t-184.5 -69t-186 69t-71 194v447h54v-438q0 -110 56.5 -166t146.5 -56t145.5 56t55.5 166v438h53z" />
    <glyph glyph-name="ubreve" unicode="&#x16d;" 
d="M385 700q0 -48 -31.5 -86t-86.5 -38t-87.5 38.5t-32.5 85.5h48q0 -38 20 -61t52 -23t51 23t19 61h48zM453 500v-500h-45l-6 59h-5q-52 -69 -144 -69q-76 0 -123.5 47.5t-47.5 136.5v326h51v-313q0 -76 35 -113t91 -37q61 0 102 41t41 122v300h51z" />
    <glyph glyph-name="Uring" unicode="&#x16e;" horiz-adv-x="716" 
d="M359 748q-37 0 -64.5 27t-27.5 64t27 64t65 27q37 0 64 -27t27 -64t-27 -64t-64 -27zM360 785q21 0 36 16t15 38t-15 37.5t-36 15.5q-23 0 -38 -15.5t-15 -37.5q0 -23 15 -38.5t38 -15.5zM613 700v-447q0 -125 -69.5 -194t-184.5 -69t-186 69t-71 194v447h54v-438
q0 -110 56.5 -166t146.5 -56t145.5 56t55.5 166v438h53z" />
    <glyph glyph-name="uring" unicode="&#x16f;" 
d="M268 548q-37 0 -64.5 27t-27.5 64t27 64t65 27t64.5 -27t26.5 -64t-27 -64t-64 -27zM269 585q21 0 36 16t15 38t-15 37.5t-36 15.5q-23 0 -38 -15.5t-15 -37.5q0 -23 15 -38.5t38 -15.5zM453 500v-500h-45l-6 59h-5q-52 -69 -144 -69q-76 0 -123.5 47.5t-47.5 136.5v326
h51v-313q0 -76 35 -113t91 -37q61 0 102 41t41 122v300h51z" />
    <glyph glyph-name="Uhungarumlaut" unicode="&#x170;" horiz-adv-x="716" 
d="M326 900h51l-61 -145h-47zM458 900h51l-62 -145h-46zM613 700v-447q0 -125 -69.5 -194t-184.5 -69t-186 69t-71 194v447h54v-438q0 -110 56.5 -166t146.5 -56t145.5 56t55.5 166v438h53z" />
    <glyph glyph-name="uhungarumlaut" unicode="&#x171;" 
d="M236 700h51l-61 -145h-47zM368 700h51l-62 -145h-46zM453 500v-500h-45l-6 59h-5q-52 -69 -144 -69q-76 0 -123.5 47.5t-47.5 136.5v326h51v-313q0 -76 35 -113t91 -37q61 0 102 41t41 122v300h51z" />
    <glyph glyph-name="Uogonek" unicode="&#x172;" horiz-adv-x="716" 
d="M560 700h53v-447q0 -102 -46.5 -167t-128.5 -87q-71 -26 -71 -80q0 -46 58 -46q19 0 42 6v-41q-19 -7 -45 -7q-45 0 -74 21t-29 64q0 45 47 74h-7q-115 0 -186 69t-71 194v447h54v-438q0 -110 56.5 -166t146.5 -56t145.5 56t55.5 166v438z" />
    <glyph glyph-name="uogonek" unicode="&#x173;" 
d="M439 -127q19 0 42 6v-41q-19 -7 -45 -7q-45 0 -74 21t-29 64q0 55 75 89l-6 54h-5q-52 -69 -144 -69q-76 0 -123.5 47.5t-47.5 136.5v326h51v-313q0 -76 35 -113t91 -37q61 0 102 41t41 122v300h51v-500q-72 -27 -72 -81q0 -46 58 -46z" />
    <glyph glyph-name="Wcircumflex" unicode="&#x174;" horiz-adv-x="864" 
d="M365 766h-54l95 134h52l96 -134h-55l-65 94h-4zM782 700h52l-160 -700h-67l-172 577h-6l-171 -577h-68l-159 700h54l138 -629h5l171 574h67l169 -574h5z" />
    <glyph glyph-name="wcircumflex" unicode="&#x175;" horiz-adv-x="672" 
d="M269 566h-54l95 134h52l96 -134h-55l-65 94h-4zM144 0l-120 500h51l101 -437h6l121 397h66l119 -398h6l103 438h51l-122 -500h-66l-121 404h-5l-124 -404h-66z" />
    <glyph glyph-name="Ycircumflex" unicode="&#x176;" horiz-adv-x="616" 
d="M241 766h-54l95 134h52l96 -134h-55l-65 94h-4zM519 700h67l-251 -350v-350h-53v350l-251 350h66l208 -291h6z" />
    <glyph glyph-name="ycircumflex" unicode="&#x177;" horiz-adv-x="494" 
d="M180 566h-54l95 134h52l96 -134h-55l-65 94h-4zM108 -210q-26 0 -63 10v43q32 -9 56 -9q72 0 103 81l33 85h-22l-191 500h55l169 -444h5l162 444h55l-217 -593q-40 -117 -145 -117z" />
    <glyph glyph-name="Ydieresis" unicode="&#x178;" horiz-adv-x="616" 
d="M196 776q-18 0 -31.5 13.5t-13.5 31.5q0 19 13.5 33t31.5 14q19 0 32.5 -14t13.5 -33q0 -18 -13.5 -31.5t-32.5 -13.5zM420 776q-18 0 -31.5 13.5t-13.5 31.5q0 19 13.5 33t31.5 14q19 0 32.5 -14t13.5 -33q0 -18 -13.5 -31.5t-32.5 -13.5zM519 700h67l-251 -350v-350
h-53v350l-251 350h66l208 -291h6z" />
    <glyph glyph-name="Zacute" unicode="&#x179;" horiz-adv-x="606" 
d="M355 900h51l-68 -145h-46zM157 50h367v-50h-447v28l373 619v3h-348v50h425v-28l-370 -619v-3z" />
    <glyph glyph-name="zacute" unicode="&#x17a;" horiz-adv-x="465" 
d="M282 700h51l-68 -145h-46zM61 0v26l270 427v4h-251v43h322v-26l-269 -427v-4h268v-43h-340z" />
    <glyph glyph-name="Zdotaccent" unicode="&#x17b;" horiz-adv-x="606" 
d="M314 795q-17 0 -28.5 11t-11.5 29q0 16 11.5 27.5t28.5 11.5t29 -11.5t12 -27.5q0 -18 -11.5 -29t-29.5 -11zM157 50h367v-50h-447v28l373 619v3h-348v50h425v-28l-370 -619v-3z" />
    <glyph glyph-name="zdotaccent" unicode="&#x17c;" horiz-adv-x="465" 
d="M241 595q-17 0 -28.5 11t-11.5 29q0 16 11.5 27.5t28.5 11.5t29 -11.5t12 -27.5q0 -18 -11.5 -29t-29.5 -11zM61 0v26l270 427v4h-251v43h322v-26l-269 -427v-4h268v-43h-340z" />
    <glyph glyph-name="Zcaron" unicode="&#x17d;" horiz-adv-x="606" 
d="M381 900h55l-95 -134h-52l-96 134h54l66 -94h4zM157 50h367v-50h-447v28l373 619v3h-348v50h425v-28l-370 -619v-3z" />
    <glyph glyph-name="zcaron" unicode="&#x17e;" horiz-adv-x="465" 
d="M308 700h55l-95 -134h-52l-96 134h54l66 -94h4zM61 0v26l270 427v4h-251v43h322v-26l-269 -427v-4h268v-43h-340z" />
    <glyph glyph-name="florin" unicode="&#x192;" horiz-adv-x="509" 
d="M389 650q52 0 90 -41l-27 -35q-27 30 -64 30q-63 0 -73 -75l-26 -162h145v-44h-152l-35 -214q-19 -119 -127 -119q-53 0 -89 41l27 35q27 -30 63 -30q63 0 74 75l34 212h-138v44h145l26 164q20 119 127 119z" />
    <glyph glyph-name="uni01CD" unicode="&#x1cd;" horiz-adv-x="606" 
d="M330 766h-52l-96 134h54l66 -94h4l64 94h55zM518 0l-71 212h-288l-71 -212h-57l237 700h69l238 -700h-57zM175 260h256l-126 375h-5z" />
    <glyph glyph-name="uni01CE" unicode="&#x1ce;" horiz-adv-x="511" 
d="M269 566h-52l-96 134h54l66 -94h4l64 94h55zM461 42h14v-42h-28q-35 0 -53.5 15.5t-22.5 50.5q-61 -76 -167 -76q-68 0 -111.5 35t-43.5 104q0 68 48 107.5t128 46.5l143 13v37q0 60 -31 95.5t-92 35.5q-104 0 -125 -111h-51q8 70 54 113.5t121 43.5q81 0 128 -46
t47 -126v-252q0 -44 42 -44zM368 189v64l-132 -12q-62 -5 -99 -33.5t-37 -77.5t30 -72t77 -23q66 0 113.5 38t47.5 116z" />
    <glyph glyph-name="uni01CF" unicode="&#x1cf;" horiz-adv-x="258" 
d="M196 900h55l-95 -134h-52l-96 134h54l66 -94h4zM156 700v-700h-54v700h54z" />
    <glyph glyph-name="uni01D0" unicode="&#x1d0;" horiz-adv-x="215" 
d="M174 700h55l-95 -134h-52l-96 134h54l66 -94h4zM82 0v500h51v-500h-51z" />
    <glyph glyph-name="uni01D1" unicode="&#x1d1;" horiz-adv-x="813" 
d="M474 900h55l-95 -134h-52l-96 134h54l66 -94h4zM407 -10q-142 0 -236 102t-94 258t94 258t235 102t235.5 -102t94.5 -258t-94 -258t-235 -102zM407 40q118 0 196.5 88.5t78.5 221.5t-79 221.5t-197 88.5q-117 0 -196 -88.5t-79 -221.5t79 -221.5t197 -88.5z" />
    <glyph glyph-name="uni01D2" unicode="&#x1d2;" horiz-adv-x="598" 
d="M366 700h55l-95 -134h-52l-96 134h54l66 -94h4zM298 -10q-103 0 -170 75t-67 185q0 112 66 186t171 74q103 0 171 -75t68 -185q0 -112 -67.5 -186t-171.5 -74zM298 37q83 0 135.5 62t52.5 151t-53 151t-135 62q-83 0 -134.5 -61.5t-51.5 -151.5q0 -89 51.5 -151
t134.5 -62z" />
    <glyph glyph-name="uni01D3" unicode="&#x1d3;" horiz-adv-x="716" 
d="M425 900h55l-95 -134h-52l-96 134h54l66 -94h4zM613 700v-447q0 -125 -69.5 -194t-184.5 -69t-186 69t-71 194v447h54v-438q0 -110 56.5 -166t146.5 -56t145.5 56t55.5 166v438h53z" />
    <glyph glyph-name="uni01D4" unicode="&#x1d4;" 
d="M334 700h55l-95 -134h-52l-96 134h54l66 -94h4zM453 500v-500h-45l-6 59h-5q-52 -69 -144 -69q-76 0 -123.5 47.5t-47.5 136.5v326h51v-313q0 -76 35 -113t91 -37q61 0 102 41t41 122v300h51z" />
    <glyph glyph-name="uni01E2" unicode="&#x1e2;" horiz-adv-x="965" 
d="M824 835v-43h-273v43h273zM554 49h355v-49h-408v212h-273l-135 -212h-62l442 700h426v-49h-345v-272h309v-48h-309v-282zM258 260h243v375h-5z" />
    <glyph glyph-name="uni01E3" unicode="&#x1e3;" horiz-adv-x="687" 
d="M468 635v-43h-273v43h273zM625 268q0 -16 -1 -28h-267q0 -205 112 -205q37 0 67 23t36 75h50q-8 -74 -50.5 -108.5t-102.5 -34.5q-98 0 -135 88q-16 -44 -55 -66t-89 -22q-65 0 -103 34t-38 99q0 45 17 77.5t47.5 50.5t67.5 26t82 8h41v61q0 119 -94 119q-47 0 -75 -26
t-30 -73h-50q4 67 46 105.5t108 38.5q97 0 130 -85q39 85 131 85q155 0 155 -242zM470 465q-48 0 -79 -44t-34 -136h220q-4 180 -107 180zM193 35q45 0 78 29t33 94v82h-32q-82 0 -127.5 -25t-45.5 -90q0 -45 25.5 -67.5t68.5 -22.5z" />
    <glyph glyph-name="Gcaron" unicode="&#x1e6;" horiz-adv-x="774" 
d="M461 900h55l-95 -134h-52l-96 134h54l66 -94h4zM394 350h277v-350h-43l-8 92h-5q-87 -102 -229 -102t-225.5 97t-83.5 253q0 161 90.5 265.5t236.5 104.5q104 0 174.5 -53.5t90.5 -142.5h-56q-19 66 -73.5 106t-135.5 40q-122 0 -197.5 -89t-75.5 -230q0 -133 69.5 -217
t188.5 -84q93 0 161 51.5t68 147.5v64h-224v47z" />
    <glyph glyph-name="gcaron" unicode="&#x1e7;" horiz-adv-x="517" 
d="M292 566h-52l-96 134h54l66 -94h4l64 94h55zM492 506q-33 -42 -85 -66q30 -43 30 -101q0 -77 -48 -123.5t-121 -46.5q-53 0 -93 23q-46 -21 -46 -59q0 -54 78 -54h101q78 0 121.5 -35t43.5 -99q0 -75 -56.5 -115t-144.5 -40q-97 0 -149.5 47.5t-61.5 123.5l92 77
q-33 8 -53 32t-20 59q0 58 60 89q-47 49 -47 121q0 75 49.5 123t124.5 48q64 0 110 -38q46 22 80 70zM268 213q53 0 86 35.5t33 90.5q0 56 -33 91.5t-86 35.5q-55 0 -89.5 -35.5t-34.5 -91.5q0 -54 35 -90t89 -36zM423 -56q0 49 -36 69.5t-81 20.5h-92l-98 -84
q26 -115 156 -115q64 0 107.5 27t43.5 82z" />
    <glyph glyph-name="uni01EA" unicode="&#x1ea;" horiz-adv-x="813" 
d="M482 -1q-68 -28 -68 -80q0 -46 58 -46q20 0 42 6v-41q-19 -7 -45 -7q-45 0 -74 21t-29 64q0 45 47 74h-6q-142 0 -236 102t-94 258t94 258t235 102t235.5 -102t94.5 -258q0 -134 -70.5 -229.5t-183.5 -121.5zM131 350q0 -133 79 -221.5t197 -88.5t196.5 88.5t78.5 221.5
t-79 221.5t-197 88.5q-117 0 -196 -88.5t-79 -221.5z" />
    <glyph glyph-name="uni01EB" unicode="&#x1eb;" horiz-adv-x="598" 
d="M364 -1q-69 -27 -69 -80q0 -46 58 -46q19 0 42 6v-41q-19 -7 -45 -7q-45 0 -74 21t-29 64q0 45 47 74q-102 1 -167.5 76t-65.5 184q0 112 66 186t171 74q103 0 171 -75t68 -185q0 -92 -47.5 -160.5t-125.5 -90.5zM112 250q0 -89 51.5 -151t134.5 -62t135.5 62t52.5 151
t-53 151t-135 62q-83 0 -134.5 -61.5t-51.5 -151.5z" />
    <glyph glyph-name="uni01F4" unicode="&#x1f4;" horiz-adv-x="774" 
d="M435 900h51l-68 -145h-46zM394 350h277v-350h-43l-8 92h-5q-87 -102 -229 -102t-225.5 97t-83.5 253q0 161 90.5 265.5t236.5 104.5q104 0 174.5 -53.5t90.5 -142.5h-56q-19 66 -73.5 106t-135.5 40q-122 0 -197.5 -89t-75.5 -230q0 -133 69.5 -217t188.5 -84
q93 0 161 51.5t68 147.5v64h-224v47z" />
    <glyph glyph-name="uni01F5" unicode="&#x1f5;" horiz-adv-x="517" 
d="M357 700l-68 -145h-46l63 145h51zM492 506q-33 -42 -85 -66q30 -43 30 -101q0 -77 -48 -123.5t-121 -46.5q-53 0 -93 23q-46 -21 -46 -59q0 -54 78 -54h101q78 0 121.5 -35t43.5 -99q0 -75 -56.5 -115t-144.5 -40q-97 0 -149.5 47.5t-61.5 123.5l92 77q-33 8 -53 32
t-20 59q0 58 60 89q-47 49 -47 121q0 75 49.5 123t124.5 48q64 0 110 -38q46 22 80 70zM268 213q53 0 86 35.5t33 90.5q0 56 -33 91.5t-86 35.5q-55 0 -89.5 -35.5t-34.5 -91.5q0 -54 35 -90t89 -36zM423 -56q0 49 -36 69.5t-81 20.5h-92l-98 -84q26 -115 156 -115
q64 0 107.5 27t43.5 82z" />
    <glyph glyph-name="uni01F8" unicode="&#x1f8;" horiz-adv-x="741" 
d="M331 900l63 -145h-46l-68 145h51zM586 700h53v-700h-64l-414 616h-6v-616h-53v700h66l413 -614h5v614z" />
    <glyph glyph-name="uni01F9" unicode="&#x1f9;" 
d="M227 700l63 -145h-46l-68 145h51zM82 0v500h45l6 -59h5q52 69 144 69q76 0 123.5 -47.5t47.5 -136.5v-326h-51v313q0 76 -35 113t-91 37q-61 0 -102 -41t-41 -122v-300h-51z" />
    <glyph glyph-name="AEacute" unicode="&#x1fc;" horiz-adv-x="965" 
d="M778 900l-68 -145h-46l63 145h51zM554 49h355v-49h-408v212h-273l-135 -212h-62l442 700h426v-49h-345v-272h309v-48h-309v-282zM258 260h243v375h-5z" />
    <glyph glyph-name="aeacute" unicode="&#x1fd;" horiz-adv-x="687" 
d="M422 700l-68 -145h-46l63 145h51zM625 268q0 -16 -1 -28h-267q0 -205 112 -205q37 0 67 23t36 75h50q-8 -74 -50.5 -108.5t-102.5 -34.5q-98 0 -135 88q-16 -44 -55 -66t-89 -22q-65 0 -103 34t-38 99q0 45 17 77.5t47.5 50.5t67.5 26t82 8h41v61q0 119 -94 119
q-47 0 -75 -26t-30 -73h-50q4 67 46 105.5t108 38.5q97 0 130 -85q39 85 131 85q155 0 155 -242zM470 465q-48 0 -79 -44t-34 -136h220q-4 180 -107 180zM193 35q45 0 78 29t33 94v82h-32q-82 0 -127.5 -25t-45.5 -90q0 -45 25.5 -67.5t68.5 -22.5z" />
    <glyph glyph-name="Oslashacute" unicode="&#x1fe;" horiz-adv-x="813" 
d="M498 900l-68 -145h-46l63 145h51zM627 623q109 -104 109 -273q0 -156 -94 -258t-235 -102q-103 0 -185 57l-61 -86l-38 25l63 90q-109 106 -109 274q0 156 94 258t235 102q102 0 184 -57l61 86l39 -26zM130 350q0 -140 87 -230l344 491q-69 50 -155 50q-118 0 -197 -89
t-79 -222zM407 39q118 0 197 88.5t79 222.5q0 140 -87 230l-345 -491q69 -50 156 -50z" />
    <glyph glyph-name="oslashacute" unicode="&#x1ff;" horiz-adv-x="598" 
d="M391 700l-68 -145h-46l63 145h51zM467 438q70 -75 70 -188q0 -112 -67.5 -186t-171.5 -74q-75 0 -133 42l-53 -71l-37 24l57 76q-71 74 -71 189q0 112 66 186t171 74q74 0 135 -43l54 73l37 -25zM111 250q0 -88 50 -149l243 328q-46 35 -106 35q-84 0 -135.5 -62
t-51.5 -152zM298 36q83 0 136 62.5t53 151.5q0 87 -50 148l-244 -328q47 -34 105 -34z" />
    <glyph glyph-name="uni0218" unicode="&#x218;" horiz-adv-x="601" 
d="M519 174q0 -90 -59.5 -137t-153.5 -47q-99 0 -159 50.5t-70 146.5h54q23 -148 175 -148q70 0 114 33.5t44 100.5q0 37 -13.5 64.5t-39.5 46t-48 28.5t-54 20l-36 11q-23 8 -36.5 13t-37.5 16t-38.5 24t-30.5 31t-23.5 43t-7.5 55q0 83 59.5 134t150.5 51q92 0 150.5 -53
t63.5 -138h-54q-6 62 -47 102t-112 40q-70 0 -114 -38t-44 -97q0 -27 11 -49t23.5 -34.5t39 -26t38.5 -17.5t41 -14l31 -10q26 -9 42 -15t46.5 -23t48 -36.5t32 -53t14.5 -73.5zM308 -67q23 0 35 -16t12 -41q0 -44 -23.5 -77.5t-55.5 -53.5l-19 23q47 37 48 80
q-19 -1 -31 10.5t-12 28.5q0 20 13 33t33 13z" />
    <glyph glyph-name="uni0219" unicode="&#x219;" horiz-adv-x="460" 
d="M235 -10q-83 0 -127.5 43t-46.5 111h52q8 -109 122 -109q50 0 81.5 21.5t31.5 65.5q0 25 -10.5 44t-30.5 32t-35 20t-38 15l-27 9q-27 9 -44 17t-39.5 23t-34 39t-11.5 55q0 60 44.5 97t109.5 37q74 0 114.5 -40.5t42.5 -93.5h-51q-3 40 -31.5 64.5t-74.5 24.5
q-44 0 -74 -22.5t-30 -65.5q0 -21 8.5 -37t25.5 -27t31 -16.5t38 -13.5l24 -9q29 -10 48.5 -19t44 -26.5t37.5 -44t13 -61.5q0 -66 -46 -99.5t-117 -33.5zM236 -67q23 0 35 -16t12 -41q0 -44 -23.5 -77.5t-55.5 -53.5l-19 23q47 37 48 80q-19 -1 -31 10.5t-12 28.5
q0 20 13 33t33 13z" />
    <glyph glyph-name="uni021A" unicode="&#x21a;" horiz-adv-x="561" 
d="M46 700h468v-50h-206v-650h-54v650h-208v50zM280 -67q23 0 35 -16t12 -41q0 -44 -23.5 -77.5t-55.5 -53.5l-19 23q47 37 48 80q-19 -1 -31 10.5t-12 28.5q0 20 13 33t33 13z" />
    <glyph glyph-name="uni021B" unicode="&#x21b;" horiz-adv-x="323" 
d="M231 -10q-51 0 -76.5 27t-25.5 75v364h-106v44h36q42 0 58 15.5t16 55.5v64h47v-135h120v-44h-120v-356q0 -65 61 -65q21 0 50 9v-44q-35 -10 -60 -10zM209 -67q23 0 35 -16t12 -41q0 -44 -23.5 -77.5t-55.5 -53.5l-19 23q47 37 48 80q-19 -1 -31 10.5t-12 28.5
q0 20 13 33t33 13z" />
    <glyph glyph-name="uni021E" unicode="&#x21e;" horiz-adv-x="692" 
d="M412 900h55l-95 -134h-52l-96 134h54l66 -94h4zM537 700h53v-700h-53v328h-381v-328h-54v700h54v-322h381v322z" />
    <glyph glyph-name="uni0226" unicode="&#x226;" horiz-adv-x="606" 
d="M303 795q-17 0 -28.5 11t-11.5 29q0 16 11.5 27.5t28.5 11.5t29 -11.5t12 -27.5q0 -18 -11.5 -29t-29.5 -11zM518 0l-71 212h-288l-71 -212h-57l237 700h69l238 -700h-57zM175 260h256l-126 375h-5z" />
    <glyph glyph-name="uni0227" unicode="&#x227;" horiz-adv-x="511" 
d="M242 595q-17 0 -28.5 11t-11.5 29q0 16 11.5 27.5t28.5 11.5t29 -11.5t12 -27.5q0 -18 -11.5 -29t-29.5 -11zM461 42h14v-42h-28q-35 0 -53.5 15.5t-22.5 50.5q-61 -76 -167 -76q-68 0 -111.5 35t-43.5 104q0 68 48 107.5t128 46.5l143 13v37q0 60 -31 95.5t-92 35.5
q-104 0 -125 -111h-51q8 70 54 113.5t121 43.5q81 0 128 -46t47 -126v-252q0 -44 42 -44zM368 189v64l-132 -12q-62 -5 -99 -33.5t-37 -77.5t30 -72t77 -23q66 0 113.5 38t47.5 116z" />
    <glyph glyph-name="uni0228" unicode="&#x228;" horiz-adv-x="581" 
d="M525 0h-189l-34 -45q37 3 68 -19t31 -64q0 -38 -25 -60t-70 -22q-40 0 -65 19l14 29q28 -13 48 -13q27 0 43 13.5t16 36.5q0 50 -63 50q-19 0 -37 -9l-19 17l50 67h-191v700h413v-49h-360v-272h324v-48h-324v-282h370v-49z" />
    <glyph glyph-name="uni0229" unicode="&#x229;" horiz-adv-x="558" 
d="M496 266q0 -15 -1 -25h-383q3 -94 51 -150t126 -56q56 0 96 25.5t55 73.5h51q-16 -67 -66.5 -104t-122.5 -40l-27 -35q37 3 68 -19t31 -64q0 -38 -25 -60t-70 -22q-40 0 -65 19l14 29q28 -13 48 -13q27 0 43 13.5t16 36.5q0 50 -63 50q-19 0 -37 -9l-19 17l43 59
q-89 10 -143.5 78.5t-54.5 174.5q0 120 63 192.5t162 72.5q92 0 151 -64.5t59 -179.5zM286 465q-72 0 -119.5 -51t-53.5 -129h333q-1 82 -45 131t-115 49z" />
    <glyph glyph-name="uni022E" unicode="&#x22e;" horiz-adv-x="813" 
d="M407 795q-17 0 -28.5 11t-11.5 29q0 16 11.5 27.5t28.5 11.5t29 -11.5t12 -27.5q0 -18 -11.5 -29t-29.5 -11zM407 -10q-142 0 -236 102t-94 258t94 258t235 102t235.5 -102t94.5 -258t-94 -258t-235 -102zM407 40q118 0 196.5 88.5t78.5 221.5t-79 221.5t-197 88.5
q-117 0 -196 -88.5t-79 -221.5t79 -221.5t197 -88.5z" />
    <glyph glyph-name="uni022F" unicode="&#x22f;" horiz-adv-x="598" 
d="M299 595q-17 0 -28.5 11t-11.5 29q0 16 11.5 27.5t28.5 11.5t29 -11.5t12 -27.5q0 -18 -11.5 -29t-29.5 -11zM298 -10q-103 0 -170 75t-67 185q0 112 66 186t171 74q103 0 171 -75t68 -185q0 -112 -67.5 -186t-171.5 -74zM298 37q83 0 135.5 62t52.5 151t-53 151t-135 62
q-83 0 -134.5 -61.5t-51.5 -151.5q0 -89 51.5 -151t134.5 -62z" />
    <glyph glyph-name="uni0232" unicode="&#x232;" horiz-adv-x="616" 
d="M173 835h273v-43h-273v43zM519 700h67l-251 -350v-350h-53v350l-251 350h66l208 -291h6z" />
    <glyph glyph-name="uni0233" unicode="&#x233;" horiz-adv-x="494" 
d="M111 635h273v-43h-273v43zM108 -210q-26 0 -63 10v43q32 -9 56 -9q72 0 103 81l33 85h-22l-191 500h55l169 -444h5l162 444h55l-217 -593q-40 -117 -145 -117z" />
    <glyph glyph-name="uni0237" unicode="&#x237;" horiz-adv-x="215" 
d="M30 -210q-25 0 -60 10v43q29 -9 50 -9q62 0 62 65v601h51v-608q0 -48 -26 -75t-77 -27z" />
    <glyph glyph-name="circumflex" unicode="&#x2c6;" horiz-adv-x="448" 
d="M157 566h-55l95 134h52l96 -134h-54l-66 94h-3z" />
    <glyph glyph-name="caron" unicode="&#x2c7;" horiz-adv-x="448" 
d="M291 700h54l-95 -134h-52l-96 134h55l66 -94h3z" />
    <glyph glyph-name="breve" unicode="&#x2d8;" horiz-adv-x="443" 
d="M340 700q0 -48 -31 -86t-87 -38q-55 0 -87.5 38.5t-32.5 85.5h48q0 -38 20 -61t52 -23q33 0 52 23t19 61h47z" />
    <glyph glyph-name="dotaccent" unicode="&#x2d9;" horiz-adv-x="285" 
d="M143 595q-18 0 -29.5 11t-11.5 29q0 16 12 27.5t29 11.5t28.5 -11.5t11.5 -27.5q0 -18 -11.5 -29t-28.5 -11z" />
    <glyph glyph-name="ring" unicode="&#x2da;" horiz-adv-x="388" 
d="M195 548q-38 0 -65.5 27t-27.5 64t27.5 64t65.5 27q37 0 64 -27t27 -64t-27 -64t-64 -27zM195 585q22 0 37 15.5t15 38.5q0 22 -15 37.5t-37 15.5t-37.5 -15.5t-15.5 -37.5q0 -23 15.5 -38.5t37.5 -15.5z" />
    <glyph glyph-name="ogonek" unicode="&#x2db;" horiz-adv-x="352" 
d="M202 15l20 -15q-72 -27 -72 -81q0 -46 58 -46q20 0 42 6v-41q-19 -7 -45 -7q-45 0 -74 21t-29 64q0 27 17.5 48t35.5 30.5t47 20.5z" />
    <glyph glyph-name="tilde" unicode="&#x2dc;" horiz-adv-x="514" 
d="M412 657q-3 -42 -26 -71t-61 -29q-24 0 -44 10.5t-30.5 22.5t-25.5 22.5t-31 10.5q-42 0 -50 -60h-42q5 44 27.5 72.5t61.5 28.5q24 0 43.5 -10.5t30 -22.5t25 -22.5t30.5 -10.5q44 0 51 59h41z" />
    <glyph glyph-name="hungarumlaut" unicode="&#x2dd;" horiz-adv-x="445" 
d="M159 700h52l-62 -145h-47zM291 700h52l-63 -145h-46z" />
    <glyph glyph-name="uni1E02" unicode="&#x1e02;" horiz-adv-x="596" 
d="M310 795q-17 0 -28.5 11t-11.5 29q0 16 11.5 27.5t28.5 11.5t29 -11.5t12 -27.5q0 -18 -11.5 -29t-29.5 -11zM418 363q116 -46 116 -174q0 -89 -53 -139t-147 -50h-232v700h225q93 0 142 -46t49 -127q0 -115 -100 -160v-4zM155 652v-267h170q67 0 103 37t36 101
q0 62 -36 95.5t-99 33.5h-174zM331 48q68 0 109 37.5t41 103.5t-41.5 107t-109.5 41h-175v-289h176z" />
    <glyph glyph-name="uni1E03" unicode="&#x1e03;" horiz-adv-x="591" 
d="M148 835q0 -18 -11.5 -29t-29.5 -11q-17 0 -28.5 11t-11.5 29q0 16 11.5 27.5t28.5 11.5t29 -11.5t12 -27.5zM305 510q100 0 162.5 -71t62.5 -188t-62.5 -189t-162.5 -72q-110 0 -169 91h-6l-5 -81h-43v710h51v-296q20 38 62.5 67t109.5 29zM302 37q78 0 127.5 59
t49.5 155t-49 154t-128 58q-77 0 -123 -58t-46 -154q0 -97 46 -155.5t123 -58.5z" />
    <glyph glyph-name="uni1E0A" unicode="&#x1e0a;" horiz-adv-x="693" 
d="M346 795q-17 0 -28.5 11t-11.5 29q0 16 11.5 27.5t28.5 11.5t29 -11.5t12 -27.5q0 -18 -11.5 -29t-29.5 -11zM293 700q161 0 242 -93.5t81 -257.5q0 -159 -79 -254t-244 -95h-191v700h191zM289 50q143 0 208 80t65 220t-65 220t-208 80h-133v-600h133z" />
    <glyph glyph-name="uni1E0B" unicode="&#x1e0b;" horiz-adv-x="591" 
d="M484 874q17 0 29 -11.5t12 -27.5q0 -18 -11.5 -29t-29.5 -11q-17 0 -28.5 11t-11.5 29q0 16 11.5 27.5t28.5 11.5zM458 414v296h51v-710h-43l-5 81h-6q-59 -91 -169 -91q-100 0 -162.5 72t-62.5 189t62.5 188t162.5 71q67 0 109.5 -29t62.5 -67zM289 37q77 0 123 58.5
t46 155.5q0 96 -46 154t-123 58q-79 0 -128 -58.5t-49 -153.5q0 -96 49.5 -155t127.5 -59z" />
    <glyph glyph-name="uni1E10" unicode="&#x1e10;" horiz-adv-x="693" 
d="M293 700q161 0 242 -93.5t81 -257.5q0 -159 -79 -254t-244 -95h-191v700h191zM289 50q143 0 208 80t65 220t-65 220t-208 80h-133v-600h133zM345 -67q23 0 35 -16t12 -41q0 -44 -23.5 -77.5t-55.5 -53.5l-19 23q47 37 48 80q-19 -1 -31 10.5t-12 28.5q0 20 13 33t33 13z
" />
    <glyph glyph-name="uni1E11" unicode="&#x1e11;" horiz-adv-x="591" 
d="M458 710h51v-710h-43l-5 81h-6q-59 -91 -169 -91q-100 0 -162.5 72t-62.5 189t62.5 188t162.5 71q67 0 109.5 -29t62.5 -67v296zM289 37q77 0 123 58.5t46 155.5q0 96 -46 154t-123 58q-79 0 -128 -58.5t-49 -153.5q0 -96 49.5 -155t127.5 -59zM292 -67q23 0 35 -16
t12 -41q0 -44 -23.5 -77.5t-55.5 -53.5l-19 23q47 37 48 80q-19 -1 -31 10.5t-12 28.5q0 20 13 33t33 13z" />
    <glyph glyph-name="uni1E1E" unicode="&#x1e1e;" horiz-adv-x="537" 
d="M296 795q-17 0 -28.5 11t-11.5 29q0 16 11.5 27.5t28.5 11.5t29 -11.5t12 -27.5q0 -18 -11.5 -29t-29.5 -11zM491 650h-335v-272h294v-49h-294v-329h-54v700h389v-50z" />
    <glyph glyph-name="uni1E1F" unicode="&#x1e1f;" horiz-adv-x="316" 
d="M208 795q-17 0 -28.5 11t-11.5 29q0 16 11.5 27.5t28.5 11.5t29 -11.5t12 -27.5q0 -18 -11.5 -29t-29.5 -11zM174 598v-98h111v-44h-111v-456h-51v456h-100v44h100v108q0 48 29 75t79 27q36 0 62 -13l-11 -41q-21 8 -44 8q-64 0 -64 -66z" />
    <glyph glyph-name="uni1E20" unicode="&#x1e20;" horiz-adv-x="774" 
d="M258 835h273v-43h-273v43zM394 350h277v-350h-43l-8 92h-5q-87 -102 -229 -102t-225.5 97t-83.5 253q0 161 90.5 265.5t236.5 104.5q104 0 174.5 -53.5t90.5 -142.5h-56q-19 66 -73.5 106t-135.5 40q-122 0 -197.5 -89t-75.5 -230q0 -133 69.5 -217t188.5 -84
q93 0 161 51.5t68 147.5v64h-224v47z" />
    <glyph glyph-name="uni1E22" unicode="&#x1e22;" horiz-adv-x="692" 
d="M345 795q-17 0 -28.5 11t-11.5 29q0 16 11.5 27.5t28.5 11.5t29 -11.5t12 -27.5q0 -18 -11.5 -29t-29.5 -11zM537 700h53v-700h-53v328h-381v-328h-54v700h54v-322h381v322z" />
    <glyph glyph-name="uni1E23" unicode="&#x1e23;" 
d="M107 795q-17 0 -28.5 11t-11.5 29q0 16 11.5 27.5t28.5 11.5t29 -11.5t12 -27.5q0 -18 -11.5 -29t-29.5 -11zM282 510q76 0 123.5 -47.5t47.5 -136.5v-326h-51v313q0 76 -35 113t-91 37q-61 0 -102 -41t-41 -122v-300h-51v710h51v-269h5q52 69 144 69z" />
    <glyph glyph-name="uni1E26" unicode="&#x1e26;" horiz-adv-x="692" 
d="M233 776q-18 0 -31.5 13.5t-13.5 31.5q0 19 13.5 33t31.5 14q19 0 32.5 -14t13.5 -33q0 -18 -13.5 -31.5t-32.5 -13.5zM457 776q-18 0 -31.5 13.5t-13.5 31.5q0 19 13.5 33t31.5 14q19 0 32.5 -14t13.5 -33q0 -18 -13.5 -31.5t-32.5 -13.5zM537 700h53v-700h-53v328h-381
v-328h-54v700h54v-322h381v322z" />
    <glyph glyph-name="uni1E27" unicode="&#x1e27;" 
d="M24 770q-17 0 -29 12.5t-12 29.5q0 16 12.5 28.5t28.5 12.5q17 0 29 -12t12 -29t-12 -29.5t-29 -12.5zM192 770q-16 0 -28 12.5t-12 29.5t12 29t28 12q17 0 29 -12t12 -29t-12 -29.5t-29 -12.5zM282 510q76 0 123.5 -47.5t47.5 -136.5v-326h-51v313q0 76 -35 113t-91 37
q-61 0 -102 -41t-41 -122v-300h-51v710h51v-269h5q52 69 144 69z" />
    <glyph glyph-name="uni1E28" unicode="&#x1e28;" horiz-adv-x="692" 
d="M537 700h53v-700h-53v328h-381v-328h-5l-34 -45q37 3 68 -19t31 -64q0 -38 -25 -60t-70 -22q-40 0 -65 19l14 29q28 -13 48 -13q27 0 43 13.5t16 36.5q0 50 -63 50q-19 0 -37 -9l-19 17l50 67h-6v700h54v-322h381v322z" />
    <glyph glyph-name="uni1E29" unicode="&#x1e29;" 
d="M282 510q76 0 123.5 -47.5t47.5 -136.5v-326h-51v313q0 76 -35 113t-91 37q-61 0 -102 -41t-41 -122v-300h-3l-34 -45q37 3 68 -19t31 -64q0 -38 -25 -60t-70 -22q-40 0 -65 19l14 29q28 -13 48 -13q27 0 43 13.5t16 36.5q0 50 -63 50q-19 0 -37 -9l-19 17l50 67h-5v710
h51v-269h5q52 69 144 69z" />
    <glyph glyph-name="uni1E40" unicode="&#x1e40;" horiz-adv-x="856" 
d="M428 795q-17 0 -28.5 11t-11.5 29q0 16 11.5 27.5t28.5 11.5t29 -11.5t12 -27.5q0 -18 -11.5 -29t-29.5 -11zM753 700v-700h-53v603h-5l-233 -523h-66l-235 523h-6v-603h-53v700h74l250 -565h5l249 565h73z" />
    <glyph glyph-name="uni1E41" unicode="&#x1e41;" horiz-adv-x="805" 
d="M402 595q-17 0 -28.5 11t-11.5 29q0 16 11.5 27.5t28.5 11.5t29 -11.5t12 -27.5q0 -18 -11.5 -29t-29.5 -11zM82 0v500h45l6 -59h5q47 69 132 69q56 0 91 -28.5t49 -64.5h5q44 93 150 93q70 0 114.5 -42.5t44.5 -124.5v-343h-52v332q0 65 -32 98.5t-81 33.5
q-57 0 -94 -42t-37 -108v-314h-51v323q0 68 -33 104t-82 36q-50 0 -89.5 -37t-39.5 -108v-318h-51z" />
    <glyph glyph-name="uni1E44" unicode="&#x1e44;" horiz-adv-x="741" 
d="M371 795q-17 0 -28.5 11t-11.5 29q0 16 11.5 27.5t28.5 11.5t29 -11.5t12 -27.5q0 -18 -11.5 -29t-29.5 -11zM586 700h53v-700h-64l-414 616h-6v-616h-53v700h66l413 -614h5v614z" />
    <glyph glyph-name="uni1E45" unicode="&#x1e45;" 
d="M267 595q-17 0 -28.5 11t-11.5 29q0 16 11.5 27.5t28.5 11.5t29 -11.5t12 -27.5q0 -18 -11.5 -29t-29.5 -11zM82 0v500h45l6 -59h5q52 69 144 69q76 0 123.5 -47.5t47.5 -136.5v-326h-51v313q0 76 -35 113t-91 37q-61 0 -102 -41t-41 -122v-300h-51z" />
    <glyph glyph-name="uni1E56" unicode="&#x1e56;" horiz-adv-x="620" 
d="M315 795q-17 0 -28.5 11t-11.5 29q0 16 11.5 27.5t28.5 11.5t29 -11.5t12 -27.5q0 -18 -11.5 -29t-29.5 -11zM337 700q92 0 148.5 -54.5t56.5 -145.5q0 -94 -57.5 -148t-156.5 -54h-175v-298h-51v700h235zM325 347q77 0 120 40t43 112q0 73 -43 112.5t-111 39.5h-181
v-304h172z" />
    <glyph glyph-name="uni1E57" unicode="&#x1e57;" horiz-adv-x="591" 
d="M292 595q-17 0 -28.5 11t-11.5 29q0 16 11.5 27.5t28.5 11.5t29 -11.5t12 -27.5q0 -18 -11.5 -29t-29.5 -11zM305 510q100 0 162.5 -72t62.5 -189t-62.5 -188t-162.5 -71q-67 0 -109.5 29t-62.5 67v-286h-51v700h43l5 -81h6q59 91 169 91zM302 37q79 0 128 58t49 154
t-49.5 155t-127.5 59q-77 0 -123 -58.5t-46 -155.5q0 -96 46 -154t123 -58z" />
    <glyph glyph-name="uni1E58" unicode="&#x1e58;" horiz-adv-x="613" 
d="M316 795q-17 0 -28.5 11t-11.5 29q0 16 11.5 27.5t28.5 11.5t29 -11.5t12 -27.5q0 -18 -11.5 -29t-29.5 -11zM567 0h-63l-193 313h-156v-313h-53v700h222q96 0 152 -51.5t56 -139.5q0 -77 -44 -125.5t-121 -62.5zM155 651v-289h159q78 0 121.5 39.5t43.5 106.5
q0 69 -44 106t-121 37h-159z" />
    <glyph glyph-name="uni1E59" unicode="&#x1e59;" horiz-adv-x="322" 
d="M190 595q-17 0 -28.5 11t-11.5 29q0 16 11.5 27.5t28.5 11.5t29 -11.5t12 -27.5q0 -18 -11.5 -29t-29.5 -11zM82 0v500h45l6 -67h5q42 77 137 77h24v-53q-13 2 -38 2q-52 0 -90 -44.5t-38 -125.5v-289h-51z" />
    <glyph glyph-name="uni1E60" unicode="&#x1e60;" horiz-adv-x="601" 
d="M309 795q-17 0 -28.5 11t-11.5 29q0 16 11.5 27.5t28.5 11.5t29 -11.5t12 -27.5q0 -18 -11.5 -29t-29.5 -11zM519 174q0 -90 -59.5 -137t-153.5 -47q-99 0 -159 50.5t-70 146.5h54q23 -148 175 -148q70 0 114 33.5t44 100.5q0 37 -13.5 64.5t-39.5 46t-48 28.5t-54 20
l-36 11q-23 8 -36.5 13t-37.5 16t-38.5 24t-30.5 31t-23.5 43t-7.5 55q0 83 59.5 134t150.5 51q92 0 150.5 -53t63.5 -138h-54q-6 62 -47 102t-112 40q-70 0 -114 -38t-44 -97q0 -27 11 -49t23.5 -34.5t39 -26t38.5 -17.5t41 -14l31 -10q26 -9 42 -15t46.5 -23t48 -36.5
t32 -53t14.5 -73.5z" />
    <glyph glyph-name="uni1E61" unicode="&#x1e61;" horiz-adv-x="460" 
d="M221 595q-17 0 -28.5 11t-11.5 29q0 16 11.5 27.5t28.5 11.5t29 -11.5t12 -27.5q0 -18 -11.5 -29t-29.5 -11zM235 -10q-83 0 -127.5 43t-46.5 111h52q8 -109 122 -109q50 0 81.5 21.5t31.5 65.5q0 25 -10.5 44t-30.5 32t-35 20t-38 15l-27 9q-27 9 -44 17t-39.5 23
t-34 39t-11.5 55q0 60 44.5 97t109.5 37q74 0 114.5 -40.5t42.5 -93.5h-51q-3 40 -31.5 64.5t-74.5 24.5q-44 0 -74 -22.5t-30 -65.5q0 -21 8.5 -37t25.5 -27t31 -16.5t38 -13.5l24 -9q29 -10 48.5 -19t44 -26.5t37.5 -44t13 -61.5q0 -66 -46 -99.5t-117 -33.5z" />
    <glyph glyph-name="uni1E7C" unicode="&#x1e7c;" horiz-adv-x="634" 
d="M473 857q-3 -42 -26 -71t-62 -29q-24 0 -43.5 10.5t-30 22.5t-25.5 22.5t-31 10.5q-43 0 -50 -60h-42q5 44 27 72.5t61 28.5q25 0 44.5 -10.5t30 -22.5t25 -22.5t30.5 -10.5q44 0 50 59h42zM545 700h58l-252 -700h-69l-251 700h58l225 -632h6z" />
    <glyph glyph-name="uni1E7D" unicode="&#x1e7d;" horiz-adv-x="494" 
d="M402 657q-3 -42 -26 -71t-62 -29q-24 0 -43.5 10.5t-30 22.5t-25.5 22.5t-31 10.5q-42 0 -50 -60h-42q5 44 27 72.5t61 28.5q25 0 44.5 -10.5t30 -22.5t25 -22.5t30.5 -10.5q44 0 50 59h42zM213 0l-189 500h54l166 -446h5l167 446h54l-189 -500h-68z" />
    <glyph glyph-name="Wgrave" unicode="&#x1e80;" horiz-adv-x="864" 
d="M393 900l63 -145h-46l-68 145h51zM782 700h52l-160 -700h-67l-172 577h-6l-171 -577h-68l-159 700h54l138 -629h5l171 574h67l169 -574h5z" />
    <glyph glyph-name="wgrave" unicode="&#x1e81;" horiz-adv-x="672" 
d="M296 700l63 -145h-46l-68 145h51zM144 0l-120 500h51l101 -437h6l121 397h66l119 -398h6l103 438h51l-122 -500h-66l-121 404h-5l-124 -404h-66z" />
    <glyph glyph-name="Wacute" unicode="&#x1e82;" horiz-adv-x="864" 
d="M473 900h51l-68 -145h-46zM782 700h52l-160 -700h-67l-172 577h-6l-171 -577h-68l-159 700h54l138 -629h5l171 574h67l169 -574h5z" />
    <glyph glyph-name="wacute" unicode="&#x1e83;" horiz-adv-x="672" 
d="M376 700h51l-68 -145h-46zM144 0l-120 500h51l101 -437h6l121 397h66l119 -398h6l103 438h51l-122 -500h-66l-121 404h-5l-124 -404h-66z" />
    <glyph glyph-name="Wdieresis" unicode="&#x1e84;" horiz-adv-x="864" 
d="M320 776q-18 0 -31.5 13.5t-13.5 31.5q0 19 13.5 33t31.5 14q19 0 32.5 -14t13.5 -33q0 -18 -13.5 -31.5t-32.5 -13.5zM544 776q-18 0 -31.5 13.5t-13.5 31.5q0 19 13.5 33t31.5 14q19 0 32.5 -14t13.5 -33q0 -18 -13.5 -31.5t-32.5 -13.5zM782 700h52l-160 -700h-67
l-172 577h-6l-171 -577h-68l-159 700h54l138 -629h5l171 574h67l169 -574h5z" />
    <glyph glyph-name="wdieresis" unicode="&#x1e85;" horiz-adv-x="672" 
d="M252 570q-17 0 -29 12.5t-12 29.5q0 16 12.5 28.5t28.5 12.5q17 0 29 -12t12 -29t-12 -29.5t-29 -12.5zM420 570q-16 0 -28 12.5t-12 29.5t12 29t28 12q17 0 29 -12t12 -29t-12 -29.5t-29 -12.5zM144 0l-120 500h51l101 -437h6l121 397h66l119 -398h6l103 438h51
l-122 -500h-66l-121 404h-5l-124 -404h-66z" />
    <glyph glyph-name="uni1E8C" unicode="&#x1e8c;" horiz-adv-x="572" 
d="M174 776q-18 0 -31.5 13.5t-13.5 31.5q0 19 13.5 33t31.5 14q19 0 32.5 -14t13.5 -33q0 -18 -13.5 -31.5t-32.5 -13.5zM398 776q-18 0 -31.5 13.5t-13.5 31.5q0 19 13.5 33t31.5 14q19 0 32.5 -14t13.5 -33q0 -18 -13.5 -31.5t-32.5 -13.5zM479 0l-190 312h-5l-190 -312
h-63l219 361l-209 339h63l180 -292h5l180 292h62l-209 -339l219 -361h-62z" />
    <glyph glyph-name="uni1E8D" unicode="&#x1e8d;" horiz-adv-x="458" 
d="M145 570q-17 0 -29 12.5t-12 29.5q0 16 12 28.5t29 12.5t29 -12t12 -29t-12 -29.5t-29 -12.5zM313 570q-16 0 -28 12.5t-12 29.5t12 29t28 12q17 0 29 -12t12 -29t-12 -29.5t-29 -12.5zM24 0l173 261l-154 239h59l125 -194h6l122 194h59l-152 -239l172 -261h-60l-142 217
h-6l-143 -217h-59z" />
    <glyph glyph-name="uni1E90" unicode="&#x1e90;" horiz-adv-x="606" 
d="M247 766h-54l95 134h52l96 -134h-55l-65 94h-4zM157 50h367v-50h-447v28l373 619v3h-348v50h425v-28l-370 -619v-3z" />
    <glyph glyph-name="uni1E97" unicode="&#x1e97;" horiz-adv-x="323" 
d="M74 705q-17 0 -29 12.5t-12 29.5t12.5 29t28.5 12q17 0 29 -12t12 -29t-12 -29.5t-29 -12.5zM242 705q-16 0 -28 12.5t-12 29.5t12 29t28 12q17 0 29 -12t12 -29t-12 -29.5t-29 -12.5zM231 -10q-51 0 -76.5 27t-25.5 75v364h-106v44h36q42 0 58 15.5t16 55.5v64h47v-135
h120v-44h-120v-356q0 -65 61 -65q21 0 50 9v-44q-35 -10 -60 -10z" />
    <glyph glyph-name="uni1E98" unicode="&#x1e98;" horiz-adv-x="672" 
d="M336 548q-37 0 -64.5 27t-27.5 64t27 64t65 27t64.5 -27t26.5 -64t-27 -64t-64 -27zM337 585q21 0 36 16t15 38t-15 37.5t-36 15.5q-23 0 -38 -15.5t-15 -37.5q0 -23 15 -38.5t38 -15.5zM144 0l-120 500h51l101 -437h6l121 397h66l119 -398h6l103 438h51l-122 -500h-66
l-121 404h-5l-124 -404h-66z" />
    <glyph glyph-name="uni1E99" unicode="&#x1e99;" horiz-adv-x="494" 
d="M247 548q-37 0 -64.5 27t-27.5 64t27 64t65 27q37 0 64 -27t27 -64t-27 -64t-64 -27zM248 585q21 0 36 16t15 38t-15 37.5t-36 15.5q-23 0 -38 -15.5t-15 -37.5q0 -23 15 -38.5t38 -15.5zM108 -210q-26 0 -63 10v43q32 -9 56 -9q72 0 103 81l33 85h-22l-191 500h55
l169 -444h5l162 444h55l-217 -593q-40 -117 -145 -117z" />
    <glyph glyph-name="uni1E9E" unicode="&#x1e9e;" horiz-adv-x="1190" 
d="M519 174q0 -90 -59.5 -137t-153.5 -47q-99 0 -159 50.5t-70 146.5h54q23 -148 175 -148q70 0 114 33.5t44 100.5q0 37 -13.5 64.5t-39.5 46t-48 28.5t-54 20l-36 11q-23 8 -36.5 13t-37.5 16t-38.5 24t-30.5 31t-23.5 43t-7.5 55q0 83 59.5 134t150.5 51q92 0 150.5 -53
t63.5 -138h-54q-6 62 -47 102t-112 40q-70 0 -114 -38t-44 -97q0 -27 11 -49t23.5 -34.5t39 -26t38.5 -17.5t41 -14l31 -10q26 -9 42 -15t46.5 -23t48 -36.5t32 -53t14.5 -73.5zM1108 174q0 -90 -59.5 -137t-153.5 -47q-99 0 -159 50.5t-70 146.5h54q23 -148 175 -148
q70 0 114 33.5t44 100.5q0 37 -13.5 64.5t-39.5 46t-48 28.5t-54 20l-36 11q-23 8 -36.5 13t-37.5 16t-38.5 24t-30.5 31t-23.5 43t-7.5 55q0 83 59.5 134t150.5 51q92 0 150.5 -53t63.5 -138h-54q-6 62 -47 102t-112 40q-70 0 -114 -38t-44 -97q0 -27 11 -49t23.5 -34.5
t39 -26t38.5 -17.5t41 -14l31 -10q26 -9 42 -15t46.5 -23t48 -36.5t32 -53t14.5 -73.5z" />
    <glyph glyph-name="uni1EA0" unicode="&#x1ea0;" horiz-adv-x="606" 
d="M575 0h-57l-71 212h-288l-71 -212h-57l237 700h69zM175 260h256l-126 375h-5zM304 -95q17 0 29 -11t12 -27q0 -18 -12 -29.5t-29 -11.5t-28.5 11.5t-11.5 29.5q0 16 11.5 27t28.5 11z" />
    <glyph glyph-name="uni1EA1" unicode="&#x1ea1;" horiz-adv-x="511" 
d="M461 42h14v-42h-28q-35 0 -53.5 15.5t-22.5 50.5q-61 -76 -167 -76q-68 0 -111.5 35t-43.5 104q0 68 48 107.5t128 46.5l143 13v37q0 60 -31 95.5t-92 35.5q-104 0 -125 -111h-51q8 70 54 113.5t121 43.5q81 0 128 -46t47 -126v-252q0 -44 42 -44zM368 189v64l-132 -12
q-62 -5 -99 -33.5t-37 -77.5t30 -72t77 -23q66 0 113.5 38t47.5 116zM247 -95q17 0 29 -11t12 -27q0 -18 -12 -29.5t-29 -11.5t-28.5 11.5t-11.5 29.5q0 16 11.5 27t28.5 11z" />
    <glyph glyph-name="uni1EB8" unicode="&#x1eb8;" horiz-adv-x="581" 
d="M155 49h370v-49h-423v700h413v-49h-360v-272h324v-48h-324v-282zM314 -174q-17 0 -28.5 11.5t-11.5 29.5q0 16 11.5 27t28.5 11t29 -11t12 -27q0 -18 -12 -29.5t-29 -11.5z" />
    <glyph glyph-name="uni1EB9" unicode="&#x1eb9;" horiz-adv-x="558" 
d="M496 266q0 -15 -1 -25h-383q3 -94 51 -150t126 -56q56 0 96 25.5t55 73.5h51q-17 -70 -71.5 -107t-130.5 -37q-101 0 -164.5 70t-63.5 185q0 120 63 192.5t162 72.5q92 0 151 -64.5t59 -179.5zM286 465q-72 0 -119.5 -51t-53.5 -129h333q-1 82 -45 131t-115 49zM286 -95
q17 0 29 -11t12 -27q0 -18 -12 -29.5t-29 -11.5t-28.5 11.5t-11.5 29.5q0 16 11.5 27t28.5 11z" />
    <glyph glyph-name="uni1EBC" unicode="&#x1ebc;" horiz-adv-x="581" 
d="M464 857q-3 -42 -26 -71t-62 -29q-24 0 -43.5 10.5t-30 22.5t-25.5 22.5t-31 10.5q-42 0 -50 -60h-42q5 44 27 72.5t61 28.5q25 0 44.5 -10.5t30 -22.5t25 -22.5t30.5 -10.5q44 0 50 59h42zM155 49h370v-49h-423v700h413v-49h-360v-272h324v-48h-324v-282z" />
    <glyph glyph-name="uni1EBD" unicode="&#x1ebd;" horiz-adv-x="558" 
d="M224 623q-42 0 -50 -60h-42q5 44 27 72.5t61 28.5q25 0 44.5 -10.5t30 -22.5t25 -22.5t30.5 -10.5q44 0 50 59h42q-3 -42 -26 -71t-62 -29q-24 0 -43.5 10.5t-30 22.5t-25.5 22.5t-31 10.5zM496 266q0 -15 -1 -25h-383q3 -94 51 -150t126 -56q56 0 96 25.5t55 73.5h51
q-17 -70 -71.5 -107t-130.5 -37q-101 0 -164.5 70t-63.5 185q0 120 63 192.5t162 72.5q92 0 151 -64.5t59 -179.5zM286 465q-72 0 -119.5 -51t-53.5 -129h333q-1 82 -45 131t-115 49z" />
    <glyph glyph-name="uni1ECA" unicode="&#x1eca;" horiz-adv-x="258" 
d="M156 700v-700h-54v700h54zM129 -174q-17 0 -28.5 11.5t-11.5 29.5q0 16 11.5 27t28.5 11t29 -11t12 -27q0 -18 -12 -29.5t-29 -11.5z" />
    <glyph glyph-name="uni1ECB" unicode="&#x1ecb;" horiz-adv-x="215" 
d="M107 595q-17 0 -28.5 11t-11.5 29q0 16 11.5 27.5t28.5 11.5t29 -11.5t12 -27.5q0 -18 -11.5 -29t-29.5 -11zM82 0v500h51v-500h-51zM107 -174q-17 0 -28.5 11.5t-11.5 29.5q0 16 11.5 27t28.5 11t29 -11t12 -27q0 -18 -12 -29.5t-29 -11.5z" />
    <glyph glyph-name="uni1ECC" unicode="&#x1ecc;" horiz-adv-x="813" 
d="M407 -10q-142 0 -236 102t-94 258t94 258t235 102t235.5 -102t94.5 -258t-94 -258t-235 -102zM407 40q118 0 196.5 88.5t78.5 221.5t-79 221.5t-197 88.5q-117 0 -196 -88.5t-79 -221.5t79 -221.5t197 -88.5zM407 -174q-17 0 -28.5 11.5t-11.5 29.5q0 16 11.5 27t28.5 11
t29 -11t12 -27q0 -18 -12 -29.5t-29 -11.5z" />
    <glyph glyph-name="uni1ECD" unicode="&#x1ecd;" horiz-adv-x="598" 
d="M298 -10q-103 0 -170 75t-67 185q0 112 66 186t171 74q103 0 171 -75t68 -185q0 -112 -67.5 -186t-171.5 -74zM298 37q83 0 135.5 62t52.5 151t-53 151t-135 62q-83 0 -134.5 -61.5t-51.5 -151.5q0 -89 51.5 -151t134.5 -62zM299 -174q-17 0 -28.5 11.5t-11.5 29.5
q0 16 11.5 27t28.5 11t29 -11t12 -27q0 -18 -12 -29.5t-29 -11.5z" />
    <glyph glyph-name="uni1EE4" unicode="&#x1ee4;" horiz-adv-x="716" 
d="M613 700v-447q0 -125 -69.5 -194t-184.5 -69t-186 69t-71 194v447h54v-438q0 -110 56.5 -166t146.5 -56t145.5 56t55.5 166v438h53zM358 -174q-17 0 -28.5 11.5t-11.5 29.5q0 16 11.5 27t28.5 11t29 -11t12 -27q0 -18 -12 -29.5t-29 -11.5z" />
    <glyph glyph-name="uni1EE5" unicode="&#x1ee5;" 
d="M453 500v-500h-45l-6 59h-5q-52 -69 -144 -69q-76 0 -123.5 47.5t-47.5 136.5v326h51v-313q0 -76 35 -113t91 -37q61 0 102 41t41 122v300h51zM268 -174q-17 0 -28.5 11.5t-11.5 29.5q0 16 11.5 27t28.5 11t29 -11t12 -27q0 -18 -12 -29.5t-29 -11.5z" />
    <glyph glyph-name="Ygrave" unicode="&#x1ef2;" horiz-adv-x="616" 
d="M269 900l63 -145h-46l-68 145h51zM519 700h67l-251 -350v-350h-53v350l-251 350h66l208 -291h6z" />
    <glyph glyph-name="ygrave" unicode="&#x1ef3;" horiz-adv-x="494" 
d="M207 700l63 -145h-46l-68 145h51zM108 -210q-26 0 -63 10v43q32 -9 56 -9q72 0 103 81l33 85h-22l-191 500h55l169 -444h5l162 444h55l-217 -593q-40 -117 -145 -117z" />
    <glyph glyph-name="uni1EF8" unicode="&#x1ef8;" horiz-adv-x="616" 
d="M464 857q-3 -42 -26 -71t-62 -29q-24 0 -43.5 10.5t-30 22.5t-25.5 22.5t-31 10.5q-42 0 -50 -60h-42q5 44 27 72.5t61 28.5q25 0 44.5 -10.5t30 -22.5t25 -22.5t30.5 -10.5q44 0 50 59h42zM519 700h67l-251 -350v-350h-53v350l-251 350h66l208 -291h6z" />
    <glyph glyph-name="uni1EF9" unicode="&#x1ef9;" horiz-adv-x="494" 
d="M402 657q-3 -42 -26 -71t-62 -29q-24 0 -43.5 10.5t-30 22.5t-25.5 22.5t-31 10.5q-42 0 -50 -60h-42q5 44 27 72.5t61 28.5q25 0 44.5 -10.5t30 -22.5t25 -22.5t30.5 -10.5q44 0 50 59h42zM108 -210q-26 0 -63 10v43q32 -9 56 -9q72 0 103 81l33 85h-22l-191 500h55
l169 -444h5l162 444h55l-217 -593q-40 -117 -145 -117z" />
    <glyph glyph-name="uni200B" unicode="&#x200b;" horiz-adv-x="0" 
 />
    <glyph glyph-name="endash" unicode="&#x2013;" horiz-adv-x="628" 
d="M46 334h536v-46h-536v46z" />
    <glyph glyph-name="emdash" unicode="&#x2014;" horiz-adv-x="806" 
d="M46 333h714v-44h-714v44z" />
    <glyph glyph-name="quoteleft" unicode="&#x2018;" horiz-adv-x="220" 
d="M107 521q-23 0 -34.5 16t-11.5 42q0 82 78 132l19 -24q-47 -37 -47 -81q18 1 29.5 -10.5t11.5 -28.5q0 -20 -12.5 -33t-32.5 -13z" />
    <glyph glyph-name="quoteright" unicode="&#x2019;" horiz-adv-x="220" 
d="M112 710q23 0 35 -16t12 -41q0 -44 -23.5 -78t-55.5 -54l-18 23q47 37 47 81q-18 -1 -29.5 10.5t-11.5 29.5q0 20 12.5 32.5t31.5 12.5z" />
    <glyph glyph-name="quotesinglbase" unicode="&#x201a;" horiz-adv-x="235" 
d="M120 79q23 0 34.5 -16t11.5 -41q0 -84 -78 -132l-18 23q47 37 47 81q-18 -1 -30 10.5t-12 29.5q0 20 12.5 32.5t32.5 12.5z" />
    <glyph glyph-name="quotedblleft" unicode="&#x201c;" horiz-adv-x="357" 
d="M107 521q-23 0 -34.5 16t-11.5 42q0 82 78 132l19 -24q-47 -37 -47 -81q18 1 29.5 -10.5t11.5 -28.5q0 -20 -12.5 -33t-32.5 -13zM245 521q-23 0 -35 16.5t-12 41.5q0 44 23.5 77.5t55.5 54.5l18 -24q-47 -37 -47 -81q18 1 29.5 -10.5t11.5 -28.5q0 -20 -12.5 -33
t-31.5 -13z" />
    <glyph glyph-name="quotedblright" unicode="&#x201d;" horiz-adv-x="357" 
d="M112 710q23 0 35 -16t12 -41q0 -44 -23.5 -78t-55.5 -54l-18 23q47 37 47 81q-18 -1 -29.5 10.5t-11.5 29.5q0 20 12.5 32.5t31.5 12.5zM250 710q23 0 34.5 -16t11.5 -41q0 -84 -78 -132l-18 23q46 38 47 81q-18 -1 -30 10.5t-12 29.5q0 20 12.5 32.5t32.5 12.5z" />
    <glyph glyph-name="quotedblbase" unicode="&#x201e;" horiz-adv-x="372" 
d="M120 79q23 0 34.5 -16t11.5 -41q0 -84 -78 -132l-18 23q47 37 47 81q-18 -1 -30 10.5t-12 29.5q0 20 12.5 32.5t32.5 12.5zM257 79q23 0 35 -16t12 -41q0 -44 -23.5 -78t-55.5 -54l-18 23q47 37 47 81q-18 -1 -30 10.5t-12 29.5q0 20 13 32.5t32 12.5z" />
    <glyph glyph-name="dagger" unicode="&#x2020;" horiz-adv-x="603" 
d="M501 496v-44h-173v-452h-53v452h-173v44h173v204h53v-204h173z" />
    <glyph glyph-name="daggerdbl" unicode="&#x2021;" horiz-adv-x="603" 
d="M501 452h-173v-204h173v-44h-173v-204h-53v204h-173v44h173v204h-173v44h173v204h53v-204h173v-44z" />
    <glyph glyph-name="bullet" unicode="&#x2022;" horiz-adv-x="182" 
d="M92 267q-19 0 -32.5 13t-13.5 30q0 19 13.5 32t32.5 13q18 0 30.5 -13t12.5 -32q0 -17 -12.5 -30t-30.5 -13z" />
    <glyph glyph-name="ellipsis" unicode="&#x2026;" horiz-adv-x="682" 
d="M114 -5q-18 0 -31.5 13t-13.5 31q0 19 13.5 32t31.5 13t31 -13t13 -32q0 -18 -13 -31t-31 -13zM342 -5q-19 0 -32 13t-13 31q0 19 13 32t32 13q18 0 30.5 -13t12.5 -32q0 -18 -12.5 -31t-30.5 -13zM570 -5q-19 0 -32.5 13t-13.5 31q0 19 13.5 32t32.5 13q18 0 30.5 -13
t12.5 -32q0 -18 -12.5 -31t-30.5 -13z" />
    <glyph glyph-name="perthousand" unicode="&#x2030;" horiz-adv-x="1007" 
d="M375 501q0 -61 -44.5 -105t-104.5 -44q-61 0 -105 44t-44 105t44 105t105 44q60 0 104.5 -44t44.5 -105zM571 640h63l-435 -640h-63zM128 501q0 -43 28 -70.5t70 -27.5q43 0 70.5 27.5t27.5 70.5t-27.5 70.5t-70.5 27.5q-42 0 -70 -27.5t-28 -70.5zM796 288q61 0 105 -44
t44 -105t-44 -105t-105 -44q-78 0 -123 67q-21 -31 -53.5 -49t-69.5 -18q-62 0 -105.5 44t-43.5 105t44 105t105 44q37 0 69.5 -18t53.5 -49q45 67 123 67zM549 41q43 0 71 27.5t28 70.5t-28 70.5t-71 27.5q-41 0 -69 -27.5t-28 -70.5t28 -70.5t69 -27.5zM796 41
q43 0 70.5 27.5t27.5 70.5t-27.5 70.5t-70.5 27.5q-42 0 -70 -27.5t-28 -70.5t28 -70.5t70 -27.5z" />
    <glyph glyph-name="guilsinglleft" unicode="&#x2039;" horiz-adv-x="280" 
d="M159 96l-128 202l128 202h60l-130 -202l130 -202h-60z" />
    <glyph glyph-name="guilsinglright" unicode="&#x203a;" horiz-adv-x="280" 
d="M122 96h-61l130 202l-130 202h61l128 -202z" />
    <glyph glyph-name="uni2042" unicode="&#x2042;" horiz-adv-x="832" 
d="M545 440l-109 64l1 -126h-42l1 126l-109 -64l-21 37l109 63l-109 61l21 37l109 -63l-1 125h42l-1 -125l109 63l21 -37l-109 -61l109 -63zM341 260l21 -37l-110 -62l110 -62l-21 -37l-110 64l2 -126h-42l1 126l-110 -64l-21 37l110 62l-110 62l21 37l110 -65l-1 127h42
l-2 -126zM771 223l-109 -62l109 -62l-21 -37l-110 64l2 -126h-42l1 126l-110 -64l-20 37l109 62l-109 62l20 37l110 -64l-1 126h42l-2 -126l110 64z" />
    <glyph glyph-name="fraction" unicode="&#x2044;" horiz-adv-x="288" 
d="M415 700l-490 -700h-52l491 700h51z" />
    <glyph glyph-name="uni2051" unicode="&#x2051;" horiz-adv-x="423" 
d="M362 621l-110 -62l110 -62l-21 -37l-110 65l2 -127h-42l1 126l-110 -64l-21 37l110 63l-110 61l21 37l110 -64l-1 126h42l-2 -126l110 64zM341 240l21 -37l-110 -62l110 -62l-21 -37l-110 64l2 -126h-42l1 126l-110 -64l-21 37l110 62l-110 62l21 37l110 -65l-1 127h42
l-2 -126z" />
    <glyph glyph-name="uni2070" unicode="&#x2070;" horiz-adv-x="365" 
d="M183 335q-64 0 -102 50t-38 148q0 96 38.5 146.5t101.5 50.5t100.5 -50.5t37.5 -148.5q0 -97 -37.5 -146.5t-100.5 -49.5zM183 372q42 0 68.5 41t26.5 119t-26.5 119t-68.5 41q-43 0 -69 -40.5t-26 -119.5t26 -119.5t69 -40.5z" />
    <glyph glyph-name="uni2074" unicode="&#x2074;" horiz-adv-x="360" 
d="M335 463v-34h-72v-89h-39v89h-181v21l175 275h45v-262h72zM93 463h131v205h-4z" />
    <glyph glyph-name="uni2075" unicode="&#x2075;" horiz-adv-x="345" 
d="M178 585q56 0 90 -35t34 -90q0 -57 -36.5 -91t-96.5 -34q-55 0 -88.5 30t-37.5 82h40q4 -36 27 -56.5t59 -20.5q42 0 67 24t25 65t-24 67t-65 26q-60 0 -85 -46l-36 8l21 211h214v-36h-178l-14 -133q31 29 84 29z" />
    <glyph glyph-name="uni2076" unicode="&#x2076;" horiz-adv-x="349" 
d="M182 582q54 0 88.5 -34t34.5 -87q0 -55 -36 -90.5t-95 -35.5t-95 35.5t-36 93.5q0 57 48 127l90 134h51l-110 -158q25 15 60 15zM174 371q41 0 65 26t24 65q0 37 -23.5 61.5t-64.5 24.5t-65 -24.5t-24 -61.5q0 -39 24 -65t64 -26z" />
    <glyph glyph-name="uni2077" unicode="&#x2077;" horiz-adv-x="327" 
d="M43 725h259v-24q-71 -77 -108 -159.5t-46 -201.5h-42q9 116 41 195t91 151v2h-195v37z" />
    <glyph glyph-name="uni2078" unicode="&#x2078;" horiz-adv-x="353" 
d="M238 544q30 -11 50.5 -37.5t20.5 -63.5q0 -47 -36.5 -77.5t-95.5 -30.5q-60 0 -97 30.5t-37 78.5q0 37 21.5 63.5t50.5 36.5v2q-58 22 -58 84q0 45 34 72.5t86 27.5q51 0 84.5 -27.5t33.5 -72.5q0 -60 -57 -84v-2zM177 697q-34 0 -55.5 -18t-21.5 -50q0 -31 22 -49.5
t54 -18.5q33 0 55 18.5t22 49.5t-21.5 49.5t-54.5 18.5zM177 370q38 0 63.5 20.5t25.5 54.5t-24 57t-66 23t-65.5 -23t-23.5 -56q0 -35 25.5 -55.5t64.5 -20.5z" />
    <glyph glyph-name="uni2079" unicode="&#x2079;" horiz-adv-x="349" 
d="M166 483q-53 0 -88 34t-35 87q0 55 36.5 90.5t95.5 35.5q58 0 94 -35.5t36 -93.5t-47 -127l-90 -134h-51l110 158q-26 -15 -61 -15zM175 694q-41 0 -65 -26t-24 -65q0 -37 23.5 -61.5t64.5 -24.5t65 24.5t24 61.5q0 39 -24 65t-64 26z" />
    <glyph glyph-name="uni2080" unicode="&#x2080;" horiz-adv-x="365" 
d="M183 -105q-64 0 -102 50t-38 148q0 96 38.5 146.5t101.5 50.5t100.5 -50.5t37.5 -148.5q0 -97 -37.5 -146.5t-100.5 -49.5zM183 -68q42 0 68.5 41t26.5 119t-26.5 119t-68.5 41q-43 0 -69 -40.5t-26 -119.5t26 -119.5t69 -40.5z" />
    <glyph glyph-name="uni2081" unicode="&#x2081;" horiz-adv-x="226" 
d="M118 -100v285h-75v33h36q20 0 31.5 13t11.5 33v21h39v-385h-43z" />
    <glyph glyph-name="uni2082" unicode="&#x2082;" horiz-adv-x="335" 
d="M156 33q-62 -41 -65 -96h199v-37h-247v18q0 85 84 142l58 38q64 41 64 86q0 30 -21 49.5t-54 19.5q-40 0 -62 -25.5t-25 -56.5h-43q3 48 37.5 83.5t93.5 35.5q52 0 84.5 -29t32.5 -75q0 -22 -7 -40.5t-21.5 -33t-21 -20t-21.5 -15.5z" />
    <glyph glyph-name="uni2083" unicode="&#x2083;" horiz-adv-x="349" 
d="M237 98q30 -9 49 -34t19 -59q0 -48 -37 -79t-97 -31q-55 0 -88.5 28t-39.5 78h42q6 -31 27.5 -50t58.5 -19q39 0 65 20.5t26 52.5t-22 53t-61 21h-38v36h35q32 0 52 19t20 51q0 31 -21 50t-55 19q-31 0 -53.5 -17t-28.5 -47h-42q4 45 40.5 72.5t85.5 27.5q50 0 83.5 -29
t33.5 -76q0 -57 -54 -85v-2z" />
    <glyph glyph-name="uni2084" unicode="&#x2084;" horiz-adv-x="360" 
d="M335 23v-34h-72v-89h-39v89h-181v21l175 275h45v-262h72zM93 23h131v205h-4z" />
    <glyph glyph-name="uni2085" unicode="&#x2085;" horiz-adv-x="345" 
d="M178 145q56 0 90 -35t34 -90q0 -57 -36.5 -91t-96.5 -34q-55 0 -88.5 30t-37.5 82h40q4 -36 27 -56.5t59 -20.5q42 0 67 24t25 65t-24 67t-65 26q-60 0 -85 -46l-36 8l21 211h214v-36h-178l-14 -133q31 29 84 29z" />
    <glyph glyph-name="uni2086" unicode="&#x2086;" horiz-adv-x="349" 
d="M182 142q54 0 88.5 -34t34.5 -87q0 -55 -36 -90.5t-95 -35.5t-95 35.5t-36 93.5q0 57 48 127l90 134h51l-110 -158q26 15 60 15zM174 -69q41 0 65 26t24 65q0 37 -23.5 61.5t-64.5 24.5t-65 -24.5t-24 -61.5q0 -39 24 -65t64 -26z" />
    <glyph glyph-name="uni2087" unicode="&#x2087;" horiz-adv-x="327" 
d="M43 285h259v-24q-71 -77 -108 -159.5t-46 -201.5h-42q9 116 41 195t91 151v2h-195v37z" />
    <glyph glyph-name="uni2088" unicode="&#x2088;" horiz-adv-x="353" 
d="M238 104q30 -11 50.5 -37.5t20.5 -63.5q0 -47 -36.5 -77.5t-95.5 -30.5q-60 0 -97 30.5t-37 78.5q0 37 21.5 63.5t50.5 36.5v2q-58 22 -58 84q0 45 34 72.5t86 27.5q51 0 84.5 -27.5t33.5 -72.5q0 -60 -57 -84v-2zM177 257q-34 0 -55.5 -18t-21.5 -50q0 -31 22 -49.5
t54 -18.5q33 0 55 18.5t22 49.5t-21.5 49.5t-54.5 18.5zM177 -70q38 0 63.5 20.5t25.5 54.5t-24 57t-66 23t-65.5 -23t-23.5 -56q0 -35 25.5 -55.5t64.5 -20.5z" />
    <glyph glyph-name="uni2089" unicode="&#x2089;" horiz-adv-x="349" 
d="M166 43q-53 0 -88 34t-35 87q0 55 36.5 90.5t95.5 35.5q58 0 94 -35.5t36 -93.5t-47 -127l-90 -134h-51l110 158q-25 -15 -61 -15zM175 254q-41 0 -65 -26t-24 -65q0 -37 23.5 -61.5t64.5 -24.5t65 24.5t24 61.5q0 39 -24 65t-64 26z" />
    <glyph glyph-name="Euro" unicode="&#x20ac;" horiz-adv-x="633" 
d="M582 85l20 -40q-70 -55 -184 -55q-110 0 -180.5 59.5t-94.5 163.5h-84v46h76q-3 29 -3 60q0 34 5 72h-78v45h88q27 99 98.5 156.5t175.5 57.5q103 0 172 -48l-22 -40q-71 43 -149 43q-84 0 -140 -45.5t-80 -123.5h319l-9 -45h-320q-6 -35 -6 -71t4 -61h285l-10 -46h-267
q22 -83 78 -129t146 -46q96 0 160 47z" />
    <glyph glyph-name="uni2113" unicode="&#x2113;" horiz-adv-x="425" 
d="M176 148q0 -63 29.5 -87.5t78.5 -24.5q34 0 70 14v-45q-30 -15 -80 -15q-65 0 -105.5 37.5t-40.5 108.5v119q-30 -9 -82 -20v45q39 8 82 23v199q0 64 28.5 106t91.5 42q58 0 86.5 -40t28.5 -95q0 -165 -187 -243v-124zM176 492v-170q143 67 143 192q0 38 -19.5 66.5
t-53.5 28.5q-70 0 -70 -117z" />
    <glyph glyph-name="trademark" unicode="&#x2122;" horiz-adv-x="750" 
d="M37 660v40h247v-40h-101v-310h-45v310h-101zM642 700h57v-350h-44v270h-4l-103 -230h-45l-104 230h-3v-270h-43v350h55l117 -258h3z" />
    <glyph glyph-name="uni2153" unicode="&#x2153;" horiz-adv-x="885" 
d="M177 315v285h-75v33h36q20 0 32 13t12 33v21h38v-385h-43zM670 700l-491 -700h-51l490 700h52zM715 198q30 -9 49 -34t19 -59q0 -48 -37 -79t-97 -31q-55 0 -89 28t-39 78h42q11 -69 86 -69q39 0 65 20.5t26 52.5t-22.5 53t-61.5 21h-38v36h36q32 0 52 19t20 51
q0 31 -21.5 50t-55.5 19q-31 0 -53 -17t-28 -47h-42q4 45 40.5 72.5t85.5 27.5q50 0 83.5 -29t33.5 -76q0 -57 -54 -85v-2z" />
    <glyph glyph-name="uni2154" unicode="&#x2154;" horiz-adv-x="994" 
d="M215 448q-62 -41 -65 -96h199v-37h-247v18q0 86 85 142l58 38q63 41 63 86q0 30 -21 49.5t-54 19.5q-40 0 -62 -25.5t-25 -56.5h-43q3 48 37.5 83.5t93.5 35.5q52 0 84.5 -29t32.5 -75q0 -29 -15 -54t-26 -34t-30 -21zM779 700l-491 -700h-51l490 700h52zM824 198
q30 -9 49 -34t19 -59q0 -48 -37.5 -79t-96.5 -31q-55 0 -89 28t-39 78h42q11 -69 86 -69q39 0 65 20.5t26 52.5t-22.5 53t-61.5 21h-38v36h35q33 0 53 19t20 51q0 31 -21.5 50t-55.5 19q-31 0 -53 -17t-29 -47h-41q4 45 40.5 72.5t85.5 27.5q50 0 83.5 -29t33.5 -76
q0 -56 -54 -85v-2z" />
    <glyph glyph-name="arrowup" unicode="&#x2191;" horiz-adv-x="700" 
d="M639 450l-37 -37l-228 230v-652h-47v655l-229 -233l-37 37l286 281h6z" />
    <glyph glyph-name="arrowdown" unicode="&#x2193;" horiz-adv-x="700" 
d="M602 278l37 -37l-286 -281h-6l-286 281l37 37l228 -230v652h48v-654z" />
    <glyph glyph-name="arrowboth" unicode="&#x2194;" horiz-adv-x="971" 
d="M660 639l280 -286v-6l-280 -286l-38 37l230 228h-733l230 -228l-37 -37l-281 286v6l281 286l37 -37l-232 -228h737l-232 228z" />
    <glyph glyph-name="arrowupdn" unicode="&#x2195;" horiz-adv-x="700" 
d="M374 -25l228 230l37 -37l-286 -281h-6l-286 281l37 37l229 -233v737l-229 -233l-37 37l286 281h6l286 -281l-37 -37l-228 230v-731z" />
    <glyph glyph-name="uni2196" unicode="&#x2196;" horiz-adv-x="641" 
d="M610 99l-37 -37l-464 462v-331h-47v412l5 5h413v-47h-336z" />
    <glyph glyph-name="uni2197" unicode="&#x2197;" horiz-adv-x="641" 
d="M574 610l5 -5v-412h-47v331l-464 -462l-37 37l466 464h-336v47h413z" />
    <glyph glyph-name="uni2198" unicode="&#x2198;" horiz-adv-x="640" 
d="M531 508h48v-413l-5 -5h-412v47h331l-462 464l36 38l464 -466v335z" />
    <glyph glyph-name="uni2199" unicode="&#x2199;" horiz-adv-x="640" 
d="M609 601l-462 -464h331v-47h-412l-5 5v413h48v-335l464 466z" />
    <glyph glyph-name="partialdiff" unicode="&#x2202;" horiz-adv-x="606" 
d="M529 307q0 -160 -59.5 -238.5t-170.5 -78.5q-91 0 -156.5 62t-65.5 165q0 105 62.5 167t158.5 62q58 0 110.5 -30.5t70.5 -73.5h6q-8 161 -50.5 242t-138.5 81q-62 0 -101 -36.5t-51 -76.5h-49q10 62 65 110t136 48q66 0 112.5 -28t72.5 -83t37 -125.5t11 -166.5zM301 36
q76 0 123 54.5t47 135.5q0 78 -50.5 126.5t-125.5 48.5q-77 0 -123 -51t-46 -132q0 -80 50 -131t125 -51z" />
    <glyph glyph-name="emptyset" unicode="&#x2205;" horiz-adv-x="806" 
d="M644 541q82 -93 82 -221q0 -138 -94.5 -234t-228.5 -96q-119 0 -207 77l-73 -77l-33 32l73 77q-83 94 -83 221q0 138 94.5 234t228.5 96q118 0 208 -77l73 77l33 -32zM132 320q0 -106 65 -185l380 402q-75 65 -175 65q-111 0 -190.5 -82.5t-79.5 -199.5zM402 38
q112 0 192 82.5t80 199.5q0 107 -64 185l-381 -403q75 -64 173 -64z" />
    <glyph glyph-name="product" unicode="&#x220f;" horiz-adv-x="673" 
d="M571 700v-700h-54v651h-361v-651h-54v700h469z" />
    <glyph glyph-name="summation" unicode="&#x2211;" horiz-adv-x="574" 
d="M82 672v28h426v-48h-342v-3l241 -285v-28l-242 -284v-3h353v-49h-441v28l277 321v3z" />
    <glyph glyph-name="minus" unicode="&#x2212;" horiz-adv-x="527" 
d="M60 303h408v-46h-408v46z" />
    <glyph glyph-name="radical" unicode="&#x221a;" horiz-adv-x="668" 
d="M621 700v-46h-113l-235 -654h-69l-180 500h58l153 -432h7l225 632h154z" />
    <glyph glyph-name="infinity" unicode="&#x221e;" horiz-adv-x="825" 
d="M598 511q63 0 114 -49.5t51 -125.5t-51 -125.5t-114 -49.5q-105 0 -183 129h-5q-78 -129 -183 -129q-63 0 -114.5 49.5t-51.5 125.5t51.5 125.5t114.5 49.5q104 0 183 -128h5q79 128 183 128zM229 207q49 0 86.5 31.5t74.5 97.5q-37 66 -74.5 97.5t-86.5 31.5
q-46 0 -82 -35t-36 -94t36 -94t82 -35zM595 207q47 0 83 35t36 94t-36 94t-83 35q-48 0 -85.5 -31.5t-75.5 -97.5q38 -66 75.5 -97.5t85.5 -31.5z" />
    <glyph glyph-name="integral" unicode="&#x222b;" horiz-adv-x="509" 
d="M389 710q53 0 90 -45l-27 -37q-27 33 -64 33q-29 0 -49 -18.5t-24 -54.5l-69 -677q-6 -61 -41 -91t-85 -30q-52 0 -89 45l27 37q27 -33 63 -33q29 0 49 18.5t24 54.5l69 677q6 62 41.5 91.5t84.5 29.5z" />
    <glyph glyph-name="approxequal" unicode="&#x2248;" horiz-adv-x="527" 
d="M500 453q-6 -60 -39 -101.5t-91 -41.5q-37 0 -68 17.5t-48 38t-42 38t-52 17.5q-38 0 -60 -28t-27 -73h-45q8 61 40.5 102t89.5 41q37 0 68 -17.5t48 -38t42 -38t52 -17.5q39 0 61 28t27 73h44zM500 239q-6 -60 -39 -101.5t-91 -41.5q-37 0 -68 17.5t-48 38t-42 38
t-52 17.5q-38 0 -60 -28t-27 -73h-45q8 61 40.5 102t89.5 41q37 0 68 -17.5t48 -38t42 -38t52 -17.5q39 0 61 28t27 73h44z" />
    <glyph glyph-name="notequal" unicode="&#x2260;" horiz-adv-x="527" 
d="M469 365h-128l-108 -170h236v-44h-264l-65 -101l-35 21l51 80h-97v44h125l109 170h-234v45h263l65 102l35 -21l-52 -81h99v-45z" />
    <glyph glyph-name="lessequal" unicode="&#x2264;" horiz-adv-x="527" 
d="M470 576v-54l-359 -182v-4l359 -183v-54l-412 212v53zM470 0h-412v46h412v-46z" />
    <glyph glyph-name="greaterequal" unicode="&#x2265;" horiz-adv-x="527" 
d="M58 576l412 -212v-53l-412 -212v54l358 183v4l-358 182v54zM58 0v46h412v-46h-412z" />
    <glyph glyph-name="lozenge" unicode="&#x25ca;" horiz-adv-x="595" 
d="M297 570l267 -290l-267 -290l-266 290zM297 503l-199 -223l199 -223l201 223z" />
    <glyph glyph-name="smileface" unicode="&#x263a;" horiz-adv-x="874" 
d="M797 350q0 -150 -105 -255t-255 -105t-255 106t-105 254q0 149 105.5 254.5t254.5 105.5q151 0 255.5 -105.5t104.5 -254.5zM249 533v-45h44v-128h46v128h44v45h-134zM491 533v-45h45v-128h45v128h45v45h-135zM437 81q109 0 187 76t81 183l-46 8q0 -92 -65 -156.5
t-157 -64.5q-91 0 -156 64.5t-65 156.5l-46 -8q3 -107 81 -183t186 -76z" />
    <glyph glyph-name="uni2731" unicode="&#x2731;" horiz-adv-x="527" 
d="M463 370l-155 -90l155 -90l-23 -40l-154 91l1 -181h-46l1 181l-154 -91l-22 40l154 90l-154 90l22 40l154 -91l-1 181h46l-1 -181l154 91z" />
    <glyph glyph-name="uni2780" unicode="&#x2780;" horiz-adv-x="857" 
d="M428 -10q-145 0 -248 104t-103 256t103 256t248 104t248.5 -104t103.5 -256t-103.5 -256t-248.5 -104zM428 31q127 0 218 94.5t91 224.5t-91 224.5t-218 94.5t-217.5 -94.5t-90.5 -224.5t90.5 -224.5t217.5 -94.5zM411 157v285h-75v33h36q20 0 31.5 13t11.5 33v21h39
v-385h-43z" />
    <glyph glyph-name="uni2781" unicode="&#x2781;" horiz-adv-x="857" 
d="M428 -10q-145 0 -248 104t-103 256t103 256t248 104t248.5 -104t103.5 -256t-103.5 -256t-248.5 -104zM428 31q127 0 218 94.5t91 224.5t-91 224.5t-218 94.5t-217.5 -94.5t-90.5 -224.5t90.5 -224.5t217.5 -94.5zM415 298q-62 -41 -65 -96h199v-37h-247v18q0 85 84 142
l58 38q64 41 64 86q0 30 -21 49.5t-54 19.5q-40 0 -62 -25.5t-25 -56.5h-43q3 48 37.5 83.5t93.5 35.5q52 0 84.5 -29t32.5 -75q0 -22 -7 -40.5t-21.5 -33t-21 -20t-21.5 -15.5z" />
    <glyph glyph-name="uni2782" unicode="&#x2782;" horiz-adv-x="857" 
d="M428 -10q-145 0 -248 104t-103 256t103 256t248 104t248.5 -104t103.5 -256t-103.5 -256t-248.5 -104zM428 31q127 0 218 94.5t91 224.5t-91 224.5t-218 94.5t-217.5 -94.5t-90.5 -224.5t90.5 -224.5t217.5 -94.5zM489 355q30 -9 49 -34t19 -59q0 -48 -37 -79t-97 -31
q-55 0 -88.5 28t-39.5 78h42q6 -31 27.5 -50t58.5 -19q39 0 65 20.5t26 52.5t-22 53t-61 21h-38v36h35q32 0 52 19t20 51q0 31 -21 50t-55 19q-31 0 -53.5 -17t-28.5 -47h-42q4 45 40.5 72.5t85.5 27.5q50 0 83.5 -29t33.5 -76q0 -57 -54 -85v-2z" />
    <glyph glyph-name="uni2783" unicode="&#x2783;" horiz-adv-x="857" 
d="M428 -10q-145 0 -248 104t-103 256t103 256t248 104t248.5 -104t103.5 -256t-103.5 -256t-248.5 -104zM428 31q127 0 218 94.5t91 224.5t-91 224.5t-218 94.5t-217.5 -94.5t-90.5 -224.5t90.5 -224.5t217.5 -94.5zM560 280v-34h-72v-89h-39v89h-181v21l175 275h45v-262
h72zM318 280h131v205h-4z" />
    <glyph glyph-name="uni2784" unicode="&#x2784;" horiz-adv-x="857" 
d="M428 -10q-145 0 -248 104t-103 256t103 256t248 104t248.5 -104t103.5 -256t-103.5 -256t-248.5 -104zM428 31q127 0 218 94.5t91 224.5t-91 224.5t-218 94.5t-217.5 -94.5t-90.5 -224.5t90.5 -224.5t217.5 -94.5zM432 394q56 0 90 -35t34 -90q0 -57 -36.5 -91t-96.5 -34
q-55 0 -88.5 30t-37.5 82h40q4 -36 27 -56.5t59 -20.5q42 0 67 24t25 65t-24 67t-65 26q-60 0 -85 -46l-36 8l21 211h214v-36h-178l-14 -133q31 29 84 29z" />
    <glyph glyph-name="uni2785" unicode="&#x2785;" horiz-adv-x="857" 
d="M428 -10q-145 0 -248 104t-103 256t103 256t248 104t248.5 -104t103.5 -256t-103.5 -256t-248.5 -104zM428 31q127 0 218 94.5t91 224.5t-91 224.5t-218 94.5t-217.5 -94.5t-90.5 -224.5t90.5 -224.5t217.5 -94.5zM433 399q54 0 88.5 -34t34.5 -87q0 -55 -36 -90.5
t-95 -35.5t-95 35.5t-36 93.5q0 57 48 127l90 134h51l-110 -158q25 15 60 15zM425 188q41 0 65 26t24 65q0 37 -23.5 61.5t-64.5 24.5t-65 -24.5t-24 -61.5q0 -39 24 -65t64 -26z" />
    <glyph glyph-name="uni2786" unicode="&#x2786;" horiz-adv-x="857" 
d="M428 -10q-145 0 -248 104t-103 256t103 256t248 104t248.5 -104t103.5 -256t-103.5 -256t-248.5 -104zM428 31q127 0 218 94.5t91 224.5t-91 224.5t-218 94.5t-217.5 -94.5t-90.5 -224.5t90.5 -224.5t217.5 -94.5zM302 534h259v-24q-71 -77 -108 -159.5t-46 -201.5h-42
q9 116 41 195t91 151v2h-195v37z" />
    <glyph glyph-name="uni2787" unicode="&#x2787;" horiz-adv-x="857" 
d="M428 -10q-145 0 -248 104t-103 256t103 256t248 104t248.5 -104t103.5 -256t-103.5 -256t-248.5 -104zM428 31q127 0 218 94.5t91 224.5t-91 224.5t-218 94.5t-217.5 -94.5t-90.5 -224.5t90.5 -224.5t217.5 -94.5zM490 361q30 -11 50.5 -37.5t20.5 -63.5
q0 -47 -36.5 -77.5t-95.5 -30.5q-60 0 -97 30.5t-37 78.5q0 37 21.5 63.5t50.5 36.5v2q-58 22 -58 84q0 45 34 72.5t86 27.5q51 0 84.5 -27.5t33.5 -72.5q0 -60 -57 -84v-2zM429 514q-34 0 -55.5 -18t-21.5 -50q0 -31 22 -49.5t54 -18.5q33 0 55 18.5t22 49.5t-21.5 49.5
t-54.5 18.5zM429 187q38 0 63.5 20.5t25.5 54.5t-24 57t-66 23t-65.5 -23t-23.5 -56q0 -35 25.5 -55.5t64.5 -20.5z" />
    <glyph glyph-name="uni2788" unicode="&#x2788;" horiz-adv-x="857" 
d="M428 -10q-145 0 -248 104t-103 256t103 256t248 104t248.5 -104t103.5 -256t-103.5 -256t-248.5 -104zM428 31q127 0 218 94.5t91 224.5t-91 224.5t-218 94.5t-217.5 -94.5t-90.5 -224.5t90.5 -224.5t217.5 -94.5zM423 301q-53 0 -88 34t-35 87q0 55 36.5 90.5t95.5 35.5
q58 0 94 -35.5t36 -93.5t-47 -127l-90 -134h-51l110 158q-26 -15 -61 -15zM432 512q-41 0 -65 -26t-24 -65q0 -37 23.5 -61.5t64.5 -24.5t65 24.5t24 61.5q0 39 -24 65t-64 26z" />
    <glyph glyph-name="uni2789" unicode="&#x2789;" horiz-adv-x="857" 
d="M428 -10q-145 0 -248 104t-103 256t103 256t248 104t248.5 -104t103.5 -256t-103.5 -256t-248.5 -104zM428 31q127 0 218 94.5t91 224.5t-91 224.5t-218 94.5t-217.5 -94.5t-90.5 -224.5t90.5 -224.5t217.5 -94.5zM515 172q-56 0 -89.5 44.5t-33.5 133.5q0 86 33.5 131.5
t89.5 45.5q54 0 87 -45.5t33 -133.5q0 -87 -33 -131.5t-87 -44.5zM286 177v254h-65v32h31q18 0 28.5 11.5t10.5 30.5v18h34v-346h-39zM514 208q36 0 58.5 36t22.5 106t-22.5 106t-58.5 36q-37 0 -59.5 -36t-22.5 -106q0 -71 22.5 -106.5t59.5 -35.5z" />
    <glyph glyph-name="uni278A" unicode="&#x278a;" horiz-adv-x="857" 
d="M428 -10q145 0 248 104t103 256t-103 256t-248 104q-146 0 -248.5 -104t-102.5 -256t102.5 -256t248.5 -104zM411 157v285h-75v33h36q20 0 31.5 13t11.5 33v21h39v-385h-43z" />
    <glyph glyph-name="uni278B" unicode="&#x278b;" horiz-adv-x="857" 
d="M428 -10q145 0 248 104t103 256t-103 256t-248 104q-146 0 -248.5 -104t-102.5 -256t102.5 -256t248.5 -104zM414 298q-62 -41 -65 -96h199v-37h-247v18q0 85 84 142l58 38q64 41 64 86q0 30 -21 49.5t-54 19.5q-40 0 -62 -25.5t-25 -56.5h-43q3 48 37.5 83.5t93.5 35.5
q52 0 84.5 -29t32.5 -75q0 -22 -7 -40.5t-21.5 -33t-21 -20t-21.5 -15.5z" />
    <glyph glyph-name="uni278C" unicode="&#x278c;" horiz-adv-x="857" 
d="M428 -10q145 0 248 104t103 256t-103 256t-248 104q-146 0 -248.5 -104t-102.5 -256t102.5 -256t248.5 -104zM489 355q30 -9 49 -34t19 -59q0 -48 -37 -79t-97 -31q-55 0 -88.5 28t-39.5 78h42q6 -31 27.5 -50t58.5 -19q39 0 65 20.5t26 52.5t-22 53t-61 21h-38v36h35
q32 0 52 19t20 51q0 31 -21 50t-55 19q-31 0 -53.5 -17t-28.5 -47h-42q4 45 40.5 72.5t85.5 27.5q50 0 83.5 -29t33.5 -76q0 -57 -54 -85v-2z" />
    <glyph glyph-name="uni278D" unicode="&#x278d;" horiz-adv-x="857" 
d="M428 -10q145 0 248 104t103 256t-103 256t-248 104q-146 0 -248.5 -104t-102.5 -256t102.5 -256t248.5 -104zM559 280v-34h-72v-89h-39v89h-181v21l175 275h45v-262h72zM317 280h131v205h-4z" />
    <glyph glyph-name="uni278E" unicode="&#x278e;" horiz-adv-x="857" 
d="M428 -10q145 0 248 104t103 256t-103 256t-248 104q-146 0 -248.5 -104t-102.5 -256t102.5 -256t248.5 -104zM431 394q56 0 90 -35t34 -90q0 -57 -36.5 -91t-96.5 -34q-55 0 -88.5 30t-37.5 82h40q4 -36 27 -56.5t59 -20.5q42 0 67 24t25 65t-24 67t-65 26q-60 0 -85 -46
l-36 8l21 211h214v-36h-178l-14 -133q31 29 84 29z" />
    <glyph glyph-name="uni278F" unicode="&#x278f;" horiz-adv-x="857" 
d="M428 -10q145 0 248 104t103 256t-103 256t-248 104q-146 0 -248.5 -104t-102.5 -256t102.5 -256t248.5 -104zM433 399q54 0 88.5 -34t34.5 -87q0 -55 -36 -90.5t-95 -35.5t-95 35.5t-36 93.5q0 57 48 127l90 134h51l-110 -158q25 15 60 15zM425 188q41 0 65 26t24 65
q0 37 -23.5 61.5t-64.5 24.5t-65 -24.5t-24 -61.5q0 -39 24 -65t64 -26z" />
    <glyph glyph-name="uni2790" unicode="&#x2790;" horiz-adv-x="857" 
d="M428 -10q145 0 248 104t103 256t-103 256t-248 104q-146 0 -248.5 -104t-102.5 -256t102.5 -256t248.5 -104zM302 534h259v-24q-71 -77 -108 -159.5t-46 -201.5h-42q9 116 41 195t91 151v2h-195v37z" />
    <glyph glyph-name="uni2791" unicode="&#x2791;" horiz-adv-x="857" 
d="M428 -10q145 0 248 104t103 256t-103 256t-248 104q-146 0 -248.5 -104t-102.5 -256t102.5 -256t248.5 -104zM490 361q30 -11 50.5 -37.5t20.5 -63.5q0 -47 -36.5 -77.5t-95.5 -30.5q-60 0 -97 30.5t-37 78.5q0 37 21.5 63.5t50.5 36.5v2q-58 22 -58 84q0 45 34 72.5
t86 27.5q51 0 84.5 -27.5t33.5 -72.5q0 -60 -57 -84v-2zM429 514q-34 0 -55.5 -18t-21.5 -50q0 -31 22 -49.5t54 -18.5q33 0 55 18.5t22 49.5t-21.5 49.5t-54.5 18.5zM429 187q38 0 63.5 20.5t25.5 54.5t-24 57t-66 23t-65.5 -23t-23.5 -56q0 -35 25.5 -55.5t64.5 -20.5z
" />
    <glyph glyph-name="uni2792" unicode="&#x2792;" horiz-adv-x="857" 
d="M428 -10q145 0 248 104t103 256t-103 256t-248 104q-146 0 -248.5 -104t-102.5 -256t102.5 -256t248.5 -104zM423 301q-53 0 -88 34t-35 87q0 55 36.5 90.5t95.5 35.5q58 0 94 -35.5t36 -93.5t-47 -127l-90 -134h-51l110 158q-26 -15 -61 -15zM432 512q-41 0 -65 -26
t-24 -65q0 -37 23.5 -61.5t64.5 -24.5t65 24.5t24 61.5q0 39 -24 65t-64 26z" />
    <glyph glyph-name="uni2793" unicode="&#x2793;" horiz-adv-x="857" 
d="M428 -10q145 0 248 104t103 256t-103 256t-248 104q-146 0 -248.5 -104t-102.5 -256t102.5 -256t248.5 -104zM515 172q-56 0 -89.5 44.5t-33.5 133.5q0 86 33.5 131.5t89.5 45.5q54 0 87 -45.5t33 -133.5q0 -87 -33 -131.5t-87 -44.5zM286 177v254h-65v32h31
q18 0 28.5 11.5t10.5 30.5v18h34v-346h-39zM514 208q36 0 58.5 36t22.5 106t-22.5 106t-58.5 36q-37 0 -59.5 -36t-22.5 -106q0 -71 22.5 -106.5t59.5 -35.5z" />
    <glyph glyph-name="Aacute.ss01" horiz-adv-x="606" 
d="M388 900l-64 -145h-40l61 145h43zM518 0l-71 212h-288l-71 -212h-57l237 700h69l238 -700h-57zM175 260h256l-126 375h-5z" />
    <glyph glyph-name="Abreve.ss01" horiz-adv-x="606" 
d="M303 777q-55 0 -86 38.5t-31 84.5h42q0 -39 20.5 -63t54.5 -24t53.5 24t19.5 63h42q0 -47 -30 -85t-85 -38zM518 0l-71 212h-288l-71 -212h-57l237 700h69l238 -700h-57zM175 260h256l-126 375h-5z" />
    <glyph glyph-name="uni01CD.ss01" horiz-adv-x="606" 
d="M327 768h-45l-96 132h48l69 -96h3l68 96h48zM518 0l-71 212h-288l-71 -212h-57l237 700h69l238 -700h-57zM175 260h256l-126 375h-5z" />
    <glyph glyph-name="Acircumflex.ss01" horiz-adv-x="606" 
d="M301 864l-68 -96h-48l96 132h44l96 -132h-47l-70 96h-3zM518 0l-71 212h-288l-71 -212h-57l237 700h69l238 -700h-57zM175 260h256l-126 375h-5z" />
    <glyph glyph-name="Agrave.ss01" horiz-adv-x="606" 
d="M324 755h-40l-64 145h43zM518 0l-71 212h-288l-71 -212h-57l237 700h69l238 -700h-57zM175 260h256l-126 375h-5z" />
    <glyph glyph-name="Amacron.ss01" horiz-adv-x="606" 
d="M440 832v-37h-271v37h271zM518 0l-71 212h-288l-71 -212h-57l237 700h69l238 -700h-57zM175 260h256l-126 375h-5z" />
    <glyph glyph-name="Aogonek.ss01" horiz-adv-x="606" 
d="M561 -129q23 0 42 5v-37q-15 -6 -43 -6q-44 0 -72.5 20.5t-28.5 63.5q0 52 66 83h-7l-71 212h-288l-71 -212h-57l237 700h69l238 -700q-73 -28 -73 -83q0 -46 59 -46zM175 260h256l-126 375h-5z" />
    <glyph glyph-name="Aring.ss01" horiz-adv-x="606" 
d="M305 750q-37 0 -64 26.5t-27 63.5t26.5 63.5t64.5 26.5q37 0 63 -26.5t26 -63.5t-26 -63.5t-63 -26.5zM305 896q-24 0 -39.5 -16t-15.5 -40t15.5 -40.5t39.5 -16.5q23 0 38.5 16.5t15.5 40.5q0 23 -16 39.5t-38 16.5zM518 0l-71 212h-288l-71 -212h-57l237 700h69
l238 -700h-57zM175 260h256l-126 375h-5z" />
    <glyph glyph-name="Atilde.ss01" horiz-adv-x="606" 
d="M240 826q-43 0 -50 -61h-37q5 41 26.5 68.5t58.5 27.5q24 0 43.5 -10.5t30 -23t25 -23t30.5 -10.5q23 0 36 17t16 43h35q-3 -40 -25 -67.5t-59 -27.5q-30 0 -52 16.5t-40 33.5t-38 17zM518 0l-71 212h-288l-71 -212h-57l237 700h69l238 -700h-57zM175 260h256l-126 375
h-5z" />
    <glyph glyph-name="AEacute.ss01" horiz-adv-x="965" 
d="M771 900l-64 -145h-40l61 145h43zM554 49h355v-49h-408v212h-273l-135 -212h-62l442 700h426v-49h-345v-272h309v-48h-309v-282zM258 260h243v375h-5z" />
    <glyph glyph-name="uni01E2.ss01" horiz-adv-x="965" 
d="M823 832v-37h-271v37h271zM554 49h355v-49h-408v212h-273l-135 -212h-62l442 700h426v-49h-345v-272h309v-48h-309v-282zM258 260h243v375h-5z" />
    <glyph glyph-name="Cacute.ss01" horiz-adv-x="738" 
d="M434 900h43l-64 -145h-40zM677 203q-21 -95 -97.5 -154t-185.5 -59q-140 0 -228.5 99t-88.5 257q0 159 87.5 261.5t228.5 102.5q106 0 180.5 -58.5t93.5 -160.5h-56q-19 78 -75.5 123.5t-140.5 45.5q-120 0 -192 -90t-72 -224q0 -133 72.5 -219.5t190.5 -86.5
q85 0 144.5 44t82.5 119h56z" />
    <glyph glyph-name="Ccaron.ss01" horiz-adv-x="738" 
d="M463 900h48l-95 -132h-45l-96 132h48l69 -96h3zM677 203q-21 -95 -97.5 -154t-185.5 -59q-140 0 -228.5 99t-88.5 257q0 159 87.5 261.5t228.5 102.5q106 0 180.5 -58.5t93.5 -160.5h-56q-19 78 -75.5 123.5t-140.5 45.5q-120 0 -192 -90t-72 -224q0 -133 72.5 -219.5
t190.5 -86.5q85 0 144.5 44t82.5 119h56z" />
    <glyph glyph-name="Ccedilla.ss01" horiz-adv-x="738" 
d="M677 203q-20 -91 -93 -150t-177 -63l-27 -35q37 3 68 -19.5t31 -64.5q0 -37 -25 -59t-69 -22q-38 0 -64 18l14 27q26 -13 47 -13q28 0 44.5 14.5t16.5 37.5q0 53 -66 53q-16 0 -38 -10l-16 16l44 58q-130 10 -210 107.5t-80 247.5q0 159 87.5 261.5t228.5 102.5
q106 0 180.5 -58.5t93.5 -160.5h-56q-19 78 -75.5 123.5t-140.5 45.5q-120 0 -192 -90t-72 -224q0 -133 72.5 -219.5t190.5 -86.5q85 0 144.5 44t82.5 119h56z" />
    <glyph glyph-name="Ccircumflex.ss01" horiz-adv-x="738" 
d="M323 768h-48l96 132h44l96 -132h-47l-70 96h-3zM677 203q-21 -95 -97.5 -154t-185.5 -59q-140 0 -228.5 99t-88.5 257q0 159 87.5 261.5t228.5 102.5q106 0 180.5 -58.5t93.5 -160.5h-56q-19 78 -75.5 123.5t-140.5 45.5q-120 0 -192 -90t-72 -224q0 -133 72.5 -219.5
t190.5 -86.5q85 0 144.5 44t82.5 119h56z" />
    <glyph glyph-name="Eth.ss01" horiz-adv-x="693" 
d="M293 700q161 0 242 -93.5t81 -257.5q0 -159 -79 -254t-244 -95h-191v332h-120v36h120v332h191zM289 50q143 0 208 80t65 220t-65 220t-208 80h-133v-282h178v-36h-178v-282h133z" />
    <glyph glyph-name="Dcaron.ss01" horiz-adv-x="693" 
d="M417 900h48l-95 -132h-45l-96 132h48l69 -96h3zM293 700q161 0 242 -93.5t81 -257.5q0 -159 -79 -254t-244 -95h-191v700h191zM289 50q143 0 208 80t65 220t-65 220t-208 80h-133v-600h133z" />
    <glyph glyph-name="Dcroat.ss01" horiz-adv-x="693" 
d="M293 700q161 0 242 -93.5t81 -257.5q0 -159 -79 -254t-244 -95h-191v332h-120v36h120v332h191zM289 50q143 0 208 80t65 220t-65 220t-208 80h-133v-282h178v-36h-178v-282h133z" />
    <glyph glyph-name="Eacute.ss01" horiz-adv-x="581" 
d="M350 900h43l-64 -145h-40zM155 49h370v-49h-423v700h413v-49h-360v-272h324v-48h-324v-282z" />
    <glyph glyph-name="Ebreve.ss01" horiz-adv-x="581" 
d="M423 900q0 -47 -30 -85t-85 -38t-86 38.5t-31 84.5h42q0 -39 20.5 -63t54.5 -24t53.5 24t19.5 63h42zM155 49h370v-49h-423v700h413v-49h-360v-272h324v-48h-324v-282z" />
    <glyph glyph-name="Ecaron.ss01" horiz-adv-x="581" 
d="M379 900h48l-95 -132h-45l-96 132h48l69 -96h3zM155 49h370v-49h-423v700h413v-49h-360v-272h324v-48h-324v-282z" />
    <glyph glyph-name="uni0228.ss01" horiz-adv-x="581" 
d="M525 0h-190l-34 -45q37 3 68 -19.5t31 -64.5q0 -37 -25 -59t-69 -22q-38 0 -64 18l14 27q26 -13 47 -13q28 0 44.5 14.5t16.5 37.5q0 53 -66 53q-16 0 -38 -10l-16 16l50 67h-192v700h413v-49h-360v-272h324v-48h-324v-282h370v-49z" />
    <glyph glyph-name="Ecircumflex.ss01" horiz-adv-x="581" 
d="M239 768h-48l96 132h44l96 -132h-47l-70 96h-3zM155 49h370v-49h-423v700h413v-49h-360v-272h324v-48h-324v-282z" />
    <glyph glyph-name="Egrave.ss01" horiz-adv-x="581" 
d="M268 900l61 -145h-40l-64 145h43zM155 49h370v-49h-423v700h413v-49h-360v-272h324v-48h-324v-282z" />
    <glyph glyph-name="Emacron.ss01" horiz-adv-x="581" 
d="M174 832h271v-37h-271v37zM155 49h370v-49h-423v700h413v-49h-360v-272h324v-48h-324v-282z" />
    <glyph glyph-name="Eogonek.ss01" horiz-adv-x="581" 
d="M511 -129q23 0 42 5v-37q-15 -6 -43 -6q-44 0 -72.5 20.5t-28.5 63.5q0 52 66 83h-373v700h413v-49h-360v-272h324v-48h-324v-282h370v-49q-73 -28 -73 -83q0 -46 59 -46z" />
    <glyph glyph-name="uni1EBC.ss01" horiz-adv-x="581" 
d="M460 854q-3 -40 -25 -67.5t-59 -27.5q-30 0 -52 16.5t-40 33.5t-38 17q-43 0 -50 -61h-37q5 41 26.5 68.5t58.5 27.5q24 0 43.5 -10.5t30 -23t25 -23t30.5 -10.5q23 0 36 17t16 43h35zM155 49h370v-49h-423v700h413v-49h-360v-272h324v-48h-324v-282z" />
    <glyph glyph-name="uni01F4.ss01" horiz-adv-x="774" 
d="M436 900h43l-64 -145h-40zM394 350h277v-350h-43l-8 92h-5q-87 -102 -229 -102t-225.5 97t-83.5 253q0 161 90.5 265.5t236.5 104.5q104 0 174.5 -53.5t90.5 -142.5h-56q-19 66 -73.5 106t-135.5 40q-122 0 -197.5 -89t-75.5 -230q0 -133 69.5 -217t188.5 -84
q93 0 161 51.5t68 147.5v64h-224v47z" />
    <glyph glyph-name="Gbreve.ss01" horiz-adv-x="774" 
d="M509 900q0 -47 -30 -85t-85 -38t-86 38.5t-31 84.5h42q0 -39 20.5 -63t54.5 -24t53.5 24t19.5 63h42zM394 350h277v-350h-43l-8 92h-5q-87 -102 -229 -102t-225.5 97t-83.5 253q0 161 90.5 265.5t236.5 104.5q104 0 174.5 -53.5t90.5 -142.5h-56q-19 66 -73.5 106
t-135.5 40q-122 0 -197.5 -89t-75.5 -230q0 -133 69.5 -217t188.5 -84q93 0 161 51.5t68 147.5v64h-224v47z" />
    <glyph glyph-name="Gcaron.ss01" horiz-adv-x="774" 
d="M464 900h48l-95 -132h-45l-96 132h48l69 -96h3zM394 350h277v-350h-43l-8 92h-5q-87 -102 -229 -102t-225.5 97t-83.5 253q0 161 90.5 265.5t236.5 104.5q104 0 174.5 -53.5t90.5 -142.5h-56q-19 66 -73.5 106t-135.5 40q-122 0 -197.5 -89t-75.5 -230q0 -133 69.5 -217
t188.5 -84q93 0 161 51.5t68 147.5v64h-224v47z" />
    <glyph glyph-name="Gcircumflex.ss01" horiz-adv-x="774" 
d="M324 768h-48l96 132h44l96 -132h-47l-70 96h-3zM394 350h277v-350h-43l-8 92h-5q-87 -102 -229 -102t-225.5 97t-83.5 253q0 161 90.5 265.5t236.5 104.5q104 0 174.5 -53.5t90.5 -142.5h-56q-19 66 -73.5 106t-135.5 40q-122 0 -197.5 -89t-75.5 -230q0 -133 69.5 -217
t188.5 -84q93 0 161 51.5t68 147.5v64h-224v47z" />
    <glyph glyph-name="uni0122.ss01" horiz-adv-x="774" 
d="M394 350h277v-350h-43l-8 92h-5q-87 -102 -229 -102t-225.5 97t-83.5 253q0 161 90.5 265.5t236.5 104.5q104 0 174.5 -53.5t90.5 -142.5h-56q-19 66 -73.5 106t-135.5 40q-122 0 -197.5 -89t-75.5 -230q0 -133 69.5 -217t188.5 -84q93 0 161 51.5t68 147.5v64h-224v47z
M393 -67q47 0 47 -58q0 -79 -80 -130l-17 23q50 38 61 76q-6 -1 -14 -1q-21 0 -32 14t-11 30q0 20 13 33t33 13z" />
    <glyph glyph-name="uni1E20.ss01" horiz-adv-x="774" 
d="M259 832h271v-37h-271v37zM394 350h277v-350h-43l-8 92h-5q-87 -102 -229 -102t-225.5 97t-83.5 253q0 161 90.5 265.5t236.5 104.5q104 0 174.5 -53.5t90.5 -142.5h-56q-19 66 -73.5 106t-135.5 40q-122 0 -197.5 -89t-75.5 -230q0 -133 69.5 -217t188.5 -84
q93 0 161 51.5t68 147.5v64h-224v47z" />
    <glyph glyph-name="Hbar.ss01" horiz-adv-x="692" 
d="M537 700h53v-700h-53v328h-381v-328h-54v700h54v-144h381v144zM156 378h381v140h-381v-140z" />
    <glyph glyph-name="uni021E.ss01" horiz-adv-x="692" 
d="M416 900h48l-95 -132h-45l-96 132h48l69 -96h3zM537 700h53v-700h-53v328h-381v-328h-54v700h54v-322h381v322z" />
    <glyph glyph-name="uni1E28.ss01" horiz-adv-x="692" 
d="M537 700h53v-700h-53v328h-381v-328h-6l-34 -45q37 3 68 -19.5t31 -64.5q0 -37 -25 -59t-69 -22q-38 0 -64 18l14 27q26 -13 47 -13q28 0 44.5 14.5t16.5 37.5q0 53 -66 53q-16 0 -38 -10l-16 16l50 67h-7v700h54v-322h381v322z" />
    <glyph glyph-name="Hcircumflex.ss01" horiz-adv-x="692" 
d="M275 768h-48l96 132h44l96 -132h-47l-70 96h-3zM537 700h53v-700h-53v328h-381v-328h-54v700h54v-322h381v322z" />
    <glyph glyph-name="Iacute.ss01" horiz-adv-x="258" 
d="M170 900h43l-64 -145h-40zM156 700v-700h-54v700h54z" />
    <glyph glyph-name="Ibreve.ss01" horiz-adv-x="258" 
d="M243 900q0 -47 -30 -85t-85 -38t-86 38.5t-31 84.5h42q0 -39 20.5 -63t54.5 -24t53.5 24t19.5 63h42zM156 700v-700h-54v700h54z" />
    <glyph glyph-name="uni01CF.ss01" horiz-adv-x="258" 
d="M199 900h48l-95 -132h-45l-96 132h48l69 -96h3zM156 700v-700h-54v700h54z" />
    <glyph glyph-name="Icircumflex.ss01" horiz-adv-x="258" 
d="M59 768h-48l96 132h44l96 -132h-47l-70 96h-3zM156 700v-700h-54v700h54z" />
    <glyph glyph-name="Igrave.ss01" horiz-adv-x="258" 
d="M88 900l61 -145h-40l-64 145h43zM156 700v-700h-54v700h54z" />
    <glyph glyph-name="Imacron.ss01" horiz-adv-x="258" 
d="M-6 832h271v-37h-271v37zM156 700v-700h-54v700h54z" />
    <glyph glyph-name="Iogonek.ss01" horiz-adv-x="258" 
d="M141 -129q23 0 42 5v-37q-15 -6 -43 -6q-44 0 -72.5 20.5t-28.5 63.5q0 52 66 83h-3v700h54v-700h-1q-73 -28 -73 -83q0 -46 59 -46z" />
    <glyph glyph-name="Itilde.ss01" horiz-adv-x="258" 
d="M279 854q-3 -40 -25 -67.5t-59 -27.5q-30 0 -52 16.5t-40 33.5t-38 17q-43 0 -50 -61h-37q5 41 26.5 68.5t58.5 27.5q24 0 43.5 -10.5t30 -23t25 -23t30.5 -10.5q44 0 52 60h35zM156 700v-700h-54v700h54z" />
    <glyph glyph-name="Jcircumflex.ss01" horiz-adv-x="528" 
d="M328 768h-48l96 132h44l96 -132h-47l-70 96h-3zM102 191q2 -64 38 -107.5t97 -43.5t98 41.5t37 125.5v493h53v-498q0 -104 -52 -158t-136 -54q-88 0 -137 55t-54 146h56z" />
    <glyph glyph-name="uni0136.ss01" horiz-adv-x="596" 
d="M499 0l-286 334h-57v-334h-54v700h54v-316h57l263 316h66l-281 -339v-3l304 -358h-66zM326 -67q47 0 47 -58q0 -79 -80 -130l-17 23q50 38 61 76q-6 -1 -14 -1q-21 0 -32 14t-11 30q0 20 13 33t33 13z" />
    <glyph glyph-name="Lacute.ss01" horiz-adv-x="568" 
d="M169 900h43l-64 -145h-40zM155 50h366v-50h-419v700h53v-650z" />
    <glyph glyph-name="Lcaron.ss01" horiz-adv-x="568" 
d="M319 710q23 0 34.5 -16t11.5 -41q0 -82 -79 -132l-17 22q49 39 60 78q-6 -1 -13 -1q-21 0 -31.5 14t-10.5 31q0 20 12.5 32.5t32.5 12.5zM155 50h366v-50h-419v700h53v-650z" />
    <glyph glyph-name="uni013B.ss01" horiz-adv-x="568" 
d="M155 50h366v-50h-419v700h53v-650zM310 -67q47 0 47 -58q0 -79 -80 -130l-17 23q50 38 61 76q-6 -1 -14 -1q-21 0 -32 14t-11 30q0 20 13 33t33 13z" />
    <glyph glyph-name="Lslash.ss01" horiz-adv-x="568" 
d="M155 50h366v-50h-419v288l-121 -64v45l121 64v367h53v-339l179 95v-45l-179 -95v-266z" />
    <glyph glyph-name="Nacute.ss01" horiz-adv-x="741" 
d="M413 900h43l-64 -145h-40zM586 700h53v-700h-64l-414 616h-6v-616h-53v700h66l413 -614h5v614z" />
    <glyph glyph-name="Ncaron.ss01" horiz-adv-x="741" 
d="M441 900h48l-95 -132h-45l-96 132h48l69 -96h3zM586 700h53v-700h-64l-414 616h-6v-616h-53v700h66l413 -614h5v614z" />
    <glyph glyph-name="uni0145.ss01" horiz-adv-x="741" 
d="M586 700h53v-700h-64l-414 616h-6v-616h-53v700h66l413 -614h5v614zM370 -67q47 0 47 -58q0 -79 -80 -130l-17 23q50 38 61 76q-6 -1 -14 -1q-21 0 -32 14t-11 30q0 20 13 33t33 13z" />
    <glyph glyph-name="uni01F8.ss01" horiz-adv-x="741" 
d="M330 900l61 -145h-40l-64 145h43zM586 700h53v-700h-64l-414 616h-6v-616h-53v700h66l413 -614h5v614z" />
    <glyph glyph-name="Ntilde.ss01" horiz-adv-x="741" 
d="M522 854q-3 -40 -25 -67.5t-59 -27.5q-30 0 -52 16.5t-40 33.5t-38 17q-43 0 -50 -61h-37q5 41 26.5 68.5t58.5 27.5q24 0 43.5 -10.5t30 -23t25 -23t30.5 -10.5q23 0 36 17t16 43h35zM586 700h53v-700h-64l-414 616h-6v-616h-53v700h66l413 -614h5v614z" />
    <glyph glyph-name="Oacute.ss01" horiz-adv-x="813" 
d="M448 900h43l-64 -145h-40zM407 -10q-142 0 -236 102t-94 258t94 258t235 102t235.5 -102t94.5 -258t-94 -258t-235 -102zM407 40q118 0 196.5 88.5t78.5 221.5t-79 221.5t-197 88.5q-117 0 -196 -88.5t-79 -221.5t79 -221.5t197 -88.5z" />
    <glyph glyph-name="Obreve.ss01" horiz-adv-x="813" 
d="M521 900q0 -47 -30 -85t-85 -38t-86 38.5t-31 84.5h42q0 -39 20.5 -63t54.5 -24t53.5 24t19.5 63h42zM407 -10q-142 0 -236 102t-94 258t94 258t235 102t235.5 -102t94.5 -258t-94 -258t-235 -102zM407 40q118 0 196.5 88.5t78.5 221.5t-79 221.5t-197 88.5
q-117 0 -196 -88.5t-79 -221.5t79 -221.5t197 -88.5z" />
    <glyph glyph-name="uni01D1.ss01" horiz-adv-x="813" 
d="M477 900h48l-95 -132h-45l-96 132h48l69 -96h3zM407 -10q-142 0 -236 102t-94 258t94 258t235 102t235.5 -102t94.5 -258t-94 -258t-235 -102zM407 40q118 0 196.5 88.5t78.5 221.5t-79 221.5t-197 88.5q-117 0 -196 -88.5t-79 -221.5t79 -221.5t197 -88.5z" />
    <glyph glyph-name="Ocircumflex.ss01" horiz-adv-x="813" 
d="M337 768h-48l96 132h44l96 -132h-47l-70 96h-3zM407 -10q-142 0 -236 102t-94 258t94 258t235 102t235.5 -102t94.5 -258t-94 -258t-235 -102zM407 40q118 0 196.5 88.5t78.5 221.5t-79 221.5t-197 88.5q-117 0 -196 -88.5t-79 -221.5t79 -221.5t197 -88.5z" />
    <glyph glyph-name="Ograve.ss01" horiz-adv-x="813" 
d="M366 900l61 -145h-40l-64 145h43zM407 -10q-142 0 -236 102t-94 258t94 258t235 102t235.5 -102t94.5 -258t-94 -258t-235 -102zM407 40q118 0 196.5 88.5t78.5 221.5t-79 221.5t-197 88.5q-117 0 -196 -88.5t-79 -221.5t79 -221.5t197 -88.5z" />
    <glyph glyph-name="Ohungarumlaut.ss01" horiz-adv-x="813" 
d="M380 900h45l-62 -145h-39zM508 900h44l-62 -145h-39zM407 -10q-142 0 -236 102t-94 258t94 258t235 102t235.5 -102t94.5 -258t-94 -258t-235 -102zM407 40q118 0 196.5 88.5t78.5 221.5t-79 221.5t-197 88.5q-117 0 -196 -88.5t-79 -221.5t79 -221.5t197 -88.5z" />
    <glyph glyph-name="Omacron.ss01" horiz-adv-x="813" 
d="M272 832h271v-37h-271v37zM407 -10q-142 0 -236 102t-94 258t94 258t235 102t235.5 -102t94.5 -258t-94 -258t-235 -102zM407 40q118 0 196.5 88.5t78.5 221.5t-79 221.5t-197 88.5q-117 0 -196 -88.5t-79 -221.5t79 -221.5t197 -88.5z" />
    <glyph glyph-name="uni01EA.ss01" horiz-adv-x="813" 
d="M482 -1q-69 -30 -69 -82q0 -46 59 -46q23 0 42 5v-37q-15 -6 -43 -6q-44 0 -72.5 20.5t-28.5 63.5q0 46 47 73h-10q-142 0 -236 102t-94 258t94 258t235 102t235.5 -102t94.5 -258q0 -134 -70.5 -229.5t-183.5 -121.5zM131 350q0 -133 79 -221.5t197 -88.5t196.5 88.5
t78.5 221.5t-79 221.5t-197 88.5q-117 0 -196 -88.5t-79 -221.5z" />
    <glyph glyph-name="Oslash.ss01" horiz-adv-x="813" 
d="M624 626q112 -106 112 -276q0 -156 -94 -258t-235 -102q-104 0 -188 60l-61 -87l-32 21l63 90q-112 104 -112 276q0 156 94 258t235 102q106 0 187 -59l61 86l33 -22zM131 350q0 -141 89 -232l343 490q-69 52 -157 52q-117 0 -196 -88.5t-79 -221.5zM407 40
q118 0 196.5 88.5t78.5 221.5q0 141 -89 232l-344 -489q69 -53 158 -53z" />
    <glyph glyph-name="Oslashacute.ss01" horiz-adv-x="813" 
d="M491 900l-64 -145h-40l61 145h43zM624 626q112 -106 112 -276q0 -156 -94 -258t-235 -102q-104 0 -188 60l-61 -87l-32 21l63 90q-112 104 -112 276q0 156 94 258t235 102q106 0 187 -59l61 86l33 -22zM131 350q0 -141 89 -232l343 490q-69 52 -157 52q-117 0 -196 -88.5
t-79 -221.5zM407 40q118 0 196.5 88.5t78.5 221.5q0 141 -89 232l-344 -489q69 -53 158 -53z" />
    <glyph glyph-name="Otilde.ss01" horiz-adv-x="813" 
d="M557 854q-3 -40 -25 -67.5t-59 -27.5q-30 0 -52 16.5t-40 33.5t-38 17q-43 0 -50 -61h-37q5 41 26.5 68.5t58.5 27.5q24 0 43.5 -10.5t30 -23t25 -23t30.5 -10.5q44 0 52 60h35zM407 -10q-142 0 -236 102t-94 258t94 258t235 102t235.5 -102t94.5 -258t-94 -258
t-235 -102zM407 40q118 0 196.5 88.5t78.5 221.5t-79 221.5t-197 88.5q-117 0 -196 -88.5t-79 -221.5t79 -221.5t197 -88.5z" />
    <glyph glyph-name="Racute.ss01" horiz-adv-x="613" 
d="M400 900l-64 -145h-40l61 145h43zM567 0h-63l-193 313h-156v-313h-53v700h222q96 0 152 -51.5t56 -139.5q0 -77 -44 -125.5t-121 -62.5zM155 651v-289h159q78 0 121.5 39.5t43.5 106.5q0 69 -44 106t-121 37h-159z" />
    <glyph glyph-name="Rcaron.ss01" horiz-adv-x="613" 
d="M339 768h-45l-96 132h48l69 -96h3l68 96h48zM567 0h-63l-193 313h-156v-313h-53v700h222q96 0 152 -51.5t56 -139.5q0 -77 -44 -125.5t-121 -62.5zM155 651v-289h159q78 0 121.5 39.5t43.5 106.5q0 69 -44 106t-121 37h-159z" />
    <glyph glyph-name="uni0156.ss01" horiz-adv-x="613" 
d="M367 321l200 -321h-63l-193 313h-156v-313h-53v700h222q96 0 152 -51.5t56 -139.5q0 -77 -44 -125.5t-121 -62.5zM155 651v-289h159q78 0 121.5 39.5t43.5 106.5q0 69 -44 106t-121 37h-159zM328 -67q47 0 47 -58q0 -79 -80 -130l-17 23q50 38 61 76q-6 -1 -14 -1
q-21 0 -32 14t-11 30q0 20 13 33t33 13z" />
    <glyph glyph-name="Sacute.ss01" horiz-adv-x="601" 
d="M351 900h43l-64 -145h-40zM519 174q0 -90 -59.5 -137t-153.5 -47q-99 0 -159 50.5t-70 146.5h54q23 -148 175 -148q70 0 114 33.5t44 100.5q0 37 -13.5 64.5t-39.5 46t-48 28.5t-54 20l-36 11q-23 8 -36.5 13t-37.5 16t-38.5 24t-30.5 31t-23.5 43t-7.5 55q0 83 59.5 134
t150.5 51q92 0 150.5 -53t63.5 -138h-54q-6 62 -47 102t-112 40q-70 0 -114 -38t-44 -97q0 -27 11 -49t23.5 -34.5t39 -26t38.5 -17.5t41 -14l31 -10q26 -9 42 -15t46.5 -23t48 -36.5t32 -53t14.5 -73.5z" />
    <glyph glyph-name="Scaron.ss01" horiz-adv-x="601" 
d="M379 900h48l-95 -132h-45l-96 132h48l69 -96h3zM519 174q0 -90 -59.5 -137t-153.5 -47q-99 0 -159 50.5t-70 146.5h54q23 -148 175 -148q70 0 114 33.5t44 100.5q0 37 -13.5 64.5t-39.5 46t-48 28.5t-54 20l-36 11q-23 8 -36.5 13t-37.5 16t-38.5 24t-30.5 31t-23.5 43
t-7.5 55q0 83 59.5 134t150.5 51q92 0 150.5 -53t63.5 -138h-54q-6 62 -47 102t-112 40q-70 0 -114 -38t-44 -97q0 -27 11 -49t23.5 -34.5t39 -26t38.5 -17.5t41 -14l31 -10q26 -9 42 -15t46.5 -23t48 -36.5t32 -53t14.5 -73.5z" />
    <glyph glyph-name="Scedilla.ss01" horiz-adv-x="601" 
d="M336 375q26 -9 42 -15t46.5 -23t48 -36.5t32 -53t14.5 -73.5q0 -86 -54.5 -132.5t-141.5 -51.5l-27 -35q37 3 68 -19.5t31 -64.5q0 -37 -25 -59t-69 -22q-38 0 -64 18l14 27q26 -13 47 -13q28 0 44.5 14.5t16.5 37.5q0 53 -66 53q-16 0 -38 -10l-16 16l44 58
q-90 6 -143.5 56t-62.5 140h54q23 -148 175 -148q70 0 114 33.5t44 100.5q0 37 -13.5 64.5t-39.5 46t-48 28.5t-54 20l-36 11q-23 8 -36.5 13t-37.5 16t-38.5 24t-30.5 31t-23.5 43t-7.5 55q0 83 59.5 134t150.5 51q92 0 150.5 -53t63.5 -138h-54q-6 62 -47 102t-112 40
q-70 0 -114 -38t-44 -97q0 -27 11 -49t23.5 -34.5t39 -26t38.5 -17.5t41 -14z" />
    <glyph glyph-name="Scircumflex.ss01" horiz-adv-x="601" 
d="M239 768h-48l96 132h44l96 -132h-47l-70 96h-3zM519 174q0 -90 -59.5 -137t-153.5 -47q-99 0 -159 50.5t-70 146.5h54q23 -148 175 -148q70 0 114 33.5t44 100.5q0 37 -13.5 64.5t-39.5 46t-48 28.5t-54 20l-36 11q-23 8 -36.5 13t-37.5 16t-38.5 24t-30.5 31t-23.5 43
t-7.5 55q0 83 59.5 134t150.5 51q92 0 150.5 -53t63.5 -138h-54q-6 62 -47 102t-112 40q-70 0 -114 -38t-44 -97q0 -27 11 -49t23.5 -34.5t39 -26t38.5 -17.5t41 -14l31 -10q26 -9 42 -15t46.5 -23t48 -36.5t32 -53t14.5 -73.5z" />
    <glyph glyph-name="uni0218.ss01" horiz-adv-x="601" 
d="M519 174q0 -90 -59.5 -137t-153.5 -47q-99 0 -159 50.5t-70 146.5h54q23 -148 175 -148q70 0 114 33.5t44 100.5q0 37 -13.5 64.5t-39.5 46t-48 28.5t-54 20l-36 11q-23 8 -36.5 13t-37.5 16t-38.5 24t-30.5 31t-23.5 43t-7.5 55q0 83 59.5 134t150.5 51q92 0 150.5 -53
t63.5 -138h-54q-6 62 -47 102t-112 40q-70 0 -114 -38t-44 -97q0 -27 11 -49t23.5 -34.5t39 -26t38.5 -17.5t41 -14l31 -10q26 -9 42 -15t46.5 -23t48 -36.5t32 -53t14.5 -73.5zM308 -67q47 0 47 -58q0 -79 -80 -130l-17 23q50 38 61 76q-6 -1 -14 -1q-21 0 -32 14t-11 30
q0 20 13 33t33 13z" />
    <glyph glyph-name="Tbar.ss01" horiz-adv-x="561" 
d="M514 650h-206v-276h149v-36h-149v-338h-54v338h-149v36h149v276h-208v50h468v-50z" />
    <glyph glyph-name="Tcaron.ss01" horiz-adv-x="561" 
d="M304 768h-45l-96 132h48l69 -96h3l68 96h48zM514 700v-50h-206v-650h-54v650h-208v50h468z" />
    <glyph glyph-name="uni0162.ss01" horiz-adv-x="561" 
d="M308 0h-6l-34 -45q37 3 68 -19.5t31 -64.5q0 -37 -25 -59t-69 -22q-38 0 -64 18l14 27q26 -13 47 -13q28 0 44.5 14.5t16.5 37.5q0 53 -66 53q-16 0 -38 -10l-16 16l50 67h-7v650h-208v50h468v-50h-206v-650z" />
    <glyph glyph-name="uni021A.ss01" horiz-adv-x="561" 
d="M46 700h468v-50h-206v-650h-54v650h-208v50zM280 -67q47 0 47 -58q0 -79 -80 -130l-17 23q50 38 61 76q-6 -1 -14 -1q-21 0 -32 14t-11 30q0 20 13 33t33 13z" />
    <glyph glyph-name="Uacute.ss01" horiz-adv-x="716" 
d="M400 900h43l-64 -145h-40zM613 700v-447q0 -125 -69.5 -194t-184.5 -69t-186 69t-71 194v447h54v-438q0 -110 56.5 -166t146.5 -56t145.5 56t55.5 166v438h53z" />
    <glyph glyph-name="Ubreve.ss01" horiz-adv-x="716" 
d="M472 900q0 -47 -30 -85t-85 -38t-86 38.5t-31 84.5h42q0 -39 20.5 -63t54.5 -24t53.5 24t19.5 63h42zM613 700v-447q0 -125 -69.5 -194t-184.5 -69t-186 69t-71 194v447h54v-438q0 -110 56.5 -166t146.5 -56t145.5 56t55.5 166v438h53z" />
    <glyph glyph-name="uni01D3.ss01" horiz-adv-x="716" 
d="M428 900h48l-95 -132h-45l-96 132h48l69 -96h3zM613 700v-447q0 -125 -69.5 -194t-184.5 -69t-186 69t-71 194v447h54v-438q0 -110 56.5 -166t146.5 -56t145.5 56t55.5 166v438h53z" />
    <glyph glyph-name="Ucircumflex.ss01" horiz-adv-x="716" 
d="M288 768h-48l96 132h44l96 -132h-47l-70 96h-3zM613 700v-447q0 -125 -69.5 -194t-184.5 -69t-186 69t-71 194v447h54v-438q0 -110 56.5 -166t146.5 -56t145.5 56t55.5 166v438h53z" />
    <glyph glyph-name="Ugrave.ss01" horiz-adv-x="716" 
d="M317 900l61 -145h-40l-64 145h43zM613 700v-447q0 -125 -69.5 -194t-184.5 -69t-186 69t-71 194v447h54v-438q0 -110 56.5 -166t146.5 -56t145.5 56t55.5 166v438h53z" />
    <glyph glyph-name="Uhungarumlaut.ss01" horiz-adv-x="716" 
d="M331 900h45l-62 -145h-39zM459 900h44l-62 -145h-39zM613 700v-447q0 -125 -69.5 -194t-184.5 -69t-186 69t-71 194v447h54v-438q0 -110 56.5 -166t146.5 -56t145.5 56t55.5 166v438h53z" />
    <glyph glyph-name="Umacron.ss01" horiz-adv-x="716" 
d="M223 832h271v-37h-271v37zM613 700v-447q0 -125 -69.5 -194t-184.5 -69t-186 69t-71 194v447h54v-438q0 -110 56.5 -166t146.5 -56t145.5 56t55.5 166v438h53z" />
    <glyph glyph-name="Uogonek.ss01" horiz-adv-x="716" 
d="M560 700h53v-447q0 -102 -46.5 -167t-128.5 -86q-72 -29 -72 -83q0 -46 59 -46q23 0 42 5v-37q-15 -6 -43 -6q-44 0 -72.5 20.5t-28.5 63.5q0 46 47 73h-11q-115 0 -186 69t-71 194v447h54v-438q0 -110 56.5 -166t146.5 -56t145.5 56t55.5 166v438z" />
    <glyph glyph-name="Uring.ss01" horiz-adv-x="716" 
d="M359 750q-37 0 -64 26.5t-27 63.5t26.5 63.5t64.5 26.5q37 0 63 -26.5t26 -63.5t-26 -63.5t-63 -26.5zM359 783q23 0 38.5 16.5t15.5 40.5q0 23 -16 39.5t-38 16.5q-24 0 -39.5 -16t-15.5 -40t15.5 -40.5t39.5 -16.5zM613 700v-447q0 -125 -69.5 -194t-184.5 -69t-186 69
t-71 194v447h54v-438q0 -110 56.5 -166t146.5 -56t145.5 56t55.5 166v438h53z" />
    <glyph glyph-name="Utilde.ss01" horiz-adv-x="716" 
d="M509 854q-3 -40 -25 -67.5t-59 -27.5q-30 0 -52 16.5t-40 33.5t-38 17q-43 0 -50 -61h-37q5 41 26.5 68.5t58.5 27.5q24 0 43.5 -10.5t30 -23t25 -23t30.5 -10.5q44 0 52 60h35zM613 700v-447q0 -125 -69.5 -194t-184.5 -69t-186 69t-71 194v447h54v-438
q0 -110 56.5 -166t146.5 -56t145.5 56t55.5 166v438h53z" />
    <glyph glyph-name="uni1E7C.ss01" horiz-adv-x="634" 
d="M468 854q-3 -40 -25 -67.5t-59 -27.5q-30 0 -52 16.5t-40 33.5t-38 17q-43 0 -50 -61h-37q5 41 26.5 68.5t58.5 27.5q24 0 43.5 -10.5t30 -23t25 -23t30.5 -10.5q23 0 36 17t16 43h35zM545 700h58l-252 -700h-69l-251 700h58l225 -632h6z" />
    <glyph glyph-name="Wacute.ss01" horiz-adv-x="864" 
d="M474 900h43l-64 -145h-40zM782 700h52l-160 -700h-67l-172 577h-6l-171 -577h-68l-159 700h54l138 -629h5l171 574h67l169 -574h5z" />
    <glyph glyph-name="Wcircumflex.ss01" horiz-adv-x="864" 
d="M362 768h-48l96 132h44l96 -132h-47l-70 96h-3zM782 700h52l-160 -700h-67l-172 577h-6l-171 -577h-68l-159 700h54l138 -629h5l171 574h67l169 -574h5z" />
    <glyph glyph-name="Wgrave.ss01" horiz-adv-x="864" 
d="M391 900l61 -145h-40l-64 145h43zM782 700h52l-160 -700h-67l-172 577h-6l-171 -577h-68l-159 700h54l138 -629h5l171 574h67l169 -574h5z" />
    <glyph glyph-name="Yacute.ss01" horiz-adv-x="616" 
d="M350 900h43l-64 -145h-40zM519 700h67l-251 -350v-350h-53v350l-251 350h66l208 -291h6z" />
    <glyph glyph-name="Ycircumflex.ss01" horiz-adv-x="616" 
d="M238 768h-48l96 132h44l96 -132h-47l-70 96h-3zM519 700h67l-251 -350v-350h-53v350l-251 350h66l208 -291h6z" />
    <glyph glyph-name="Ygrave.ss01" horiz-adv-x="616" 
d="M267 900l61 -145h-40l-64 145h43zM519 700h67l-251 -350v-350h-53v350l-251 350h66l208 -291h6z" />
    <glyph glyph-name="uni0232.ss01" horiz-adv-x="616" 
d="M174 832h271v-37h-271v37zM519 700h67l-251 -350v-350h-53v350l-251 350h66l208 -291h6z" />
    <glyph glyph-name="uni1EF8.ss01" horiz-adv-x="616" 
d="M459 854q-3 -40 -25 -67.5t-59 -27.5q-30 0 -52 16.5t-40 33.5t-38 17q-43 0 -50 -61h-37q5 41 26.5 68.5t58.5 27.5q24 0 43.5 -10.5t30 -23t25 -23t30.5 -10.5q44 0 52 60h35zM519 700h67l-251 -350v-350h-53v350l-251 350h66l208 -291h6z" />
    <glyph glyph-name="Zacute.ss01" horiz-adv-x="606" 
d="M356 900h43l-64 -145h-40zM157 50h367v-50h-447v28l373 619v3h-348v50h425v-28l-370 -619v-3z" />
    <glyph glyph-name="Zcaron.ss01" horiz-adv-x="606" 
d="M385 900h48l-95 -132h-45l-96 132h48l69 -96h3zM157 50h367v-50h-447v28l373 619v3h-348v50h425v-28l-370 -619v-3z" />
    <glyph glyph-name="uni1E90.ss01" horiz-adv-x="606" 
d="M244 768h-48l96 132h44l96 -132h-47l-70 96h-3zM157 50h367v-50h-447v28l373 619v3h-348v50h425v-28l-370 -619v-3z" />
    <glyph glyph-name="i.loclTRK" horiz-adv-x="215" 
d="M107 595q-17 0 -28.5 11t-11.5 29q0 16 11.5 27.5t28.5 11.5t29 -11.5t12 -27.5q0 -18 -11.5 -29t-29.5 -11zM82 0v500h51v-500h-51z" />
    <glyph glyph-name="a.fina" horiz-adv-x="511" 
d="M469 37q19 0 39 10v-42q-26 -10 -50 -10q-35 0 -58.5 19t-26.5 56q-26 -37 -70.5 -58.5t-98.5 -21.5q-68 0 -111.5 35t-43.5 104q0 68 48 107.5t128 46.5l143 13v37q0 60 -31 95.5t-92 35.5q-104 0 -125 -111h-51q8 70 54 113.5t121 43.5q81 0 128 -46t47 -126v-245
q0 -56 50 -56zM368 189v64l-132 -12q-62 -5 -99 -33.5t-37 -77.5t30 -72t77 -23q66 0 113.5 38t47.5 116z" />
    <glyph glyph-name="aacute.fina" horiz-adv-x="511" 
d="M334 700l-68 -145h-46l63 145h51zM469 37q19 0 39 10v-42q-26 -10 -50 -10q-35 0 -58.5 19t-26.5 56q-26 -37 -70.5 -58.5t-98.5 -21.5q-68 0 -111.5 35t-43.5 104q0 68 48 107.5t128 46.5l143 13v37q0 60 -31 95.5t-92 35.5q-104 0 -125 -111h-51q8 70 54 113.5
t121 43.5q81 0 128 -46t47 -126v-245q0 -56 50 -56zM368 189v64l-132 -12q-62 -5 -99 -33.5t-37 -77.5t30 -72t77 -23q66 0 113.5 38t47.5 116z" />
    <glyph glyph-name="abreve.fina" horiz-adv-x="511" 
d="M242 576q-55 0 -87.5 38.5t-32.5 85.5h48q0 -38 20 -61t52 -23t51 23t19 61h48q0 -48 -31.5 -86t-86.5 -38zM469 37q19 0 39 10v-42q-26 -10 -50 -10q-35 0 -58.5 19t-26.5 56q-26 -37 -70.5 -58.5t-98.5 -21.5q-68 0 -111.5 35t-43.5 104q0 68 48 107.5t128 46.5l143 13
v37q0 60 -31 95.5t-92 35.5q-104 0 -125 -111h-51q8 70 54 113.5t121 43.5q81 0 128 -46t47 -126v-245q0 -56 50 -56zM368 189v64l-132 -12q-62 -5 -99 -33.5t-37 -77.5t30 -72t77 -23q66 0 113.5 38t47.5 116z" />
    <glyph glyph-name="uni01CE.fina" horiz-adv-x="511" 
d="M269 566h-52l-96 134h54l66 -94h4l64 94h55zM469 37q19 0 39 10v-42q-26 -10 -50 -10q-35 0 -58.5 19t-26.5 56q-26 -37 -70.5 -58.5t-98.5 -21.5q-68 0 -111.5 35t-43.5 104q0 68 48 107.5t128 46.5l143 13v37q0 60 -31 95.5t-92 35.5q-104 0 -125 -111h-51
q8 70 54 113.5t121 43.5q81 0 128 -46t47 -126v-245q0 -56 50 -56zM368 189v64l-132 -12q-62 -5 -99 -33.5t-37 -77.5t30 -72t77 -23q66 0 113.5 38t47.5 116z" />
    <glyph glyph-name="acircumflex.fina" horiz-adv-x="511" 
d="M240 660l-65 -94h-54l95 134h52l96 -134h-55l-65 94h-4zM469 37q19 0 39 10v-42q-26 -10 -50 -10q-35 0 -58.5 19t-26.5 56q-26 -37 -70.5 -58.5t-98.5 -21.5q-68 0 -111.5 35t-43.5 104q0 68 48 107.5t128 46.5l143 13v37q0 60 -31 95.5t-92 35.5q-104 0 -125 -111h-51
q8 70 54 113.5t121 43.5q81 0 128 -46t47 -126v-245q0 -56 50 -56zM368 189v64l-132 -12q-62 -5 -99 -33.5t-37 -77.5t30 -72t77 -23q66 0 113.5 38t47.5 116z" />
    <glyph glyph-name="adieresis.fina" horiz-adv-x="511" 
d="M159 570q-17 0 -29 12.5t-12 29.5q0 16 12 28.5t29 12.5t29 -12t12 -29t-12 -29.5t-29 -12.5zM327 570q-16 0 -28 12.5t-12 29.5t12 29t28 12q17 0 29 -12t12 -29t-12 -29.5t-29 -12.5zM469 37q19 0 39 10v-42q-26 -10 -50 -10q-35 0 -58.5 19t-26.5 56
q-26 -37 -70.5 -58.5t-98.5 -21.5q-68 0 -111.5 35t-43.5 104q0 68 48 107.5t128 46.5l143 13v37q0 60 -31 95.5t-92 35.5q-104 0 -125 -111h-51q8 70 54 113.5t121 43.5q81 0 128 -46t47 -126v-245q0 -56 50 -56zM368 189v64l-132 -12q-62 -5 -99 -33.5t-37 -77.5t30 -72
t77 -23q66 0 113.5 38t47.5 116z" />
    <glyph glyph-name="uni0227.fina" horiz-adv-x="511" 
d="M242 595q-17 0 -28.5 11t-11.5 29q0 16 11.5 27.5t28.5 11.5t29 -11.5t12 -27.5q0 -18 -11.5 -29t-29.5 -11zM469 37q19 0 39 10v-42q-26 -10 -50 -10q-35 0 -58.5 19t-26.5 56q-26 -37 -70.5 -58.5t-98.5 -21.5q-68 0 -111.5 35t-43.5 104q0 68 48 107.5t128 46.5
l143 13v37q0 60 -31 95.5t-92 35.5q-104 0 -125 -111h-51q8 70 54 113.5t121 43.5q81 0 128 -46t47 -126v-245q0 -56 50 -56zM368 189v64l-132 -12q-62 -5 -99 -33.5t-37 -77.5t30 -72t77 -23q66 0 113.5 38t47.5 116z" />
    <glyph glyph-name="uni1EA1.fina" horiz-adv-x="511" 
d="M469 37q19 0 39 10v-42q-26 -10 -50 -10q-35 0 -58.5 19t-26.5 56q-26 -37 -70.5 -58.5t-98.5 -21.5q-68 0 -111.5 35t-43.5 104q0 68 48 107.5t128 46.5l143 13v37q0 60 -31 95.5t-92 35.5q-104 0 -125 -111h-51q8 70 54 113.5t121 43.5q81 0 128 -46t47 -126v-245
q0 -56 50 -56zM368 189v64l-132 -12q-62 -5 -99 -33.5t-37 -77.5t30 -72t77 -23q66 0 113.5 38t47.5 116zM247 -95q17 0 29 -11t12 -27q0 -18 -12 -29.5t-29 -11.5t-28.5 11.5t-11.5 29.5q0 16 11.5 27t28.5 11z" />
    <glyph glyph-name="agrave.fina" horiz-adv-x="511" 
d="M265 555h-46l-68 145h51zM469 37q19 0 39 10v-42q-26 -10 -50 -10q-35 0 -58.5 19t-26.5 56q-26 -37 -70.5 -58.5t-98.5 -21.5q-68 0 -111.5 35t-43.5 104q0 68 48 107.5t128 46.5l143 13v37q0 60 -31 95.5t-92 35.5q-104 0 -125 -111h-51q8 70 54 113.5t121 43.5
q81 0 128 -46t47 -126v-245q0 -56 50 -56zM368 189v64l-132 -12q-62 -5 -99 -33.5t-37 -77.5t30 -72t77 -23q66 0 113.5 38t47.5 116z" />
    <glyph glyph-name="amacron.fina" horiz-adv-x="511" 
d="M379 635v-43h-273v43h273zM469 37q19 0 39 10v-42q-26 -10 -50 -10q-35 0 -58.5 19t-26.5 56q-26 -37 -70.5 -58.5t-98.5 -21.5q-68 0 -111.5 35t-43.5 104q0 68 48 107.5t128 46.5l143 13v37q0 60 -31 95.5t-92 35.5q-104 0 -125 -111h-51q8 70 54 113.5t121 43.5
q81 0 128 -46t47 -126v-245q0 -56 50 -56zM368 189v64l-132 -12q-62 -5 -99 -33.5t-37 -77.5t30 -72t77 -23q66 0 113.5 38t47.5 116z" />
    <glyph glyph-name="aring.fina" horiz-adv-x="511" 
d="M243 548q-37 0 -64.5 27t-27.5 64t27 64t65 27q37 0 64 -27t27 -64t-27 -64t-64 -27zM244 692q-23 0 -38 -15.5t-15 -37.5q0 -23 15 -38.5t38 -15.5q21 0 36 16t15 38t-15 37.5t-36 15.5zM469 37q19 0 39 10v-42q-26 -10 -50 -10q-35 0 -58.5 19t-26.5 56
q-26 -37 -70.5 -58.5t-98.5 -21.5q-68 0 -111.5 35t-43.5 104q0 68 48 107.5t128 46.5l143 13v37q0 60 -31 95.5t-92 35.5q-104 0 -125 -111h-51q8 70 54 113.5t121 43.5q81 0 128 -46t47 -126v-245q0 -56 50 -56zM368 189v64l-132 -12q-62 -5 -99 -33.5t-37 -77.5t30 -72
t77 -23q66 0 113.5 38t47.5 116z" />
    <glyph glyph-name="atilde.fina" horiz-adv-x="511" 
d="M180 623q-42 0 -50 -60h-42q5 44 27 72.5t61 28.5q25 0 44.5 -10.5t30 -22.5t25 -22.5t30.5 -10.5q44 0 50 59h42q-3 -42 -26 -71t-62 -29q-24 0 -43.5 10.5t-30 22.5t-25.5 22.5t-31 10.5zM469 37q19 0 39 10v-42q-26 -10 -50 -10q-35 0 -58.5 19t-26.5 56
q-26 -37 -70.5 -58.5t-98.5 -21.5q-68 0 -111.5 35t-43.5 104q0 68 48 107.5t128 46.5l143 13v37q0 60 -31 95.5t-92 35.5q-104 0 -125 -111h-51q8 70 54 113.5t121 43.5q81 0 128 -46t47 -126v-245q0 -56 50 -56zM368 189v64l-132 -12q-62 -5 -99 -33.5t-37 -77.5t30 -72
t77 -23q66 0 113.5 38t47.5 116z" />
    <glyph glyph-name="aacute.ss01" horiz-adv-x="511" 
d="M327 700l-64 -145h-40l61 145h43zM461 42h14v-42h-28q-35 0 -53.5 15.5t-22.5 50.5q-61 -76 -167 -76q-68 0 -111.5 35t-43.5 104q0 68 48 107.5t128 46.5l143 13v37q0 60 -31 95.5t-92 35.5q-104 0 -125 -111h-51q8 70 54 113.5t121 43.5q81 0 128 -46t47 -126v-252
q0 -44 42 -44zM368 189v64l-132 -12q-62 -5 -99 -33.5t-37 -77.5t30 -72t77 -23q66 0 113.5 38t47.5 116z" />
    <glyph glyph-name="abreve.ss01" horiz-adv-x="511" 
d="M242 577q-55 0 -86 38.5t-31 84.5h42q0 -39 20.5 -63t54.5 -24t53.5 24t19.5 63h42q0 -47 -30 -85t-85 -38zM461 42h14v-42h-28q-35 0 -53.5 15.5t-22.5 50.5q-61 -76 -167 -76q-68 0 -111.5 35t-43.5 104q0 68 48 107.5t128 46.5l143 13v37q0 60 -31 95.5t-92 35.5
q-104 0 -125 -111h-51q8 70 54 113.5t121 43.5q81 0 128 -46t47 -126v-252q0 -44 42 -44zM368 189v64l-132 -12q-62 -5 -99 -33.5t-37 -77.5t30 -72t77 -23q66 0 113.5 38t47.5 116z" />
    <glyph glyph-name="uni01CE.ss01" horiz-adv-x="511" 
d="M265 568h-45l-96 132h48l69 -96h3l68 96h48zM461 42h14v-42h-28q-35 0 -53.5 15.5t-22.5 50.5q-61 -76 -167 -76q-68 0 -111.5 35t-43.5 104q0 68 48 107.5t128 46.5l143 13v37q0 60 -31 95.5t-92 35.5q-104 0 -125 -111h-51q8 70 54 113.5t121 43.5q81 0 128 -46
t47 -126v-252q0 -44 42 -44zM368 189v64l-132 -12q-62 -5 -99 -33.5t-37 -77.5t30 -72t77 -23q66 0 113.5 38t47.5 116z" />
    <glyph glyph-name="acircumflex.ss01" horiz-adv-x="511" 
d="M240 664l-68 -96h-48l96 132h44l96 -132h-47l-70 96h-3zM461 42h14v-42h-28q-35 0 -53.5 15.5t-22.5 50.5q-61 -76 -167 -76q-68 0 -111.5 35t-43.5 104q0 68 48 107.5t128 46.5l143 13v37q0 60 -31 95.5t-92 35.5q-104 0 -125 -111h-51q8 70 54 113.5t121 43.5
q81 0 128 -46t47 -126v-252q0 -44 42 -44zM368 189v64l-132 -12q-62 -5 -99 -33.5t-37 -77.5t30 -72t77 -23q66 0 113.5 38t47.5 116z" />
    <glyph glyph-name="agrave.ss01" horiz-adv-x="511" 
d="M262 555h-40l-64 145h43zM461 42h14v-42h-28q-35 0 -53.5 15.5t-22.5 50.5q-61 -76 -167 -76q-68 0 -111.5 35t-43.5 104q0 68 48 107.5t128 46.5l143 13v37q0 60 -31 95.5t-92 35.5q-104 0 -125 -111h-51q8 70 54 113.5t121 43.5q81 0 128 -46t47 -126v-252
q0 -44 42 -44zM368 189v64l-132 -12q-62 -5 -99 -33.5t-37 -77.5t30 -72t77 -23q66 0 113.5 38t47.5 116z" />
    <glyph glyph-name="amacron.ss01" horiz-adv-x="511" 
d="M378 632v-37h-271v37h271zM461 42h14v-42h-28q-35 0 -53.5 15.5t-22.5 50.5q-61 -76 -167 -76q-68 0 -111.5 35t-43.5 104q0 68 48 107.5t128 46.5l143 13v37q0 60 -31 95.5t-92 35.5q-104 0 -125 -111h-51q8 70 54 113.5t121 43.5q81 0 128 -46t47 -126v-252
q0 -44 42 -44zM368 189v64l-132 -12q-62 -5 -99 -33.5t-37 -77.5t30 -72t77 -23q66 0 113.5 38t47.5 116z" />
    <glyph glyph-name="aogonek.ss01" horiz-adv-x="511" 
d="M461 -129q23 0 42 5v-37q-15 -6 -43 -6q-44 0 -72.5 20.5t-28.5 63.5q0 52 69 84q-50 7 -57 65q-61 -76 -167 -76q-68 0 -111.5 35t-43.5 104q0 68 48 107.5t128 46.5l143 13v37q0 60 -31 95.5t-92 35.5q-104 0 -125 -111h-51q8 70 54 113.5t121 43.5q81 0 128 -46
t47 -126v-252q0 -44 42 -44h14v-42q-73 -28 -73 -83q0 -46 59 -46zM368 189v64l-132 -12q-62 -5 -99 -33.5t-37 -77.5t30 -72t77 -23q66 0 113.5 38t47.5 116z" />
    <glyph glyph-name="aring.ss01" horiz-adv-x="511" 
d="M243 550q-37 0 -64 26.5t-27 63.5t26.5 63.5t64.5 26.5q37 0 63 -26.5t26 -63.5t-26 -63.5t-63 -26.5zM243 696q-24 0 -39.5 -16t-15.5 -40t15.5 -40.5t39.5 -16.5q23 0 38.5 16.5t15.5 40.5q0 23 -16 39.5t-38 16.5zM461 42h14v-42h-28q-35 0 -53.5 15.5t-22.5 50.5
q-61 -76 -167 -76q-68 0 -111.5 35t-43.5 104q0 68 48 107.5t128 46.5l143 13v37q0 60 -31 95.5t-92 35.5q-104 0 -125 -111h-51q8 70 54 113.5t121 43.5q81 0 128 -46t47 -126v-252q0 -44 42 -44zM368 189v64l-132 -12q-62 -5 -99 -33.5t-37 -77.5t30 -72t77 -23
q66 0 113.5 38t47.5 116z" />
    <glyph glyph-name="atilde.ss01" horiz-adv-x="511" 
d="M179 626q-43 0 -50 -61h-37q5 41 26.5 68.5t58.5 27.5q24 0 43.5 -10.5t30 -23t25 -23t30.5 -10.5q44 0 52 60h35q-3 -40 -25 -67.5t-59 -27.5q-30 0 -52 16.5t-40 33.5t-38 17zM461 42h14v-42h-28q-35 0 -53.5 15.5t-22.5 50.5q-61 -76 -167 -76q-68 0 -111.5 35
t-43.5 104q0 68 48 107.5t128 46.5l143 13v37q0 60 -31 95.5t-92 35.5q-104 0 -125 -111h-51q8 70 54 113.5t121 43.5q81 0 128 -46t47 -126v-252q0 -44 42 -44zM368 189v64l-132 -12q-62 -5 -99 -33.5t-37 -77.5t30 -72t77 -23q66 0 113.5 38t47.5 116z" />
    <glyph glyph-name="aeacute.ss01" horiz-adv-x="687" 
d="M416 700l-64 -145h-40l61 145h43zM625 268q0 -16 -1 -28h-267q0 -205 112 -205q37 0 67 23t36 75h50q-8 -74 -50.5 -108.5t-102.5 -34.5q-98 0 -135 88q-16 -44 -55 -66t-89 -22q-65 0 -103 34t-38 99q0 45 17 77.5t47.5 50.5t67.5 26t82 8h41v61q0 119 -94 119
q-47 0 -75 -26t-30 -73h-50q4 67 46 105.5t108 38.5q97 0 130 -85q39 85 131 85q155 0 155 -242zM470 465q-48 0 -79 -44t-34 -136h220q-4 180 -107 180zM193 35q45 0 78 29t33 94v82h-32q-82 0 -127.5 -25t-45.5 -90q0 -45 25.5 -67.5t68.5 -22.5z" />
    <glyph glyph-name="uni01E3.ss01" horiz-adv-x="687" 
d="M467 632v-37h-271v37h271zM625 268q0 -16 -1 -28h-267q0 -205 112 -205q37 0 67 23t36 75h50q-8 -74 -50.5 -108.5t-102.5 -34.5q-98 0 -135 88q-16 -44 -55 -66t-89 -22q-65 0 -103 34t-38 99q0 45 17 77.5t47.5 50.5t67.5 26t82 8h41v61q0 119 -94 119q-47 0 -75 -26
t-30 -73h-50q4 67 46 105.5t108 38.5q97 0 130 -85q39 85 131 85q155 0 155 -242zM470 465q-48 0 -79 -44t-34 -136h220q-4 180 -107 180zM193 35q45 0 78 29t33 94v82h-32q-82 0 -127.5 -25t-45.5 -90q0 -45 25.5 -67.5t68.5 -22.5z" />
    <glyph glyph-name="cacute.ss01" horiz-adv-x="559" 
d="M336 700h43l-64 -145h-40zM297 -10q-108 0 -172 73t-64 184q0 113 65.5 188t171.5 75q80 0 137.5 -45t71.5 -121h-52q-11 51 -53 85t-104 34q-82 0 -134 -61.5t-52 -154.5q0 -90 50 -150t135 -60q125 0 161 116h52q-17 -75 -73.5 -119t-139.5 -44z" />
    <glyph glyph-name="ccaron.ss01" horiz-adv-x="559" 
d="M365 700h48l-95 -132h-45l-96 132h48l69 -96h3zM297 -10q-108 0 -172 73t-64 184q0 113 65.5 188t171.5 75q80 0 137.5 -45t71.5 -121h-52q-11 51 -53 85t-104 34q-82 0 -134 -61.5t-52 -154.5q0 -90 50 -150t135 -60q125 0 161 116h52q-17 -75 -73.5 -119t-139.5 -44z
" />
    <glyph glyph-name="ccedilla.ss01" horiz-adv-x="559" 
d="M510 153q-16 -72 -69.5 -115.5t-131.5 -47.5l-27 -35q37 3 68 -19.5t31 -64.5q0 -37 -25 -59t-69 -22q-38 0 -64 18l14 27q26 -13 47 -13q28 0 44.5 14.5t16.5 37.5q0 53 -66 53q-16 0 -38 -10l-16 16l44 58q-96 10 -152 81.5t-56 174.5q0 113 65.5 188t171.5 75
q80 0 137.5 -45t71.5 -121h-52q-11 51 -53 85t-104 34q-82 0 -134 -61.5t-52 -154.5q0 -90 50 -150t135 -60q125 0 161 116h52z" />
    <glyph glyph-name="ccircumflex.ss01" horiz-adv-x="559" 
d="M224 568h-48l96 132h44l96 -132h-47l-70 96h-3zM297 -10q-108 0 -172 73t-64 184q0 113 65.5 188t171.5 75q80 0 137.5 -45t71.5 -121h-52q-11 51 -53 85t-104 34q-82 0 -134 -61.5t-52 -154.5q0 -90 50 -150t135 -60q125 0 161 116h52q-17 -75 -73.5 -119t-139.5 -44z
" />
    <glyph glyph-name="eth.ss01" horiz-adv-x="584" 
d="M378 588q129 -149 129 -333q0 -120 -58.5 -192.5t-165.5 -72.5q-91 0 -156.5 61.5t-65.5 165.5q0 106 62.5 167.5t158.5 61.5q53 0 95.5 -21.5t61.5 -52.5h6q-32 112 -112 199l-155 -55l-13 32l142 51q-50 49 -126 101h67q52 -32 105 -85l95 34l13 -32zM285 36
q76 0 123 54.5t47 135.5q0 77 -50.5 126t-125.5 49q-77 0 -123 -51t-46 -132q0 -80 50 -131t125 -51z" />
    <glyph glyph-name="dcaron.ss01" horiz-adv-x="591" 
d="M458 414v296h51v-710h-43l-5 81h-6q-59 -91 -169 -91q-100 0 -162.5 72t-62.5 189t62.5 188t162.5 71q67 0 109.5 -29t62.5 -67zM672 710q23 0 34.5 -16t11.5 -41q0 -82 -79 -132l-17 22q49 39 60 78q-6 -1 -13 -1q-21 0 -31.5 14t-10.5 31q0 20 12.5 32.5t32.5 12.5z
M289 37q77 0 123 58.5t46 155.5q0 96 -46 154t-123 58q-79 0 -128 -58.5t-49 -153.5q0 -96 49.5 -155t127.5 -59z" />
    <glyph glyph-name="dcroat.ss01" horiz-adv-x="591" 
d="M609 618v-36h-100v-582h-43l-5 81h-6q-59 -91 -169 -91q-100 0 -162.5 72t-62.5 189t62.5 188t162.5 71q67 0 109.5 -29t62.5 -67v168h-111v36h111v92h51v-92h100zM289 37q77 0 123 58.5t46 155.5q0 96 -46 154t-123 58q-79 0 -128 -58.5t-49 -153.5q0 -96 49.5 -155
t127.5 -59z" />
    <glyph glyph-name="eacute.ss01" horiz-adv-x="558" 
d="M371 700l-64 -145h-40l61 145h43zM496 266q0 -15 -1 -25h-383q3 -94 51 -150t126 -56q56 0 96 25.5t55 73.5h51q-17 -70 -71.5 -107t-130.5 -37q-101 0 -164.5 70t-63.5 185q0 120 63 192.5t162 72.5q92 0 151 -64.5t59 -179.5zM286 465q-72 0 -119.5 -51t-53.5 -129h333
q-1 82 -45 131t-115 49z" />
    <glyph glyph-name="ebreve.ss01" horiz-adv-x="558" 
d="M286 577q-55 0 -86 38.5t-31 84.5h42q0 -39 20.5 -63t54.5 -24t53.5 24t19.5 63h42q0 -47 -30 -85t-85 -38zM496 266q0 -15 -1 -25h-383q3 -94 51 -150t126 -56q56 0 96 25.5t55 73.5h51q-17 -70 -71.5 -107t-130.5 -37q-101 0 -164.5 70t-63.5 185q0 120 63 192.5
t162 72.5q92 0 151 -64.5t59 -179.5zM286 465q-72 0 -119.5 -51t-53.5 -129h333q-1 82 -45 131t-115 49z" />
    <glyph glyph-name="ecaron.ss01" horiz-adv-x="558" 
d="M309 568h-45l-96 132h48l69 -96h3l68 96h48zM496 266q0 -15 -1 -25h-383q3 -94 51 -150t126 -56q56 0 96 25.5t55 73.5h51q-17 -70 -71.5 -107t-130.5 -37q-101 0 -164.5 70t-63.5 185q0 120 63 192.5t162 72.5q92 0 151 -64.5t59 -179.5zM286 465q-72 0 -119.5 -51
t-53.5 -129h333q-1 82 -45 131t-115 49z" />
    <glyph glyph-name="uni0229.ss01" horiz-adv-x="558" 
d="M496 266q0 -15 -1 -25h-383q3 -94 51 -150t126 -56q56 0 96 25.5t55 73.5h51q-16 -67 -67 -104t-124 -40l-27 -35q37 3 68 -19.5t31 -64.5q0 -37 -25 -59t-69 -22q-38 0 -64 18l14 27q26 -13 47 -13q28 0 44.5 14.5t16.5 37.5q0 53 -66 53q-16 0 -38 -10l-16 16l44 59
q-90 10 -144.5 78t-54.5 175q0 120 63 192.5t162 72.5q92 0 151 -64.5t59 -179.5zM286 465q-72 0 -119.5 -51t-53.5 -129h333q-1 82 -45 131t-115 49z" />
    <glyph glyph-name="ecircumflex.ss01" horiz-adv-x="558" 
d="M284 664l-68 -96h-48l96 132h44l96 -132h-47l-70 96h-3zM496 266q0 -15 -1 -25h-383q3 -94 51 -150t126 -56q56 0 96 25.5t55 73.5h51q-17 -70 -71.5 -107t-130.5 -37q-101 0 -164.5 70t-63.5 185q0 120 63 192.5t162 72.5q92 0 151 -64.5t59 -179.5zM286 465
q-72 0 -119.5 -51t-53.5 -129h333q-1 82 -45 131t-115 49z" />
    <glyph glyph-name="egrave.ss01" horiz-adv-x="558" 
d="M306 555h-40l-64 145h43zM496 266q0 -15 -1 -25h-383q3 -94 51 -150t126 -56q56 0 96 25.5t55 73.5h51q-17 -70 -71.5 -107t-130.5 -37q-101 0 -164.5 70t-63.5 185q0 120 63 192.5t162 72.5q92 0 151 -64.5t59 -179.5zM286 465q-72 0 -119.5 -51t-53.5 -129h333
q-1 82 -45 131t-115 49z" />
    <glyph glyph-name="emacron.ss01" horiz-adv-x="558" 
d="M422 632v-37h-271v37h271zM496 266q0 -15 -1 -25h-383q3 -94 51 -150t126 -56q56 0 96 25.5t55 73.5h51q-17 -70 -71.5 -107t-130.5 -37q-101 0 -164.5 70t-63.5 185q0 120 63 192.5t162 72.5q92 0 151 -64.5t59 -179.5zM286 465q-72 0 -119.5 -51t-53.5 -129h333
q-1 82 -45 131t-115 49z" />
    <glyph glyph-name="eogonek.ss01" horiz-adv-x="558" 
d="M496 266q0 -15 -1 -25h-383q3 -94 51 -150t126 -56q56 0 96 25.5t55 73.5h51q-26 -107 -136 -136q-68 -28 -68 -81q0 -46 59 -46q23 0 42 5v-37q-15 -6 -43 -6q-44 0 -72.5 20.5t-28.5 63.5q0 44 47 73h-2q-101 0 -164.5 70t-63.5 185q0 120 63 192.5t162 72.5
q92 0 151 -64.5t59 -179.5zM286 465q-72 0 -119.5 -51t-53.5 -129h333q-1 82 -45 131t-115 49z" />
    <glyph glyph-name="uni1EBD.ss01" horiz-adv-x="558" 
d="M223 626q-43 0 -50 -61h-37q5 41 26.5 68.5t58.5 27.5q24 0 43.5 -10.5t30 -23t25 -23t30.5 -10.5q44 0 52 60h35q-3 -40 -25 -67.5t-59 -27.5q-30 0 -52 16.5t-40 33.5t-38 17zM496 266q0 -15 -1 -25h-383q3 -94 51 -150t126 -56q56 0 96 25.5t55 73.5h51
q-17 -70 -71.5 -107t-130.5 -37q-101 0 -164.5 70t-63.5 185q0 120 63 192.5t162 72.5q92 0 151 -64.5t59 -179.5zM286 465q-72 0 -119.5 -51t-53.5 -129h333q-1 82 -45 131t-115 49z" />
    <glyph glyph-name="aacute.fina.ss01" horiz-adv-x="511" 
d="M327 700l-64 -145h-40l61 145h43zM469 37q19 0 39 10v-42q-26 -10 -50 -10q-35 0 -58.5 19t-26.5 56q-26 -37 -70.5 -58.5t-98.5 -21.5q-68 0 -111.5 35t-43.5 104q0 68 48 107.5t128 46.5l143 13v37q0 60 -31 95.5t-92 35.5q-104 0 -125 -111h-51q8 70 54 113.5
t121 43.5q81 0 128 -46t47 -126v-245q0 -56 50 -56zM368 189v64l-132 -12q-62 -5 -99 -33.5t-37 -77.5t30 -72t77 -23q66 0 113.5 38t47.5 116z" />
    <glyph glyph-name="abreve.fina.ss01" horiz-adv-x="511" 
d="M242 577q-55 0 -86 38.5t-31 84.5h42q0 -39 20.5 -63t54.5 -24t53.5 24t19.5 63h42q0 -47 -30 -85t-85 -38zM469 37q19 0 39 10v-42q-26 -10 -50 -10q-35 0 -58.5 19t-26.5 56q-26 -37 -70.5 -58.5t-98.5 -21.5q-68 0 -111.5 35t-43.5 104q0 68 48 107.5t128 46.5l143 13
v37q0 60 -31 95.5t-92 35.5q-104 0 -125 -111h-51q8 70 54 113.5t121 43.5q81 0 128 -46t47 -126v-245q0 -56 50 -56zM368 189v64l-132 -12q-62 -5 -99 -33.5t-37 -77.5t30 -72t77 -23q66 0 113.5 38t47.5 116z" />
    <glyph glyph-name="uni01CE.fina.ss01" horiz-adv-x="511" 
d="M265 568h-45l-96 132h48l69 -96h3l68 96h48zM469 37q19 0 39 10v-42q-26 -10 -50 -10q-35 0 -58.5 19t-26.5 56q-26 -37 -70.5 -58.5t-98.5 -21.5q-68 0 -111.5 35t-43.5 104q0 68 48 107.5t128 46.5l143 13v37q0 60 -31 95.5t-92 35.5q-104 0 -125 -111h-51
q8 70 54 113.5t121 43.5q81 0 128 -46t47 -126v-245q0 -56 50 -56zM368 189v64l-132 -12q-62 -5 -99 -33.5t-37 -77.5t30 -72t77 -23q66 0 113.5 38t47.5 116z" />
    <glyph glyph-name="acircumflex.fina.ss01" horiz-adv-x="511" 
d="M240 664l-68 -96h-48l96 132h44l96 -132h-47l-70 96h-3zM469 37q19 0 39 10v-42q-26 -10 -50 -10q-35 0 -58.5 19t-26.5 56q-26 -37 -70.5 -58.5t-98.5 -21.5q-68 0 -111.5 35t-43.5 104q0 68 48 107.5t128 46.5l143 13v37q0 60 -31 95.5t-92 35.5q-104 0 -125 -111h-51
q8 70 54 113.5t121 43.5q81 0 128 -46t47 -126v-245q0 -56 50 -56zM368 189v64l-132 -12q-62 -5 -99 -33.5t-37 -77.5t30 -72t77 -23q66 0 113.5 38t47.5 116z" />
    <glyph glyph-name="agrave.fina.ss01" horiz-adv-x="511" 
d="M262 555h-40l-64 145h43zM469 37q19 0 39 10v-42q-26 -10 -50 -10q-35 0 -58.5 19t-26.5 56q-26 -37 -70.5 -58.5t-98.5 -21.5q-68 0 -111.5 35t-43.5 104q0 68 48 107.5t128 46.5l143 13v37q0 60 -31 95.5t-92 35.5q-104 0 -125 -111h-51q8 70 54 113.5t121 43.5
q81 0 128 -46t47 -126v-245q0 -56 50 -56zM368 189v64l-132 -12q-62 -5 -99 -33.5t-37 -77.5t30 -72t77 -23q66 0 113.5 38t47.5 116z" />
    <glyph glyph-name="amacron.fina.ss01" horiz-adv-x="511" 
d="M378 632v-37h-271v37h271zM469 37q19 0 39 10v-42q-26 -10 -50 -10q-35 0 -58.5 19t-26.5 56q-26 -37 -70.5 -58.5t-98.5 -21.5q-68 0 -111.5 35t-43.5 104q0 68 48 107.5t128 46.5l143 13v37q0 60 -31 95.5t-92 35.5q-104 0 -125 -111h-51q8 70 54 113.5t121 43.5
q81 0 128 -46t47 -126v-245q0 -56 50 -56zM368 189v64l-132 -12q-62 -5 -99 -33.5t-37 -77.5t30 -72t77 -23q66 0 113.5 38t47.5 116z" />
    <glyph glyph-name="aring.fina.ss01" horiz-adv-x="511" 
d="M243 550q-37 0 -64 26.5t-27 63.5t26.5 63.5t64.5 26.5q37 0 63 -26.5t26 -63.5t-26 -63.5t-63 -26.5zM243 696q-24 0 -39.5 -16t-15.5 -40t15.5 -40.5t39.5 -16.5q23 0 38.5 16.5t15.5 40.5q0 23 -16 39.5t-38 16.5zM469 37q19 0 39 10v-42q-26 -10 -50 -10
q-35 0 -58.5 19t-26.5 56q-26 -37 -70.5 -58.5t-98.5 -21.5q-68 0 -111.5 35t-43.5 104q0 68 48 107.5t128 46.5l143 13v37q0 60 -31 95.5t-92 35.5q-104 0 -125 -111h-51q8 70 54 113.5t121 43.5q81 0 128 -46t47 -126v-245q0 -56 50 -56zM368 189v64l-132 -12
q-62 -5 -99 -33.5t-37 -77.5t30 -72t77 -23q66 0 113.5 38t47.5 116z" />
    <glyph glyph-name="atilde.fina.ss01" horiz-adv-x="511" 
d="M179 626q-43 0 -50 -61h-37q5 41 26.5 68.5t58.5 27.5q24 0 43.5 -10.5t30 -23t25 -23t30.5 -10.5q44 0 52 60h35q-3 -40 -25 -67.5t-59 -27.5q-30 0 -52 16.5t-40 33.5t-38 17zM469 37q19 0 39 10v-42q-26 -10 -50 -10q-35 0 -58.5 19t-26.5 56q-26 -37 -70.5 -58.5
t-98.5 -21.5q-68 0 -111.5 35t-43.5 104q0 68 48 107.5t128 46.5l143 13v37q0 60 -31 95.5t-92 35.5q-104 0 -125 -111h-51q8 70 54 113.5t121 43.5q81 0 128 -46t47 -126v-245q0 -56 50 -56zM368 189v64l-132 -12q-62 -5 -99 -33.5t-37 -77.5t30 -72t77 -23q66 0 113.5 38
t47.5 116z" />
    <glyph glyph-name="uni01F5.ss01" horiz-adv-x="517" 
d="M350 700l-64 -145h-40l61 145h43zM492 506q-33 -42 -85 -66q30 -43 30 -101q0 -77 -48 -123.5t-121 -46.5q-53 0 -93 23q-46 -21 -46 -59q0 -54 78 -54h101q78 0 121.5 -35t43.5 -99q0 -75 -56.5 -115t-144.5 -40q-97 0 -149.5 47.5t-61.5 123.5l92 77q-33 8 -53 32
t-20 59q0 58 60 89q-47 49 -47 121q0 75 49.5 123t124.5 48q64 0 110 -38q46 22 80 70zM268 213q53 0 86 35.5t33 90.5q0 56 -33 91.5t-86 35.5q-55 0 -89.5 -35.5t-34.5 -91.5q0 -54 35 -90t89 -36zM423 -56q0 49 -36 69.5t-81 20.5h-92l-98 -84q26 -115 156 -115
q64 0 107.5 27t43.5 82z" />
    <glyph glyph-name="gbreve.ss01" horiz-adv-x="517" 
d="M265 577q-55 0 -86 38.5t-31 84.5h42q0 -39 20.5 -63t54.5 -24t53.5 24t19.5 63h42q0 -47 -30 -85t-85 -38zM492 506q-33 -42 -85 -66q30 -43 30 -101q0 -77 -48 -123.5t-121 -46.5q-53 0 -93 23q-46 -21 -46 -59q0 -54 78 -54h101q78 0 121.5 -35t43.5 -99
q0 -75 -56.5 -115t-144.5 -40q-97 0 -149.5 47.5t-61.5 123.5l92 77q-33 8 -53 32t-20 59q0 58 60 89q-47 49 -47 121q0 75 49.5 123t124.5 48q64 0 110 -38q46 22 80 70zM268 213q53 0 86 35.5t33 90.5q0 56 -33 91.5t-86 35.5q-55 0 -89.5 -35.5t-34.5 -91.5q0 -54 35 -90
t89 -36zM423 -56q0 49 -36 69.5t-81 20.5h-92l-98 -84q26 -115 156 -115q64 0 107.5 27t43.5 82z" />
    <glyph glyph-name="gcaron.ss01" horiz-adv-x="517" 
d="M289 568h-45l-96 132h48l69 -96h3l68 96h48zM492 506q-33 -42 -85 -66q30 -43 30 -101q0 -77 -48 -123.5t-121 -46.5q-53 0 -93 23q-46 -21 -46 -59q0 -54 78 -54h101q78 0 121.5 -35t43.5 -99q0 -75 -56.5 -115t-144.5 -40q-97 0 -149.5 47.5t-61.5 123.5l92 77
q-33 8 -53 32t-20 59q0 58 60 89q-47 49 -47 121q0 75 49.5 123t124.5 48q64 0 110 -38q46 22 80 70zM268 213q53 0 86 35.5t33 90.5q0 56 -33 91.5t-86 35.5q-55 0 -89.5 -35.5t-34.5 -91.5q0 -54 35 -90t89 -36zM423 -56q0 49 -36 69.5t-81 20.5h-92l-98 -84
q26 -115 156 -115q64 0 107.5 27t43.5 82z" />
    <glyph glyph-name="gcircumflex.ss01" horiz-adv-x="517" 
d="M263 664l-68 -96h-48l96 132h44l96 -132h-47l-70 96h-3zM492 506q-33 -42 -85 -66q30 -43 30 -101q0 -77 -48 -123.5t-121 -46.5q-53 0 -93 23q-46 -21 -46 -59q0 -54 78 -54h101q78 0 121.5 -35t43.5 -99q0 -75 -56.5 -115t-144.5 -40q-97 0 -149.5 47.5t-61.5 123.5
l92 77q-33 8 -53 32t-20 59q0 58 60 89q-47 49 -47 121q0 75 49.5 123t124.5 48q64 0 110 -38q46 22 80 70zM268 213q53 0 86 35.5t33 90.5q0 56 -33 91.5t-86 35.5q-55 0 -89.5 -35.5t-34.5 -91.5q0 -54 35 -90t89 -36zM423 -56q0 49 -36 69.5t-81 20.5h-92l-98 -84
q26 -115 156 -115q64 0 107.5 27t43.5 82z" />
    <glyph glyph-name="uni0123.ss01" horiz-adv-x="517" 
d="M266 567q-23 0 -35 16t-12 41q0 81 80 130l18 -23q-50 -36 -61 -76q6 2 13 2q21 0 32 -14t11 -30q0 -20 -13 -33t-33 -13zM492 506q-33 -42 -85 -66q30 -43 30 -101q0 -77 -48 -123.5t-121 -46.5q-53 0 -93 23q-46 -21 -46 -59q0 -54 78 -54h101q78 0 121.5 -35t43.5 -99
q0 -75 -56.5 -115t-144.5 -40q-97 0 -149.5 47.5t-61.5 123.5l92 77q-33 8 -53 32t-20 59q0 58 60 89q-47 49 -47 121q0 75 49.5 123t124.5 48q64 0 110 -38q46 22 80 70zM268 213q53 0 86 35.5t33 90.5q0 56 -33 91.5t-86 35.5q-55 0 -89.5 -35.5t-34.5 -91.5q0 -54 35 -90
t89 -36zM423 -56q0 49 -36 69.5t-81 20.5h-92l-98 -84q26 -115 156 -115q64 0 107.5 27t43.5 82z" />
    <glyph glyph-name="hbar.ss01" 
d="M282 510q76 0 123.5 -47.5t47.5 -136.5v-326h-51v313q0 76 -35 113t-91 37q-61 0 -102 -41t-41 -122v-300h-51v582h-99v36h99v92h51v-92h112v-36h-112v-141h5q52 69 144 69z" />
    <glyph glyph-name="uni1E29.ss01" 
d="M282 510q76 0 123.5 -47.5t47.5 -136.5v-326h-51v313q0 76 -35 113t-91 37q-61 0 -102 -41t-41 -122v-300h-5l-34 -45q37 3 68 -19.5t31 -64.5q0 -37 -25 -59t-69 -22q-38 0 -64 18l14 27q26 -13 47 -13q28 0 44.5 14.5t16.5 37.5q0 53 -66 53q-16 0 -38 -10l-16 16
l50 67h-5v710h51v-269h5q52 69 144 69z" />
    <glyph glyph-name="hcircumflex.ss01" 
d="M37 768h-48l96 132h44l96 -132h-47l-70 96h-3zM282 510q76 0 123.5 -47.5t47.5 -136.5v-326h-51v313q0 76 -35 113t-91 37q-61 0 -102 -41t-41 -122v-300h-51v710h51v-269h5q52 69 144 69z" />
    <glyph glyph-name="iacute.ss01" horiz-adv-x="215" 
d="M149 700h43l-64 -145h-40zM82 0v500h51v-500h-51z" />
    <glyph glyph-name="ibreve.ss01" horiz-adv-x="215" 
d="M222 700q0 -47 -30 -85t-85 -38t-86 38.5t-31 84.5h42q0 -39 20.5 -63t54.5 -24t53.5 24t19.5 63h42zM82 0v500h51v-500h-51z" />
    <glyph glyph-name="uni01D0.ss01" horiz-adv-x="215" 
d="M177 700h48l-95 -132h-45l-96 132h48l69 -96h3zM82 0v500h51v-500h-51z" />
    <glyph glyph-name="icircumflex.ss01" horiz-adv-x="215" 
d="M37 568h-48l96 132h44l96 -132h-47l-70 96h-3zM82 0v500h51v-500h-51z" />
    <glyph glyph-name="igrave.ss01" horiz-adv-x="215" 
d="M66 700l61 -145h-40l-64 145h43zM82 0v500h51v-500h-51z" />
    <glyph glyph-name="imacron.ss01" horiz-adv-x="215" 
d="M-28 632h271v-37h-271v37zM82 0v500h51v-500h-51z" />
    </font>
</defs>
</svg>
